<?xml version="1.0" encoding="UTF-8" standalone="no"?>
<!DOCTYPE svg PUBLIC "-//W3C//DTD SVG 1.1//EN"
 "http://www.w3.org/Graphics/SVG/1.1/DTD/svg11.dtd">
<!-- Generated by graphviz version 12.2.1 (20241206.2353)
 -->
<!-- Title: detail::wide_string_input_adapter&lt; BaseInputAdapter, WideCharType &gt; Pages: 1 -->
<svg width="170pt" height="100pt"
 viewBox="0.00 0.00 169.75 100.00" xmlns="http://www.w3.org/2000/svg" xmlns:xlink="http://www.w3.org/1999/xlink">
<g id="graph0" class="graph" transform="scale(1 1) rotate(0) translate(4 96)">
<title>detail::wide_string_input_adapter&lt; BaseInputAdapter, WideCharType &gt;</title>
<!-- Node1 -->
<g id="Node000001" class="node">
<title>Node1</title>
<g id="a_Node000001"><a xlink:title=" ">
<polygon fill="#999999" stroke="none" points="161.75,-92 0,-92 0,0 161.75,0 161.75,-92"/>
<text text-anchor="start" x="4" y="-78.5" font-family="Helvetica,sans-Serif" font-size="10.00">detail::wide_string</text>
<text text-anchor="start" x="4" y="-66.5" font-family="Helvetica,sans-Serif" font-size="10.00">_input_adapter&lt; BaseInputAdapter,</text>
<text text-anchor="start" x="42.62" y="-54.5" font-family="Helvetica,sans-Serif" font-size="10.00"> WideCharType &gt;</text>
<text text-anchor="start" x="79.38" y="-38.5" font-family="Helvetica,sans-Serif" font-size="10.00"> </text>
<text text-anchor="start" x="10.12" y="-22.5" font-family="Helvetica,sans-Serif" font-size="10.00">+</text>
<text text-anchor="start" x="26.25" y="-22.5" font-family="Helvetica,sans-Serif" font-size="10.00">wide_string_input_adapter()</text>
<text text-anchor="start" x="10.12" y="-6.5" font-family="Helvetica,sans-Serif" font-size="10.00">+</text>
<text text-anchor="start" x="26.25" y="-6.5" font-family="Helvetica,sans-Serif" font-size="10.00">get_character()</text>
<polygon fill="#666666" stroke="#666666" points="0,-50 0,-50 161.75,-50 161.75,-50 0,-50"/>
<polygon fill="#666666" stroke="#666666" points="0,-34 0,-34 161.75,-34 161.75,-34 0,-34"/>
<polygon fill="none" stroke="#666666" points="0,0 0,-92 161.75,-92 161.75,0 0,0"/>
</a>
</g>
</g>
</g>
</svg>
