<?xml version="1.0" encoding="UTF-8" standalone="no"?>
<!DOCTYPE svg PUBLIC "-//W3C//DTD SVG 1.1//EN"
 "http://www.w3.org/Graphics/SVG/1.1/DTD/svg11.dtd">
<!-- Generated by graphviz version 12.2.1 (20241206.2353)
 -->
<!-- Title: detail::out_of_range Pages: 1 -->
<svg width="102pt" height="300pt"
 viewBox="0.00 0.00 101.50 300.00" xmlns="http://www.w3.org/2000/svg" xmlns:xlink="http://www.w3.org/1999/xlink">
<g id="graph0" class="graph" transform="scale(1 1) rotate(0) translate(4 296)">
<title>detail::out_of_range</title>
<!-- Node1 -->
<g id="Node000001" class="node">
<title>Node1</title>
<g id="a_Node000001"><a xlink:title="exception indicating access out of the defined range">
<polygon fill="#999999" stroke="none" points="93.5,-52 0,-52 0,0 93.5,0 93.5,-52"/>
<text text-anchor="start" x="4" y="-38.5" font-family="Helvetica,sans-Serif" font-size="10.00">detail::out_of_range</text>
<text text-anchor="start" x="45.25" y="-22.5" font-family="Helvetica,sans-Serif" font-size="10.00"> </text>
<text text-anchor="start" x="14.62" y="-6.5" font-family="Helvetica,sans-Serif" font-size="10.00">+</text>
<text text-anchor="start" x="35.25" y="-6.5" font-family="Helvetica,sans-Serif" font-size="10.00">create()</text>
<polygon fill="#666666" stroke="#666666" points="0,-34 0,-34 93.5,-34 93.5,-34 0,-34"/>
<polygon fill="#666666" stroke="#666666" points="0,-18 0,-18 93.5,-18 93.5,-18 0,-18"/>
<polygon fill="none" stroke="#666666" points="0,0 0,-52 93.5,-52 93.5,0 0,0"/>
</a>
</g>
</g>
<!-- Node2 -->
<g id="Node000002" class="node">
<title>Node2</title>
<g id="a_Node000002"><a xlink:href="classdetail_1_1exception.html" target="_top" xlink:title="general exception of the basic_json class">
<polygon fill="white" stroke="none" points="86.38,-204 7.12,-204 7.12,-88 86.38,-88 86.38,-204"/>
<text text-anchor="start" x="11.12" y="-190.5" font-family="Helvetica,sans-Serif" font-size="10.00">detail::exception</text>
<text text-anchor="start" x="12.56" y="-174.5" font-family="Helvetica,sans-Serif" font-size="10.00">+</text>
<text text-anchor="start" x="24" y="-174.5" font-family="Helvetica,sans-Serif" font-size="10.00">id</text>
<text text-anchor="start" x="12.56" y="-158.5" font-family="Helvetica,sans-Serif" font-size="10.00">+</text>
<text text-anchor="start" x="24" y="-158.5" font-family="Helvetica,sans-Serif" font-size="10.00">what()</text>
<text text-anchor="start" x="12.94" y="-142.5" font-family="Helvetica,sans-Serif" font-size="10.00">#</text>
<text text-anchor="start" x="24" y="-142.5" font-family="Helvetica,sans-Serif" font-size="10.00">exception()</text>
<text text-anchor="start" x="12.94" y="-126.5" font-family="Helvetica,sans-Serif" font-size="10.00">#</text>
<text text-anchor="start" x="24" y="-126.5" font-family="Helvetica,sans-Serif" font-size="10.00">name()</text>
<text text-anchor="start" x="12.94" y="-110.5" font-family="Helvetica,sans-Serif" font-size="10.00">#</text>
<text text-anchor="start" x="24" y="-110.5" font-family="Helvetica,sans-Serif" font-size="10.00">diagnostics()</text>
<text text-anchor="start" x="12.94" y="-94.5" font-family="Helvetica,sans-Serif" font-size="10.00">#</text>
<text text-anchor="start" x="24" y="-94.5" font-family="Helvetica,sans-Serif" font-size="10.00">diagnostics()</text>
<polygon fill="#666666" stroke="#666666" points="7.12,-186 7.12,-186 86.38,-186 86.38,-186 7.12,-186"/>
<polygon fill="#666666" stroke="#666666" points="7.12,-170 7.12,-170 22,-170 22,-170 7.12,-170"/>
<polygon fill="#666666" stroke="#666666" points="22,-170 22,-170 86.38,-170 86.38,-170 22,-170"/>
<polygon fill="none" stroke="#666666" points="7.12,-88 7.12,-204 86.38,-204 86.38,-88 7.12,-88"/>
</a>
</g>
</g>
<!-- Node2&#45;&gt;Node1 -->
<g id="edge1_Node000001_Node000002" class="edge">
<title>Node2&#45;&gt;Node1</title>
<g id="a_edge1_Node000001_Node000002"><a xlink:title=" ">
<path fill="none" stroke="#63b8ff" d="M46.75,-76.76C46.75,-67.91 46.75,-59.33 46.75,-51.87"/>
<polygon fill="none" stroke="#63b8ff" points="43.25,-76.56 46.75,-86.56 50.25,-76.56 43.25,-76.56"/>
</a>
</g>
</g>
<!-- Node3 -->
<g id="Node000003" class="node">
<title>Node3</title>
<g id="a_Node000003"><a xlink:title=" ">
<polygon fill="white" stroke="none" points="81.5,-292 12,-292 12,-240 81.5,-240 81.5,-292"/>
<text text-anchor="start" x="16" y="-278.5" font-family="Helvetica,sans-Serif" font-size="10.00">std::exception</text>
<text text-anchor="start" x="45.25" y="-262.5" font-family="Helvetica,sans-Serif" font-size="10.00"> </text>
<text text-anchor="start" x="45.25" y="-246.5" font-family="Helvetica,sans-Serif" font-size="10.00"> </text>
<polygon fill="#bfbfbf" stroke="#bfbfbf" points="12,-274 12,-274 81.5,-274 81.5,-274 12,-274"/>
<polygon fill="#bfbfbf" stroke="#bfbfbf" points="12,-258 12,-258 81.5,-258 81.5,-258 12,-258"/>
<polygon fill="none" stroke="#bfbfbf" points="12,-240 12,-292 81.5,-292 81.5,-240 12,-240"/>
</a>
</g>
</g>
<!-- Node3&#45;&gt;Node2 -->
<g id="edge2_Node000002_Node000003" class="edge">
<title>Node3&#45;&gt;Node2</title>
<g id="a_edge2_Node000002_Node000003"><a xlink:title=" ">
<path fill="none" stroke="#63b8ff" d="M46.75,-228.82C46.75,-220.89 46.75,-212.31 46.75,-203.79"/>
<polygon fill="none" stroke="#63b8ff" points="43.25,-228.75 46.75,-238.75 50.25,-228.75 43.25,-228.75"/>
</a>
</g>
</g>
</g>
</svg>
