<?xml version="1.0" encoding="UTF-8" standalone="no"?>
<!DOCTYPE svg PUBLIC "-//W3C//DTD SVG 1.1//EN"
 "http://www.w3.org/Graphics/SVG/1.1/DTD/svg11.dtd">
<!-- Generated by graphviz version 12.2.1 (20241206.2353)
 -->
<!-- Title: std::tuple_size&lt;::nlohmann::detail::iteration_proxy_value&lt; IteratorType &gt; &gt; Pages: 1 -->
<svg width="134pt" height="184pt"
 viewBox="0.00 0.00 133.75 184.00" xmlns="http://www.w3.org/2000/svg" xmlns:xlink="http://www.w3.org/1999/xlink">
<g id="graph0" class="graph" transform="scale(1 1) rotate(0) translate(4 180)">
<title>std::tuple_size&lt;::nlohmann::detail::iteration_proxy_value&lt; IteratorType &gt; &gt;</title>
<!-- Node1 -->
<g id="Node000001" class="node">
<title>Node1</title>
<g id="a_Node000001"><a xlink:title=" ">
<polygon fill="#999999" stroke="none" points="125.75,-76 0,-76 0,0 125.75,0 125.75,-76"/>
<text text-anchor="start" x="4" y="-62.5" font-family="Helvetica,sans-Serif" font-size="10.00">std::tuple_size&lt;::nlohmann</text>
<text text-anchor="start" x="4" y="-50.5" font-family="Helvetica,sans-Serif" font-size="10.00">::detail::iteration_proxy</text>
<text text-anchor="start" x="9.25" y="-38.5" font-family="Helvetica,sans-Serif" font-size="10.00">_value&lt; IteratorType &gt; &gt;</text>
<text text-anchor="start" x="61.38" y="-22.5" font-family="Helvetica,sans-Serif" font-size="10.00"> </text>
<text text-anchor="start" x="61.38" y="-6.5" font-family="Helvetica,sans-Serif" font-size="10.00"> </text>
<polygon fill="#666666" stroke="#666666" points="0,-34 0,-34 125.75,-34 125.75,-34 0,-34"/>
<polygon fill="#666666" stroke="#666666" points="0,-18 0,-18 125.75,-18 125.75,-18 0,-18"/>
<polygon fill="none" stroke="#666666" points="0,0 0,-76 125.75,-76 125.75,0 0,0"/>
</a>
</g>
</g>
<!-- Node2 -->
<g id="Node000002" class="node">
<title>Node2</title>
<g id="a_Node000002"><a xlink:title=" ">
<polygon fill="white" stroke="none" points="113.75,-176 12,-176 12,-112 113.75,-112 113.75,-176"/>
<text text-anchor="start" x="16" y="-162.5" font-family="Helvetica,sans-Serif" font-size="10.00">std::integral_constant</text>
<text text-anchor="start" x="25.38" y="-150.5" font-family="Helvetica,sans-Serif" font-size="10.00">&lt; std::size_t, 2 &gt;</text>
<text text-anchor="start" x="61.38" y="-134.5" font-family="Helvetica,sans-Serif" font-size="10.00"> </text>
<text text-anchor="start" x="61.38" y="-118.5" font-family="Helvetica,sans-Serif" font-size="10.00"> </text>
<polygon fill="#bfbfbf" stroke="#bfbfbf" points="12,-146 12,-146 113.75,-146 113.75,-146 12,-146"/>
<polygon fill="#bfbfbf" stroke="#bfbfbf" points="12,-130 12,-130 113.75,-130 113.75,-130 12,-130"/>
<polygon fill="none" stroke="#bfbfbf" points="12,-112 12,-176 113.75,-176 113.75,-112 12,-112"/>
</a>
</g>
</g>
<!-- Node2&#45;&gt;Node1 -->
<g id="edge1_Node000001_Node000002" class="edge">
<title>Node2&#45;&gt;Node1</title>
<g id="a_edge1_Node000001_Node000002"><a xlink:title=" ">
<path fill="none" stroke="#63b8ff" d="M62.88,-100.74C62.88,-92.49 62.88,-83.91 62.88,-75.86"/>
<polygon fill="none" stroke="#63b8ff" points="59.38,-100.56 62.88,-110.56 66.38,-100.56 59.38,-100.56"/>
</a>
</g>
</g>
</g>
</svg>
