<?xml version="1.0" encoding="UTF-8" standalone="no"?>
<!DOCTYPE svg PUBLIC "-//W3C//DTD SVG 1.1//EN"
 "http://www.w3.org/Graphics/SVG/1.1/DTD/svg11.dtd">
<!-- Generated by graphviz version 12.2.1 (20241206.2353)
 -->
<!-- Title: detail::output_vector_adapter&lt; CharType, AllocatorType &gt; Pages: 1 -->
<svg width="148pt" height="328pt"
 viewBox="0.00 0.00 148.00 328.00" xmlns="http://www.w3.org/2000/svg" xmlns:xlink="http://www.w3.org/1999/xlink">
<g id="graph0" class="graph" transform="scale(1 1) rotate(0) translate(4 324)">
<title>detail::output_vector_adapter&lt; CharType, AllocatorType &gt;</title>
<!-- Node1 -->
<g id="Node000001" class="node">
<title>Node1</title>
<g id="a_Node000001"><a xlink:title="output adapter for byte vectors">
<polygon fill="#999999" stroke="none" points="140,-108 0,-108 0,0 140,0 140,-108"/>
<text text-anchor="start" x="4" y="-94.5" font-family="Helvetica,sans-Serif" font-size="10.00">detail::output_vector</text>
<text text-anchor="start" x="4" y="-82.5" font-family="Helvetica,sans-Serif" font-size="10.00">_adapter&lt; CharType, Allocator</text>
<text text-anchor="start" x="55" y="-70.5" font-family="Helvetica,sans-Serif" font-size="10.00">Type &gt;</text>
<text text-anchor="start" x="68.5" y="-54.5" font-family="Helvetica,sans-Serif" font-size="10.00"> </text>
<text text-anchor="start" x="8.81" y="-38.5" font-family="Helvetica,sans-Serif" font-size="10.00">+</text>
<text text-anchor="start" x="23.62" y="-38.5" font-family="Helvetica,sans-Serif" font-size="10.00">output_vector_adapter()</text>
<text text-anchor="start" x="8.81" y="-22.5" font-family="Helvetica,sans-Serif" font-size="10.00">+</text>
<text text-anchor="start" x="23.62" y="-22.5" font-family="Helvetica,sans-Serif" font-size="10.00">write_character()</text>
<text text-anchor="start" x="8.81" y="-6.5" font-family="Helvetica,sans-Serif" font-size="10.00">+</text>
<text text-anchor="start" x="23.62" y="-6.5" font-family="Helvetica,sans-Serif" font-size="10.00">write_characters()</text>
<polygon fill="#666666" stroke="#666666" points="0,-66 0,-66 140,-66 140,-66 0,-66"/>
<polygon fill="#666666" stroke="#666666" points="0,-50 0,-50 140,-50 140,-50 0,-50"/>
<polygon fill="none" stroke="#666666" points="0,0 0,-108 140,-108 140,0 0,0"/>
</a>
</g>
</g>
<!-- Node2 -->
<g id="Node000002" class="node">
<title>Node2</title>
<g id="a_Node000002"><a xlink:href="structdetail_1_1output__adapter__protocol.html" target="_top" xlink:title="abstract output adapter interface">
<polygon fill="white" stroke="none" points="137.12,-320 2.88,-320 2.88,-144 137.12,-144 137.12,-320"/>
<text text-anchor="start" x="20.12" y="-306.5" font-family="Helvetica,sans-Serif" font-size="10.00">detail::output_adapter</text>
<text text-anchor="start" x="20.12" y="-294.5" font-family="Helvetica,sans-Serif" font-size="10.00">_protocol&lt; CharType &gt;</text>
<text text-anchor="start" x="68.5" y="-278.5" font-family="Helvetica,sans-Serif" font-size="10.00"> </text>
<text text-anchor="start" x="6.88" y="-262.5" font-family="Helvetica,sans-Serif" font-size="10.00">+</text>
<text text-anchor="start" x="16.88" y="-262.5" font-family="Helvetica,sans-Serif" font-size="10.00">write_character()</text>
<text text-anchor="start" x="6.88" y="-246.5" font-family="Helvetica,sans-Serif" font-size="10.00">+</text>
<text text-anchor="start" x="16.88" y="-246.5" font-family="Helvetica,sans-Serif" font-size="10.00">write_characters()</text>
<text text-anchor="start" x="6.88" y="-230.5" font-family="Helvetica,sans-Serif" font-size="10.00">+</text>
<text text-anchor="start" x="16.88" y="-230.5" font-family="Helvetica,sans-Serif" font-size="10.00">~output_adapter_protocol()</text>
<text text-anchor="start" x="6.88" y="-214.5" font-family="Helvetica,sans-Serif" font-size="10.00">+</text>
<text text-anchor="start" x="16.88" y="-214.5" font-family="Helvetica,sans-Serif" font-size="10.00">output_adapter_protocol()</text>
<text text-anchor="start" x="6.88" y="-198.5" font-family="Helvetica,sans-Serif" font-size="10.00">+</text>
<text text-anchor="start" x="16.88" y="-198.5" font-family="Helvetica,sans-Serif" font-size="10.00">output_adapter_protocol()</text>
<text text-anchor="start" x="6.88" y="-182.5" font-family="Helvetica,sans-Serif" font-size="10.00">+</text>
<text text-anchor="start" x="16.88" y="-182.5" font-family="Helvetica,sans-Serif" font-size="10.00">output_adapter_protocol()</text>
<text text-anchor="start" x="6.88" y="-166.5" font-family="Helvetica,sans-Serif" font-size="10.00">+</text>
<text text-anchor="start" x="16.88" y="-166.5" font-family="Helvetica,sans-Serif" font-size="10.00">operator=()</text>
<text text-anchor="start" x="6.88" y="-150.5" font-family="Helvetica,sans-Serif" font-size="10.00">+</text>
<text text-anchor="start" x="16.88" y="-150.5" font-family="Helvetica,sans-Serif" font-size="10.00">operator=()</text>
<polygon fill="#666666" stroke="#666666" points="2.88,-290 2.88,-290 137.12,-290 137.12,-290 2.88,-290"/>
<polygon fill="#666666" stroke="#666666" points="2.88,-274 2.88,-274 137.12,-274 137.12,-274 2.88,-274"/>
<polygon fill="none" stroke="#666666" points="2.88,-144 2.88,-320 137.12,-320 137.12,-144 2.88,-144"/>
</a>
</g>
</g>
<!-- Node2&#45;&gt;Node1 -->
<g id="edge1_Node000001_Node000002" class="edge">
<title>Node2&#45;&gt;Node1</title>
<g id="a_edge1_Node000001_Node000002"><a xlink:title=" ">
<path fill="none" stroke="#63b8ff" d="M70,-132.65C70,-124.03 70,-115.55 70,-107.54"/>
<polygon fill="none" stroke="#63b8ff" points="66.5,-132.52 70,-142.52 73.5,-132.52 66.5,-132.52"/>
</a>
</g>
</g>
</g>
</svg>
