<?xml version="1.0" encoding="UTF-8" standalone="no"?>
<!DOCTYPE svg PUBLIC "-//W3C//DTD SVG 1.1//EN"
 "http://www.w3.org/Graphics/SVG/1.1/DTD/svg11.dtd">
<!-- Generated by graphviz version 12.2.1 (20241206.2353)
 -->
<!-- Title: UiAddExpenseWindow Pages: 1 -->
<svg width="139pt" height="164pt"
 viewBox="0.00 0.00 138.50 164.00" xmlns="http://www.w3.org/2000/svg" xmlns:xlink="http://www.w3.org/1999/xlink">
<g id="graph0" class="graph" transform="scale(1 1) rotate(0) translate(4 160)">
<title>UiAddExpenseWindow</title>
<!-- Node1 -->
<g id="Node000001" class="node">
<title>Node1</title>
<g id="a_Node000001"><a xlink:title=" ">
<polygon fill="#999999" stroke="none" points="130.5,-68 0,-68 0,0 130.5,0 130.5,-68"/>
<text text-anchor="start" x="15" y="-54.5" font-family="Helvetica,sans-Serif" font-size="10.00">UiAddExpenseWindow</text>
<text text-anchor="start" x="63.75" y="-38.5" font-family="Helvetica,sans-Serif" font-size="10.00"> </text>
<text text-anchor="start" x="4" y="-22.5" font-family="Helvetica,sans-Serif" font-size="10.00">+</text>
<text text-anchor="start" x="14" y="-22.5" font-family="Helvetica,sans-Serif" font-size="10.00">UiAddExpenseWindow()</text>
<text text-anchor="start" x="4" y="-6.5" font-family="Helvetica,sans-Serif" font-size="10.00">+</text>
<text text-anchor="start" x="14" y="-6.5" font-family="Helvetica,sans-Serif" font-size="10.00">~UiAddExpenseWindow()</text>
<polygon fill="#666666" stroke="#666666" points="0,-50 0,-50 130.5,-50 130.5,-50 0,-50"/>
<polygon fill="#666666" stroke="#666666" points="0,-34 0,-34 130.5,-34 130.5,-34 0,-34"/>
<polygon fill="none" stroke="#666666" points="0,0 0,-68 130.5,-68 130.5,0 0,0"/>
</a>
</g>
</g>
<!-- Node2 -->
<g id="Node000002" class="node">
<title>Node2</title>
<g id="a_Node000002"><a xlink:title=" ">
<polygon fill="white" stroke="none" points="93.62,-156 36.88,-156 36.88,-104 93.62,-104 93.62,-156"/>
<text text-anchor="start" x="40.88" y="-142.5" font-family="Helvetica,sans-Serif" font-size="10.00">Fl_Window</text>
<text text-anchor="start" x="63.75" y="-126.5" font-family="Helvetica,sans-Serif" font-size="10.00"> </text>
<text text-anchor="start" x="63.75" y="-110.5" font-family="Helvetica,sans-Serif" font-size="10.00"> </text>
<polygon fill="#bfbfbf" stroke="#bfbfbf" points="36.88,-138 36.88,-138 93.62,-138 93.62,-138 36.88,-138"/>
<polygon fill="#bfbfbf" stroke="#bfbfbf" points="36.88,-122 36.88,-122 93.62,-122 93.62,-122 36.88,-122"/>
<polygon fill="none" stroke="#bfbfbf" points="36.88,-104 36.88,-156 93.62,-156 93.62,-104 36.88,-104"/>
</a>
</g>
</g>
<!-- Node2&#45;&gt;Node1 -->
<g id="edge1_Node000001_Node000002" class="edge">
<title>Node2&#45;&gt;Node1</title>
<g id="a_edge1_Node000001_Node000002"><a xlink:title=" ">
<path fill="none" stroke="#63b8ff" d="M65.25,-92.97C65.25,-84.65 65.25,-75.84 65.25,-67.67"/>
<polygon fill="none" stroke="#63b8ff" points="61.75,-92.79 65.25,-102.79 68.75,-92.79 61.75,-92.79"/>
</a>
</g>
</g>
</g>
</svg>
