<?xml version="1.0" encoding="UTF-8" standalone="no"?>
<!DOCTYPE svg PUBLIC "-//W3C//DTD SVG 1.1//EN"
 "http://www.w3.org/Graphics/SVG/1.1/DTD/svg11.dtd">
<!-- Generated by graphviz version 12.2.1 (20241206.2353)
 -->
<!-- Title: detail::iterator_input_adapter&lt; IteratorType &gt; Pages: 1 -->
<svg width="126pt" height="88pt"
 viewBox="0.00 0.00 125.75 88.00" xmlns="http://www.w3.org/2000/svg" xmlns:xlink="http://www.w3.org/1999/xlink">
<g id="graph0" class="graph" transform="scale(1 1) rotate(0) translate(4 84)">
<title>detail::iterator_input_adapter&lt; IteratorType &gt;</title>
<!-- Node1 -->
<g id="Node000001" class="node">
<title>Node1</title>
<g id="a_Node000001"><a xlink:title=" ">
<polygon fill="#999999" stroke="none" points="117.75,-80 0,-80 0,0 117.75,0 117.75,-80"/>
<text text-anchor="start" x="5.25" y="-66.5" font-family="Helvetica,sans-Serif" font-size="10.00">detail::iterator_input</text>
<text text-anchor="start" x="5.25" y="-54.5" font-family="Helvetica,sans-Serif" font-size="10.00">_adapter&lt; IteratorType &gt;</text>
<text text-anchor="start" x="57.38" y="-38.5" font-family="Helvetica,sans-Serif" font-size="10.00"> </text>
<text text-anchor="start" x="4" y="-22.5" font-family="Helvetica,sans-Serif" font-size="10.00">+</text>
<text text-anchor="start" x="14" y="-22.5" font-family="Helvetica,sans-Serif" font-size="10.00">iterator_input_adapter()</text>
<text text-anchor="start" x="4" y="-6.5" font-family="Helvetica,sans-Serif" font-size="10.00">+</text>
<text text-anchor="start" x="14" y="-6.5" font-family="Helvetica,sans-Serif" font-size="10.00">get_character()</text>
<polygon fill="#666666" stroke="#666666" points="0,-50 0,-50 117.75,-50 117.75,-50 0,-50"/>
<polygon fill="#666666" stroke="#666666" points="0,-34 0,-34 117.75,-34 117.75,-34 0,-34"/>
<polygon fill="none" stroke="#666666" points="0,0 0,-80 117.75,-80 117.75,0 0,0"/>
</a>
</g>
</g>
</g>
</svg>
