<?xml version="1.0" encoding="UTF-8" standalone="no"?>
<!DOCTYPE svg PUBLIC "-//W3C//DTD SVG 1.1//EN"
 "http://www.w3.org/Graphics/SVG/1.1/DTD/svg11.dtd">
<!-- Generated by graphviz version 12.2.1 (20241206.2353)
 -->
<!-- Title: Expense Pages: 1 -->
<svg width="142pt" height="292pt"
 viewBox="0.00 0.00 142.25 292.00" xmlns="http://www.w3.org/2000/svg" xmlns:xlink="http://www.w3.org/1999/xlink">
<g id="graph0" class="graph" transform="scale(1 1) rotate(0) translate(4 288)">
<title>Expense</title>
<!-- Node1 -->
<g id="Node000001" class="node">
<title>Node1</title>
<g id="a_Node000001"><a xlink:title=" ">
<polygon fill="#999999" stroke="none" points="120.38,-284 13.88,-284 13.88,-104 120.38,-104 120.38,-284"/>
<text text-anchor="start" x="48" y="-270.5" font-family="Helvetica,sans-Serif" font-size="10.00">Expense</text>
<text text-anchor="start" x="65.62" y="-254.5" font-family="Helvetica,sans-Serif" font-size="10.00"> </text>
<text text-anchor="start" x="17.88" y="-238.5" font-family="Helvetica,sans-Serif" font-size="10.00">+</text>
<text text-anchor="start" x="27.88" y="-238.5" font-family="Helvetica,sans-Serif" font-size="10.00">Expense()</text>
<text text-anchor="start" x="17.88" y="-222.5" font-family="Helvetica,sans-Serif" font-size="10.00">+</text>
<text text-anchor="start" x="27.88" y="-222.5" font-family="Helvetica,sans-Serif" font-size="10.00">setExpenseDetails()</text>
<text text-anchor="start" x="17.88" y="-206.5" font-family="Helvetica,sans-Serif" font-size="10.00">+</text>
<text text-anchor="start" x="27.88" y="-206.5" font-family="Helvetica,sans-Serif" font-size="10.00">getExpenseDetails()</text>
<text text-anchor="start" x="17.88" y="-190.5" font-family="Helvetica,sans-Serif" font-size="10.00">+</text>
<text text-anchor="start" x="27.88" y="-190.5" font-family="Helvetica,sans-Serif" font-size="10.00">getAmount()</text>
<text text-anchor="start" x="17.88" y="-174.5" font-family="Helvetica,sans-Serif" font-size="10.00">+</text>
<text text-anchor="start" x="27.88" y="-174.5" font-family="Helvetica,sans-Serif" font-size="10.00">getId()</text>
<text text-anchor="start" x="17.88" y="-158.5" font-family="Helvetica,sans-Serif" font-size="10.00">+</text>
<text text-anchor="start" x="27.88" y="-158.5" font-family="Helvetica,sans-Serif" font-size="10.00">getDate()</text>
<text text-anchor="start" x="17.88" y="-142.5" font-family="Helvetica,sans-Serif" font-size="10.00">+</text>
<text text-anchor="start" x="27.88" y="-142.5" font-family="Helvetica,sans-Serif" font-size="10.00">getCategory()</text>
<text text-anchor="start" x="17.88" y="-126.5" font-family="Helvetica,sans-Serif" font-size="10.00">+</text>
<text text-anchor="start" x="27.88" y="-126.5" font-family="Helvetica,sans-Serif" font-size="10.00">getDescription()</text>
<text text-anchor="start" x="17.88" y="-110.5" font-family="Helvetica,sans-Serif" font-size="10.00">+</text>
<text text-anchor="start" x="27.88" y="-110.5" font-family="Helvetica,sans-Serif" font-size="10.00">operator==()</text>
<polygon fill="#666666" stroke="#666666" points="13.88,-266 13.88,-266 120.38,-266 120.38,-266 13.88,-266"/>
<polygon fill="#666666" stroke="#666666" points="13.88,-250 13.88,-250 120.38,-250 120.38,-250 13.88,-250"/>
<polygon fill="none" stroke="#666666" points="13.88,-104 13.88,-284 120.38,-284 120.38,-104 13.88,-104"/>
</a>
</g>
</g>
<!-- Node2 -->
<g id="Node000002" class="node">
<title>Node2</title>
<g id="a_Node000002"><a xlink:href="class_repeated_expense.html" target="_top" xlink:title=" ">
<polygon fill="white" stroke="none" points="134.25,-68 0,-68 0,0 134.25,0 134.25,-68"/>
<text text-anchor="start" x="27" y="-54.5" font-family="Helvetica,sans-Serif" font-size="10.00">RepeatedExpense</text>
<text text-anchor="start" x="65.62" y="-38.5" font-family="Helvetica,sans-Serif" font-size="10.00"> </text>
<text text-anchor="start" x="4" y="-22.5" font-family="Helvetica,sans-Serif" font-size="10.00">+</text>
<text text-anchor="start" x="14" y="-22.5" font-family="Helvetica,sans-Serif" font-size="10.00">RepeatedExpense()</text>
<text text-anchor="start" x="4" y="-6.5" font-family="Helvetica,sans-Serif" font-size="10.00">+</text>
<text text-anchor="start" x="14" y="-6.5" font-family="Helvetica,sans-Serif" font-size="10.00">calculateNextOccurrence()</text>
<polygon fill="#bfbfbf" stroke="#bfbfbf" points="0,-50 0,-50 134.25,-50 134.25,-50 0,-50"/>
<polygon fill="#bfbfbf" stroke="#bfbfbf" points="0,-34 0,-34 134.25,-34 134.25,-34 0,-34"/>
<polygon fill="none" stroke="#bfbfbf" points="0,0 0,-68 134.25,-68 134.25,0 0,0"/>
</a>
</g>
</g>
<!-- Node1&#45;&gt;Node2 -->
<g id="edge1_Node000001_Node000002" class="edge">
<title>Node1&#45;&gt;Node2</title>
<g id="a_edge1_Node000001_Node000002"><a xlink:title=" ">
<path fill="none" stroke="#63b8ff" d="M67.12,-92.9C67.12,-84.04 67.12,-75.56 67.12,-67.95"/>
<polygon fill="none" stroke="#63b8ff" points="63.63,-92.79 67.13,-102.79 70.63,-92.79 63.63,-92.79"/>
</a>
</g>
</g>
</g>
</svg>
