<?xml version="1.0" encoding="UTF-8" standalone="no"?>
<!DOCTYPE svg PUBLIC "-//W3C//DTD SVG 1.1//EN"
 "http://www.w3.org/Graphics/SVG/1.1/DTD/svg11.dtd">
<!-- Generated by graphviz version 12.2.1 (20241206.2353)
 -->
<!-- Title: detail::other_error Pages: 1 -->
<svg width="92pt" height="300pt"
 viewBox="0.00 0.00 91.75 300.00" xmlns="http://www.w3.org/2000/svg" xmlns:xlink="http://www.w3.org/1999/xlink">
<g id="graph0" class="graph" transform="scale(1 1) rotate(0) translate(4 296)">
<title>detail::other_error</title>
<!-- Node1 -->
<g id="Node000001" class="node">
<title>Node1</title>
<g id="a_Node000001"><a xlink:title="exception indicating other library errors">
<polygon fill="#999999" stroke="none" points="83.75,-52 0,-52 0,0 83.75,0 83.75,-52"/>
<text text-anchor="start" x="4" y="-38.5" font-family="Helvetica,sans-Serif" font-size="10.00">detail::other_error</text>
<text text-anchor="start" x="40.38" y="-22.5" font-family="Helvetica,sans-Serif" font-size="10.00"> </text>
<text text-anchor="start" x="12.19" y="-6.5" font-family="Helvetica,sans-Serif" font-size="10.00">+</text>
<text text-anchor="start" x="30.38" y="-6.5" font-family="Helvetica,sans-Serif" font-size="10.00">create()</text>
<polygon fill="#666666" stroke="#666666" points="0,-34 0,-34 83.75,-34 83.75,-34 0,-34"/>
<polygon fill="#666666" stroke="#666666" points="0,-18 0,-18 83.75,-18 83.75,-18 0,-18"/>
<polygon fill="none" stroke="#666666" points="0,0 0,-52 83.75,-52 83.75,0 0,0"/>
</a>
</g>
</g>
<!-- Node2 -->
<g id="Node000002" class="node">
<title>Node2</title>
<g id="a_Node000002"><a xlink:href="classdetail_1_1exception.html" target="_top" xlink:title="general exception of the basic_json class">
<polygon fill="white" stroke="none" points="81.5,-204 2.25,-204 2.25,-88 81.5,-88 81.5,-204"/>
<text text-anchor="start" x="6.25" y="-190.5" font-family="Helvetica,sans-Serif" font-size="10.00">detail::exception</text>
<text text-anchor="start" x="7.69" y="-174.5" font-family="Helvetica,sans-Serif" font-size="10.00">+</text>
<text text-anchor="start" x="19.12" y="-174.5" font-family="Helvetica,sans-Serif" font-size="10.00">id</text>
<text text-anchor="start" x="7.69" y="-158.5" font-family="Helvetica,sans-Serif" font-size="10.00">+</text>
<text text-anchor="start" x="19.12" y="-158.5" font-family="Helvetica,sans-Serif" font-size="10.00">what()</text>
<text text-anchor="start" x="8.06" y="-142.5" font-family="Helvetica,sans-Serif" font-size="10.00">#</text>
<text text-anchor="start" x="19.12" y="-142.5" font-family="Helvetica,sans-Serif" font-size="10.00">exception()</text>
<text text-anchor="start" x="8.06" y="-126.5" font-family="Helvetica,sans-Serif" font-size="10.00">#</text>
<text text-anchor="start" x="19.12" y="-126.5" font-family="Helvetica,sans-Serif" font-size="10.00">name()</text>
<text text-anchor="start" x="8.06" y="-110.5" font-family="Helvetica,sans-Serif" font-size="10.00">#</text>
<text text-anchor="start" x="19.12" y="-110.5" font-family="Helvetica,sans-Serif" font-size="10.00">diagnostics()</text>
<text text-anchor="start" x="8.06" y="-94.5" font-family="Helvetica,sans-Serif" font-size="10.00">#</text>
<text text-anchor="start" x="19.12" y="-94.5" font-family="Helvetica,sans-Serif" font-size="10.00">diagnostics()</text>
<polygon fill="#666666" stroke="#666666" points="2.25,-186 2.25,-186 81.5,-186 81.5,-186 2.25,-186"/>
<polygon fill="#666666" stroke="#666666" points="2.25,-170 2.25,-170 17.12,-170 17.12,-170 2.25,-170"/>
<polygon fill="#666666" stroke="#666666" points="17.12,-170 17.12,-170 81.5,-170 81.5,-170 17.12,-170"/>
<polygon fill="none" stroke="#666666" points="2.25,-88 2.25,-204 81.5,-204 81.5,-88 2.25,-88"/>
</a>
</g>
</g>
<!-- Node2&#45;&gt;Node1 -->
<g id="edge1_Node000001_Node000002" class="edge">
<title>Node2&#45;&gt;Node1</title>
<g id="a_edge1_Node000001_Node000002"><a xlink:title=" ">
<path fill="none" stroke="#63b8ff" d="M41.88,-76.76C41.88,-67.91 41.88,-59.33 41.88,-51.87"/>
<polygon fill="none" stroke="#63b8ff" points="38.38,-76.56 41.88,-86.56 45.38,-76.56 38.38,-76.56"/>
</a>
</g>
</g>
<!-- Node3 -->
<g id="Node000003" class="node">
<title>Node3</title>
<g id="a_Node000003"><a xlink:title=" ">
<polygon fill="white" stroke="none" points="76.62,-292 7.12,-292 7.12,-240 76.62,-240 76.62,-292"/>
<text text-anchor="start" x="11.12" y="-278.5" font-family="Helvetica,sans-Serif" font-size="10.00">std::exception</text>
<text text-anchor="start" x="40.38" y="-262.5" font-family="Helvetica,sans-Serif" font-size="10.00"> </text>
<text text-anchor="start" x="40.38" y="-246.5" font-family="Helvetica,sans-Serif" font-size="10.00"> </text>
<polygon fill="#bfbfbf" stroke="#bfbfbf" points="7.12,-274 7.12,-274 76.62,-274 76.62,-274 7.12,-274"/>
<polygon fill="#bfbfbf" stroke="#bfbfbf" points="7.12,-258 7.12,-258 76.62,-258 76.62,-258 7.12,-258"/>
<polygon fill="none" stroke="#bfbfbf" points="7.12,-240 7.12,-292 76.62,-292 76.62,-240 7.12,-240"/>
</a>
</g>
</g>
<!-- Node3&#45;&gt;Node2 -->
<g id="edge2_Node000002_Node000003" class="edge">
<title>Node3&#45;&gt;Node2</title>
<g id="a_edge2_Node000002_Node000003"><a xlink:title=" ">
<path fill="none" stroke="#63b8ff" d="M41.88,-228.82C41.88,-220.89 41.88,-212.31 41.88,-203.79"/>
<polygon fill="none" stroke="#63b8ff" points="38.38,-228.75 41.88,-238.75 45.38,-228.75 38.38,-228.75"/>
</a>
</g>
</g>
</g>
</svg>
