<?xml version="1.0" encoding="UTF-8" standalone="no"?>
<!DOCTYPE svg PUBLIC "-//W3C//DTD SVG 1.1//EN"
 "http://www.w3.org/Graphics/SVG/1.1/DTD/svg11.dtd">
<!-- Generated by graphviz version 12.2.1 (20241206.2353)
 -->
<!-- Title: UiRegisterWindow Pages: 1 -->
<svg width="120pt" height="164pt"
 viewBox="0.00 0.00 119.75 164.00" xmlns="http://www.w3.org/2000/svg" xmlns:xlink="http://www.w3.org/1999/xlink">
<g id="graph0" class="graph" transform="scale(1 1) rotate(0) translate(4 160)">
<title>UiRegisterWindow</title>
<!-- Node1 -->
<g id="Node000001" class="node">
<title>Node1</title>
<g id="a_Node000001"><a xlink:title=" ">
<polygon fill="#999999" stroke="none" points="111.75,-68 0,-68 0,0 111.75,0 111.75,-68"/>
<text text-anchor="start" x="15" y="-54.5" font-family="Helvetica,sans-Serif" font-size="10.00">UiRegisterWindow</text>
<text text-anchor="start" x="54.38" y="-38.5" font-family="Helvetica,sans-Serif" font-size="10.00"> </text>
<text text-anchor="start" x="4" y="-22.5" font-family="Helvetica,sans-Serif" font-size="10.00">+</text>
<text text-anchor="start" x="14" y="-22.5" font-family="Helvetica,sans-Serif" font-size="10.00">UiRegisterWindow()</text>
<text text-anchor="start" x="4" y="-6.5" font-family="Helvetica,sans-Serif" font-size="10.00">+</text>
<text text-anchor="start" x="14" y="-6.5" font-family="Helvetica,sans-Serif" font-size="10.00">~UiRegisterWindow()</text>
<polygon fill="#666666" stroke="#666666" points="0,-50 0,-50 111.75,-50 111.75,-50 0,-50"/>
<polygon fill="#666666" stroke="#666666" points="0,-34 0,-34 111.75,-34 111.75,-34 0,-34"/>
<polygon fill="none" stroke="#666666" points="0,0 0,-68 111.75,-68 111.75,0 0,0"/>
</a>
</g>
</g>
<!-- Node2 -->
<g id="Node000002" class="node">
<title>Node2</title>
<g id="a_Node000002"><a xlink:title=" ">
<polygon fill="white" stroke="none" points="84.25,-156 27.5,-156 27.5,-104 84.25,-104 84.25,-156"/>
<text text-anchor="start" x="31.5" y="-142.5" font-family="Helvetica,sans-Serif" font-size="10.00">Fl_Window</text>
<text text-anchor="start" x="54.38" y="-126.5" font-family="Helvetica,sans-Serif" font-size="10.00"> </text>
<text text-anchor="start" x="54.38" y="-110.5" font-family="Helvetica,sans-Serif" font-size="10.00"> </text>
<polygon fill="#bfbfbf" stroke="#bfbfbf" points="27.5,-138 27.5,-138 84.25,-138 84.25,-138 27.5,-138"/>
<polygon fill="#bfbfbf" stroke="#bfbfbf" points="27.5,-122 27.5,-122 84.25,-122 84.25,-122 27.5,-122"/>
<polygon fill="none" stroke="#bfbfbf" points="27.5,-104 27.5,-156 84.25,-156 84.25,-104 27.5,-104"/>
</a>
</g>
</g>
<!-- Node2&#45;&gt;Node1 -->
<g id="edge1_Node000001_Node000002" class="edge">
<title>Node2&#45;&gt;Node1</title>
<g id="a_edge1_Node000001_Node000002"><a xlink:title=" ">
<path fill="none" stroke="#63b8ff" d="M55.88,-92.97C55.88,-84.65 55.88,-75.84 55.88,-67.67"/>
<polygon fill="none" stroke="#63b8ff" points="52.38,-92.79 55.88,-102.79 59.38,-92.79 52.38,-92.79"/>
</a>
</g>
</g>
</g>
</svg>
