<?xml version="1.0" encoding="UTF-8" standalone="no"?>
<!DOCTYPE svg PUBLIC "-//W3C//DTD SVG 1.1//EN"
 "http://www.w3.org/Graphics/SVG/1.1/DTD/svg11.dtd">
<!-- Generated by graphviz version 12.2.1 (20241206.2353)
 -->
<!-- Title: detail::output_stream_adapter&lt; CharType &gt; Pages: 1 -->
<svg width="142pt" height="316pt"
 viewBox="0.00 0.00 142.25 316.00" xmlns="http://www.w3.org/2000/svg" xmlns:xlink="http://www.w3.org/1999/xlink">
<g id="graph0" class="graph" transform="scale(1 1) rotate(0) translate(4 312)">
<title>detail::output_stream_adapter&lt; CharType &gt;</title>
<!-- Node1 -->
<g id="Node000001" class="node">
<title>Node1</title>
<g id="a_Node000001"><a xlink:title="output adapter for output streams">
<polygon fill="#999999" stroke="none" points="129,-96 5.25,-96 5.25,0 129,0 129,-96"/>
<text text-anchor="start" x="18.38" y="-82.5" font-family="Helvetica,sans-Serif" font-size="10.00">detail::output_stream</text>
<text text-anchor="start" x="18.38" y="-70.5" font-family="Helvetica,sans-Serif" font-size="10.00">_adapter&lt; CharType &gt;</text>
<text text-anchor="start" x="65.62" y="-54.5" font-family="Helvetica,sans-Serif" font-size="10.00"> </text>
<text text-anchor="start" x="9.25" y="-38.5" font-family="Helvetica,sans-Serif" font-size="10.00">+</text>
<text text-anchor="start" x="19.25" y="-38.5" font-family="Helvetica,sans-Serif" font-size="10.00">output_stream_adapter()</text>
<text text-anchor="start" x="9.25" y="-22.5" font-family="Helvetica,sans-Serif" font-size="10.00">+</text>
<text text-anchor="start" x="19.25" y="-22.5" font-family="Helvetica,sans-Serif" font-size="10.00">write_character()</text>
<text text-anchor="start" x="9.25" y="-6.5" font-family="Helvetica,sans-Serif" font-size="10.00">+</text>
<text text-anchor="start" x="19.25" y="-6.5" font-family="Helvetica,sans-Serif" font-size="10.00">write_characters()</text>
<polygon fill="#666666" stroke="#666666" points="5.25,-66 5.25,-66 129,-66 129,-66 5.25,-66"/>
<polygon fill="#666666" stroke="#666666" points="5.25,-50 5.25,-50 129,-50 129,-50 5.25,-50"/>
<polygon fill="none" stroke="#666666" points="5.25,0 5.25,-96 129,-96 129,0 5.25,0"/>
</a>
</g>
</g>
<!-- Node2 -->
<g id="Node000002" class="node">
<title>Node2</title>
<g id="a_Node000002"><a xlink:href="structdetail_1_1output__adapter__protocol.html" target="_top" xlink:title="abstract output adapter interface">
<polygon fill="white" stroke="none" points="134.25,-308 0,-308 0,-132 134.25,-132 134.25,-308"/>
<text text-anchor="start" x="17.25" y="-294.5" font-family="Helvetica,sans-Serif" font-size="10.00">detail::output_adapter</text>
<text text-anchor="start" x="17.25" y="-282.5" font-family="Helvetica,sans-Serif" font-size="10.00">_protocol&lt; CharType &gt;</text>
<text text-anchor="start" x="65.62" y="-266.5" font-family="Helvetica,sans-Serif" font-size="10.00"> </text>
<text text-anchor="start" x="4" y="-250.5" font-family="Helvetica,sans-Serif" font-size="10.00">+</text>
<text text-anchor="start" x="14" y="-250.5" font-family="Helvetica,sans-Serif" font-size="10.00">write_character()</text>
<text text-anchor="start" x="4" y="-234.5" font-family="Helvetica,sans-Serif" font-size="10.00">+</text>
<text text-anchor="start" x="14" y="-234.5" font-family="Helvetica,sans-Serif" font-size="10.00">write_characters()</text>
<text text-anchor="start" x="4" y="-218.5" font-family="Helvetica,sans-Serif" font-size="10.00">+</text>
<text text-anchor="start" x="14" y="-218.5" font-family="Helvetica,sans-Serif" font-size="10.00">~output_adapter_protocol()</text>
<text text-anchor="start" x="4" y="-202.5" font-family="Helvetica,sans-Serif" font-size="10.00">+</text>
<text text-anchor="start" x="14" y="-202.5" font-family="Helvetica,sans-Serif" font-size="10.00">output_adapter_protocol()</text>
<text text-anchor="start" x="4" y="-186.5" font-family="Helvetica,sans-Serif" font-size="10.00">+</text>
<text text-anchor="start" x="14" y="-186.5" font-family="Helvetica,sans-Serif" font-size="10.00">output_adapter_protocol()</text>
<text text-anchor="start" x="4" y="-170.5" font-family="Helvetica,sans-Serif" font-size="10.00">+</text>
<text text-anchor="start" x="14" y="-170.5" font-family="Helvetica,sans-Serif" font-size="10.00">output_adapter_protocol()</text>
<text text-anchor="start" x="4" y="-154.5" font-family="Helvetica,sans-Serif" font-size="10.00">+</text>
<text text-anchor="start" x="14" y="-154.5" font-family="Helvetica,sans-Serif" font-size="10.00">operator=()</text>
<text text-anchor="start" x="4" y="-138.5" font-family="Helvetica,sans-Serif" font-size="10.00">+</text>
<text text-anchor="start" x="14" y="-138.5" font-family="Helvetica,sans-Serif" font-size="10.00">operator=()</text>
<polygon fill="#666666" stroke="#666666" points="0,-278 0,-278 134.25,-278 134.25,-278 0,-278"/>
<polygon fill="#666666" stroke="#666666" points="0,-262 0,-262 134.25,-262 134.25,-262 0,-262"/>
<polygon fill="none" stroke="#666666" points="0,-132 0,-308 134.25,-308 134.25,-132 0,-132"/>
</a>
</g>
</g>
<!-- Node2&#45;&gt;Node1 -->
<g id="edge1_Node000001_Node000002" class="edge">
<title>Node2&#45;&gt;Node1</title>
<g id="a_edge1_Node000001_Node000002"><a xlink:title=" ">
<path fill="none" stroke="#63b8ff" d="M67.12,-120.7C67.12,-112.16 67.12,-103.81 67.12,-95.99"/>
<polygon fill="none" stroke="#63b8ff" points="63.63,-120.49 67.13,-130.49 70.63,-120.49 63.63,-120.49"/>
</a>
</g>
</g>
</g>
</svg>
