<?xml version="1.0" encoding="UTF-8" standalone="no"?>
<!DOCTYPE svg PUBLIC "-//W3C//DTD SVG 1.1//EN"
 "http://www.w3.org/Graphics/SVG/1.1/DTD/svg11.dtd">
<!-- Generated by graphviz version 12.2.1 (20241206.2353)
 -->
<!-- Title: UiLoginWindow Pages: 1 -->
<svg width="106pt" height="164pt"
 viewBox="0.00 0.00 106.25 164.00" xmlns="http://www.w3.org/2000/svg" xmlns:xlink="http://www.w3.org/1999/xlink">
<g id="graph0" class="graph" transform="scale(1 1) rotate(0) translate(4 160)">
<title>UiLoginWindow</title>
<!-- Node1 -->
<g id="Node000001" class="node">
<title>Node1</title>
<g id="a_Node000001"><a xlink:title=" ">
<polygon fill="#999999" stroke="none" points="98.25,-68 0,-68 0,0 98.25,0 98.25,-68"/>
<text text-anchor="start" x="15" y="-54.5" font-family="Helvetica,sans-Serif" font-size="10.00">UiLoginWindow</text>
<text text-anchor="start" x="47.62" y="-38.5" font-family="Helvetica,sans-Serif" font-size="10.00"> </text>
<text text-anchor="start" x="4" y="-22.5" font-family="Helvetica,sans-Serif" font-size="10.00">+</text>
<text text-anchor="start" x="14" y="-22.5" font-family="Helvetica,sans-Serif" font-size="10.00">UiLoginWindow()</text>
<text text-anchor="start" x="4" y="-6.5" font-family="Helvetica,sans-Serif" font-size="10.00">+</text>
<text text-anchor="start" x="14" y="-6.5" font-family="Helvetica,sans-Serif" font-size="10.00">~UiLoginWindow()</text>
<polygon fill="#666666" stroke="#666666" points="0,-50 0,-50 98.25,-50 98.25,-50 0,-50"/>
<polygon fill="#666666" stroke="#666666" points="0,-34 0,-34 98.25,-34 98.25,-34 0,-34"/>
<polygon fill="none" stroke="#666666" points="0,0 0,-68 98.25,-68 98.25,0 0,0"/>
</a>
</g>
</g>
<!-- Node2 -->
<g id="Node000002" class="node">
<title>Node2</title>
<g id="a_Node000002"><a xlink:title=" ">
<polygon fill="white" stroke="none" points="77.5,-156 20.75,-156 20.75,-104 77.5,-104 77.5,-156"/>
<text text-anchor="start" x="24.75" y="-142.5" font-family="Helvetica,sans-Serif" font-size="10.00">Fl_Window</text>
<text text-anchor="start" x="47.62" y="-126.5" font-family="Helvetica,sans-Serif" font-size="10.00"> </text>
<text text-anchor="start" x="47.62" y="-110.5" font-family="Helvetica,sans-Serif" font-size="10.00"> </text>
<polygon fill="#bfbfbf" stroke="#bfbfbf" points="20.75,-138 20.75,-138 77.5,-138 77.5,-138 20.75,-138"/>
<polygon fill="#bfbfbf" stroke="#bfbfbf" points="20.75,-122 20.75,-122 77.5,-122 77.5,-122 20.75,-122"/>
<polygon fill="none" stroke="#bfbfbf" points="20.75,-104 20.75,-156 77.5,-156 77.5,-104 20.75,-104"/>
</a>
</g>
</g>
<!-- Node2&#45;&gt;Node1 -->
<g id="edge1_Node000001_Node000002" class="edge">
<title>Node2&#45;&gt;Node1</title>
<g id="a_edge1_Node000001_Node000002"><a xlink:title=" ">
<path fill="none" stroke="#63b8ff" d="M49.12,-92.97C49.12,-84.65 49.12,-75.84 49.12,-67.67"/>
<polygon fill="none" stroke="#63b8ff" points="45.63,-92.79 49.13,-102.79 52.63,-92.79 45.63,-92.79"/>
</a>
</g>
</g>
</g>
</svg>
