<?xml version="1.0" encoding="UTF-8" standalone="no"?>
<!DOCTYPE svg PUBLIC "-//W3C//DTD SVG 1.1//EN"
 "http://www.w3.org/Graphics/SVG/1.1/DTD/svg11.dtd">
<!-- Generated by graphviz version 12.2.1 (20241206.2353)
 -->
<!-- Title: basic_json::patch_inplace Pages: 1 -->
<svg width="402pt" height="484pt"
 viewBox="0.00 0.00 401.75 484.00" xmlns="http://www.w3.org/2000/svg" xmlns:xlink="http://www.w3.org/1999/xlink">
<g id="graph0" class="graph" transform="scale(1 1) rotate(0) translate(4 480)">
<title>basic_json::patch_inplace</title>
<!-- Node1 -->
<g id="Node000001" class="node">
<title>Node1</title>
<g id="a_Node000001"><a xlink:title="applies a JSON patch in&#45;place without copying the object">
<polygon fill="#999999" stroke="#666666" points="128.5,-248 0,-248 0,-228 128.5,-228 128.5,-248"/>
<text text-anchor="middle" x="64.25" y="-234.5" font-family="Helvetica,sans-Serif" font-size="10.00">basic_json::patch_inplace</text>
</a>
</g>
</g>
<!-- Node2 -->
<g id="Node000002" class="node">
<title>Node2</title>
<g id="a_Node000002"><a xlink:href="classbasic__json.html#a899e4623fe377af5c9ad14c40c64280c" target="_top" xlink:title="access specified array element with bounds checking">
<polygon fill="white" stroke="#666666" points="261.12,-476 184.38,-476 184.38,-456 261.12,-456 261.12,-476"/>
<text text-anchor="middle" x="222.75" y="-462.5" font-family="Helvetica,sans-Serif" font-size="10.00">basic_json::at</text>
</a>
</g>
</g>
<!-- Node1&#45;&gt;Node2 -->
<g id="edge1_Node000001_Node000002" class="edge">
<title>Node1&#45;&gt;Node2</title>
<g id="a_edge1_Node000001_Node000002"><a xlink:title=" ">
<path fill="none" stroke="#63b8ff" d="M67.19,-248.43C74.01,-282.27 100.1,-390.06 164.5,-447 167.29,-449.46 170.4,-451.61 173.7,-453.48"/>
<polygon fill="#63b8ff" stroke="#63b8ff" points="172.08,-456.58 182.62,-457.65 175.05,-450.24 172.08,-456.58"/>
</a>
</g>
</g>
<!-- Node3 -->
<g id="Node000003" class="node">
<title>Node3</title>
<g id="a_Node000003"><a xlink:href="classjson__pointer.html#aba71e63e4032cfc46dd90aeb09e5cb0f" target="_top" xlink:title="return last reference token">
<polygon fill="white" stroke="#666666" points="270.5,-438 175,-438 175,-418 270.5,-418 270.5,-438"/>
<text text-anchor="middle" x="222.75" y="-424.5" font-family="Helvetica,sans-Serif" font-size="10.00">json_pointer::back</text>
</a>
</g>
</g>
<!-- Node1&#45;&gt;Node3 -->
<g id="edge2_Node000001_Node000003" class="edge">
<title>Node1&#45;&gt;Node3</title>
<g id="a_edge2_Node000001_Node000003"><a xlink:title=" ">
<path fill="none" stroke="#63b8ff" d="M68.29,-248.17C77.61,-277.59 108.57,-363.52 164.5,-409 165.82,-410.07 167.2,-411.09 168.64,-412.04"/>
<polygon fill="#63b8ff" stroke="#63b8ff" points="166.9,-415.09 177.35,-416.85 170.28,-408.96 166.9,-415.09"/>
</a>
</g>
</g>
<!-- Node4 -->
<g id="Node000004" class="node">
<title>Node4</title>
<g id="a_Node000004"><a xlink:href="classbasic__json.html#a5251a08382864af52c854fca1bdba61c" target="_top" xlink:title="returns an iterator to the first element">
<polygon fill="white" stroke="#666666" points="268.62,-400 176.88,-400 176.88,-380 268.62,-380 268.62,-400"/>
<text text-anchor="middle" x="222.75" y="-386.5" font-family="Helvetica,sans-Serif" font-size="10.00">basic_json::begin</text>
</a>
</g>
</g>
<!-- Node1&#45;&gt;Node4 -->
<g id="edge3_Node000001_Node000004" class="edge">
<title>Node1&#45;&gt;Node4</title>
<g id="a_edge3_Node000001_Node000004"><a xlink:title=" ">
<path fill="none" stroke="#63b8ff" d="M70.15,-248.34C82.45,-273.2 117.07,-336.78 164.5,-371 166.28,-372.29 168.16,-373.49 170.1,-374.62"/>
<polygon fill="#63b8ff" stroke="#63b8ff" points="168.35,-377.66 178.87,-378.94 171.45,-371.38 168.35,-377.66"/>
</a>
</g>
</g>
<!-- Node5 -->
<g id="Node000005" class="node">
<title>Node5</title>
<g id="a_Node000005"><a xlink:href="classjson__pointer.html#a5c3d08bd0a0e99c3377db33600c68a64" target="_top" xlink:title="return whether pointer points to the root document">
<polygon fill="white" stroke="#666666" points="273.5,-362 172,-362 172,-342 273.5,-342 273.5,-362"/>
<text text-anchor="middle" x="222.75" y="-348.5" font-family="Helvetica,sans-Serif" font-size="10.00">json_pointer::empty</text>
</a>
</g>
</g>
<!-- Node1&#45;&gt;Node5 -->
<g id="edge4_Node000001_Node000005" class="edge">
<title>Node1&#45;&gt;Node5</title>
<g id="a_edge4_Node000001_Node000005"><a xlink:title=" ">
<path fill="none" stroke="#63b8ff" d="M73.4,-248.41C89.06,-267.75 125.27,-309.38 164.5,-333 166.93,-334.47 169.49,-335.83 172.13,-337.11"/>
<polygon fill="#63b8ff" stroke="#63b8ff" points="170.57,-340.25 181.14,-340.98 173.33,-333.82 170.57,-340.25"/>
</a>
</g>
</g>
<!-- Node6 -->
<g id="Node000006" class="node">
<title>Node6</title>
<g id="a_Node000006"><a xlink:href="classbasic__json.html#a4dbc83213b31a171aa8ba65ff00fa954" target="_top" xlink:title="returns an iterator to one past the last element">
<polygon fill="white" stroke="#666666" points="264.88,-324 180.62,-324 180.62,-304 264.88,-304 264.88,-324"/>
<text text-anchor="middle" x="222.75" y="-310.5" font-family="Helvetica,sans-Serif" font-size="10.00">basic_json::end</text>
</a>
</g>
</g>
<!-- Node1&#45;&gt;Node6 -->
<g id="edge5_Node000001_Node000006" class="edge">
<title>Node1&#45;&gt;Node6</title>
<g id="a_edge5_Node000001_Node000006"><a xlink:title=" ">
<path fill="none" stroke="#63b8ff" d="M80.89,-248.3C100.02,-260.59 133.67,-281.2 164.5,-295 168.1,-296.61 171.88,-298.16 175.7,-299.63"/>
<polygon fill="#63b8ff" stroke="#63b8ff" points="174.49,-302.91 185.08,-303.03 176.88,-296.33 174.49,-302.91"/>
</a>
</g>
</g>
<!-- Node7 -->
<g id="Node000007" class="node">
<title>Node7</title>
<g id="a_Node000007"><a xlink:href="classbasic__json.html#a7d0fef086b1b72372113db6ce7446189" target="_top" xlink:title="remove element given an iterator">
<polygon fill="white" stroke="#666666" points="269,-286 176.5,-286 176.5,-266 269,-266 269,-286"/>
<text text-anchor="middle" x="222.75" y="-272.5" font-family="Helvetica,sans-Serif" font-size="10.00">basic_json::erase</text>
</a>
</g>
</g>
<!-- Node1&#45;&gt;Node7 -->
<g id="edge6_Node000001_Node000007" class="edge">
<title>Node1&#45;&gt;Node7</title>
<g id="a_edge6_Node000001_Node000007"><a xlink:title=" ">
<path fill="none" stroke="#63b8ff" d="M108.43,-248.48C126.73,-252.93 148.26,-258.16 167.61,-262.85"/>
<polygon fill="#63b8ff" stroke="#63b8ff" points="166.7,-266.23 177.24,-265.19 168.35,-259.43 166.7,-266.23"/>
</a>
</g>
</g>
<!-- Node8 -->
<g id="Node000008" class="node">
<title>Node8</title>
<g id="a_Node000008"><a xlink:href="classbasic__json.html#a727e3cfb5a874314d8deb12cb53a8105" target="_top" xlink:title="find an element in a JSON object">
<polygon fill="white" stroke="#666666" points="264.88,-248 180.62,-248 180.62,-228 264.88,-228 264.88,-248"/>
<text text-anchor="middle" x="222.75" y="-234.5" font-family="Helvetica,sans-Serif" font-size="10.00">basic_json::find</text>
</a>
</g>
</g>
<!-- Node1&#45;&gt;Node8 -->
<g id="edge7_Node000001_Node000008" class="edge">
<title>Node1&#45;&gt;Node8</title>
<g id="a_edge7_Node000001_Node000008"><a xlink:title=" ">
<path fill="none" stroke="#63b8ff" d="M128.9,-238C142.25,-238 156.19,-238 169.08,-238"/>
<polygon fill="#63b8ff" stroke="#63b8ff" points="169.07,-241.5 179.07,-238 169.07,-234.5 169.07,-241.5"/>
</a>
</g>
</g>
<!-- Node10 -->
<g id="Node000010" class="node">
<title>Node10</title>
<g id="a_Node000010"><a xlink:href="classbasic__json.html#a7f3817060c2bec896a99cb2c236b9c27" target="_top" xlink:title="inserts element into array">
<polygon fill="white" stroke="#666666" points="269,-210 176.5,-210 176.5,-190 269,-190 269,-210"/>
<text text-anchor="middle" x="222.75" y="-196.5" font-family="Helvetica,sans-Serif" font-size="10.00">basic_json::insert</text>
</a>
</g>
</g>
<!-- Node1&#45;&gt;Node10 -->
<g id="edge9_Node000001_Node000010" class="edge">
<title>Node1&#45;&gt;Node10</title>
<g id="a_edge9_Node000001_Node000010"><a xlink:title=" ">
<path fill="none" stroke="#63b8ff" d="M108.43,-227.52C126.73,-223.07 148.26,-217.84 167.61,-213.15"/>
<polygon fill="#63b8ff" stroke="#63b8ff" points="168.35,-216.57 177.24,-210.81 166.7,-209.77 168.35,-216.57"/>
</a>
</g>
</g>
<!-- Node11 -->
<g id="Node000011" class="node">
<title>Node11</title>
<g id="a_Node000011"><a xlink:href="classbasic__json.html#a184ba4a6b47e6da3703af19349bd776f" target="_top" xlink:title="return whether value is an array">
<polygon fill="white" stroke="#666666" points="274.25,-172 171.25,-172 171.25,-152 274.25,-152 274.25,-172"/>
<text text-anchor="middle" x="222.75" y="-158.5" font-family="Helvetica,sans-Serif" font-size="10.00">basic_json::is_array</text>
</a>
</g>
</g>
<!-- Node1&#45;&gt;Node11 -->
<g id="edge10_Node000001_Node000011" class="edge">
<title>Node1&#45;&gt;Node11</title>
<g id="a_edge10_Node000001_Node000011"><a xlink:title=" ">
<path fill="none" stroke="#63b8ff" d="M80.89,-227.7C100.02,-215.41 133.67,-194.8 164.5,-181 168.1,-179.39 171.88,-177.84 175.7,-176.37"/>
<polygon fill="#63b8ff" stroke="#63b8ff" points="176.88,-179.67 185.08,-172.97 174.49,-173.09 176.88,-179.67"/>
</a>
</g>
</g>
<!-- Node12 -->
<g id="Node000012" class="node">
<title>Node12</title>
<g id="a_Node000012"><a xlink:href="classbasic__json.html#af355a2b131068acf3d623eb6d80a711c" target="_top" xlink:title="return whether value is an object">
<polygon fill="white" stroke="#666666" points="276.5,-134 169,-134 169,-114 276.5,-114 276.5,-134"/>
<text text-anchor="middle" x="222.75" y="-120.5" font-family="Helvetica,sans-Serif" font-size="10.00">basic_json::is_object</text>
</a>
</g>
</g>
<!-- Node1&#45;&gt;Node12 -->
<g id="edge11_Node000001_Node000012" class="edge">
<title>Node1&#45;&gt;Node12</title>
<g id="a_edge11_Node000001_Node000012"><a xlink:title=" ">
<path fill="none" stroke="#63b8ff" d="M73.4,-227.59C89.06,-208.25 125.27,-166.62 164.5,-143 166.93,-141.53 169.49,-140.17 172.13,-138.89"/>
<polygon fill="#63b8ff" stroke="#63b8ff" points="173.33,-142.18 181.14,-135.02 170.57,-135.75 173.33,-142.18"/>
</a>
</g>
</g>
<!-- Node13 -->
<g id="Node000013" class="node">
<title>Node13</title>
<g id="a_Node000013"><a xlink:href="classjson__pointer.html#a662118b470c87a1b564946c2602c49ce" target="_top" xlink:title="remove last reference token">
<polygon fill="white" stroke="#666666" points="281,-96 164.5,-96 164.5,-76 281,-76 281,-96"/>
<text text-anchor="middle" x="222.75" y="-82.5" font-family="Helvetica,sans-Serif" font-size="10.00">json_pointer::pop_back</text>
</a>
</g>
</g>
<!-- Node1&#45;&gt;Node13 -->
<g id="edge12_Node000001_Node000013" class="edge">
<title>Node1&#45;&gt;Node13</title>
<g id="a_edge12_Node000001_Node000013"><a xlink:title=" ">
<path fill="none" stroke="#63b8ff" d="M70.15,-227.66C82.45,-202.8 117.07,-139.22 164.5,-105 166.28,-103.71 168.16,-102.51 170.1,-101.38"/>
<polygon fill="#63b8ff" stroke="#63b8ff" points="171.45,-104.62 178.87,-97.06 168.35,-98.34 171.45,-104.62"/>
</a>
</g>
</g>
<!-- Node14 -->
<g id="Node000014" class="node">
<title>Node14</title>
<g id="a_Node000014"><a xlink:href="classbasic__json.html#a3d13acce4e49e0d5ee768643a7b89010" target="_top" xlink:title="add an object to an array">
<polygon fill="white" stroke="#666666" points="280.62,-58 164.88,-58 164.88,-38 280.62,-38 280.62,-58"/>
<text text-anchor="middle" x="222.75" y="-44.5" font-family="Helvetica,sans-Serif" font-size="10.00">basic_json::push_back</text>
</a>
</g>
</g>
<!-- Node1&#45;&gt;Node14 -->
<g id="edge13_Node000001_Node000014" class="edge">
<title>Node1&#45;&gt;Node14</title>
<g id="a_edge13_Node000001_Node000014"><a xlink:title=" ">
<path fill="none" stroke="#63b8ff" d="M68.29,-227.83C77.61,-198.41 108.57,-112.48 164.5,-67 165.82,-65.93 167.2,-64.91 168.64,-63.96"/>
<polygon fill="#63b8ff" stroke="#63b8ff" points="170.28,-67.04 177.35,-59.15 166.9,-60.91 170.28,-67.04"/>
</a>
</g>
</g>
<!-- Node15 -->
<g id="Node000015" class="node">
<title>Node15</title>
<g id="a_Node000015"><a xlink:href="classbasic__json.html#a086cbfd1ad4ba83a8127c87467a92f47" target="_top" xlink:title="returns the number of elements">
<polygon fill="white" stroke="#666666" points="266,-20 179.5,-20 179.5,0 266,0 266,-20"/>
<text text-anchor="middle" x="222.75" y="-6.5" font-family="Helvetica,sans-Serif" font-size="10.00">basic_json::size</text>
</a>
</g>
</g>
<!-- Node1&#45;&gt;Node15 -->
<g id="edge14_Node000001_Node000015" class="edge">
<title>Node1&#45;&gt;Node15</title>
<g id="a_edge14_Node000001_Node000015"><a xlink:title=" ">
<path fill="none" stroke="#63b8ff" d="M67.19,-227.57C74.01,-193.73 100.1,-85.94 164.5,-29 166.12,-27.57 167.85,-26.25 169.66,-25.02"/>
<polygon fill="#63b8ff" stroke="#63b8ff" points="170.9,-28.34 177.95,-20.42 167.51,-22.21 170.9,-28.34"/>
</a>
</g>
</g>
<!-- Node9 -->
<g id="Node000009" class="node">
<title>Node9</title>
<g id="a_Node000009"><a xlink:href="structjson__sax.html#a3355ecd7e3e9806dcb80b2f8842b82ce" target="_top" xlink:title="an object key was read">
<polygon fill="white" stroke="#666666" points="393.75,-248 317,-248 317,-228 393.75,-228 393.75,-248"/>
<text text-anchor="middle" x="355.38" y="-234.5" font-family="Helvetica,sans-Serif" font-size="10.00">json_sax::key</text>
</a>
</g>
</g>
<!-- Node8&#45;&gt;Node9 -->
<g id="edge8_Node000008_Node000009" class="edge">
<title>Node8&#45;&gt;Node9</title>
<g id="a_edge8_Node000008_Node000009"><a xlink:title=" ">
<path fill="none" stroke="#63b8ff" d="M265.08,-238C277.91,-238 292.18,-238 305.48,-238"/>
<polygon fill="#63b8ff" stroke="#63b8ff" points="305.34,-241.5 315.34,-238 305.34,-234.5 305.34,-241.5"/>
</a>
</g>
</g>
</g>
</svg>
