<?xml version="1.0" encoding="UTF-8" standalone="no"?>
<!DOCTYPE svg PUBLIC "-//W3C//DTD SVG 1.1//EN"
 "http://www.w3.org/Graphics/SVG/1.1/DTD/svg11.dtd">
<!-- Generated by graphviz version 12.2.1 (20241206.2353)
 -->
<!-- Title: detail::exception Pages: 1 -->
<svg width="87pt" height="212pt"
 viewBox="0.00 0.00 87.25 212.00" xmlns="http://www.w3.org/2000/svg" xmlns:xlink="http://www.w3.org/1999/xlink">
<g id="graph0" class="graph" transform="scale(1 1) rotate(0) translate(4 208)">
<title>detail::exception</title>
<!-- Node1 -->
<g id="Node000001" class="node">
<title>Node1</title>
<g id="a_Node000001"><a xlink:title="general exception of the basic_json class">
<polygon fill="#999999" stroke="none" points="79.25,-116 0,-116 0,0 79.25,0 79.25,-116"/>
<text text-anchor="start" x="4" y="-102.5" font-family="Helvetica,sans-Serif" font-size="10.00">detail::exception</text>
<text text-anchor="start" x="5.44" y="-86.5" font-family="Helvetica,sans-Serif" font-size="10.00">+</text>
<text text-anchor="start" x="16.88" y="-86.5" font-family="Helvetica,sans-Serif" font-size="10.00">id</text>
<text text-anchor="start" x="5.44" y="-70.5" font-family="Helvetica,sans-Serif" font-size="10.00">+</text>
<text text-anchor="start" x="16.88" y="-70.5" font-family="Helvetica,sans-Serif" font-size="10.00">what()</text>
<text text-anchor="start" x="5.81" y="-54.5" font-family="Helvetica,sans-Serif" font-size="10.00">#</text>
<text text-anchor="start" x="16.88" y="-54.5" font-family="Helvetica,sans-Serif" font-size="10.00">exception()</text>
<text text-anchor="start" x="5.81" y="-38.5" font-family="Helvetica,sans-Serif" font-size="10.00">#</text>
<text text-anchor="start" x="16.88" y="-38.5" font-family="Helvetica,sans-Serif" font-size="10.00">name()</text>
<text text-anchor="start" x="5.81" y="-22.5" font-family="Helvetica,sans-Serif" font-size="10.00">#</text>
<text text-anchor="start" x="16.88" y="-22.5" font-family="Helvetica,sans-Serif" font-size="10.00">diagnostics()</text>
<text text-anchor="start" x="5.81" y="-6.5" font-family="Helvetica,sans-Serif" font-size="10.00">#</text>
<text text-anchor="start" x="16.88" y="-6.5" font-family="Helvetica,sans-Serif" font-size="10.00">diagnostics()</text>
<polygon fill="#666666" stroke="#666666" points="0,-98 0,-98 79.25,-98 79.25,-98 0,-98"/>
<polygon fill="#666666" stroke="#666666" points="0,-82 0,-82 14.88,-82 14.88,-82 0,-82"/>
<polygon fill="#666666" stroke="#666666" points="14.88,-82 14.88,-82 79.25,-82 79.25,-82 14.88,-82"/>
<polygon fill="none" stroke="#666666" points="0,0 0,-116 79.25,-116 79.25,0 0,0"/>
</a>
</g>
</g>
<!-- Node2 -->
<g id="Node000002" class="node">
<title>Node2</title>
<g id="a_Node000002"><a xlink:title=" ">
<polygon fill="white" stroke="none" points="74.38,-204 4.88,-204 4.88,-152 74.38,-152 74.38,-204"/>
<text text-anchor="start" x="8.88" y="-190.5" font-family="Helvetica,sans-Serif" font-size="10.00">std::exception</text>
<text text-anchor="start" x="38.12" y="-174.5" font-family="Helvetica,sans-Serif" font-size="10.00"> </text>
<text text-anchor="start" x="38.12" y="-158.5" font-family="Helvetica,sans-Serif" font-size="10.00"> </text>
<polygon fill="#bfbfbf" stroke="#bfbfbf" points="4.88,-186 4.88,-186 74.38,-186 74.38,-186 4.88,-186"/>
<polygon fill="#bfbfbf" stroke="#bfbfbf" points="4.88,-170 4.88,-170 74.38,-170 74.38,-170 4.88,-170"/>
<polygon fill="none" stroke="#bfbfbf" points="4.88,-152 4.88,-204 74.38,-204 74.38,-152 4.88,-152"/>
</a>
</g>
</g>
<!-- Node2&#45;&gt;Node1 -->
<g id="edge1_Node000001_Node000002" class="edge">
<title>Node2&#45;&gt;Node1</title>
<g id="a_edge1_Node000001_Node000002"><a xlink:title=" ">
<path fill="none" stroke="#63b8ff" d="M39.62,-140.82C39.62,-132.89 39.62,-124.31 39.62,-115.79"/>
<polygon fill="none" stroke="#63b8ff" points="36.13,-140.75 39.63,-150.75 43.13,-140.75 36.13,-140.75"/>
</a>
</g>
</g>
</g>
</svg>
