<?xml version="1.0" encoding="UTF-8" standalone="no"?>
<!DOCTYPE svg PUBLIC "-//W3C//DTD SVG 1.1//EN"
 "http://www.w3.org/Graphics/SVG/1.1/DTD/svg11.dtd">
<!-- Generated by graphviz version 12.2.1 (20241206.2353)
 -->
<!-- Title: detail::exception Pages: 1 -->
<svg width="525pt" height="316pt"
 viewBox="0.00 0.00 524.50 316.00" xmlns="http://www.w3.org/2000/svg" xmlns:xlink="http://www.w3.org/1999/xlink">
<g id="graph0" class="graph" transform="scale(1 1) rotate(0) translate(4 312)">
<title>detail::exception</title>
<!-- Node1 -->
<g id="Node000001" class="node">
<title>Node1</title>
<g id="a_Node000001"><a xlink:title="general exception of the basic_json class">
<polygon fill="#999999" stroke="none" points="306.75,-220 227.5,-220 227.5,-104 306.75,-104 306.75,-220"/>
<text text-anchor="start" x="231.5" y="-206.5" font-family="Helvetica,sans-Serif" font-size="10.00">detail::exception</text>
<text text-anchor="start" x="232.94" y="-190.5" font-family="Helvetica,sans-Serif" font-size="10.00">+</text>
<text text-anchor="start" x="244.38" y="-190.5" font-family="Helvetica,sans-Serif" font-size="10.00">id</text>
<text text-anchor="start" x="232.94" y="-174.5" font-family="Helvetica,sans-Serif" font-size="10.00">+</text>
<text text-anchor="start" x="244.38" y="-174.5" font-family="Helvetica,sans-Serif" font-size="10.00">what()</text>
<text text-anchor="start" x="233.31" y="-158.5" font-family="Helvetica,sans-Serif" font-size="10.00">#</text>
<text text-anchor="start" x="244.38" y="-158.5" font-family="Helvetica,sans-Serif" font-size="10.00">exception()</text>
<text text-anchor="start" x="233.31" y="-142.5" font-family="Helvetica,sans-Serif" font-size="10.00">#</text>
<text text-anchor="start" x="244.38" y="-142.5" font-family="Helvetica,sans-Serif" font-size="10.00">name()</text>
<text text-anchor="start" x="233.31" y="-126.5" font-family="Helvetica,sans-Serif" font-size="10.00">#</text>
<text text-anchor="start" x="244.38" y="-126.5" font-family="Helvetica,sans-Serif" font-size="10.00">diagnostics()</text>
<text text-anchor="start" x="233.31" y="-110.5" font-family="Helvetica,sans-Serif" font-size="10.00">#</text>
<text text-anchor="start" x="244.38" y="-110.5" font-family="Helvetica,sans-Serif" font-size="10.00">diagnostics()</text>
<polygon fill="#666666" stroke="#666666" points="227.5,-202 227.5,-202 306.75,-202 306.75,-202 227.5,-202"/>
<polygon fill="#666666" stroke="#666666" points="227.5,-186 227.5,-186 242.38,-186 242.38,-186 227.5,-186"/>
<polygon fill="#666666" stroke="#666666" points="242.38,-186 242.38,-186 306.75,-186 306.75,-186 242.38,-186"/>
<polygon fill="none" stroke="#666666" points="227.5,-104 227.5,-220 306.75,-220 306.75,-104 227.5,-104"/>
</a>
</g>
</g>
<!-- Node3 -->
<g id="Node000003" class="node">
<title>Node3</title>
<g id="a_Node000003"><a xlink:href="classdetail_1_1invalid__iterator.html" target="_top" xlink:title="exception indicating errors with iterators">
<polygon fill="white" stroke="none" points="100.25,-60 0,-60 0,-8 100.25,-8 100.25,-60"/>
<text text-anchor="start" x="4" y="-46.5" font-family="Helvetica,sans-Serif" font-size="10.00">detail::invalid_iterator</text>
<text text-anchor="start" x="48.62" y="-30.5" font-family="Helvetica,sans-Serif" font-size="10.00"> </text>
<text text-anchor="start" x="16.31" y="-14.5" font-family="Helvetica,sans-Serif" font-size="10.00">+</text>
<text text-anchor="start" x="38.62" y="-14.5" font-family="Helvetica,sans-Serif" font-size="10.00">create()</text>
<polygon fill="#666666" stroke="#666666" points="0,-42 0,-42 100.25,-42 100.25,-42 0,-42"/>
<polygon fill="#666666" stroke="#666666" points="0,-26 0,-26 100.25,-26 100.25,-26 0,-26"/>
<polygon fill="none" stroke="#666666" points="0,-8 0,-60 100.25,-60 100.25,-8 0,-8"/>
</a>
</g>
</g>
<!-- Node1&#45;&gt;Node3 -->
<g id="edge2_Node000001_Node000003" class="edge">
<title>Node1&#45;&gt;Node3</title>
<g id="a_edge2_Node000001_Node000003"><a xlink:title=" ">
<path fill="none" stroke="#63b8ff" d="M217.85,-132.39C180.28,-110.57 129.04,-80.82 93.12,-59.96"/>
<polygon fill="none" stroke="#63b8ff" points="215.86,-135.28 226.27,-137.28 219.38,-129.23 215.86,-135.28"/>
</a>
</g>
</g>
<!-- Node4 -->
<g id="Node000004" class="node">
<title>Node4</title>
<g id="a_Node000004"><a xlink:href="classdetail_1_1other__error.html" target="_top" xlink:title="exception indicating other library errors">
<polygon fill="white" stroke="none" points="202,-60 118.25,-60 118.25,-8 202,-8 202,-60"/>
<text text-anchor="start" x="122.25" y="-46.5" font-family="Helvetica,sans-Serif" font-size="10.00">detail::other_error</text>
<text text-anchor="start" x="158.62" y="-30.5" font-family="Helvetica,sans-Serif" font-size="10.00"> </text>
<text text-anchor="start" x="130.44" y="-14.5" font-family="Helvetica,sans-Serif" font-size="10.00">+</text>
<text text-anchor="start" x="148.62" y="-14.5" font-family="Helvetica,sans-Serif" font-size="10.00">create()</text>
<polygon fill="#666666" stroke="#666666" points="118.25,-42 118.25,-42 202,-42 202,-42 118.25,-42"/>
<polygon fill="#666666" stroke="#666666" points="118.25,-26 118.25,-26 202,-26 202,-26 118.25,-26"/>
<polygon fill="none" stroke="#666666" points="118.25,-8 118.25,-60 202,-60 202,-8 118.25,-8"/>
</a>
</g>
</g>
<!-- Node1&#45;&gt;Node4 -->
<g id="edge3_Node000001_Node000004" class="edge">
<title>Node1&#45;&gt;Node4</title>
<g id="a_edge3_Node000001_Node000004"><a xlink:title=" ">
<path fill="none" stroke="#63b8ff" d="M220.49,-106.09C206.78,-89.94 192.46,-73.08 181.21,-59.83"/>
<polygon fill="none" stroke="#63b8ff" points="217.47,-107.93 226.61,-113.29 222.8,-103.4 217.47,-107.93"/>
</a>
</g>
</g>
<!-- Node5 -->
<g id="Node000005" class="node">
<title>Node5</title>
<g id="a_Node000005"><a xlink:href="classdetail_1_1out__of__range.html" target="_top" xlink:title="exception indicating access out of the defined range">
<polygon fill="white" stroke="none" points="313.88,-60 220.38,-60 220.38,-8 313.88,-8 313.88,-60"/>
<text text-anchor="start" x="224.38" y="-46.5" font-family="Helvetica,sans-Serif" font-size="10.00">detail::out_of_range</text>
<text text-anchor="start" x="265.62" y="-30.5" font-family="Helvetica,sans-Serif" font-size="10.00"> </text>
<text text-anchor="start" x="235" y="-14.5" font-family="Helvetica,sans-Serif" font-size="10.00">+</text>
<text text-anchor="start" x="255.62" y="-14.5" font-family="Helvetica,sans-Serif" font-size="10.00">create()</text>
<polygon fill="#666666" stroke="#666666" points="220.38,-42 220.38,-42 313.88,-42 313.88,-42 220.38,-42"/>
<polygon fill="#666666" stroke="#666666" points="220.38,-26 220.38,-26 313.88,-26 313.88,-26 220.38,-26"/>
<polygon fill="none" stroke="#666666" points="220.38,-8 220.38,-60 313.88,-60 313.88,-8 220.38,-8"/>
</a>
</g>
</g>
<!-- Node1&#45;&gt;Node5 -->
<g id="edge4_Node000001_Node000005" class="edge">
<title>Node1&#45;&gt;Node5</title>
<g id="a_edge4_Node000001_Node000005"><a xlink:title=" ">
<path fill="none" stroke="#63b8ff" d="M267.12,-92.94C267.12,-81.14 267.12,-69.58 267.12,-59.92"/>
<polygon fill="none" stroke="#63b8ff" points="263.63,-92.75 267.13,-102.75 270.63,-92.75 263.63,-92.75"/>
</a>
</g>
</g>
<!-- Node6 -->
<g id="Node000006" class="node">
<title>Node6</title>
<g id="a_Node000006"><a xlink:href="classdetail_1_1parse__error.html" target="_top" xlink:title="exception indicating a parse error">
<polygon fill="white" stroke="none" points="418.12,-68 332.12,-68 332.12,0 418.12,0 418.12,-68"/>
<text text-anchor="start" x="336.12" y="-54.5" font-family="Helvetica,sans-Serif" font-size="10.00">detail::parse_error</text>
<text text-anchor="start" x="344.88" y="-38.5" font-family="Helvetica,sans-Serif" font-size="10.00">+</text>
<text text-anchor="start" x="363.62" y="-38.5" font-family="Helvetica,sans-Serif" font-size="10.00">byte</text>
<text text-anchor="start" x="344.88" y="-22.5" font-family="Helvetica,sans-Serif" font-size="10.00">+</text>
<text text-anchor="start" x="363.62" y="-22.5" font-family="Helvetica,sans-Serif" font-size="10.00">create()</text>
<text text-anchor="start" x="344.88" y="-6.5" font-family="Helvetica,sans-Serif" font-size="10.00">+</text>
<text text-anchor="start" x="363.62" y="-6.5" font-family="Helvetica,sans-Serif" font-size="10.00">create()</text>
<polygon fill="#666666" stroke="#666666" points="332.12,-50 332.12,-50 418.12,-50 418.12,-50 332.12,-50"/>
<polygon fill="#666666" stroke="#666666" points="332.12,-34 332.12,-34 361.62,-34 361.62,-34 332.12,-34"/>
<polygon fill="#666666" stroke="#666666" points="361.62,-34 361.62,-34 418.12,-34 418.12,-34 361.62,-34"/>
<polygon fill="none" stroke="#666666" points="332.12,0 332.12,-68 418.12,-68 418.12,0 332.12,0"/>
</a>
</g>
</g>
<!-- Node1&#45;&gt;Node6 -->
<g id="edge5_Node000001_Node000006" class="edge">
<title>Node1&#45;&gt;Node6</title>
<g id="a_edge5_Node000001_Node000006"><a xlink:title=" ">
<path fill="none" stroke="#63b8ff" d="M314.03,-106.27C325.28,-93.16 336.93,-79.56 347.02,-67.79"/>
<polygon fill="none" stroke="#63b8ff" points="311.56,-103.78 307.71,-113.65 316.88,-108.33 311.56,-103.78"/>
</a>
</g>
</g>
<!-- Node7 -->
<g id="Node000007" class="node">
<title>Node7</title>
<g id="a_Node000007"><a xlink:href="classdetail_1_1type__error.html" target="_top" xlink:title="exception indicating executing a member function with a wrong type">
<polygon fill="white" stroke="none" points="516.5,-60 435.75,-60 435.75,-8 516.5,-8 516.5,-60"/>
<text text-anchor="start" x="439.75" y="-46.5" font-family="Helvetica,sans-Serif" font-size="10.00">detail::type_error</text>
<text text-anchor="start" x="474.62" y="-30.5" font-family="Helvetica,sans-Serif" font-size="10.00"> </text>
<text text-anchor="start" x="447.19" y="-14.5" font-family="Helvetica,sans-Serif" font-size="10.00">+</text>
<text text-anchor="start" x="464.62" y="-14.5" font-family="Helvetica,sans-Serif" font-size="10.00">create()</text>
<polygon fill="#666666" stroke="#666666" points="435.75,-42 435.75,-42 516.5,-42 516.5,-42 435.75,-42"/>
<polygon fill="#666666" stroke="#666666" points="435.75,-26 435.75,-26 516.5,-26 516.5,-26 435.75,-26"/>
<polygon fill="none" stroke="#666666" points="435.75,-8 435.75,-60 516.5,-60 516.5,-8 435.75,-8"/>
</a>
</g>
</g>
<!-- Node1&#45;&gt;Node7 -->
<g id="edge6_Node000001_Node000007" class="edge">
<title>Node1&#45;&gt;Node7</title>
<g id="a_edge6_Node000001_Node000007"><a xlink:title=" ">
<path fill="none" stroke="#63b8ff" d="M316.65,-133.34C348.51,-115.26 390.64,-90.85 427.12,-68 431.21,-65.44 435.45,-62.71 439.64,-59.95"/>
<polygon fill="none" stroke="#63b8ff" points="314.98,-130.26 308,-138.23 318.43,-136.35 314.98,-130.26"/>
</a>
</g>
</g>
<!-- Node2 -->
<g id="Node000002" class="node">
<title>Node2</title>
<g id="a_Node000002"><a xlink:title=" ">
<polygon fill="white" stroke="none" points="301.88,-308 232.38,-308 232.38,-256 301.88,-256 301.88,-308"/>
<text text-anchor="start" x="236.38" y="-294.5" font-family="Helvetica,sans-Serif" font-size="10.00">std::exception</text>
<text text-anchor="start" x="265.62" y="-278.5" font-family="Helvetica,sans-Serif" font-size="10.00"> </text>
<text text-anchor="start" x="265.62" y="-262.5" font-family="Helvetica,sans-Serif" font-size="10.00"> </text>
<polygon fill="#bfbfbf" stroke="#bfbfbf" points="232.38,-290 232.38,-290 301.88,-290 301.88,-290 232.38,-290"/>
<polygon fill="#bfbfbf" stroke="#bfbfbf" points="232.38,-274 232.38,-274 301.88,-274 301.88,-274 232.38,-274"/>
<polygon fill="none" stroke="#bfbfbf" points="232.38,-256 232.38,-308 301.88,-308 301.88,-256 232.38,-256"/>
</a>
</g>
</g>
<!-- Node2&#45;&gt;Node1 -->
<g id="edge1_Node000001_Node000002" class="edge">
<title>Node2&#45;&gt;Node1</title>
<g id="a_edge1_Node000001_Node000002"><a xlink:title=" ">
<path fill="none" stroke="#63b8ff" d="M267.12,-244.82C267.12,-236.89 267.12,-228.31 267.12,-219.79"/>
<polygon fill="none" stroke="#63b8ff" points="263.63,-244.75 267.13,-254.75 270.63,-244.75 263.63,-244.75"/>
</a>
</g>
</g>
</g>
</svg>
