<?xml version="1.0" encoding="UTF-8" standalone="no"?>
<!DOCTYPE svg PUBLIC "-//W3C//DTD SVG 1.1//EN"
 "http://www.w3.org/Graphics/SVG/1.1/DTD/svg11.dtd">
<!-- Generated by graphviz version 12.2.1 (20241206.2353)
 -->
<!-- Title: UiMainWindow Pages: 1 -->
<svg width="127pt" height="228pt"
 viewBox="0.00 0.00 126.50 228.00" xmlns="http://www.w3.org/2000/svg" xmlns:xlink="http://www.w3.org/1999/xlink">
<g id="graph0" class="graph" transform="scale(1 1) rotate(0) translate(4 224)">
<title>UiMainWindow</title>
<!-- Node1 -->
<g id="Node000001" class="node">
<title>Node1</title>
<g id="a_Node000001"><a xlink:title=" ">
<polygon fill="#999999" stroke="none" points="118.5,-132 0,-132 0,0 118.5,0 118.5,-132"/>
<text text-anchor="start" x="26.25" y="-118.5" font-family="Helvetica,sans-Serif" font-size="10.00">UiMainWindow</text>
<text text-anchor="start" x="57.75" y="-102.5" font-family="Helvetica,sans-Serif" font-size="10.00"> </text>
<text text-anchor="start" x="4" y="-86.5" font-family="Helvetica,sans-Serif" font-size="10.00">+</text>
<text text-anchor="start" x="14" y="-86.5" font-family="Helvetica,sans-Serif" font-size="10.00">UiMainWindow()</text>
<text text-anchor="start" x="4" y="-70.5" font-family="Helvetica,sans-Serif" font-size="10.00">+</text>
<text text-anchor="start" x="14" y="-70.5" font-family="Helvetica,sans-Serif" font-size="10.00">navigateToExpense()</text>
<text text-anchor="start" x="4" y="-54.5" font-family="Helvetica,sans-Serif" font-size="10.00">+</text>
<text text-anchor="start" x="14" y="-54.5" font-family="Helvetica,sans-Serif" font-size="10.00">navigateToBudget()</text>
<text text-anchor="start" x="4" y="-38.5" font-family="Helvetica,sans-Serif" font-size="10.00">+</text>
<text text-anchor="start" x="14" y="-38.5" font-family="Helvetica,sans-Serif" font-size="10.00">navigateToCategories()</text>
<text text-anchor="start" x="4" y="-22.5" font-family="Helvetica,sans-Serif" font-size="10.00">+</text>
<text text-anchor="start" x="14" y="-22.5" font-family="Helvetica,sans-Serif" font-size="10.00">navigateToReport()</text>
<text text-anchor="start" x="4" y="-6.5" font-family="Helvetica,sans-Serif" font-size="10.00">+</text>
<text text-anchor="start" x="14" y="-6.5" font-family="Helvetica,sans-Serif" font-size="10.00">navigateToProfile()</text>
<polygon fill="#666666" stroke="#666666" points="0,-114 0,-114 118.5,-114 118.5,-114 0,-114"/>
<polygon fill="#666666" stroke="#666666" points="0,-98 0,-98 118.5,-98 118.5,-98 0,-98"/>
<polygon fill="none" stroke="#666666" points="0,0 0,-132 118.5,-132 118.5,0 0,0"/>
</a>
</g>
</g>
<!-- Node2 -->
<g id="Node000002" class="node">
<title>Node2</title>
<g id="a_Node000002"><a xlink:title=" ">
<polygon fill="white" stroke="none" points="87.62,-220 30.88,-220 30.88,-168 87.62,-168 87.62,-220"/>
<text text-anchor="start" x="34.88" y="-206.5" font-family="Helvetica,sans-Serif" font-size="10.00">Fl_Window</text>
<text text-anchor="start" x="57.75" y="-190.5" font-family="Helvetica,sans-Serif" font-size="10.00"> </text>
<text text-anchor="start" x="57.75" y="-174.5" font-family="Helvetica,sans-Serif" font-size="10.00"> </text>
<polygon fill="#bfbfbf" stroke="#bfbfbf" points="30.88,-202 30.88,-202 87.62,-202 87.62,-202 30.88,-202"/>
<polygon fill="#bfbfbf" stroke="#bfbfbf" points="30.88,-186 30.88,-186 87.62,-186 87.62,-186 30.88,-186"/>
<polygon fill="none" stroke="#bfbfbf" points="30.88,-168 30.88,-220 87.62,-220 87.62,-168 30.88,-168"/>
</a>
</g>
</g>
<!-- Node2&#45;&gt;Node1 -->
<g id="edge1_Node000001_Node000002" class="edge">
<title>Node2&#45;&gt;Node1</title>
<g id="a_edge1_Node000001_Node000002"><a xlink:title=" ">
<path fill="none" stroke="#63b8ff" d="M59.25,-156.79C59.25,-148.94 59.25,-140.4 59.25,-131.82"/>
<polygon fill="none" stroke="#63b8ff" points="55.75,-156.59 59.25,-166.59 62.75,-156.59 55.75,-156.59"/>
</a>
</g>
</g>
</g>
</svg>
