<?xml version="1.0" encoding="UTF-8" standalone="no"?>
<!DOCTYPE svg PUBLIC "-//W3C//DTD SVG 1.1//EN"
 "http://www.w3.org/Graphics/SVG/1.1/DTD/svg11.dtd">
<!-- Generated by graphviz version 12.2.1 (20241206.2353)
 -->
<!-- Title: detail::binary_reader&lt; BasicJsonType, InputAdapterType, SAX &gt; Pages: 1 -->
<svg width="153pt" height="180pt"
 viewBox="0.00 0.00 153.25 180.00" xmlns="http://www.w3.org/2000/svg" xmlns:xlink="http://www.w3.org/1999/xlink">
<g id="graph0" class="graph" transform="scale(1 1) rotate(0) translate(4 176)">
<title>detail::binary_reader&lt; BasicJsonType, InputAdapterType, SAX &gt;</title>
<!-- Node1 -->
<g id="Node000001" class="node">
<title>Node1</title>
<g id="a_Node000001"><a xlink:title="deserialization of CBOR, MessagePack, and UBJSON values">
<polygon fill="#999999" stroke="none" points="145.25,-172 0,-172 0,0 145.25,0 145.25,-172"/>
<text text-anchor="start" x="4" y="-158.5" font-family="Helvetica,sans-Serif" font-size="10.00">detail::binary_reader</text>
<text text-anchor="start" x="4" y="-146.5" font-family="Helvetica,sans-Serif" font-size="10.00">&lt; BasicJsonType, InputAdapter</text>
<text text-anchor="start" x="44.5" y="-134.5" font-family="Helvetica,sans-Serif" font-size="10.00">Type, SAX &gt;</text>
<text text-anchor="start" x="71.12" y="-118.5" font-family="Helvetica,sans-Serif" font-size="10.00"> </text>
<text text-anchor="start" x="18.19" y="-102.5" font-family="Helvetica,sans-Serif" font-size="10.00">+</text>
<text text-anchor="start" x="42.38" y="-102.5" font-family="Helvetica,sans-Serif" font-size="10.00">binary_reader()</text>
<text text-anchor="start" x="18.19" y="-86.5" font-family="Helvetica,sans-Serif" font-size="10.00">+</text>
<text text-anchor="start" x="42.38" y="-86.5" font-family="Helvetica,sans-Serif" font-size="10.00">binary_reader()</text>
<text text-anchor="start" x="18.19" y="-70.5" font-family="Helvetica,sans-Serif" font-size="10.00">+</text>
<text text-anchor="start" x="42.38" y="-70.5" font-family="Helvetica,sans-Serif" font-size="10.00">binary_reader()</text>
<text text-anchor="start" x="18.19" y="-54.5" font-family="Helvetica,sans-Serif" font-size="10.00">+</text>
<text text-anchor="start" x="42.38" y="-54.5" font-family="Helvetica,sans-Serif" font-size="10.00">operator=()</text>
<text text-anchor="start" x="18.19" y="-38.5" font-family="Helvetica,sans-Serif" font-size="10.00">+</text>
<text text-anchor="start" x="42.38" y="-38.5" font-family="Helvetica,sans-Serif" font-size="10.00">operator=()</text>
<text text-anchor="start" x="18.19" y="-22.5" font-family="Helvetica,sans-Serif" font-size="10.00">+</text>
<text text-anchor="start" x="42.38" y="-22.5" font-family="Helvetica,sans-Serif" font-size="10.00">~binary_reader()</text>
<text text-anchor="start" x="18.19" y="-6.5" font-family="Helvetica,sans-Serif" font-size="10.00">+</text>
<text text-anchor="start" x="42.38" y="-6.5" font-family="Helvetica,sans-Serif" font-size="10.00">sax_parse()</text>
<polygon fill="#666666" stroke="#666666" points="0,-130 0,-130 145.25,-130 145.25,-130 0,-130"/>
<polygon fill="#666666" stroke="#666666" points="0,-114 0,-114 145.25,-114 145.25,-114 0,-114"/>
<polygon fill="none" stroke="#666666" points="0,0 0,-172 145.25,-172 145.25,0 0,0"/>
</a>
</g>
</g>
</g>
</svg>
