<?xml version="1.0" encoding="UTF-8" standalone="no"?>
<!DOCTYPE svg PUBLIC "-//W3C//DTD SVG 1.1//EN"
 "http://www.w3.org/Graphics/SVG/1.1/DTD/svg11.dtd">
<!-- Generated by graphviz version 12.2.1 (20241206.2353)
 -->
<!-- Title: basic_json::patch Pages: 1 -->
<svg width="418pt" height="484pt"
 viewBox="0.00 0.00 417.50 484.00" xmlns="http://www.w3.org/2000/svg" xmlns:xlink="http://www.w3.org/1999/xlink">
<g id="graph0" class="graph" transform="scale(1 1) rotate(0) translate(4 480)">
<title>basic_json::patch</title>
<!-- Node1 -->
<g id="Node000001" class="node">
<title>Node1</title>
<g id="a_Node000001"><a xlink:title="applies a JSON patch to a copy of the current object">
<polygon fill="#999999" stroke="#666666" points="92.5,-248 0,-248 0,-228 92.5,-228 92.5,-248"/>
<text text-anchor="middle" x="46.25" y="-234.5" font-family="Helvetica,sans-Serif" font-size="10.00">basic_json::patch</text>
</a>
</g>
</g>
<!-- Node2 -->
<g id="Node000002" class="node">
<title>Node2</title>
<g id="a_Node000002"><a xlink:href="classbasic__json.html#a693812b31e106dec9166e93d8f6dd7d7" target="_top" xlink:title="applies a JSON patch in&#45;place without copying the object">
<polygon fill="white" stroke="#666666" points="257,-248 128.5,-248 128.5,-228 257,-228 257,-248"/>
<text text-anchor="middle" x="192.75" y="-234.5" font-family="Helvetica,sans-Serif" font-size="10.00">basic_json::patch_inplace</text>
</a>
</g>
</g>
<!-- Node1&#45;&gt;Node2 -->
<g id="edge1_Node000001_Node000002" class="edge">
<title>Node1&#45;&gt;Node2</title>
<g id="a_edge1_Node000001_Node000002"><a xlink:title=" ">
<path fill="none" stroke="#63b8ff" d="M92.97,-238C100.56,-238 108.6,-238 116.68,-238"/>
<polygon fill="#63b8ff" stroke="#63b8ff" points="116.59,-241.5 126.59,-238 116.59,-234.5 116.59,-241.5"/>
</a>
</g>
</g>
<!-- Node3 -->
<g id="Node000003" class="node">
<title>Node3</title>
<g id="a_Node000003"><a xlink:href="classbasic__json.html#a899e4623fe377af5c9ad14c40c64280c" target="_top" xlink:title="access specified array element with bounds checking">
<polygon fill="white" stroke="#666666" points="389.62,-476 312.88,-476 312.88,-456 389.62,-456 389.62,-476"/>
<text text-anchor="middle" x="351.25" y="-462.5" font-family="Helvetica,sans-Serif" font-size="10.00">basic_json::at</text>
</a>
</g>
</g>
<!-- Node2&#45;&gt;Node3 -->
<g id="edge2_Node000002_Node000003" class="edge">
<title>Node2&#45;&gt;Node3</title>
<g id="a_edge2_Node000002_Node000003"><a xlink:title=" ">
<path fill="none" stroke="#63b8ff" d="M195.69,-248.43C202.51,-282.27 228.6,-390.06 293,-447 295.79,-449.46 298.9,-451.61 302.2,-453.48"/>
<polygon fill="#63b8ff" stroke="#63b8ff" points="300.58,-456.58 311.12,-457.65 303.55,-450.24 300.58,-456.58"/>
</a>
</g>
</g>
<!-- Node4 -->
<g id="Node000004" class="node">
<title>Node4</title>
<g id="a_Node000004"><a xlink:href="classjson__pointer.html#aba71e63e4032cfc46dd90aeb09e5cb0f" target="_top" xlink:title="return last reference token">
<polygon fill="white" stroke="#666666" points="399,-438 303.5,-438 303.5,-418 399,-418 399,-438"/>
<text text-anchor="middle" x="351.25" y="-424.5" font-family="Helvetica,sans-Serif" font-size="10.00">json_pointer::back</text>
</a>
</g>
</g>
<!-- Node2&#45;&gt;Node4 -->
<g id="edge3_Node000002_Node000004" class="edge">
<title>Node2&#45;&gt;Node4</title>
<g id="a_edge3_Node000002_Node000004"><a xlink:title=" ">
<path fill="none" stroke="#63b8ff" d="M196.79,-248.17C206.11,-277.59 237.07,-363.52 293,-409 294.32,-410.07 295.7,-411.09 297.14,-412.04"/>
<polygon fill="#63b8ff" stroke="#63b8ff" points="295.4,-415.09 305.85,-416.85 298.78,-408.96 295.4,-415.09"/>
</a>
</g>
</g>
<!-- Node5 -->
<g id="Node000005" class="node">
<title>Node5</title>
<g id="a_Node000005"><a xlink:href="classbasic__json.html#a5251a08382864af52c854fca1bdba61c" target="_top" xlink:title="returns an iterator to the first element">
<polygon fill="white" stroke="#666666" points="397.12,-400 305.38,-400 305.38,-380 397.12,-380 397.12,-400"/>
<text text-anchor="middle" x="351.25" y="-386.5" font-family="Helvetica,sans-Serif" font-size="10.00">basic_json::begin</text>
</a>
</g>
</g>
<!-- Node2&#45;&gt;Node5 -->
<g id="edge4_Node000002_Node000005" class="edge">
<title>Node2&#45;&gt;Node5</title>
<g id="a_edge4_Node000002_Node000005"><a xlink:title=" ">
<path fill="none" stroke="#63b8ff" d="M198.65,-248.34C210.95,-273.2 245.57,-336.78 293,-371 294.78,-372.29 296.66,-373.49 298.6,-374.62"/>
<polygon fill="#63b8ff" stroke="#63b8ff" points="296.85,-377.66 307.37,-378.94 299.95,-371.38 296.85,-377.66"/>
</a>
</g>
</g>
<!-- Node6 -->
<g id="Node000006" class="node">
<title>Node6</title>
<g id="a_Node000006"><a xlink:href="classjson__pointer.html#a5c3d08bd0a0e99c3377db33600c68a64" target="_top" xlink:title="return whether pointer points to the root document">
<polygon fill="white" stroke="#666666" points="402,-362 300.5,-362 300.5,-342 402,-342 402,-362"/>
<text text-anchor="middle" x="351.25" y="-348.5" font-family="Helvetica,sans-Serif" font-size="10.00">json_pointer::empty</text>
</a>
</g>
</g>
<!-- Node2&#45;&gt;Node6 -->
<g id="edge5_Node000002_Node000006" class="edge">
<title>Node2&#45;&gt;Node6</title>
<g id="a_edge5_Node000002_Node000006"><a xlink:title=" ">
<path fill="none" stroke="#63b8ff" d="M201.9,-248.41C217.56,-267.75 253.77,-309.38 293,-333 295.43,-334.47 297.99,-335.83 300.63,-337.11"/>
<polygon fill="#63b8ff" stroke="#63b8ff" points="299.07,-340.25 309.64,-340.98 301.83,-333.82 299.07,-340.25"/>
</a>
</g>
</g>
<!-- Node7 -->
<g id="Node000007" class="node">
<title>Node7</title>
<g id="a_Node000007"><a xlink:href="classbasic__json.html#a4dbc83213b31a171aa8ba65ff00fa954" target="_top" xlink:title="returns an iterator to one past the last element">
<polygon fill="white" stroke="#666666" points="393.38,-324 309.12,-324 309.12,-304 393.38,-304 393.38,-324"/>
<text text-anchor="middle" x="351.25" y="-310.5" font-family="Helvetica,sans-Serif" font-size="10.00">basic_json::end</text>
</a>
</g>
</g>
<!-- Node2&#45;&gt;Node7 -->
<g id="edge6_Node000002_Node000007" class="edge">
<title>Node2&#45;&gt;Node7</title>
<g id="a_edge6_Node000002_Node000007"><a xlink:title=" ">
<path fill="none" stroke="#63b8ff" d="M209.39,-248.3C228.52,-260.59 262.17,-281.2 293,-295 296.6,-296.61 300.38,-298.16 304.2,-299.63"/>
<polygon fill="#63b8ff" stroke="#63b8ff" points="302.99,-302.91 313.58,-303.03 305.38,-296.33 302.99,-302.91"/>
</a>
</g>
</g>
<!-- Node8 -->
<g id="Node000008" class="node">
<title>Node8</title>
<g id="a_Node000008"><a xlink:href="classbasic__json.html#a7d0fef086b1b72372113db6ce7446189" target="_top" xlink:title="remove element given an iterator">
<polygon fill="white" stroke="#666666" points="397.5,-286 305,-286 305,-266 397.5,-266 397.5,-286"/>
<text text-anchor="middle" x="351.25" y="-272.5" font-family="Helvetica,sans-Serif" font-size="10.00">basic_json::erase</text>
</a>
</g>
</g>
<!-- Node2&#45;&gt;Node8 -->
<g id="edge7_Node000002_Node000008" class="edge">
<title>Node2&#45;&gt;Node8</title>
<g id="a_edge7_Node000002_Node000008"><a xlink:title=" ">
<path fill="none" stroke="#63b8ff" d="M236.93,-248.48C255.23,-252.93 276.76,-258.16 296.11,-262.85"/>
<polygon fill="#63b8ff" stroke="#63b8ff" points="295.2,-266.23 305.74,-265.19 296.85,-259.43 295.2,-266.23"/>
</a>
</g>
</g>
<!-- Node9 -->
<g id="Node000009" class="node">
<title>Node9</title>
<g id="a_Node000009"><a xlink:href="classbasic__json.html#a727e3cfb5a874314d8deb12cb53a8105" target="_top" xlink:title="find an element in a JSON object">
<polygon fill="#fff0f0" stroke="red" points="393.38,-248 309.12,-248 309.12,-228 393.38,-228 393.38,-248"/>
<text text-anchor="middle" x="351.25" y="-234.5" font-family="Helvetica,sans-Serif" font-size="10.00">basic_json::find</text>
</a>
</g>
</g>
<!-- Node2&#45;&gt;Node9 -->
<g id="edge8_Node000002_Node000009" class="edge">
<title>Node2&#45;&gt;Node9</title>
<g id="a_edge8_Node000002_Node000009"><a xlink:title=" ">
<path fill="none" stroke="#63b8ff" d="M257.4,-238C270.75,-238 284.69,-238 297.58,-238"/>
<polygon fill="#63b8ff" stroke="#63b8ff" points="297.57,-241.5 307.57,-238 297.57,-234.5 297.57,-241.5"/>
</a>
</g>
</g>
<!-- Node11 -->
<g id="Node000011" class="node">
<title>Node11</title>
<g id="a_Node000011"><a xlink:href="classbasic__json.html#a7f3817060c2bec896a99cb2c236b9c27" target="_top" xlink:title="inserts element into array">
<polygon fill="white" stroke="#666666" points="397.5,-210 305,-210 305,-190 397.5,-190 397.5,-210"/>
<text text-anchor="middle" x="351.25" y="-196.5" font-family="Helvetica,sans-Serif" font-size="10.00">basic_json::insert</text>
</a>
</g>
</g>
<!-- Node2&#45;&gt;Node11 -->
<g id="edge9_Node000002_Node000011" class="edge">
<title>Node2&#45;&gt;Node11</title>
<g id="a_edge9_Node000002_Node000011"><a xlink:title=" ">
<path fill="none" stroke="#63b8ff" d="M236.93,-227.52C255.23,-223.07 276.76,-217.84 296.11,-213.15"/>
<polygon fill="#63b8ff" stroke="#63b8ff" points="296.85,-216.57 305.74,-210.81 295.2,-209.77 296.85,-216.57"/>
</a>
</g>
</g>
<!-- Node12 -->
<g id="Node000012" class="node">
<title>Node12</title>
<g id="a_Node000012"><a xlink:href="classbasic__json.html#a184ba4a6b47e6da3703af19349bd776f" target="_top" xlink:title="return whether value is an array">
<polygon fill="white" stroke="#666666" points="402.75,-172 299.75,-172 299.75,-152 402.75,-152 402.75,-172"/>
<text text-anchor="middle" x="351.25" y="-158.5" font-family="Helvetica,sans-Serif" font-size="10.00">basic_json::is_array</text>
</a>
</g>
</g>
<!-- Node2&#45;&gt;Node12 -->
<g id="edge10_Node000002_Node000012" class="edge">
<title>Node2&#45;&gt;Node12</title>
<g id="a_edge10_Node000002_Node000012"><a xlink:title=" ">
<path fill="none" stroke="#63b8ff" d="M209.39,-227.7C228.52,-215.41 262.17,-194.8 293,-181 296.6,-179.39 300.38,-177.84 304.2,-176.37"/>
<polygon fill="#63b8ff" stroke="#63b8ff" points="305.38,-179.67 313.58,-172.97 302.99,-173.09 305.38,-179.67"/>
</a>
</g>
</g>
<!-- Node13 -->
<g id="Node000013" class="node">
<title>Node13</title>
<g id="a_Node000013"><a xlink:href="classbasic__json.html#af355a2b131068acf3d623eb6d80a711c" target="_top" xlink:title="return whether value is an object">
<polygon fill="white" stroke="#666666" points="405,-134 297.5,-134 297.5,-114 405,-114 405,-134"/>
<text text-anchor="middle" x="351.25" y="-120.5" font-family="Helvetica,sans-Serif" font-size="10.00">basic_json::is_object</text>
</a>
</g>
</g>
<!-- Node2&#45;&gt;Node13 -->
<g id="edge11_Node000002_Node000013" class="edge">
<title>Node2&#45;&gt;Node13</title>
<g id="a_edge11_Node000002_Node000013"><a xlink:title=" ">
<path fill="none" stroke="#63b8ff" d="M201.9,-227.59C217.56,-208.25 253.77,-166.62 293,-143 295.43,-141.53 297.99,-140.17 300.63,-138.89"/>
<polygon fill="#63b8ff" stroke="#63b8ff" points="301.83,-142.18 309.64,-135.02 299.07,-135.75 301.83,-142.18"/>
</a>
</g>
</g>
<!-- Node14 -->
<g id="Node000014" class="node">
<title>Node14</title>
<g id="a_Node000014"><a xlink:href="classjson__pointer.html#a662118b470c87a1b564946c2602c49ce" target="_top" xlink:title="remove last reference token">
<polygon fill="white" stroke="#666666" points="409.5,-96 293,-96 293,-76 409.5,-76 409.5,-96"/>
<text text-anchor="middle" x="351.25" y="-82.5" font-family="Helvetica,sans-Serif" font-size="10.00">json_pointer::pop_back</text>
</a>
</g>
</g>
<!-- Node2&#45;&gt;Node14 -->
<g id="edge12_Node000002_Node000014" class="edge">
<title>Node2&#45;&gt;Node14</title>
<g id="a_edge12_Node000002_Node000014"><a xlink:title=" ">
<path fill="none" stroke="#63b8ff" d="M198.65,-227.66C210.95,-202.8 245.57,-139.22 293,-105 294.78,-103.71 296.66,-102.51 298.6,-101.38"/>
<polygon fill="#63b8ff" stroke="#63b8ff" points="299.95,-104.62 307.37,-97.06 296.85,-98.34 299.95,-104.62"/>
</a>
</g>
</g>
<!-- Node15 -->
<g id="Node000015" class="node">
<title>Node15</title>
<g id="a_Node000015"><a xlink:href="classbasic__json.html#a3d13acce4e49e0d5ee768643a7b89010" target="_top" xlink:title="add an object to an array">
<polygon fill="white" stroke="#666666" points="409.12,-58 293.38,-58 293.38,-38 409.12,-38 409.12,-58"/>
<text text-anchor="middle" x="351.25" y="-44.5" font-family="Helvetica,sans-Serif" font-size="10.00">basic_json::push_back</text>
</a>
</g>
</g>
<!-- Node2&#45;&gt;Node15 -->
<g id="edge13_Node000002_Node000015" class="edge">
<title>Node2&#45;&gt;Node15</title>
<g id="a_edge13_Node000002_Node000015"><a xlink:title=" ">
<path fill="none" stroke="#63b8ff" d="M196.79,-227.83C206.11,-198.41 237.07,-112.48 293,-67 294.32,-65.93 295.7,-64.91 297.14,-63.96"/>
<polygon fill="#63b8ff" stroke="#63b8ff" points="298.78,-67.04 305.85,-59.15 295.4,-60.91 298.78,-67.04"/>
</a>
</g>
</g>
<!-- Node16 -->
<g id="Node000016" class="node">
<title>Node16</title>
<g id="a_Node000016"><a xlink:href="classbasic__json.html#a086cbfd1ad4ba83a8127c87467a92f47" target="_top" xlink:title="returns the number of elements">
<polygon fill="white" stroke="#666666" points="394.5,-20 308,-20 308,0 394.5,0 394.5,-20"/>
<text text-anchor="middle" x="351.25" y="-6.5" font-family="Helvetica,sans-Serif" font-size="10.00">basic_json::size</text>
</a>
</g>
</g>
<!-- Node2&#45;&gt;Node16 -->
<g id="edge14_Node000002_Node000016" class="edge">
<title>Node2&#45;&gt;Node16</title>
<g id="a_edge14_Node000002_Node000016"><a xlink:title=" ">
<path fill="none" stroke="#63b8ff" d="M195.69,-227.57C202.51,-193.73 228.6,-85.94 293,-29 294.62,-27.57 296.35,-26.25 298.16,-25.02"/>
<polygon fill="#63b8ff" stroke="#63b8ff" points="299.4,-28.34 306.45,-20.42 296.01,-22.21 299.4,-28.34"/>
</a>
</g>
</g>
</g>
</svg>
