<?xml version="1.0" encoding="UTF-8" standalone="no"?>
<!DOCTYPE svg PUBLIC "-//W3C//DTD SVG 1.1//EN"
 "http://www.w3.org/Graphics/SVG/1.1/DTD/svg11.dtd">
<!-- Generated by graphviz version 12.2.1 (20241206.2353)
 -->
<!-- Title: detail::invalid_iterator Pages: 1 -->
<svg width="108pt" height="300pt"
 viewBox="0.00 0.00 108.25 300.00" xmlns="http://www.w3.org/2000/svg" xmlns:xlink="http://www.w3.org/1999/xlink">
<g id="graph0" class="graph" transform="scale(1 1) rotate(0) translate(4 296)">
<title>detail::invalid_iterator</title>
<!-- Node1 -->
<g id="Node000001" class="node">
<title>Node1</title>
<g id="a_Node000001"><a xlink:title="exception indicating errors with iterators">
<polygon fill="#999999" stroke="none" points="100.25,-52 0,-52 0,0 100.25,0 100.25,-52"/>
<text text-anchor="start" x="4" y="-38.5" font-family="Helvetica,sans-Serif" font-size="10.00">detail::invalid_iterator</text>
<text text-anchor="start" x="48.62" y="-22.5" font-family="Helvetica,sans-Serif" font-size="10.00"> </text>
<text text-anchor="start" x="16.31" y="-6.5" font-family="Helvetica,sans-Serif" font-size="10.00">+</text>
<text text-anchor="start" x="38.62" y="-6.5" font-family="Helvetica,sans-Serif" font-size="10.00">create()</text>
<polygon fill="#666666" stroke="#666666" points="0,-34 0,-34 100.25,-34 100.25,-34 0,-34"/>
<polygon fill="#666666" stroke="#666666" points="0,-18 0,-18 100.25,-18 100.25,-18 0,-18"/>
<polygon fill="none" stroke="#666666" points="0,0 0,-52 100.25,-52 100.25,0 0,0"/>
</a>
</g>
</g>
<!-- Node2 -->
<g id="Node000002" class="node">
<title>Node2</title>
<g id="a_Node000002"><a xlink:href="classdetail_1_1exception.html" target="_top" xlink:title="general exception of the basic_json class">
<polygon fill="white" stroke="none" points="89.75,-204 10.5,-204 10.5,-88 89.75,-88 89.75,-204"/>
<text text-anchor="start" x="14.5" y="-190.5" font-family="Helvetica,sans-Serif" font-size="10.00">detail::exception</text>
<text text-anchor="start" x="15.94" y="-174.5" font-family="Helvetica,sans-Serif" font-size="10.00">+</text>
<text text-anchor="start" x="27.38" y="-174.5" font-family="Helvetica,sans-Serif" font-size="10.00">id</text>
<text text-anchor="start" x="15.94" y="-158.5" font-family="Helvetica,sans-Serif" font-size="10.00">+</text>
<text text-anchor="start" x="27.38" y="-158.5" font-family="Helvetica,sans-Serif" font-size="10.00">what()</text>
<text text-anchor="start" x="16.31" y="-142.5" font-family="Helvetica,sans-Serif" font-size="10.00">#</text>
<text text-anchor="start" x="27.38" y="-142.5" font-family="Helvetica,sans-Serif" font-size="10.00">exception()</text>
<text text-anchor="start" x="16.31" y="-126.5" font-family="Helvetica,sans-Serif" font-size="10.00">#</text>
<text text-anchor="start" x="27.38" y="-126.5" font-family="Helvetica,sans-Serif" font-size="10.00">name()</text>
<text text-anchor="start" x="16.31" y="-110.5" font-family="Helvetica,sans-Serif" font-size="10.00">#</text>
<text text-anchor="start" x="27.38" y="-110.5" font-family="Helvetica,sans-Serif" font-size="10.00">diagnostics()</text>
<text text-anchor="start" x="16.31" y="-94.5" font-family="Helvetica,sans-Serif" font-size="10.00">#</text>
<text text-anchor="start" x="27.38" y="-94.5" font-family="Helvetica,sans-Serif" font-size="10.00">diagnostics()</text>
<polygon fill="#666666" stroke="#666666" points="10.5,-186 10.5,-186 89.75,-186 89.75,-186 10.5,-186"/>
<polygon fill="#666666" stroke="#666666" points="10.5,-170 10.5,-170 25.38,-170 25.38,-170 10.5,-170"/>
<polygon fill="#666666" stroke="#666666" points="25.38,-170 25.38,-170 89.75,-170 89.75,-170 25.38,-170"/>
<polygon fill="none" stroke="#666666" points="10.5,-88 10.5,-204 89.75,-204 89.75,-88 10.5,-88"/>
</a>
</g>
</g>
<!-- Node2&#45;&gt;Node1 -->
<g id="edge1_Node000001_Node000002" class="edge">
<title>Node2&#45;&gt;Node1</title>
<g id="a_edge1_Node000001_Node000002"><a xlink:title=" ">
<path fill="none" stroke="#63b8ff" d="M50.12,-76.76C50.12,-67.91 50.12,-59.33 50.12,-51.87"/>
<polygon fill="none" stroke="#63b8ff" points="46.63,-76.56 50.13,-86.56 53.63,-76.56 46.63,-76.56"/>
</a>
</g>
</g>
<!-- Node3 -->
<g id="Node000003" class="node">
<title>Node3</title>
<g id="a_Node000003"><a xlink:title=" ">
<polygon fill="white" stroke="none" points="84.88,-292 15.38,-292 15.38,-240 84.88,-240 84.88,-292"/>
<text text-anchor="start" x="19.38" y="-278.5" font-family="Helvetica,sans-Serif" font-size="10.00">std::exception</text>
<text text-anchor="start" x="48.62" y="-262.5" font-family="Helvetica,sans-Serif" font-size="10.00"> </text>
<text text-anchor="start" x="48.62" y="-246.5" font-family="Helvetica,sans-Serif" font-size="10.00"> </text>
<polygon fill="#bfbfbf" stroke="#bfbfbf" points="15.38,-274 15.38,-274 84.88,-274 84.88,-274 15.38,-274"/>
<polygon fill="#bfbfbf" stroke="#bfbfbf" points="15.38,-258 15.38,-258 84.88,-258 84.88,-258 15.38,-258"/>
<polygon fill="none" stroke="#bfbfbf" points="15.38,-240 15.38,-292 84.88,-292 84.88,-240 15.38,-240"/>
</a>
</g>
</g>
<!-- Node3&#45;&gt;Node2 -->
<g id="edge2_Node000002_Node000003" class="edge">
<title>Node3&#45;&gt;Node2</title>
<g id="a_edge2_Node000002_Node000003"><a xlink:title=" ">
<path fill="none" stroke="#63b8ff" d="M50.12,-228.82C50.12,-220.89 50.12,-212.31 50.12,-203.79"/>
<polygon fill="none" stroke="#63b8ff" points="46.63,-228.75 50.13,-238.75 53.63,-228.75 46.63,-228.75"/>
</a>
</g>
</g>
</g>
</svg>
