<?xml version="1.0" encoding="UTF-8" standalone="no"?>
<!DOCTYPE svg PUBLIC "-//W3C//DTD SVG 1.1//EN"
 "http://www.w3.org/Graphics/SVG/1.1/DTD/svg11.dtd">
<!-- Generated by graphviz version 12.2.1 (20241206.2353)
 -->
<!-- Title: UiAddBudgetWindow Pages: 1 -->
<svg width="131pt" height="164pt"
 viewBox="0.00 0.00 131.00 164.00" xmlns="http://www.w3.org/2000/svg" xmlns:xlink="http://www.w3.org/1999/xlink">
<g id="graph0" class="graph" transform="scale(1 1) rotate(0) translate(4 160)">
<title>UiAddBudgetWindow</title>
<!-- Node1 -->
<g id="Node000001" class="node">
<title>Node1</title>
<g id="a_Node000001"><a xlink:title=" ">
<polygon fill="#999999" stroke="none" points="123,-68 0,-68 0,0 123,0 123,-68"/>
<text text-anchor="start" x="15" y="-54.5" font-family="Helvetica,sans-Serif" font-size="10.00">UiAddBudgetWindow</text>
<text text-anchor="start" x="60" y="-38.5" font-family="Helvetica,sans-Serif" font-size="10.00"> </text>
<text text-anchor="start" x="4" y="-22.5" font-family="Helvetica,sans-Serif" font-size="10.00">+</text>
<text text-anchor="start" x="14" y="-22.5" font-family="Helvetica,sans-Serif" font-size="10.00">UiAddBudgetWindow()</text>
<text text-anchor="start" x="4" y="-6.5" font-family="Helvetica,sans-Serif" font-size="10.00">+</text>
<text text-anchor="start" x="14" y="-6.5" font-family="Helvetica,sans-Serif" font-size="10.00">~UiAddBudgetWindow()</text>
<polygon fill="#666666" stroke="#666666" points="0,-50 0,-50 123,-50 123,-50 0,-50"/>
<polygon fill="#666666" stroke="#666666" points="0,-34 0,-34 123,-34 123,-34 0,-34"/>
<polygon fill="none" stroke="#666666" points="0,0 0,-68 123,-68 123,0 0,0"/>
</a>
</g>
</g>
<!-- Node2 -->
<g id="Node000002" class="node">
<title>Node2</title>
<g id="a_Node000002"><a xlink:title=" ">
<polygon fill="white" stroke="none" points="89.88,-156 33.12,-156 33.12,-104 89.88,-104 89.88,-156"/>
<text text-anchor="start" x="37.12" y="-142.5" font-family="Helvetica,sans-Serif" font-size="10.00">Fl_Window</text>
<text text-anchor="start" x="60" y="-126.5" font-family="Helvetica,sans-Serif" font-size="10.00"> </text>
<text text-anchor="start" x="60" y="-110.5" font-family="Helvetica,sans-Serif" font-size="10.00"> </text>
<polygon fill="#bfbfbf" stroke="#bfbfbf" points="33.12,-138 33.12,-138 89.88,-138 89.88,-138 33.12,-138"/>
<polygon fill="#bfbfbf" stroke="#bfbfbf" points="33.12,-122 33.12,-122 89.88,-122 89.88,-122 33.12,-122"/>
<polygon fill="none" stroke="#bfbfbf" points="33.12,-104 33.12,-156 89.88,-156 89.88,-104 33.12,-104"/>
</a>
</g>
</g>
<!-- Node2&#45;&gt;Node1 -->
<g id="edge1_Node000001_Node000002" class="edge">
<title>Node2&#45;&gt;Node1</title>
<g id="a_edge1_Node000001_Node000002"><a xlink:title=" ">
<path fill="none" stroke="#63b8ff" d="M61.5,-92.97C61.5,-84.65 61.5,-75.84 61.5,-67.67"/>
<polygon fill="none" stroke="#63b8ff" points="58,-92.79 61.5,-102.79 65,-92.79 58,-92.79"/>
</a>
</g>
</g>
</g>
</svg>
