<?xml version="1.0" encoding="UTF-8" standalone="no"?>
<!DOCTYPE svg PUBLIC "-//W3C//DTD SVG 1.1//EN"
 "http://www.w3.org/Graphics/SVG/1.1/DTD/svg11.dtd">
<!-- Generated by graphviz version 12.2.1 (20241206.2353)
 -->
<!-- Title: detail::type_error Pages: 1 -->
<svg width="89pt" height="300pt"
 viewBox="0.00 0.00 88.75 300.00" xmlns="http://www.w3.org/2000/svg" xmlns:xlink="http://www.w3.org/1999/xlink">
<g id="graph0" class="graph" transform="scale(1 1) rotate(0) translate(4 296)">
<title>detail::type_error</title>
<!-- Node1 -->
<g id="Node000001" class="node">
<title>Node1</title>
<g id="a_Node000001"><a xlink:title="exception indicating executing a member function with a wrong type">
<polygon fill="#999999" stroke="none" points="80.75,-52 0,-52 0,0 80.75,0 80.75,-52"/>
<text text-anchor="start" x="4" y="-38.5" font-family="Helvetica,sans-Serif" font-size="10.00">detail::type_error</text>
<text text-anchor="start" x="38.88" y="-22.5" font-family="Helvetica,sans-Serif" font-size="10.00"> </text>
<text text-anchor="start" x="11.44" y="-6.5" font-family="Helvetica,sans-Serif" font-size="10.00">+</text>
<text text-anchor="start" x="28.88" y="-6.5" font-family="Helvetica,sans-Serif" font-size="10.00">create()</text>
<polygon fill="#666666" stroke="#666666" points="0,-34 0,-34 80.75,-34 80.75,-34 0,-34"/>
<polygon fill="#666666" stroke="#666666" points="0,-18 0,-18 80.75,-18 80.75,-18 0,-18"/>
<polygon fill="none" stroke="#666666" points="0,0 0,-52 80.75,-52 80.75,0 0,0"/>
</a>
</g>
</g>
<!-- Node2 -->
<g id="Node000002" class="node">
<title>Node2</title>
<g id="a_Node000002"><a xlink:href="classdetail_1_1exception.html" target="_top" xlink:title="general exception of the basic_json class">
<polygon fill="white" stroke="none" points="80,-204 0.75,-204 0.75,-88 80,-88 80,-204"/>
<text text-anchor="start" x="4.75" y="-190.5" font-family="Helvetica,sans-Serif" font-size="10.00">detail::exception</text>
<text text-anchor="start" x="6.19" y="-174.5" font-family="Helvetica,sans-Serif" font-size="10.00">+</text>
<text text-anchor="start" x="17.62" y="-174.5" font-family="Helvetica,sans-Serif" font-size="10.00">id</text>
<text text-anchor="start" x="6.19" y="-158.5" font-family="Helvetica,sans-Serif" font-size="10.00">+</text>
<text text-anchor="start" x="17.62" y="-158.5" font-family="Helvetica,sans-Serif" font-size="10.00">what()</text>
<text text-anchor="start" x="6.56" y="-142.5" font-family="Helvetica,sans-Serif" font-size="10.00">#</text>
<text text-anchor="start" x="17.62" y="-142.5" font-family="Helvetica,sans-Serif" font-size="10.00">exception()</text>
<text text-anchor="start" x="6.56" y="-126.5" font-family="Helvetica,sans-Serif" font-size="10.00">#</text>
<text text-anchor="start" x="17.62" y="-126.5" font-family="Helvetica,sans-Serif" font-size="10.00">name()</text>
<text text-anchor="start" x="6.56" y="-110.5" font-family="Helvetica,sans-Serif" font-size="10.00">#</text>
<text text-anchor="start" x="17.62" y="-110.5" font-family="Helvetica,sans-Serif" font-size="10.00">diagnostics()</text>
<text text-anchor="start" x="6.56" y="-94.5" font-family="Helvetica,sans-Serif" font-size="10.00">#</text>
<text text-anchor="start" x="17.62" y="-94.5" font-family="Helvetica,sans-Serif" font-size="10.00">diagnostics()</text>
<polygon fill="#666666" stroke="#666666" points="0.75,-186 0.75,-186 80,-186 80,-186 0.75,-186"/>
<polygon fill="#666666" stroke="#666666" points="0.75,-170 0.75,-170 15.62,-170 15.62,-170 0.75,-170"/>
<polygon fill="#666666" stroke="#666666" points="15.62,-170 15.62,-170 80,-170 80,-170 15.62,-170"/>
<polygon fill="none" stroke="#666666" points="0.75,-88 0.75,-204 80,-204 80,-88 0.75,-88"/>
</a>
</g>
</g>
<!-- Node2&#45;&gt;Node1 -->
<g id="edge1_Node000001_Node000002" class="edge">
<title>Node2&#45;&gt;Node1</title>
<g id="a_edge1_Node000001_Node000002"><a xlink:title=" ">
<path fill="none" stroke="#63b8ff" d="M40.38,-76.76C40.38,-67.91 40.38,-59.33 40.38,-51.87"/>
<polygon fill="none" stroke="#63b8ff" points="36.88,-76.56 40.38,-86.56 43.88,-76.56 36.88,-76.56"/>
</a>
</g>
</g>
<!-- Node3 -->
<g id="Node000003" class="node">
<title>Node3</title>
<g id="a_Node000003"><a xlink:title=" ">
<polygon fill="white" stroke="none" points="75.12,-292 5.62,-292 5.62,-240 75.12,-240 75.12,-292"/>
<text text-anchor="start" x="9.62" y="-278.5" font-family="Helvetica,sans-Serif" font-size="10.00">std::exception</text>
<text text-anchor="start" x="38.88" y="-262.5" font-family="Helvetica,sans-Serif" font-size="10.00"> </text>
<text text-anchor="start" x="38.88" y="-246.5" font-family="Helvetica,sans-Serif" font-size="10.00"> </text>
<polygon fill="#bfbfbf" stroke="#bfbfbf" points="5.62,-274 5.62,-274 75.12,-274 75.12,-274 5.62,-274"/>
<polygon fill="#bfbfbf" stroke="#bfbfbf" points="5.62,-258 5.62,-258 75.12,-258 75.12,-258 5.62,-258"/>
<polygon fill="none" stroke="#bfbfbf" points="5.62,-240 5.62,-292 75.12,-292 75.12,-240 5.62,-240"/>
</a>
</g>
</g>
<!-- Node3&#45;&gt;Node2 -->
<g id="edge2_Node000002_Node000003" class="edge">
<title>Node3&#45;&gt;Node2</title>
<g id="a_edge2_Node000002_Node000003"><a xlink:title=" ">
<path fill="none" stroke="#63b8ff" d="M40.38,-228.82C40.38,-220.89 40.38,-212.31 40.38,-203.79"/>
<polygon fill="none" stroke="#63b8ff" points="36.88,-228.75 40.38,-238.75 43.88,-228.75 36.88,-228.75"/>
</a>
</g>
</g>
</g>
</svg>
