<?xml version="1.0" encoding="UTF-8" standalone="no"?>
<!DOCTYPE svg PUBLIC "-//W3C//DTD SVG 1.1//EN"
 "http://www.w3.org/Graphics/SVG/1.1/DTD/svg11.dtd">
<!-- Generated by graphviz version 12.2.1 (20241206.2353)
 -->
<!-- Title: detail::lexer_base&lt; BasicJsonType &gt; Pages: 1 -->
<svg width="129pt" height="332pt"
 viewBox="0.00 0.00 128.50 332.00" xmlns="http://www.w3.org/2000/svg" xmlns:xlink="http://www.w3.org/1999/xlink">
<g id="graph0" class="graph" transform="scale(1 1) rotate(0) translate(4 328)">
<title>detail::lexer_base&lt; BasicJsonType &gt;</title>
<!-- Node1 -->
<g id="Node000001" class="node">
<title>Node1</title>
<g id="a_Node000001"><a xlink:title=" ">
<polygon fill="#999999" stroke="none" points="110.88,-324 9.62,-324 9.62,-260 110.88,-260 110.88,-324"/>
<text text-anchor="start" x="17.88" y="-310.5" font-family="Helvetica,sans-Serif" font-size="10.00">detail::lexer_base</text>
<text text-anchor="start" x="17.88" y="-298.5" font-family="Helvetica,sans-Serif" font-size="10.00">&lt; BasicJsonType &gt;</text>
<text text-anchor="start" x="58.75" y="-282.5" font-family="Helvetica,sans-Serif" font-size="10.00"> </text>
<text text-anchor="start" x="13.62" y="-266.5" font-family="Helvetica,sans-Serif" font-size="10.00">+</text>
<text text-anchor="start" x="23.62" y="-266.5" font-family="Helvetica,sans-Serif" font-size="10.00">token_type_name()</text>
<polygon fill="#666666" stroke="#666666" points="9.62,-294 9.62,-294 110.88,-294 110.88,-294 9.62,-294"/>
<polygon fill="#666666" stroke="#666666" points="9.62,-278 9.62,-278 110.88,-278 110.88,-278 9.62,-278"/>
<polygon fill="none" stroke="#666666" points="9.62,-260 9.62,-324 110.88,-324 110.88,-260 9.62,-260"/>
</a>
</g>
</g>
<!-- Node2 -->
<g id="Node000002" class="node">
<title>Node2</title>
<g id="a_Node000002"><a xlink:href="classdetail_1_1lexer.html" target="_top" xlink:title="lexical analysis">
<polygon fill="white" stroke="none" points="120.5,-224 0,-224 0,0 120.5,0 120.5,-224"/>
<text text-anchor="start" x="4" y="-210.5" font-family="Helvetica,sans-Serif" font-size="10.00">detail::lexer&lt; BasicJson</text>
<text text-anchor="start" x="4" y="-198.5" font-family="Helvetica,sans-Serif" font-size="10.00">Type, InputAdapterType &gt;</text>
<text text-anchor="start" x="58.75" y="-182.5" font-family="Helvetica,sans-Serif" font-size="10.00"> </text>
<text text-anchor="start" x="4.31" y="-166.5" font-family="Helvetica,sans-Serif" font-size="10.00">+</text>
<text text-anchor="start" x="14.62" y="-166.5" font-family="Helvetica,sans-Serif" font-size="10.00">lexer()</text>
<text text-anchor="start" x="4.31" y="-150.5" font-family="Helvetica,sans-Serif" font-size="10.00">+</text>
<text text-anchor="start" x="14.62" y="-150.5" font-family="Helvetica,sans-Serif" font-size="10.00">lexer()</text>
<text text-anchor="start" x="4.31" y="-134.5" font-family="Helvetica,sans-Serif" font-size="10.00">+</text>
<text text-anchor="start" x="14.62" y="-134.5" font-family="Helvetica,sans-Serif" font-size="10.00">lexer()</text>
<text text-anchor="start" x="4.31" y="-118.5" font-family="Helvetica,sans-Serif" font-size="10.00">+</text>
<text text-anchor="start" x="14.62" y="-118.5" font-family="Helvetica,sans-Serif" font-size="10.00">operator=()</text>
<text text-anchor="start" x="4.31" y="-102.5" font-family="Helvetica,sans-Serif" font-size="10.00">+</text>
<text text-anchor="start" x="14.62" y="-102.5" font-family="Helvetica,sans-Serif" font-size="10.00">operator=()</text>
<text text-anchor="start" x="4.31" y="-86.5" font-family="Helvetica,sans-Serif" font-size="10.00">+</text>
<text text-anchor="start" x="14.62" y="-86.5" font-family="Helvetica,sans-Serif" font-size="10.00">~lexer()</text>
<text text-anchor="start" x="4.31" y="-70.5" font-family="Helvetica,sans-Serif" font-size="10.00">+</text>
<text text-anchor="start" x="14.62" y="-70.5" font-family="Helvetica,sans-Serif" font-size="10.00">get_number_integer()</text>
<text text-anchor="start" x="4.31" y="-54.5" font-family="Helvetica,sans-Serif" font-size="10.00">+</text>
<text text-anchor="start" x="14.62" y="-54.5" font-family="Helvetica,sans-Serif" font-size="10.00">get_number_unsigned()</text>
<text text-anchor="start" x="4.31" y="-38.5" font-family="Helvetica,sans-Serif" font-size="10.00">+</text>
<text text-anchor="start" x="14.62" y="-38.5" font-family="Helvetica,sans-Serif" font-size="10.00">get_number_float()</text>
<text text-anchor="start" x="4.31" y="-22.5" font-family="Helvetica,sans-Serif" font-size="10.00">+</text>
<text text-anchor="start" x="14.62" y="-22.5" font-family="Helvetica,sans-Serif" font-size="10.00">get_string()</text>
<text text-anchor="start" x="14.62" y="-6.5" font-family="Helvetica,sans-Serif" font-size="10.00">and 6 more...</text>
<polygon fill="#666666" stroke="#666666" points="0,-194 0,-194 120.5,-194 120.5,-194 0,-194"/>
<polygon fill="#666666" stroke="#666666" points="0,-178 0,-178 120.5,-178 120.5,-178 0,-178"/>
<polygon fill="none" stroke="#666666" points="0,0 0,-224 120.5,-224 120.5,0 0,0"/>
</a>
</g>
</g>
<!-- Node1&#45;&gt;Node2 -->
<g id="edge1_Node000001_Node000002" class="edge">
<title>Node1&#45;&gt;Node2</title>
<g id="a_edge1_Node000001_Node000002"><a xlink:title=" ">
<path fill="none" stroke="#63b8ff" d="M60.25,-249.06C60.25,-241.2 60.25,-232.66 60.25,-223.81"/>
<polygon fill="none" stroke="#63b8ff" points="56.75,-248.89 60.25,-258.89 63.75,-248.89 56.75,-248.89"/>
</a>
</g>
</g>
</g>
</svg>
