<?xml version="1.0" encoding="UTF-8" standalone="no"?>
<!DOCTYPE svg PUBLIC "-//W3C//DTD SVG 1.1//EN"
 "http://www.w3.org/Graphics/SVG/1.1/DTD/svg11.dtd">
<!-- Generated by graphviz version 12.2.1 (20241206.2353)
 -->
<!-- Title: basic_json::diff Pages: 1 -->
<svg width="399pt" height="370pt"
 viewBox="0.00 0.00 398.75 370.00" xmlns="http://www.w3.org/2000/svg" xmlns:xlink="http://www.w3.org/1999/xlink">
<g id="graph0" class="graph" transform="scale(1 1) rotate(0) translate(4 366)">
<title>basic_json::diff</title>
<!-- Node1 -->
<g id="Node000001" class="node">
<title>Node1</title>
<g id="a_Node000001"><a xlink:title="creates a diff as a JSON patch">
<polygon fill="#999999" stroke="#666666" points="81.25,-191 0,-191 0,-171 81.25,-171 81.25,-191"/>
<text text-anchor="middle" x="40.62" y="-177.5" font-family="Helvetica,sans-Serif" font-size="10.00">basic_json::diff</text>
</a>
</g>
</g>
<!-- Node2 -->
<g id="Node000002" class="node">
<title>Node2</title>
<g id="a_Node000002"><a xlink:href="classbasic__json.html#a5251a08382864af52c854fca1bdba61c" target="_top" xlink:title="returns an iterator to the first element">
<polygon fill="white" stroke="#666666" points="221,-362 129.25,-362 129.25,-342 221,-342 221,-362"/>
<text text-anchor="middle" x="175.12" y="-348.5" font-family="Helvetica,sans-Serif" font-size="10.00">basic_json::begin</text>
</a>
</g>
</g>
<!-- Node1&#45;&gt;Node2 -->
<g id="edge1_Node000001_Node000002" class="edge">
<title>Node1&#45;&gt;Node2</title>
<g id="a_edge1_Node000001_Node000002"><a xlink:title=" ">
<path fill="none" stroke="#63b8ff" d="M43.82,-191.17C50.18,-218.29 71.21,-292.96 117.25,-333 118.35,-333.96 119.51,-334.87 120.71,-335.74"/>
<polygon fill="#63b8ff" stroke="#63b8ff" points="118.84,-338.7 129.24,-340.76 122.39,-332.67 118.84,-338.7"/>
</a>
</g>
</g>
<!-- Node3 -->
<g id="Node000003" class="node">
<title>Node3</title>
<g id="a_Node000003"><a xlink:href="classbasic__json.html#a9ab2ece6530b3b2be5b876f80c68dc78" target="_top" xlink:title="returns a const iterator to the first element">
<polygon fill="white" stroke="#666666" points="223.62,-324 126.62,-324 126.62,-304 223.62,-304 223.62,-324"/>
<text text-anchor="middle" x="175.12" y="-310.5" font-family="Helvetica,sans-Serif" font-size="10.00">basic_json::cbegin</text>
</a>
</g>
</g>
<!-- Node1&#45;&gt;Node3 -->
<g id="edge2_Node000001_Node000003" class="edge">
<title>Node1&#45;&gt;Node3</title>
<g id="a_edge2_Node000001_Node000003"><a xlink:title=" ">
<path fill="none" stroke="#63b8ff" d="M45.76,-191.5C55.1,-213.85 79.92,-266.4 117.25,-295 118.78,-296.18 120.39,-297.28 122.06,-298.32"/>
<polygon fill="#63b8ff" stroke="#63b8ff" points="120.28,-301.34 130.77,-302.86 123.52,-295.13 120.28,-301.34"/>
</a>
</g>
</g>
<!-- Node4 -->
<g id="Node000004" class="node">
<title>Node4</title>
<g id="a_Node000004"><a xlink:href="classbasic__json.html#a57c63700f006c54624eb2433ec6526b0" target="_top" xlink:title="returns an iterator to one past the last element">
<polygon fill="white" stroke="#666666" points="219.88,-286 130.38,-286 130.38,-266 219.88,-266 219.88,-286"/>
<text text-anchor="middle" x="175.12" y="-272.5" font-family="Helvetica,sans-Serif" font-size="10.00">basic_json::cend</text>
</a>
</g>
</g>
<!-- Node1&#45;&gt;Node4 -->
<g id="edge3_Node000001_Node000004" class="edge">
<title>Node1&#45;&gt;Node4</title>
<g id="a_edge3_Node000001_Node000004"><a xlink:title=" ">
<path fill="none" stroke="#63b8ff" d="M49.3,-191.37C61.81,-207.58 88.14,-238.95 117.25,-257 119.53,-258.41 121.92,-259.73 124.38,-260.96"/>
<polygon fill="#63b8ff" stroke="#63b8ff" points="122.85,-264.11 133.41,-264.94 125.67,-257.7 122.85,-264.11"/>
</a>
</g>
</g>
<!-- Node5 -->
<g id="Node000005" class="node">
<title>Node5</title>
<g id="a_Node000005"><a xlink:href="classbasic__json.html#a4dbc83213b31a171aa8ba65ff00fa954" target="_top" xlink:title="returns an iterator to one past the last element">
<polygon fill="white" stroke="#666666" points="217.25,-248 133,-248 133,-228 217.25,-228 217.25,-248"/>
<text text-anchor="middle" x="175.12" y="-234.5" font-family="Helvetica,sans-Serif" font-size="10.00">basic_json::end</text>
</a>
</g>
</g>
<!-- Node1&#45;&gt;Node5 -->
<g id="edge4_Node000001_Node000005" class="edge">
<title>Node1&#45;&gt;Node5</title>
<g id="a_edge4_Node000001_Node000005"><a xlink:title=" ">
<path fill="none" stroke="#63b8ff" d="M60.54,-191.46C75.63,-199.56 97.44,-210.76 117.25,-219 121.13,-220.61 125.2,-222.19 129.31,-223.7"/>
<polygon fill="#63b8ff" stroke="#63b8ff" points="128.13,-227 138.72,-227.03 130.46,-220.4 128.13,-227"/>
</a>
</g>
</g>
<!-- Node6 -->
<g id="Node000006" class="node">
<title>Node6</title>
<g id="a_Node000006"><a xlink:href="namespacedetail.html#af2a9ce4740e0b45d33129e2c8e53a0a8" target="_top" xlink:title="string escaping as described in RFC 6901 (Sect. 4)">
<polygon fill="white" stroke="#666666" points="213.5,-210 136.75,-210 136.75,-190 213.5,-190 213.5,-210"/>
<text text-anchor="middle" x="175.12" y="-196.5" font-family="Helvetica,sans-Serif" font-size="10.00">detail::escape</text>
</a>
</g>
</g>
<!-- Node1&#45;&gt;Node6 -->
<g id="edge5_Node000001_Node000006" class="edge">
<title>Node1&#45;&gt;Node6</title>
<g id="a_edge5_Node000001_Node000006"><a xlink:title=" ">
<path fill="none" stroke="#63b8ff" d="M81.74,-186.75C95.44,-188.72 110.92,-190.94 125.24,-192.99"/>
<polygon fill="#63b8ff" stroke="#63b8ff" points="124.52,-196.42 134.92,-194.38 125.51,-189.49 124.52,-196.42"/>
</a>
</g>
</g>
<!-- Node8 -->
<g id="Node000008" class="node">
<title>Node8</title>
<g id="a_Node000008"><a xlink:href="classbasic__json.html#a727e3cfb5a874314d8deb12cb53a8105" target="_top" xlink:title="find an element in a JSON object">
<polygon fill="white" stroke="#666666" points="217.25,-172 133,-172 133,-152 217.25,-152 217.25,-172"/>
<text text-anchor="middle" x="175.12" y="-158.5" font-family="Helvetica,sans-Serif" font-size="10.00">basic_json::find</text>
</a>
</g>
</g>
<!-- Node1&#45;&gt;Node8 -->
<g id="edge7_Node000001_Node000008" class="edge">
<title>Node1&#45;&gt;Node8</title>
<g id="a_edge7_Node000001_Node000008"><a xlink:title=" ">
<path fill="none" stroke="#63b8ff" d="M81.74,-175.25C94.23,-173.46 108.19,-171.45 121.41,-169.56"/>
<polygon fill="#63b8ff" stroke="#63b8ff" points="121.87,-173.03 131.27,-168.14 120.88,-166.1 121.87,-173.03"/>
</a>
</g>
</g>
<!-- Node10 -->
<g id="Node000010" class="node">
<title>Node10</title>
<g id="a_Node000010"><a xlink:href="classbasic__json.html#a7f3817060c2bec896a99cb2c236b9c27" target="_top" xlink:title="inserts element into array">
<polygon fill="white" stroke="#666666" points="221.38,-134 128.88,-134 128.88,-114 221.38,-114 221.38,-134"/>
<text text-anchor="middle" x="175.12" y="-120.5" font-family="Helvetica,sans-Serif" font-size="10.00">basic_json::insert</text>
</a>
</g>
</g>
<!-- Node1&#45;&gt;Node10 -->
<g id="edge9_Node000001_Node000010" class="edge">
<title>Node1&#45;&gt;Node10</title>
<g id="a_edge9_Node000001_Node000010"><a xlink:title=" ">
<path fill="none" stroke="#63b8ff" d="M60.54,-170.54C75.63,-162.44 97.44,-151.24 117.25,-143 121.13,-141.39 125.2,-139.81 129.31,-138.3"/>
<polygon fill="#63b8ff" stroke="#63b8ff" points="130.46,-141.6 138.72,-134.97 128.13,-135 130.46,-141.6"/>
</a>
</g>
</g>
<!-- Node11 -->
<g id="Node000011" class="node">
<title>Node11</title>
<g id="a_Node000011"><a xlink:href="classbasic__json.html#a3d13acce4e49e0d5ee768643a7b89010" target="_top" xlink:title="add an object to an array">
<polygon fill="white" stroke="#666666" points="233,-96 117.25,-96 117.25,-76 233,-76 233,-96"/>
<text text-anchor="middle" x="175.12" y="-82.5" font-family="Helvetica,sans-Serif" font-size="10.00">basic_json::push_back</text>
</a>
</g>
</g>
<!-- Node1&#45;&gt;Node11 -->
<g id="edge10_Node000001_Node000011" class="edge">
<title>Node1&#45;&gt;Node11</title>
<g id="a_edge10_Node000001_Node000011"><a xlink:title=" ">
<path fill="none" stroke="#63b8ff" d="M49.3,-170.63C61.81,-154.42 88.14,-123.05 117.25,-105 119.53,-103.59 121.92,-102.27 124.38,-101.04"/>
<polygon fill="#63b8ff" stroke="#63b8ff" points="125.67,-104.3 133.41,-97.06 122.85,-97.89 125.67,-104.3"/>
</a>
</g>
</g>
<!-- Node12 -->
<g id="Node000012" class="node">
<title>Node12</title>
<g id="a_Node000012"><a xlink:href="classbasic__json.html#a086cbfd1ad4ba83a8127c87467a92f47" target="_top" xlink:title="returns the number of elements">
<polygon fill="white" stroke="#666666" points="218.38,-58 131.88,-58 131.88,-38 218.38,-38 218.38,-58"/>
<text text-anchor="middle" x="175.12" y="-44.5" font-family="Helvetica,sans-Serif" font-size="10.00">basic_json::size</text>
</a>
</g>
</g>
<!-- Node1&#45;&gt;Node12 -->
<g id="edge11_Node000001_Node000012" class="edge">
<title>Node1&#45;&gt;Node12</title>
<g id="a_edge11_Node000001_Node000012"><a xlink:title=" ">
<path fill="none" stroke="#63b8ff" d="M45.76,-170.5C55.1,-148.15 79.92,-95.6 117.25,-67 118.78,-65.82 120.39,-64.72 122.06,-63.68"/>
<polygon fill="#63b8ff" stroke="#63b8ff" points="123.52,-66.87 130.77,-59.14 120.28,-60.66 123.52,-66.87"/>
</a>
</g>
</g>
<!-- Node13 -->
<g id="Node000013" class="node">
<title>Node13</title>
<g id="a_Node000013"><a xlink:href="classbasic__json.html#ac5e52dbb3cb4e9fcabd1b88c37985aef" target="_top" xlink:title="return the type of the JSON value (explicit)">
<polygon fill="white" stroke="#666666" points="218.75,-20 131.5,-20 131.5,0 218.75,0 218.75,-20"/>
<text text-anchor="middle" x="175.12" y="-6.5" font-family="Helvetica,sans-Serif" font-size="10.00">basic_json::type</text>
</a>
</g>
</g>
<!-- Node1&#45;&gt;Node13 -->
<g id="edge12_Node000001_Node000013" class="edge">
<title>Node1&#45;&gt;Node13</title>
<g id="a_edge12_Node000001_Node000013"><a xlink:title=" ">
<path fill="none" stroke="#63b8ff" d="M43.82,-170.83C50.18,-143.71 71.21,-69.04 117.25,-29 118.53,-27.89 119.87,-26.84 121.27,-25.86"/>
<polygon fill="#63b8ff" stroke="#63b8ff" points="122.88,-28.97 129.81,-20.95 119.39,-22.9 122.88,-28.97"/>
</a>
</g>
</g>
<!-- Node7 -->
<g id="Node000007" class="node">
<title>Node7</title>
<g id="a_Node000007"><a xlink:href="namespacedetail.html#a6fd295e53b1dd4f46e235e6afee26d5e" target="_top" xlink:title="replace all occurrences of a substring by another string">
<polygon fill="white" stroke="#666666" points="390.75,-210 269,-210 269,-190 390.75,-190 390.75,-210"/>
<text text-anchor="middle" x="329.88" y="-196.5" font-family="Helvetica,sans-Serif" font-size="10.00">detail::replace_substring</text>
</a>
</g>
</g>
<!-- Node6&#45;&gt;Node7 -->
<g id="edge6_Node000006_Node000007" class="edge">
<title>Node6&#45;&gt;Node7</title>
<g id="a_edge6_Node000006_Node000007"><a xlink:title=" ">
<path fill="none" stroke="#63b8ff" d="M213.88,-200C227.05,-200 242.29,-200 257.29,-200"/>
<polygon fill="#63b8ff" stroke="#63b8ff" points="257.15,-203.5 267.15,-200 257.15,-196.5 257.15,-203.5"/>
</a>
</g>
</g>
<!-- Node9 -->
<g id="Node000009" class="node">
<title>Node9</title>
<g id="a_Node000009"><a xlink:href="structjson__sax.html#a3355ecd7e3e9806dcb80b2f8842b82ce" target="_top" xlink:title="an object key was read">
<polygon fill="white" stroke="#666666" points="368.25,-172 291.5,-172 291.5,-152 368.25,-152 368.25,-172"/>
<text text-anchor="middle" x="329.88" y="-158.5" font-family="Helvetica,sans-Serif" font-size="10.00">json_sax::key</text>
</a>
</g>
</g>
<!-- Node8&#45;&gt;Node9 -->
<g id="edge8_Node000008_Node000009" class="edge">
<title>Node8&#45;&gt;Node9</title>
<g id="a_edge8_Node000008_Node000009"><a xlink:title=" ">
<path fill="none" stroke="#63b8ff" d="M217.46,-162C236.66,-162 259.64,-162 279.73,-162"/>
<polygon fill="#63b8ff" stroke="#63b8ff" points="279.66,-165.5 289.66,-162 279.66,-158.5 279.66,-165.5"/>
</a>
</g>
</g>
</g>
</svg>
