<?xml version="1.0" encoding="UTF-8" standalone="no"?>
<!DOCTYPE svg PUBLIC "-//W3C//DTD SVG 1.1//EN"
 "http://www.w3.org/Graphics/SVG/1.1/DTD/svg11.dtd">
<!-- Generated by graphviz version 12.2.1 (20241206.2353)
 -->
<!-- Title: detail::parse_error Pages: 1 -->
<svg width="94pt" height="316pt"
 viewBox="0.00 0.00 94.00 316.00" xmlns="http://www.w3.org/2000/svg" xmlns:xlink="http://www.w3.org/1999/xlink">
<g id="graph0" class="graph" transform="scale(1 1) rotate(0) translate(4 312)">
<title>detail::parse_error</title>
<!-- Node1 -->
<g id="Node000001" class="node">
<title>Node1</title>
<g id="a_Node000001"><a xlink:title="exception indicating a parse error">
<polygon fill="#999999" stroke="none" points="86,-68 0,-68 0,0 86,0 86,-68"/>
<text text-anchor="start" x="4" y="-54.5" font-family="Helvetica,sans-Serif" font-size="10.00">detail::parse_error</text>
<text text-anchor="start" x="12.75" y="-38.5" font-family="Helvetica,sans-Serif" font-size="10.00">+</text>
<text text-anchor="start" x="31.5" y="-38.5" font-family="Helvetica,sans-Serif" font-size="10.00">byte</text>
<text text-anchor="start" x="12.75" y="-22.5" font-family="Helvetica,sans-Serif" font-size="10.00">+</text>
<text text-anchor="start" x="31.5" y="-22.5" font-family="Helvetica,sans-Serif" font-size="10.00">create()</text>
<text text-anchor="start" x="12.75" y="-6.5" font-family="Helvetica,sans-Serif" font-size="10.00">+</text>
<text text-anchor="start" x="31.5" y="-6.5" font-family="Helvetica,sans-Serif" font-size="10.00">create()</text>
<polygon fill="#666666" stroke="#666666" points="0,-50 0,-50 86,-50 86,-50 0,-50"/>
<polygon fill="#666666" stroke="#666666" points="0,-34 0,-34 29.5,-34 29.5,-34 0,-34"/>
<polygon fill="#666666" stroke="#666666" points="29.5,-34 29.5,-34 86,-34 86,-34 29.5,-34"/>
<polygon fill="none" stroke="#666666" points="0,0 0,-68 86,-68 86,0 0,0"/>
</a>
</g>
</g>
<!-- Node2 -->
<g id="Node000002" class="node">
<title>Node2</title>
<g id="a_Node000002"><a xlink:href="classdetail_1_1exception.html" target="_top" xlink:title="general exception of the basic_json class">
<polygon fill="white" stroke="none" points="82.62,-220 3.38,-220 3.38,-104 82.62,-104 82.62,-220"/>
<text text-anchor="start" x="7.38" y="-206.5" font-family="Helvetica,sans-Serif" font-size="10.00">detail::exception</text>
<text text-anchor="start" x="8.81" y="-190.5" font-family="Helvetica,sans-Serif" font-size="10.00">+</text>
<text text-anchor="start" x="20.25" y="-190.5" font-family="Helvetica,sans-Serif" font-size="10.00">id</text>
<text text-anchor="start" x="8.81" y="-174.5" font-family="Helvetica,sans-Serif" font-size="10.00">+</text>
<text text-anchor="start" x="20.25" y="-174.5" font-family="Helvetica,sans-Serif" font-size="10.00">what()</text>
<text text-anchor="start" x="9.19" y="-158.5" font-family="Helvetica,sans-Serif" font-size="10.00">#</text>
<text text-anchor="start" x="20.25" y="-158.5" font-family="Helvetica,sans-Serif" font-size="10.00">exception()</text>
<text text-anchor="start" x="9.19" y="-142.5" font-family="Helvetica,sans-Serif" font-size="10.00">#</text>
<text text-anchor="start" x="20.25" y="-142.5" font-family="Helvetica,sans-Serif" font-size="10.00">name()</text>
<text text-anchor="start" x="9.19" y="-126.5" font-family="Helvetica,sans-Serif" font-size="10.00">#</text>
<text text-anchor="start" x="20.25" y="-126.5" font-family="Helvetica,sans-Serif" font-size="10.00">diagnostics()</text>
<text text-anchor="start" x="9.19" y="-110.5" font-family="Helvetica,sans-Serif" font-size="10.00">#</text>
<text text-anchor="start" x="20.25" y="-110.5" font-family="Helvetica,sans-Serif" font-size="10.00">diagnostics()</text>
<polygon fill="#666666" stroke="#666666" points="3.38,-202 3.38,-202 82.62,-202 82.62,-202 3.38,-202"/>
<polygon fill="#666666" stroke="#666666" points="3.38,-186 3.38,-186 18.25,-186 18.25,-186 3.38,-186"/>
<polygon fill="#666666" stroke="#666666" points="18.25,-186 18.25,-186 82.62,-186 82.62,-186 18.25,-186"/>
<polygon fill="none" stroke="#666666" points="3.38,-104 3.38,-220 82.62,-220 82.62,-104 3.38,-104"/>
</a>
</g>
</g>
<!-- Node2&#45;&gt;Node1 -->
<g id="edge1_Node000001_Node000002" class="edge">
<title>Node2&#45;&gt;Node1</title>
<g id="a_edge1_Node000001_Node000002"><a xlink:title=" ">
<path fill="none" stroke="#63b8ff" d="M43,-92.77C43,-84.03 43,-75.44 43,-67.65"/>
<polygon fill="none" stroke="#63b8ff" points="39.5,-92.75 43,-102.75 46.5,-92.75 39.5,-92.75"/>
</a>
</g>
</g>
<!-- Node3 -->
<g id="Node000003" class="node">
<title>Node3</title>
<g id="a_Node000003"><a xlink:title=" ">
<polygon fill="white" stroke="none" points="77.75,-308 8.25,-308 8.25,-256 77.75,-256 77.75,-308"/>
<text text-anchor="start" x="12.25" y="-294.5" font-family="Helvetica,sans-Serif" font-size="10.00">std::exception</text>
<text text-anchor="start" x="41.5" y="-278.5" font-family="Helvetica,sans-Serif" font-size="10.00"> </text>
<text text-anchor="start" x="41.5" y="-262.5" font-family="Helvetica,sans-Serif" font-size="10.00"> </text>
<polygon fill="#bfbfbf" stroke="#bfbfbf" points="8.25,-290 8.25,-290 77.75,-290 77.75,-290 8.25,-290"/>
<polygon fill="#bfbfbf" stroke="#bfbfbf" points="8.25,-274 8.25,-274 77.75,-274 77.75,-274 8.25,-274"/>
<polygon fill="none" stroke="#bfbfbf" points="8.25,-256 8.25,-308 77.75,-308 77.75,-256 8.25,-256"/>
</a>
</g>
</g>
<!-- Node3&#45;&gt;Node2 -->
<g id="edge2_Node000002_Node000003" class="edge">
<title>Node3&#45;&gt;Node2</title>
<g id="a_edge2_Node000002_Node000003"><a xlink:title=" ">
<path fill="none" stroke="#63b8ff" d="M43,-244.82C43,-236.89 43,-228.31 43,-219.79"/>
<polygon fill="none" stroke="#63b8ff" points="39.5,-244.75 43,-254.75 46.5,-244.75 39.5,-244.75"/>
</a>
</g>
</g>
</g>
</svg>
