<?xml version="1.0" encoding="UTF-8" standalone="no"?>
<!DOCTYPE svg PUBLIC "-//W3C//DTD SVG 1.1//EN"
 "http://www.w3.org/Graphics/SVG/1.1/DTD/svg11.dtd">
<!-- Generated by graphviz version 12.2.1 (20241206.2353)
 -->
<!-- Title: byte_container_with_subtype&lt; BinaryType &gt; Pages: 1 -->
<svg width="123pt" height="380pt"
 viewBox="0.00 0.00 122.50 380.00" xmlns="http://www.w3.org/2000/svg" xmlns:xlink="http://www.w3.org/1999/xlink">
<g id="graph0" class="graph" transform="scale(1 1) rotate(0) translate(4 376)">
<title>byte_container_with_subtype&lt; BinaryType &gt;</title>
<!-- Node1 -->
<g id="Node000001" class="node">
<title>Node1</title>
<g id="a_Node000001"><a xlink:title="an internal type for a backed binary type">
<polygon fill="#999999" stroke="none" points="114.5,-284 0,-284 0,0 114.5,0 114.5,-284"/>
<text text-anchor="start" x="4" y="-270.5" font-family="Helvetica,sans-Serif" font-size="10.00">byte_container_with</text>
<text text-anchor="start" x="4" y="-258.5" font-family="Helvetica,sans-Serif" font-size="10.00">_subtype&lt; BinaryType &gt;</text>
<text text-anchor="start" x="55.75" y="-242.5" font-family="Helvetica,sans-Serif" font-size="10.00"> </text>
<text text-anchor="start" x="6.38" y="-226.5" font-family="Helvetica,sans-Serif" font-size="10.00">+</text>
<text text-anchor="start" x="18.75" y="-226.5" font-family="Helvetica,sans-Serif" font-size="10.00">byte_container_with</text>
<text text-anchor="start" x="18.75" y="-214.5" font-family="Helvetica,sans-Serif" font-size="10.00">_subtype()</text>
<text text-anchor="start" x="6.38" y="-198.5" font-family="Helvetica,sans-Serif" font-size="10.00">+</text>
<text text-anchor="start" x="18.75" y="-198.5" font-family="Helvetica,sans-Serif" font-size="10.00">byte_container_with</text>
<text text-anchor="start" x="18.75" y="-186.5" font-family="Helvetica,sans-Serif" font-size="10.00">_subtype()</text>
<text text-anchor="start" x="6.38" y="-170.5" font-family="Helvetica,sans-Serif" font-size="10.00">+</text>
<text text-anchor="start" x="18.75" y="-170.5" font-family="Helvetica,sans-Serif" font-size="10.00">byte_container_with</text>
<text text-anchor="start" x="18.75" y="-158.5" font-family="Helvetica,sans-Serif" font-size="10.00">_subtype()</text>
<text text-anchor="start" x="6.38" y="-142.5" font-family="Helvetica,sans-Serif" font-size="10.00">+</text>
<text text-anchor="start" x="18.75" y="-142.5" font-family="Helvetica,sans-Serif" font-size="10.00">byte_container_with</text>
<text text-anchor="start" x="18.75" y="-130.5" font-family="Helvetica,sans-Serif" font-size="10.00">_subtype()</text>
<text text-anchor="start" x="6.38" y="-114.5" font-family="Helvetica,sans-Serif" font-size="10.00">+</text>
<text text-anchor="start" x="18.75" y="-114.5" font-family="Helvetica,sans-Serif" font-size="10.00">byte_container_with</text>
<text text-anchor="start" x="18.75" y="-102.5" font-family="Helvetica,sans-Serif" font-size="10.00">_subtype()</text>
<text text-anchor="start" x="6.38" y="-86.5" font-family="Helvetica,sans-Serif" font-size="10.00">+</text>
<text text-anchor="start" x="18.75" y="-86.5" font-family="Helvetica,sans-Serif" font-size="10.00">operator==()</text>
<text text-anchor="start" x="6.38" y="-70.5" font-family="Helvetica,sans-Serif" font-size="10.00">+</text>
<text text-anchor="start" x="18.75" y="-70.5" font-family="Helvetica,sans-Serif" font-size="10.00">operator!=()</text>
<text text-anchor="start" x="6.38" y="-54.5" font-family="Helvetica,sans-Serif" font-size="10.00">+</text>
<text text-anchor="start" x="18.75" y="-54.5" font-family="Helvetica,sans-Serif" font-size="10.00">set_subtype()</text>
<text text-anchor="start" x="6.38" y="-38.5" font-family="Helvetica,sans-Serif" font-size="10.00">+</text>
<text text-anchor="start" x="18.75" y="-38.5" font-family="Helvetica,sans-Serif" font-size="10.00">subtype()</text>
<text text-anchor="start" x="6.38" y="-22.5" font-family="Helvetica,sans-Serif" font-size="10.00">+</text>
<text text-anchor="start" x="18.75" y="-22.5" font-family="Helvetica,sans-Serif" font-size="10.00">has_subtype()</text>
<text text-anchor="start" x="6.38" y="-6.5" font-family="Helvetica,sans-Serif" font-size="10.00">+</text>
<text text-anchor="start" x="18.75" y="-6.5" font-family="Helvetica,sans-Serif" font-size="10.00">clear_subtype()</text>
<polygon fill="#666666" stroke="#666666" points="0,-254 0,-254 114.5,-254 114.5,-254 0,-254"/>
<polygon fill="#666666" stroke="#666666" points="0,-238 0,-238 114.5,-238 114.5,-238 0,-238"/>
<polygon fill="none" stroke="#666666" points="0,0 0,-284 114.5,-284 114.5,0 0,0"/>
</a>
</g>
</g>
<!-- Node2 -->
<g id="Node000002" class="node">
<title>Node2</title>
<g id="a_Node000002"><a xlink:title=" ">
<polygon fill="white" stroke="none" points="85.62,-372 28.88,-372 28.88,-320 85.62,-320 85.62,-372"/>
<text text-anchor="start" x="32.88" y="-358.5" font-family="Helvetica,sans-Serif" font-size="10.00">BinaryType</text>
<text text-anchor="start" x="55.75" y="-342.5" font-family="Helvetica,sans-Serif" font-size="10.00"> </text>
<text text-anchor="start" x="55.75" y="-326.5" font-family="Helvetica,sans-Serif" font-size="10.00"> </text>
<polygon fill="#bfbfbf" stroke="#bfbfbf" points="28.88,-354 28.88,-354 85.62,-354 85.62,-354 28.88,-354"/>
<polygon fill="#bfbfbf" stroke="#bfbfbf" points="28.88,-338 28.88,-338 85.62,-338 85.62,-338 28.88,-338"/>
<polygon fill="none" stroke="#bfbfbf" points="28.88,-320 28.88,-372 85.62,-372 85.62,-320 28.88,-320"/>
</a>
</g>
</g>
<!-- Node2&#45;&gt;Node1 -->
<g id="edge1_Node000001_Node000002" class="edge">
<title>Node2&#45;&gt;Node1</title>
<g id="a_edge1_Node000001_Node000002"><a xlink:title=" ">
<path fill="none" stroke="#63b8ff" d="M57.25,-308.99C57.25,-301.35 57.25,-292.85 57.25,-283.85"/>
<polygon fill="none" stroke="#63b8ff" points="53.75,-308.72 57.25,-318.72 60.75,-308.72 53.75,-308.72"/>
</a>
</g>
</g>
</g>
</svg>
