<?xml version="1.0" encoding="UTF-8" standalone="no"?>
<!DOCTYPE svg PUBLIC "-//W3C//DTD SVG 1.1//EN"
 "http://www.w3.org/Graphics/SVG/1.1/DTD/svg11.dtd">
<!-- Generated by graphviz version 12.2.1 (20241206.2353)
 -->
<!-- Title: detail::output_string_adapter&lt; CharType, StringType &gt; Pages: 1 -->
<svg width="166pt" height="316pt"
 viewBox="0.00 0.00 166.00 316.00" xmlns="http://www.w3.org/2000/svg" xmlns:xlink="http://www.w3.org/1999/xlink">
<g id="graph0" class="graph" transform="scale(1 1) rotate(0) translate(4 312)">
<title>detail::output_string_adapter&lt; CharType, StringType &gt;</title>
<!-- Node1 -->
<g id="Node000001" class="node">
<title>Node1</title>
<g id="a_Node000001"><a xlink:title="output adapter for basic_string">
<polygon fill="#999999" stroke="none" points="158,-96 0,-96 0,0 158,0 158,-96"/>
<text text-anchor="start" x="4" y="-82.5" font-family="Helvetica,sans-Serif" font-size="10.00">detail::output_string</text>
<text text-anchor="start" x="4" y="-70.5" font-family="Helvetica,sans-Serif" font-size="10.00">_adapter&lt; CharType, StringType &gt;</text>
<text text-anchor="start" x="77.5" y="-54.5" font-family="Helvetica,sans-Serif" font-size="10.00"> </text>
<text text-anchor="start" x="14.06" y="-38.5" font-family="Helvetica,sans-Serif" font-size="10.00">+</text>
<text text-anchor="start" x="34.12" y="-38.5" font-family="Helvetica,sans-Serif" font-size="10.00">output_string_adapter()</text>
<text text-anchor="start" x="14.06" y="-22.5" font-family="Helvetica,sans-Serif" font-size="10.00">+</text>
<text text-anchor="start" x="34.12" y="-22.5" font-family="Helvetica,sans-Serif" font-size="10.00">write_character()</text>
<text text-anchor="start" x="14.06" y="-6.5" font-family="Helvetica,sans-Serif" font-size="10.00">+</text>
<text text-anchor="start" x="34.12" y="-6.5" font-family="Helvetica,sans-Serif" font-size="10.00">write_characters()</text>
<polygon fill="#666666" stroke="#666666" points="0,-66 0,-66 158,-66 158,-66 0,-66"/>
<polygon fill="#666666" stroke="#666666" points="0,-50 0,-50 158,-50 158,-50 0,-50"/>
<polygon fill="none" stroke="#666666" points="0,0 0,-96 158,-96 158,0 0,0"/>
</a>
</g>
</g>
<!-- Node2 -->
<g id="Node000002" class="node">
<title>Node2</title>
<g id="a_Node000002"><a xlink:href="structdetail_1_1output__adapter__protocol.html" target="_top" xlink:title="abstract output adapter interface">
<polygon fill="white" stroke="none" points="146.12,-308 11.88,-308 11.88,-132 146.12,-132 146.12,-308"/>
<text text-anchor="start" x="29.12" y="-294.5" font-family="Helvetica,sans-Serif" font-size="10.00">detail::output_adapter</text>
<text text-anchor="start" x="29.12" y="-282.5" font-family="Helvetica,sans-Serif" font-size="10.00">_protocol&lt; CharType &gt;</text>
<text text-anchor="start" x="77.5" y="-266.5" font-family="Helvetica,sans-Serif" font-size="10.00"> </text>
<text text-anchor="start" x="15.88" y="-250.5" font-family="Helvetica,sans-Serif" font-size="10.00">+</text>
<text text-anchor="start" x="25.88" y="-250.5" font-family="Helvetica,sans-Serif" font-size="10.00">write_character()</text>
<text text-anchor="start" x="15.88" y="-234.5" font-family="Helvetica,sans-Serif" font-size="10.00">+</text>
<text text-anchor="start" x="25.88" y="-234.5" font-family="Helvetica,sans-Serif" font-size="10.00">write_characters()</text>
<text text-anchor="start" x="15.88" y="-218.5" font-family="Helvetica,sans-Serif" font-size="10.00">+</text>
<text text-anchor="start" x="25.88" y="-218.5" font-family="Helvetica,sans-Serif" font-size="10.00">~output_adapter_protocol()</text>
<text text-anchor="start" x="15.88" y="-202.5" font-family="Helvetica,sans-Serif" font-size="10.00">+</text>
<text text-anchor="start" x="25.88" y="-202.5" font-family="Helvetica,sans-Serif" font-size="10.00">output_adapter_protocol()</text>
<text text-anchor="start" x="15.88" y="-186.5" font-family="Helvetica,sans-Serif" font-size="10.00">+</text>
<text text-anchor="start" x="25.88" y="-186.5" font-family="Helvetica,sans-Serif" font-size="10.00">output_adapter_protocol()</text>
<text text-anchor="start" x="15.88" y="-170.5" font-family="Helvetica,sans-Serif" font-size="10.00">+</text>
<text text-anchor="start" x="25.88" y="-170.5" font-family="Helvetica,sans-Serif" font-size="10.00">output_adapter_protocol()</text>
<text text-anchor="start" x="15.88" y="-154.5" font-family="Helvetica,sans-Serif" font-size="10.00">+</text>
<text text-anchor="start" x="25.88" y="-154.5" font-family="Helvetica,sans-Serif" font-size="10.00">operator=()</text>
<text text-anchor="start" x="15.88" y="-138.5" font-family="Helvetica,sans-Serif" font-size="10.00">+</text>
<text text-anchor="start" x="25.88" y="-138.5" font-family="Helvetica,sans-Serif" font-size="10.00">operator=()</text>
<polygon fill="#666666" stroke="#666666" points="11.88,-278 11.88,-278 146.12,-278 146.12,-278 11.88,-278"/>
<polygon fill="#666666" stroke="#666666" points="11.88,-262 11.88,-262 146.12,-262 146.12,-262 11.88,-262"/>
<polygon fill="none" stroke="#666666" points="11.88,-132 11.88,-308 146.12,-308 146.12,-132 11.88,-132"/>
</a>
</g>
</g>
<!-- Node2&#45;&gt;Node1 -->
<g id="edge1_Node000001_Node000002" class="edge">
<title>Node2&#45;&gt;Node1</title>
<g id="a_edge1_Node000001_Node000002"><a xlink:title=" ">
<path fill="none" stroke="#63b8ff" d="M79,-120.7C79,-112.16 79,-103.81 79,-95.99"/>
<polygon fill="none" stroke="#63b8ff" points="75.5,-120.49 79,-130.49 82.5,-120.49 75.5,-120.49"/>
</a>
</g>
</g>
</g>
</svg>
