<?xml version="1.0" encoding="UTF-8" standalone="no"?>
<!DOCTYPE svg PUBLIC "-//W3C//DTD SVG 1.1//EN"
 "http://www.w3.org/Graphics/SVG/1.1/DTD/svg11.dtd">
<!-- Generated by graphviz version 12.2.1 (20241206.2353)
 -->
<!-- Title: UiExpenseWindow Pages: 1 -->
<svg width="121pt" height="164pt"
 viewBox="0.00 0.00 121.25 164.00" xmlns="http://www.w3.org/2000/svg" xmlns:xlink="http://www.w3.org/1999/xlink">
<g id="graph0" class="graph" transform="scale(1 1) rotate(0) translate(4 160)">
<title>UiExpenseWindow</title>
<!-- Node1 -->
<g id="Node000001" class="node">
<title>Node1</title>
<g id="a_Node000001"><a xlink:title=" ">
<polygon fill="#999999" stroke="none" points="113.25,-68 0,-68 0,0 113.25,0 113.25,-68"/>
<text text-anchor="start" x="15" y="-54.5" font-family="Helvetica,sans-Serif" font-size="10.00">UiExpenseWindow</text>
<text text-anchor="start" x="55.12" y="-38.5" font-family="Helvetica,sans-Serif" font-size="10.00"> </text>
<text text-anchor="start" x="4" y="-22.5" font-family="Helvetica,sans-Serif" font-size="10.00">+</text>
<text text-anchor="start" x="14" y="-22.5" font-family="Helvetica,sans-Serif" font-size="10.00">UiExpenseWindow()</text>
<text text-anchor="start" x="4" y="-6.5" font-family="Helvetica,sans-Serif" font-size="10.00">+</text>
<text text-anchor="start" x="14" y="-6.5" font-family="Helvetica,sans-Serif" font-size="10.00">~UiExpenseWindow()</text>
<polygon fill="#666666" stroke="#666666" points="0,-50 0,-50 113.25,-50 113.25,-50 0,-50"/>
<polygon fill="#666666" stroke="#666666" points="0,-34 0,-34 113.25,-34 113.25,-34 0,-34"/>
<polygon fill="none" stroke="#666666" points="0,0 0,-68 113.25,-68 113.25,0 0,0"/>
</a>
</g>
</g>
<!-- Node2 -->
<g id="Node000002" class="node">
<title>Node2</title>
<g id="a_Node000002"><a xlink:title=" ">
<polygon fill="white" stroke="none" points="85,-156 28.25,-156 28.25,-104 85,-104 85,-156"/>
<text text-anchor="start" x="32.25" y="-142.5" font-family="Helvetica,sans-Serif" font-size="10.00">Fl_Window</text>
<text text-anchor="start" x="55.12" y="-126.5" font-family="Helvetica,sans-Serif" font-size="10.00"> </text>
<text text-anchor="start" x="55.12" y="-110.5" font-family="Helvetica,sans-Serif" font-size="10.00"> </text>
<polygon fill="#bfbfbf" stroke="#bfbfbf" points="28.25,-138 28.25,-138 85,-138 85,-138 28.25,-138"/>
<polygon fill="#bfbfbf" stroke="#bfbfbf" points="28.25,-122 28.25,-122 85,-122 85,-122 28.25,-122"/>
<polygon fill="none" stroke="#bfbfbf" points="28.25,-104 28.25,-156 85,-156 85,-104 28.25,-104"/>
</a>
</g>
</g>
<!-- Node2&#45;&gt;Node1 -->
<g id="edge1_Node000001_Node000002" class="edge">
<title>Node2&#45;&gt;Node1</title>
<g id="a_edge1_Node000001_Node000002"><a xlink:title=" ">
<path fill="none" stroke="#63b8ff" d="M56.62,-92.97C56.62,-84.65 56.62,-75.84 56.62,-67.67"/>
<polygon fill="none" stroke="#63b8ff" points="53.13,-92.79 56.63,-102.79 60.13,-92.79 53.13,-92.79"/>
</a>
</g>
</g>
</g>
</svg>
