<?xml version="1.0" encoding="UTF-8" standalone="no"?>
<!DOCTYPE svg PUBLIC "-//W3C//DTD SVG 1.1//EN"
 "http://www.w3.org/Graphics/SVG/1.1/DTD/svg11.dtd">
<!-- Generated by graphviz version 12.2.1 (20241206.2353)
 -->
<!-- Title: UiProfileWindow Pages: 1 -->
<svg width="111pt" height="164pt"
 viewBox="0.00 0.00 110.75 164.00" xmlns="http://www.w3.org/2000/svg" xmlns:xlink="http://www.w3.org/1999/xlink">
<g id="graph0" class="graph" transform="scale(1 1) rotate(0) translate(4 160)">
<title>UiProfileWindow</title>
<!-- Node1 -->
<g id="Node000001" class="node">
<title>Node1</title>
<g id="a_Node000001"><a xlink:title=" ">
<polygon fill="#999999" stroke="none" points="102.75,-68 0,-68 0,0 102.75,0 102.75,-68"/>
<text text-anchor="start" x="15" y="-54.5" font-family="Helvetica,sans-Serif" font-size="10.00">UiProfileWindow</text>
<text text-anchor="start" x="49.88" y="-38.5" font-family="Helvetica,sans-Serif" font-size="10.00"> </text>
<text text-anchor="start" x="4" y="-22.5" font-family="Helvetica,sans-Serif" font-size="10.00">+</text>
<text text-anchor="start" x="14" y="-22.5" font-family="Helvetica,sans-Serif" font-size="10.00">UiProfileWindow()</text>
<text text-anchor="start" x="4" y="-6.5" font-family="Helvetica,sans-Serif" font-size="10.00">+</text>
<text text-anchor="start" x="14" y="-6.5" font-family="Helvetica,sans-Serif" font-size="10.00">~UiProfileWindow()</text>
<polygon fill="#666666" stroke="#666666" points="0,-50 0,-50 102.75,-50 102.75,-50 0,-50"/>
<polygon fill="#666666" stroke="#666666" points="0,-34 0,-34 102.75,-34 102.75,-34 0,-34"/>
<polygon fill="none" stroke="#666666" points="0,0 0,-68 102.75,-68 102.75,0 0,0"/>
</a>
</g>
</g>
<!-- Node2 -->
<g id="Node000002" class="node">
<title>Node2</title>
<g id="a_Node000002"><a xlink:title=" ">
<polygon fill="white" stroke="none" points="79.75,-156 23,-156 23,-104 79.75,-104 79.75,-156"/>
<text text-anchor="start" x="27" y="-142.5" font-family="Helvetica,sans-Serif" font-size="10.00">Fl_Window</text>
<text text-anchor="start" x="49.88" y="-126.5" font-family="Helvetica,sans-Serif" font-size="10.00"> </text>
<text text-anchor="start" x="49.88" y="-110.5" font-family="Helvetica,sans-Serif" font-size="10.00"> </text>
<polygon fill="#bfbfbf" stroke="#bfbfbf" points="23,-138 23,-138 79.75,-138 79.75,-138 23,-138"/>
<polygon fill="#bfbfbf" stroke="#bfbfbf" points="23,-122 23,-122 79.75,-122 79.75,-122 23,-122"/>
<polygon fill="none" stroke="#bfbfbf" points="23,-104 23,-156 79.75,-156 79.75,-104 23,-104"/>
</a>
</g>
</g>
<!-- Node2&#45;&gt;Node1 -->
<g id="edge1_Node000001_Node000002" class="edge">
<title>Node2&#45;&gt;Node1</title>
<g id="a_edge1_Node000001_Node000002"><a xlink:title=" ">
<path fill="none" stroke="#63b8ff" d="M51.38,-92.97C51.38,-84.65 51.38,-75.84 51.38,-67.67"/>
<polygon fill="none" stroke="#63b8ff" points="47.88,-92.79 51.38,-102.79 54.88,-92.79 47.88,-92.79"/>
</a>
</g>
</g>
</g>
</svg>
