<?xml version="1.0" encoding="UTF-8" standalone="no"?>
<!DOCTYPE svg PUBLIC "-//W3C//DTD SVG 1.1//EN"
 "http://www.w3.org/Graphics/SVG/1.1/DTD/svg11.dtd">
<!-- Generated by graphviz version 12.2.1 (20241206.2353)
 -->
<!-- Title: detail::output_adapter&lt; CharType, StringType &gt; Pages: 1 -->
<svg width="129pt" height="132pt"
 viewBox="0.00 0.00 128.75 132.00" xmlns="http://www.w3.org/2000/svg" xmlns:xlink="http://www.w3.org/1999/xlink">
<g id="graph0" class="graph" transform="scale(1 1) rotate(0) translate(4 128)">
<title>detail::output_adapter&lt; CharType, StringType &gt;</title>
<!-- Node1 -->
<g id="Node000001" class="node">
<title>Node1</title>
<g id="a_Node000001"><a xlink:title=" ">
<polygon fill="#999999" stroke="none" points="120.75,-124 0,-124 0,0 120.75,0 120.75,-124"/>
<text text-anchor="start" x="4.12" y="-110.5" font-family="Helvetica,sans-Serif" font-size="10.00">detail::output_adapter</text>
<text text-anchor="start" x="4.12" y="-98.5" font-family="Helvetica,sans-Serif" font-size="10.00">&lt; CharType, StringType &gt;</text>
<text text-anchor="start" x="58.88" y="-82.5" font-family="Helvetica,sans-Serif" font-size="10.00"> </text>
<text text-anchor="start" x="4" y="-66.5" font-family="Helvetica,sans-Serif" font-size="10.00">+</text>
<text text-anchor="start" x="14" y="-66.5" font-family="Helvetica,sans-Serif" font-size="10.00">output_adapter()</text>
<text text-anchor="start" x="4" y="-50.5" font-family="Helvetica,sans-Serif" font-size="10.00">+</text>
<text text-anchor="start" x="14" y="-50.5" font-family="Helvetica,sans-Serif" font-size="10.00">output_adapter()</text>
<text text-anchor="start" x="4" y="-34.5" font-family="Helvetica,sans-Serif" font-size="10.00">+</text>
<text text-anchor="start" x="14" y="-34.5" font-family="Helvetica,sans-Serif" font-size="10.00">output_adapter()</text>
<text text-anchor="start" x="4" y="-18.5" font-family="Helvetica,sans-Serif" font-size="10.00">+</text>
<text text-anchor="start" x="14" y="-18.5" font-family="Helvetica,sans-Serif" font-size="10.00">operator output_adapter</text>
<text text-anchor="start" x="14" y="-6.5" font-family="Helvetica,sans-Serif" font-size="10.00">_t&lt; CharType &gt;()</text>
<polygon fill="#666666" stroke="#666666" points="0,-94 0,-94 120.75,-94 120.75,-94 0,-94"/>
<polygon fill="#666666" stroke="#666666" points="0,-78 0,-78 120.75,-78 120.75,-78 0,-78"/>
<polygon fill="none" stroke="#666666" points="0,0 0,-124 120.75,-124 120.75,0 0,0"/>
</a>
</g>
</g>
</g>
</svg>
