<?xml version="1.0" encoding="UTF-8" standalone="no"?>
<!DOCTYPE svg PUBLIC "-//W3C//DTD SVG 1.1//EN"
 "http://www.w3.org/Graphics/SVG/1.1/DTD/svg11.dtd">
<!-- Generated by graphviz version 12.2.1 (20241206.2353)
 -->
<!-- Title: detail::iter_impl&lt; BasicJsonType &gt; Pages: 1 -->
<svg width="150pt" height="676pt"
 viewBox="0.00 0.00 150.00 676.00" xmlns="http://www.w3.org/2000/svg" xmlns:xlink="http://www.w3.org/1999/xlink">
<g id="graph0" class="graph" transform="scale(1 1) rotate(0) translate(4 672)">
<title>detail::iter_impl&lt; BasicJsonType &gt;</title>
<!-- Node1 -->
<g id="Node000001" class="node">
<title>Node1</title>
<g id="a_Node000001"><a xlink:title="a template for a bidirectional iterator for the basic_json class This class implements a both iterato...">
<polygon fill="#999999" stroke="none" points="104.38,-240 17.62,-240 17.62,0 104.38,0 104.38,-240"/>
<text text-anchor="start" x="21.62" y="-226.5" font-family="Helvetica,sans-Serif" font-size="10.00">detail::iter_impl&lt;</text>
<text text-anchor="start" x="21.62" y="-214.5" font-family="Helvetica,sans-Serif" font-size="10.00"> BasicJsonType &gt;</text>
<text text-anchor="start" x="23.06" y="-198.5" font-family="Helvetica,sans-Serif" font-size="10.00">+</text>
<text text-anchor="start" x="34.5" y="-198.5" font-family="Helvetica,sans-Serif" font-size="10.00">__pad0__</text>
<text text-anchor="start" x="23.06" y="-182.5" font-family="Helvetica,sans-Serif" font-size="10.00">+</text>
<text text-anchor="start" x="34.5" y="-182.5" font-family="Helvetica,sans-Serif" font-size="10.00">__pad1__</text>
<text text-anchor="start" x="23.06" y="-166.5" font-family="Helvetica,sans-Serif" font-size="10.00">+</text>
<text text-anchor="start" x="34.5" y="-166.5" font-family="Helvetica,sans-Serif" font-size="10.00">iter_impl()</text>
<text text-anchor="start" x="23.06" y="-150.5" font-family="Helvetica,sans-Serif" font-size="10.00">+</text>
<text text-anchor="start" x="34.5" y="-150.5" font-family="Helvetica,sans-Serif" font-size="10.00">~iter_impl()</text>
<text text-anchor="start" x="23.06" y="-134.5" font-family="Helvetica,sans-Serif" font-size="10.00">+</text>
<text text-anchor="start" x="34.5" y="-134.5" font-family="Helvetica,sans-Serif" font-size="10.00">iter_impl()</text>
<text text-anchor="start" x="23.06" y="-118.5" font-family="Helvetica,sans-Serif" font-size="10.00">+</text>
<text text-anchor="start" x="34.5" y="-118.5" font-family="Helvetica,sans-Serif" font-size="10.00">operator=()</text>
<text text-anchor="start" x="23.06" y="-102.5" font-family="Helvetica,sans-Serif" font-size="10.00">+</text>
<text text-anchor="start" x="34.5" y="-102.5" font-family="Helvetica,sans-Serif" font-size="10.00">iter_impl()</text>
<text text-anchor="start" x="23.06" y="-86.5" font-family="Helvetica,sans-Serif" font-size="10.00">+</text>
<text text-anchor="start" x="34.5" y="-86.5" font-family="Helvetica,sans-Serif" font-size="10.00">iter_impl()</text>
<text text-anchor="start" x="23.06" y="-70.5" font-family="Helvetica,sans-Serif" font-size="10.00">+</text>
<text text-anchor="start" x="34.5" y="-70.5" font-family="Helvetica,sans-Serif" font-size="10.00">operator=()</text>
<text text-anchor="start" x="23.06" y="-54.5" font-family="Helvetica,sans-Serif" font-size="10.00">+</text>
<text text-anchor="start" x="34.5" y="-54.5" font-family="Helvetica,sans-Serif" font-size="10.00">iter_impl()</text>
<text text-anchor="start" x="23.06" y="-38.5" font-family="Helvetica,sans-Serif" font-size="10.00">+</text>
<text text-anchor="start" x="34.5" y="-38.5" font-family="Helvetica,sans-Serif" font-size="10.00">operator=()</text>
<text text-anchor="start" x="23.06" y="-22.5" font-family="Helvetica,sans-Serif" font-size="10.00">+</text>
<text text-anchor="start" x="34.5" y="-22.5" font-family="Helvetica,sans-Serif" font-size="10.00">switch()</text>
<text text-anchor="start" x="34.5" y="-6.5" font-family="Helvetica,sans-Serif" font-size="10.00">and 21 more...</text>
<polygon fill="#666666" stroke="#666666" points="17.62,-210 17.62,-210 104.38,-210 104.38,-210 17.62,-210"/>
<polygon fill="#666666" stroke="#666666" points="17.62,-178 17.62,-178 32.5,-178 32.5,-178 17.62,-178"/>
<polygon fill="#666666" stroke="#666666" points="32.5,-178 32.5,-178 104.38,-178 104.38,-178 32.5,-178"/>
<polygon fill="none" stroke="#666666" points="17.62,0 17.62,-240 104.38,-240 104.38,0 17.62,0"/>
</a>
</g>
</g>
<!-- Node2 -->
<g id="Node000002" class="node">
<title>Node2</title>
<g id="a_Node000002"><a xlink:href="structdetail_1_1internal__iterator.html" target="_top" xlink:title=" ">
<polygon fill="white" stroke="none" points="122,-392 0,-392 0,-288 122,-288 122,-392"/>
<text text-anchor="start" x="4" y="-378.5" font-family="Helvetica,sans-Serif" font-size="10.00">detail::internal_iterator</text>
<text text-anchor="start" x="4" y="-366.5" font-family="Helvetica,sans-Serif" font-size="10.00">&lt; typename std::remove</text>
<text text-anchor="start" x="4" y="-354.5" font-family="Helvetica,sans-Serif" font-size="10.00">_const&lt; BasicJsonType &gt;</text>
<text text-anchor="start" x="44.12" y="-342.5" font-family="Helvetica,sans-Serif" font-size="10.00">::type &gt;</text>
<text text-anchor="start" x="14.62" y="-326.5" font-family="Helvetica,sans-Serif" font-size="10.00">+</text>
<text text-anchor="start" x="35.25" y="-326.5" font-family="Helvetica,sans-Serif" font-size="10.00">object_iterator</text>
<text text-anchor="start" x="14.62" y="-310.5" font-family="Helvetica,sans-Serif" font-size="10.00">+</text>
<text text-anchor="start" x="35.25" y="-310.5" font-family="Helvetica,sans-Serif" font-size="10.00">array_iterator</text>
<text text-anchor="start" x="59.5" y="-294.5" font-family="Helvetica,sans-Serif" font-size="10.00"> </text>
<polygon fill="#666666" stroke="#666666" points="0,-338 0,-338 122,-338 122,-338 0,-338"/>
<polygon fill="#666666" stroke="#666666" points="0,-306 0,-306 33.25,-306 33.25,-306 0,-306"/>
<polygon fill="#666666" stroke="#666666" points="33.25,-306 33.25,-306 122,-306 122,-306 33.25,-306"/>
<polygon fill="none" stroke="#666666" points="0,-288 0,-392 122,-392 122,-288 0,-288"/>
</a>
</g>
</g>
<!-- Node2&#45;&gt;Node1 -->
<g id="edge1_Node000001_Node000002" class="edge">
<title>Node2&#45;&gt;Node1</title>
<g id="a_edge1_Node000001_Node000002"><a xlink:title=" ">
<path fill="none" stroke="#63b8ff" d="M61,-288.16C61,-277.12 61,-264.96 61,-252.38"/>
<polygon fill="none" stroke="#63b8ff" points="61,-252.58 57,-246.58 61,-240.58 65,-246.58 61,-252.58"/>
</a>
</g>
<text text-anchor="middle" x="74.88" y="-260.5" font-family="Helvetica,sans-Serif" font-size="10.00" fill="grey"> +m_it</text>
</g>
<!-- Node3 -->
<g id="Node000003" class="node">
<title>Node3</title>
<g id="a_Node000003"><a xlink:href="classdetail_1_1primitive__iterator__t.html" target="_top" xlink:title=" ">
<polygon fill="white" stroke="none" points="119.75,-668 2.25,-668 2.25,-440 119.75,-440 119.75,-668"/>
<text text-anchor="start" x="6.25" y="-654.5" font-family="Helvetica,sans-Serif" font-size="10.00">detail::primitive_iterator_t</text>
<text text-anchor="start" x="59.5" y="-638.5" font-family="Helvetica,sans-Serif" font-size="10.00"> </text>
<text text-anchor="start" x="17.81" y="-622.5" font-family="Helvetica,sans-Serif" font-size="10.00">+</text>
<text text-anchor="start" x="39.38" y="-622.5" font-family="Helvetica,sans-Serif" font-size="10.00">get_value()</text>
<text text-anchor="start" x="17.81" y="-606.5" font-family="Helvetica,sans-Serif" font-size="10.00">+</text>
<text text-anchor="start" x="39.38" y="-606.5" font-family="Helvetica,sans-Serif" font-size="10.00">set_begin()</text>
<text text-anchor="start" x="17.81" y="-590.5" font-family="Helvetica,sans-Serif" font-size="10.00">+</text>
<text text-anchor="start" x="39.38" y="-590.5" font-family="Helvetica,sans-Serif" font-size="10.00">set_end()</text>
<text text-anchor="start" x="17.81" y="-574.5" font-family="Helvetica,sans-Serif" font-size="10.00">+</text>
<text text-anchor="start" x="39.38" y="-574.5" font-family="Helvetica,sans-Serif" font-size="10.00">is_begin()</text>
<text text-anchor="start" x="17.81" y="-558.5" font-family="Helvetica,sans-Serif" font-size="10.00">+</text>
<text text-anchor="start" x="39.38" y="-558.5" font-family="Helvetica,sans-Serif" font-size="10.00">is_end()</text>
<text text-anchor="start" x="17.81" y="-542.5" font-family="Helvetica,sans-Serif" font-size="10.00">+</text>
<text text-anchor="start" x="39.38" y="-542.5" font-family="Helvetica,sans-Serif" font-size="10.00">operator+()</text>
<text text-anchor="start" x="17.81" y="-526.5" font-family="Helvetica,sans-Serif" font-size="10.00">+</text>
<text text-anchor="start" x="39.38" y="-526.5" font-family="Helvetica,sans-Serif" font-size="10.00">operator++()</text>
<text text-anchor="start" x="17.81" y="-510.5" font-family="Helvetica,sans-Serif" font-size="10.00">+</text>
<text text-anchor="start" x="39.38" y="-510.5" font-family="Helvetica,sans-Serif" font-size="10.00">operator++()</text>
<text text-anchor="start" x="17.81" y="-494.5" font-family="Helvetica,sans-Serif" font-size="10.00">+</text>
<text text-anchor="start" x="39.38" y="-494.5" font-family="Helvetica,sans-Serif" font-size="10.00">operator&#45;&#45;()</text>
<text text-anchor="start" x="17.81" y="-478.5" font-family="Helvetica,sans-Serif" font-size="10.00">+</text>
<text text-anchor="start" x="39.38" y="-478.5" font-family="Helvetica,sans-Serif" font-size="10.00">operator&#45;&#45;()</text>
<text text-anchor="start" x="17.81" y="-462.5" font-family="Helvetica,sans-Serif" font-size="10.00">+</text>
<text text-anchor="start" x="39.38" y="-462.5" font-family="Helvetica,sans-Serif" font-size="10.00">operator+=()</text>
<text text-anchor="start" x="17.81" y="-446.5" font-family="Helvetica,sans-Serif" font-size="10.00">+</text>
<text text-anchor="start" x="39.38" y="-446.5" font-family="Helvetica,sans-Serif" font-size="10.00">operator&#45;=()</text>
<polygon fill="#bfbfbf" stroke="#bfbfbf" points="2.25,-650 2.25,-650 119.75,-650 119.75,-650 2.25,-650"/>
<polygon fill="#bfbfbf" stroke="#bfbfbf" points="2.25,-634 2.25,-634 119.75,-634 119.75,-634 2.25,-634"/>
<polygon fill="none" stroke="#bfbfbf" points="2.25,-440 2.25,-668 119.75,-668 119.75,-440 2.25,-440"/>
</a>
</g>
</g>
<!-- Node3&#45;&gt;Node2 -->
<g id="edge2_Node000002_Node000003" class="edge">
<title>Node3&#45;&gt;Node2</title>
<g id="a_edge2_Node000002_Node000003"><a xlink:title=" ">
<path fill="none" stroke="#63b8ff" d="M61,-440.17C61,-428.02 61,-415.99 61,-404.71"/>
<polygon fill="none" stroke="#63b8ff" points="61,-404.77 57,-398.77 61,-392.77 65,-398.77 61,-404.77"/>
</a>
</g>
<text text-anchor="middle" x="101.5" y="-412.5" font-family="Helvetica,sans-Serif" font-size="10.00" fill="grey"> +primitive_iterator</text>
</g>
</g>
</svg>
