<?xml version="1.0" encoding="UTF-8" standalone="no"?>
<!DOCTYPE svg PUBLIC "-//W3C//DTD SVG 1.1//EN"
 "http://www.w3.org/Graphics/SVG/1.1/DTD/svg11.dtd">
<!-- Generated by graphviz version 12.2.1 (20241206.2353)
 -->
<!-- Title: basic_json::begin Pages: 1 -->
<svg width="393pt" height="180pt"
 viewBox="0.00 0.00 392.75 180.00" xmlns="http://www.w3.org/2000/svg" xmlns:xlink="http://www.w3.org/1999/xlink">
<g id="graph0" class="graph" transform="scale(1 1) rotate(0) translate(4 176)">
<title>basic_json::begin</title>
<!-- Node1 -->
<g id="Node000001" class="node">
<title>Node1</title>
<g id="a_Node000001"><a xlink:title="returns an iterator to the first element">
<polygon fill="#999999" stroke="#666666" points="384.75,-96 293,-96 293,-76 384.75,-76 384.75,-96"/>
<text text-anchor="middle" x="338.88" y="-82.5" font-family="Helvetica,sans-Serif" font-size="10.00">basic_json::begin</text>
</a>
</g>
</g>
<!-- Node2 -->
<g id="Node000002" class="node">
<title>Node2</title>
<g id="a_Node000002"><a xlink:href="classbasic__json.html#a699ef418df577e75f28dfce6b04d6c2f" target="_top" xlink:title="creates a diff as a JSON patch">
<polygon fill="white" stroke="#666666" points="233.38,-172 152.12,-172 152.12,-152 233.38,-152 233.38,-172"/>
<text text-anchor="middle" x="192.75" y="-158.5" font-family="Helvetica,sans-Serif" font-size="10.00">basic_json::diff</text>
</a>
</g>
</g>
<!-- Node1&#45;&gt;Node2 -->
<g id="edge1_Node000001_Node000002" class="edge">
<title>Node1&#45;&gt;Node2</title>
<g id="a_edge1_Node000001_Node000002"><a xlink:title=" ">
<path fill="none" stroke="#63b8ff" d="M316.96,-103.6C301.29,-116.05 278.87,-132.36 257,-143 249.68,-146.56 241.56,-149.61 233.63,-152.15"/>
<polygon fill="#63b8ff" stroke="#63b8ff" points="319.06,-106.41 324.61,-97.38 314.64,-100.97 319.06,-106.41"/>
</a>
</g>
</g>
<!-- Node3 -->
<g id="Node000003" class="node">
<title>Node3</title>
<g id="a_Node000003"><a xlink:href="classbasic__json.html#a8676ac2433fe299b8d420f00a0741395" target="_top" xlink:title="applies a JSON Merge Patch">
<polygon fill="white" stroke="#666666" points="255.12,-134 130.38,-134 130.38,-114 255.12,-114 255.12,-134"/>
<text text-anchor="middle" x="192.75" y="-120.5" font-family="Helvetica,sans-Serif" font-size="10.00">basic_json::merge_patch</text>
</a>
</g>
</g>
<!-- Node1&#45;&gt;Node3 -->
<g id="edge2_Node000001_Node000003" class="edge">
<title>Node1&#45;&gt;Node3</title>
<g id="a_edge2_Node000001_Node000003"><a xlink:title=" ">
<path fill="none" stroke="#63b8ff" d="M287.13,-99.38C269.49,-104.03 249.99,-109.17 233.38,-113.55"/>
<polygon fill="#63b8ff" stroke="#63b8ff" points="287.87,-102.8 296.65,-96.87 286.09,-96.04 287.87,-102.8"/>
</a>
</g>
</g>
<!-- Node4 -->
<g id="Node000004" class="node">
<title>Node4</title>
<g id="a_Node000004"><a xlink:href="classbasic__json.html#a693812b31e106dec9166e93d8f6dd7d7" target="_top" xlink:title="applies a JSON patch in&#45;place without copying the object">
<polygon fill="white" stroke="#666666" points="257,-96 128.5,-96 128.5,-76 257,-76 257,-96"/>
<text text-anchor="middle" x="192.75" y="-82.5" font-family="Helvetica,sans-Serif" font-size="10.00">basic_json::patch_inplace</text>
</a>
</g>
</g>
<!-- Node1&#45;&gt;Node4 -->
<g id="edge3_Node000001_Node000004" class="edge">
<title>Node1&#45;&gt;Node4</title>
<g id="a_edge3_Node000001_Node000004"><a xlink:title=" ">
<path fill="none" stroke="#63b8ff" d="M281.34,-86C273.44,-86 265.29,-86 257.27,-86"/>
<polygon fill="#63b8ff" stroke="#63b8ff" points="281.15,-89.5 291.15,-86 281.15,-82.5 281.15,-89.5"/>
</a>
</g>
</g>
<!-- Node6 -->
<g id="Node000006" class="node">
<title>Node6</title>
<g id="a_Node000006"><a xlink:href="classbasic__json.html#a4fcacc90f17b156f0b6c8e0430624853" target="_top" xlink:title="add an object to an object">
<polygon fill="white" stroke="#666666" points="250.62,-58 134.88,-58 134.88,-38 250.62,-38 250.62,-58"/>
<text text-anchor="middle" x="192.75" y="-44.5" font-family="Helvetica,sans-Serif" font-size="10.00">basic_json::push_back</text>
</a>
</g>
</g>
<!-- Node1&#45;&gt;Node6 -->
<g id="edge5_Node000001_Node000006" class="edge">
<title>Node1&#45;&gt;Node6</title>
<g id="a_edge5_Node000001_Node000006"><a xlink:title=" ">
<path fill="none" stroke="#63b8ff" d="M287.13,-72.62C269.49,-67.97 249.99,-62.83 233.38,-58.45"/>
<polygon fill="#63b8ff" stroke="#63b8ff" points="286.09,-75.96 296.65,-75.13 287.87,-69.2 286.09,-75.96"/>
</a>
</g>
</g>
<!-- Node7 -->
<g id="Node000007" class="node">
<title>Node7</title>
<g id="a_Node000007"><a xlink:href="classbasic__json.html#a3819f393e82396782ccc22785575b01d" target="_top" xlink:title="updates a JSON object from another object, overwriting existing keys">
<polygon fill="white" stroke="#666666" points="241.62,-20 143.88,-20 143.88,0 241.62,0 241.62,-20"/>
<text text-anchor="middle" x="192.75" y="-6.5" font-family="Helvetica,sans-Serif" font-size="10.00">basic_json::update</text>
</a>
</g>
</g>
<!-- Node1&#45;&gt;Node7 -->
<g id="edge6_Node000001_Node000007" class="edge">
<title>Node1&#45;&gt;Node7</title>
<g id="a_edge6_Node000001_Node000007"><a xlink:title=" ">
<path fill="none" stroke="#63b8ff" d="M316.96,-68.4C301.29,-55.95 278.87,-39.64 257,-29 250.2,-25.69 242.7,-22.82 235.31,-20.39"/>
<polygon fill="#63b8ff" stroke="#63b8ff" points="314.64,-71.03 324.61,-74.62 319.06,-65.59 314.64,-71.03"/>
</a>
</g>
</g>
<!-- Node5 -->
<g id="Node000005" class="node">
<title>Node5</title>
<g id="a_Node000005"><a xlink:href="classbasic__json.html#a145a004c0a2fa5be84b260ecc98ab5d9" target="_top" xlink:title="applies a JSON patch to a copy of the current object">
<polygon fill="white" stroke="#666666" points="92.5,-96 0,-96 0,-76 92.5,-76 92.5,-96"/>
<text text-anchor="middle" x="46.25" y="-82.5" font-family="Helvetica,sans-Serif" font-size="10.00">basic_json::patch</text>
</a>
</g>
</g>
<!-- Node4&#45;&gt;Node5 -->
<g id="edge4_Node000004_Node000005" class="edge">
<title>Node4&#45;&gt;Node5</title>
<g id="a_edge4_Node000004_Node000005"><a xlink:title=" ">
<path fill="none" stroke="#63b8ff" d="M117.08,-86C108.79,-86 100.55,-86 92.78,-86"/>
<polygon fill="#63b8ff" stroke="#63b8ff" points="116.86,-89.5 126.86,-86 116.86,-82.5 116.86,-89.5"/>
</a>
</g>
</g>
</g>
</svg>
