<?xml version="1.0" encoding="UTF-8" standalone="no"?>
<!DOCTYPE svg PUBLIC "-//W3C//DTD SVG 1.1//EN"
 "http://www.w3.org/Graphics/SVG/1.1/DTD/svg11.dtd">
<!-- Generated by graphviz version 12.2.1 (20241206.2353)
 -->
<!-- Title: Graphical Class Hierarchy Pages: 1 -->
<svg width="225pt" height="370pt"
 viewBox="0.00 0.00 225.25 370.00" xmlns="http://www.w3.org/2000/svg" xmlns:xlink="http://www.w3.org/1999/xlink">
<g id="graph0" class="graph" transform="scale(1 1) rotate(0) translate(4 366)">
<title>Graphical Class Hierarchy</title>
<!-- Node0 -->
<g id="Node000000" class="node">
<title>Node0</title>
<g id="a_Node000000"><a xlink:title=" ">
<polygon fill="#e0e0e0" stroke="#999999" points="64.75,-191 0,-191 0,-171 64.75,-171 64.75,-191"/>
<text text-anchor="middle" x="32.38" y="-177.5" font-family="Helvetica,sans-Serif" font-size="10.00">Fl_Window</text>
</a>
</g>
</g>
<!-- Node1 -->
<g id="Node000001" class="node">
<title>Node1</title>
<g id="a_Node000001"><a xlink:href="class_ui_add_budget_window.html" target="_top" xlink:title=" ">
<polygon fill="white" stroke="#666666" points="213.5,-362 104.5,-362 104.5,-342 213.5,-342 213.5,-362"/>
<text text-anchor="middle" x="159" y="-348.5" font-family="Helvetica,sans-Serif" font-size="10.00">UiAddBudgetWindow</text>
</a>
</g>
</g>
<!-- Node0&#45;&gt;Node1 -->
<g id="edge11_Node000000_Node000001" class="edge">
<title>Node0&#45;&gt;Node1</title>
<g id="a_edge11_Node000000_Node000001"><a xlink:title=" ">
<path fill="none" stroke="#63b8ff" d="M37.08,-202.08C43.91,-234.71 61.52,-297.39 100.75,-333 104.55,-336.45 108.99,-339.27 113.69,-341.59"/>
<polygon fill="#63b8ff" stroke="#63b8ff" points="40.59,-201.8 35.26,-192.65 33.72,-203.13 40.59,-201.8"/>
</a>
</g>
</g>
<!-- Node2 -->
<g id="Node000002" class="node">
<title>Node2</title>
<g id="a_Node000002"><a xlink:href="class_ui_add_expense_window.html" target="_top" xlink:title=" ">
<polygon fill="white" stroke="#666666" points="217.25,-324 100.75,-324 100.75,-304 217.25,-304 217.25,-324"/>
<text text-anchor="middle" x="159" y="-310.5" font-family="Helvetica,sans-Serif" font-size="10.00">UiAddExpenseWindow</text>
</a>
</g>
</g>
<!-- Node0&#45;&gt;Node2 -->
<g id="edge12_Node000000_Node000002" class="edge">
<title>Node0&#45;&gt;Node2</title>
<g id="a_edge12_Node000000_Node000002"><a xlink:title=" ">
<path fill="none" stroke="#63b8ff" d="M40.47,-201.84C50.19,-227.35 70.01,-270.21 100.75,-295 104.99,-298.42 109.87,-301.23 114.95,-303.55"/>
<polygon fill="#63b8ff" stroke="#63b8ff" points="43.82,-200.8 37.13,-192.59 37.23,-203.18 43.82,-200.8"/>
</a>
</g>
</g>
<!-- Node3 -->
<g id="Node000003" class="node">
<title>Node3</title>
<g id="a_Node000003"><a xlink:href="class_ui_budget_window.html" target="_top" xlink:title=" ">
<polygon fill="white" stroke="#666666" points="204.88,-286 113.12,-286 113.12,-266 204.88,-266 204.88,-286"/>
<text text-anchor="middle" x="159" y="-272.5" font-family="Helvetica,sans-Serif" font-size="10.00">UiBudgetWindow</text>
</a>
</g>
</g>
<!-- Node0&#45;&gt;Node3 -->
<g id="edge13_Node000000_Node000003" class="edge">
<title>Node0&#45;&gt;Node3</title>
<g id="a_edge13_Node000000_Node000003"><a xlink:title=" ">
<path fill="none" stroke="#63b8ff" d="M46.19,-200.52C58.35,-217.64 78.11,-242.07 100.75,-257 105.91,-260.4 111.73,-263.24 117.63,-265.61"/>
<polygon fill="#63b8ff" stroke="#63b8ff" points="49.34,-198.93 40.79,-192.66 43.57,-202.89 49.34,-198.93"/>
</a>
</g>
</g>
<!-- Node4 -->
<g id="Node000004" class="node">
<title>Node4</title>
<g id="a_Node000004"><a xlink:href="class_ui_category_window.html" target="_top" xlink:title=" ">
<polygon fill="white" stroke="#666666" points="209.38,-248 108.62,-248 108.62,-228 209.38,-228 209.38,-248"/>
<text text-anchor="middle" x="159" y="-234.5" font-family="Helvetica,sans-Serif" font-size="10.00">UiCategoryWindow</text>
</a>
</g>
</g>
<!-- Node0&#45;&gt;Node4 -->
<g id="edge14_Node000000_Node000004" class="edge">
<title>Node0&#45;&gt;Node4</title>
<g id="a_edge14_Node000000_Node000004"><a xlink:title=" ">
<path fill="none" stroke="#63b8ff" d="M59.38,-197.22C71.64,-204.46 86.65,-212.75 100.75,-219 107.74,-222.1 115.4,-224.97 122.78,-227.5"/>
<polygon fill="#63b8ff" stroke="#63b8ff" points="61.47,-194.4 51.1,-192.23 57.86,-200.39 61.47,-194.4"/>
</a>
</g>
</g>
<!-- Node5 -->
<g id="Node000005" class="node">
<title>Node5</title>
<g id="a_Node000005"><a xlink:href="class_ui_expense_window.html" target="_top" xlink:title=" ">
<polygon fill="white" stroke="#666666" points="208.62,-210 109.38,-210 109.38,-190 208.62,-190 208.62,-210"/>
<text text-anchor="middle" x="159" y="-196.5" font-family="Helvetica,sans-Serif" font-size="10.00">UiExpenseWindow</text>
</a>
</g>
</g>
<!-- Node0&#45;&gt;Node5 -->
<g id="edge15_Node000000_Node000005" class="edge">
<title>Node0&#45;&gt;Node5</title>
<g id="a_edge15_Node000000_Node000005"><a xlink:title=" ">
<path fill="none" stroke="#63b8ff" d="M76.3,-187.54C86.94,-189.17 98.42,-190.92 109.32,-192.58"/>
<polygon fill="#63b8ff" stroke="#63b8ff" points="77.06,-184.12 66.64,-186.07 76,-191.04 77.06,-184.12"/>
</a>
</g>
</g>
<!-- Node6 -->
<g id="Node000006" class="node">
<title>Node6</title>
<g id="a_Node000006"><a xlink:href="class_ui_login_window.html" target="_top" xlink:title=" ">
<polygon fill="white" stroke="#666666" points="201.12,-172 116.88,-172 116.88,-152 201.12,-152 201.12,-172"/>
<text text-anchor="middle" x="159" y="-158.5" font-family="Helvetica,sans-Serif" font-size="10.00">UiLoginWindow</text>
</a>
</g>
</g>
<!-- Node0&#45;&gt;Node6 -->
<g id="edge16_Node000000_Node000006" class="edge">
<title>Node0&#45;&gt;Node6</title>
<g id="a_edge16_Node000000_Node000006"><a xlink:title=" ">
<path fill="none" stroke="#63b8ff" d="M76.19,-174.47C89.2,-172.49 103.47,-170.31 116.4,-168.34"/>
<polygon fill="#63b8ff" stroke="#63b8ff" points="76,-170.96 66.64,-175.93 77.06,-177.88 76,-170.96"/>
</a>
</g>
</g>
<!-- Node7 -->
<g id="Node000007" class="node">
<title>Node7</title>
<g id="a_Node000007"><a xlink:href="class_ui_main_window.html" target="_top" xlink:title=" ">
<polygon fill="white" stroke="#666666" points="200,-134 118,-134 118,-114 200,-114 200,-134"/>
<text text-anchor="middle" x="159" y="-120.5" font-family="Helvetica,sans-Serif" font-size="10.00">UiMainWindow</text>
</a>
</g>
</g>
<!-- Node0&#45;&gt;Node7 -->
<g id="edge17_Node000000_Node000007" class="edge">
<title>Node0&#45;&gt;Node7</title>
<g id="a_edge17_Node000000_Node000007"><a xlink:title=" ">
<path fill="none" stroke="#63b8ff" d="M59.38,-164.78C71.64,-157.54 86.65,-149.25 100.75,-143 107.74,-139.9 115.4,-137.03 122.78,-134.5"/>
<polygon fill="#63b8ff" stroke="#63b8ff" points="57.86,-161.61 51.1,-169.77 61.47,-167.6 57.86,-161.61"/>
</a>
</g>
</g>
<!-- Node8 -->
<g id="Node000008" class="node">
<title>Node8</title>
<g id="a_Node000008"><a xlink:href="class_ui_profile_window.html" target="_top" xlink:title=" ">
<polygon fill="white" stroke="#666666" points="203.38,-96 114.62,-96 114.62,-76 203.38,-76 203.38,-96"/>
<text text-anchor="middle" x="159" y="-82.5" font-family="Helvetica,sans-Serif" font-size="10.00">UiProfileWindow</text>
</a>
</g>
</g>
<!-- Node0&#45;&gt;Node8 -->
<g id="edge18_Node000000_Node000008" class="edge">
<title>Node0&#45;&gt;Node8</title>
<g id="a_edge18_Node000000_Node000008"><a xlink:title=" ">
<path fill="none" stroke="#63b8ff" d="M46.19,-161.48C58.35,-144.36 78.11,-119.93 100.75,-105 105.91,-101.6 111.73,-98.76 117.63,-96.39"/>
<polygon fill="#63b8ff" stroke="#63b8ff" points="43.57,-159.11 40.79,-169.34 49.34,-163.07 43.57,-159.11"/>
</a>
</g>
</g>
<!-- Node9 -->
<g id="Node000009" class="node">
<title>Node9</title>
<g id="a_Node000009"><a xlink:href="class_ui_register_window.html" target="_top" xlink:title=" ">
<polygon fill="white" stroke="#666666" points="207.88,-58 110.12,-58 110.12,-38 207.88,-38 207.88,-58"/>
<text text-anchor="middle" x="159" y="-44.5" font-family="Helvetica,sans-Serif" font-size="10.00">UiRegisterWindow</text>
</a>
</g>
</g>
<!-- Node0&#45;&gt;Node9 -->
<g id="edge19_Node000000_Node000009" class="edge">
<title>Node0&#45;&gt;Node9</title>
<g id="a_edge19_Node000000_Node000009"><a xlink:title=" ">
<path fill="none" stroke="#63b8ff" d="M40.47,-160.16C50.19,-134.65 70.01,-91.79 100.75,-67 104.99,-63.58 109.87,-60.77 114.95,-58.45"/>
<polygon fill="#63b8ff" stroke="#63b8ff" points="37.23,-158.82 37.13,-169.41 43.82,-161.2 37.23,-158.82"/>
</a>
</g>
</g>
<!-- Node10 -->
<g id="Node000010" class="node">
<title>Node10</title>
<g id="a_Node000010"><a xlink:href="class_ui_reports_window.html" target="_top" xlink:title=" ">
<polygon fill="white" stroke="#666666" points="206.75,-20 111.25,-20 111.25,0 206.75,0 206.75,-20"/>
<text text-anchor="middle" x="159" y="-6.5" font-family="Helvetica,sans-Serif" font-size="10.00">UiReportsWindow</text>
</a>
</g>
</g>
<!-- Node0&#45;&gt;Node10 -->
<g id="edge20_Node000000_Node000010" class="edge">
<title>Node0&#45;&gt;Node10</title>
<g id="a_edge20_Node000000_Node000010"><a xlink:title=" ">
<path fill="none" stroke="#63b8ff" d="M37.08,-159.92C43.91,-127.29 61.52,-64.61 100.75,-29 104.55,-25.55 108.99,-22.73 113.69,-20.41"/>
<polygon fill="#63b8ff" stroke="#63b8ff" points="33.72,-158.87 35.26,-169.35 40.59,-160.2 33.72,-158.87"/>
</a>
</g>
</g>
</g>
</svg>
