<?xml version="1.0" encoding="UTF-8" standalone="no"?>
<!DOCTYPE svg PUBLIC "-//W3C//DTD SVG 1.1//EN"
 "http://www.w3.org/Graphics/SVG/1.1/DTD/svg11.dtd">
<!-- Generated by graphviz version 12.2.1 (20241206.2353)
 -->
<!-- Title: Graphical Class Hierarchy Pages: 1 -->
<svg width="251pt" height="66pt"
 viewBox="0.00 0.00 250.75 66.00" xmlns="http://www.w3.org/2000/svg" xmlns:xlink="http://www.w3.org/1999/xlink">
<g id="graph0" class="graph" transform="scale(1 1) rotate(0) translate(4 62)">
<title>Graphical Class Hierarchy</title>
<!-- Node0 -->
<g id="Node000000" class="node">
<title>Node0</title>
<g id="a_Node000000"><a xlink:title=" ">
<polygon fill="#e0e0e0" stroke="#999999" points="76.75,-39 0,-39 0,-19 76.75,-19 76.75,-39"/>
<text text-anchor="middle" x="38.38" y="-25.5" font-family="Helvetica,sans-Serif" font-size="10.00">bool_constant</text>
</a>
</g>
</g>
<!-- Node1 -->
<g id="Node000001" class="node">
<title>Node1</title>
<g id="a_Node000001"><a xlink:href="structdetail_1_1is__c__string.html" target="_top" xlink:title=" ">
<polygon fill="white" stroke="#666666" points="235.62,-58 119.88,-58 119.88,-38 235.62,-38 235.62,-58"/>
<text text-anchor="middle" x="177.75" y="-44.5" font-family="Helvetica,sans-Serif" font-size="10.00">detail::is_c_string&lt; T &gt;</text>
</a>
</g>
</g>
<!-- Node0&#45;&gt;Node1 -->
<g id="edge3_Node000000_Node000001" class="edge">
<title>Node0&#45;&gt;Node1</title>
<g id="a_edge3_Node000000_Node000001"><a xlink:title=" ">
<path fill="none" stroke="#63b8ff" d="M88.04,-35.73C98.19,-37.13 108.97,-38.63 119.4,-40.07"/>
<polygon fill="#63b8ff" stroke="#63b8ff" points="88.8,-32.3 78.41,-34.4 87.84,-39.24 88.8,-32.3"/>
</a>
</g>
</g>
<!-- Node2 -->
<g id="Node000002" class="node">
<title>Node2</title>
<g id="a_Node000002"><a xlink:href="structdetail_1_1is__transparent.html" target="_top" xlink:title=" ">
<polygon fill="white" stroke="#666666" points="242.75,-20 112.75,-20 112.75,0 242.75,0 242.75,-20"/>
<text text-anchor="middle" x="177.75" y="-6.5" font-family="Helvetica,sans-Serif" font-size="10.00">detail::is_transparent&lt; T &gt;</text>
</a>
</g>
</g>
<!-- Node0&#45;&gt;Node2 -->
<g id="edge4_Node000000_Node000002" class="edge">
<title>Node0&#45;&gt;Node2</title>
<g id="a_edge4_Node000000_Node000002"><a xlink:title=" ">
<path fill="none" stroke="#63b8ff" d="M88.09,-22.26C95.93,-21.18 104.16,-20.04 112.31,-18.91"/>
<polygon fill="#63b8ff" stroke="#63b8ff" points="87.84,-18.76 78.41,-23.6 88.8,-25.7 87.84,-18.76"/>
</a>
</g>
</g>
</g>
</svg>
