<?xml version="1.0" encoding="UTF-8" standalone="no"?>
<!DOCTYPE svg PUBLIC "-//W3C//DTD SVG 1.1//EN"
 "http://www.w3.org/Graphics/SVG/1.1/DTD/svg11.dtd">
<!-- Generated by graphviz version 12.2.1 (20241206.2353)
 -->
<!-- Title: Graphical Class Hierarchy Pages: 1 -->
<svg width="688pt" height="844pt"
 viewBox="0.00 0.00 687.75 844.00" xmlns="http://www.w3.org/2000/svg" xmlns:xlink="http://www.w3.org/1999/xlink">
<g id="graph0" class="graph" transform="scale(1 1) rotate(0) translate(4 840)">
<title>Graphical Class Hierarchy</title>
<!-- Node0 -->
<g id="Node000000" class="node">
<title>Node0</title>
<g id="a_Node000000"><a xlink:title=" ">
<polygon fill="#e0e0e0" stroke="#999999" points="76,-400 0,-400 0,-380 76,-380 76,-400"/>
<text text-anchor="middle" x="38" y="-386.5" font-family="Helvetica,sans-Serif" font-size="10.00">std::true_type</text>
</a>
</g>
</g>
<!-- Node1 -->
<g id="Node000001" class="node">
<title>Node1</title>
<g id="a_Node000001"><a xlink:href="structdetail_1_1conjunction.html" target="_top" xlink:title=" ">
<polygon fill="white" stroke="#666666" points="282.12,-811 182.88,-811 182.88,-767 282.12,-767 282.12,-811"/>
<text text-anchor="start" x="190.88" y="-797.5" font-family="Helvetica,sans-Serif" font-size="10.00">detail::conjunction</text>
<text text-anchor="start" x="190.88" y="-785.5" font-family="Helvetica,sans-Serif" font-size="10.00">&lt; is_constructible&lt;</text>
<text text-anchor="middle" x="232.5" y="-773.5" font-family="Helvetica,sans-Serif" font-size="10.00"> T1, Args &gt;... &gt;</text>
</a>
</g>
</g>
<!-- Node0&#45;&gt;Node1 -->
<g id="edge64_Node000000_Node000001" class="edge">
<title>Node0&#45;&gt;Node1</title>
<g id="a_edge64_Node000000_Node000001"><a xlink:title=" ">
<path fill="none" stroke="#63b8ff" d="M41.09,-411.69C47.97,-478.9 71.72,-682.27 112,-733 129.53,-755.07 157.8,-768.86 182.44,-777.23"/>
<polygon fill="#63b8ff" stroke="#63b8ff" points="44.6,-411.57 40.13,-401.97 37.64,-412.27 44.6,-411.57"/>
</a>
</g>
</g>
<!-- Node3 -->
<g id="Node000003" class="node">
<title>Node3</title>
<g id="a_Node000003"><a xlink:href="structdetail_1_1conjunction.html" target="_top" xlink:title=" ">
<polygon fill="white" stroke="#666666" points="309.12,-724 155.88,-724 155.88,-668 309.12,-668 309.12,-724"/>
<text text-anchor="start" x="163.88" y="-710.5" font-family="Helvetica,sans-Serif" font-size="10.00">detail::conjunction</text>
<text text-anchor="start" x="163.88" y="-698.5" font-family="Helvetica,sans-Serif" font-size="10.00">&lt; is_default_constructible</text>
<text text-anchor="start" x="163.88" y="-686.5" font-family="Helvetica,sans-Serif" font-size="10.00">&lt; T1 &gt;, is_default_constructible</text>
<text text-anchor="middle" x="232.5" y="-674.5" font-family="Helvetica,sans-Serif" font-size="10.00">&lt; T2 &gt; &gt;</text>
</a>
</g>
</g>
<!-- Node0&#45;&gt;Node3 -->
<g id="edge66_Node000000_Node000003" class="edge">
<title>Node0&#45;&gt;Node3</title>
<g id="a_edge66_Node000000_Node000003"><a xlink:title=" ">
<path fill="none" stroke="#63b8ff" d="M38.31,-411.87C37.94,-462.52 44.29,-588.86 112,-659 123.77,-671.19 139.46,-679.38 155.59,-684.89"/>
<polygon fill="#63b8ff" stroke="#63b8ff" points="41.81,-412.03 38.49,-401.97 34.81,-411.9 41.81,-412.03"/>
</a>
</g>
</g>
<!-- Node8 -->
<g id="Node000008" class="node">
<title>Node8</title>
<g id="a_Node000008"><a xlink:href="structdetail_1_1conjunction.html" target="_top" xlink:title=" ">
<polygon fill="white" stroke="#666666" points="296.38,-650 168.62,-650 168.62,-606 296.38,-606 296.38,-650"/>
<text text-anchor="start" x="176.62" y="-636.5" font-family="Helvetica,sans-Serif" font-size="10.00">detail::conjunction</text>
<text text-anchor="start" x="176.62" y="-624.5" font-family="Helvetica,sans-Serif" font-size="10.00">&lt; is_default_constructible</text>
<text text-anchor="middle" x="232.5" y="-612.5" font-family="Helvetica,sans-Serif" font-size="10.00">&lt; Ts &gt;... &gt;</text>
</a>
</g>
</g>
<!-- Node0&#45;&gt;Node8 -->
<g id="edge71_Node000000_Node000008" class="edge">
<title>Node0&#45;&gt;Node8</title>
<g id="a_edge71_Node000000_Node000008"><a xlink:title=" ">
<path fill="none" stroke="#63b8ff" d="M40.19,-411.79C43.71,-453.97 57.56,-547.02 112,-597 127.31,-611.06 148.18,-618.92 168.19,-623.25"/>
<polygon fill="#63b8ff" stroke="#63b8ff" points="43.69,-411.67 39.51,-401.94 36.71,-412.16 43.69,-411.67"/>
</a>
</g>
</g>
<!-- Node13 -->
<g id="Node000013" class="node">
<title>Node13</title>
<g id="a_Node000013"><a xlink:href="structdetail_1_1conjunction.html" target="_top" xlink:title=" ">
<polygon fill="white" stroke="#666666" points="279.88,-588 185.12,-588 185.12,-556 279.88,-556 279.88,-588"/>
<text text-anchor="start" x="193.12" y="-574.5" font-family="Helvetica,sans-Serif" font-size="10.00">detail::conjunction</text>
<text text-anchor="middle" x="232.5" y="-562.5" font-family="Helvetica,sans-Serif" font-size="10.00">&lt;... &gt;</text>
</a>
</g>
</g>
<!-- Node0&#45;&gt;Node13 -->
<g id="edge76_Node000000_Node000013" class="edge">
<title>Node0&#45;&gt;Node13</title>
<g id="a_edge76_Node000000_Node000013"><a xlink:title=" ">
<path fill="none" stroke="#63b8ff" d="M42.65,-411.41C49.67,-445.65 68.38,-512.38 112,-547 132.42,-563.21 160.8,-569.61 184.79,-571.89"/>
<polygon fill="#63b8ff" stroke="#63b8ff" points="46.15,-411.05 40.85,-401.88 39.27,-412.35 46.15,-411.05"/>
</a>
</g>
</g>
<!-- Node14 -->
<g id="Node000014" class="node">
<title>Node14</title>
<g id="a_Node000014"><a xlink:href="structdetail_1_1is__basic__json_3_01_n_l_o_h_m_a_n_n___b_a_s_i_c___j_s_o_n___t_p_l_01_4.html" target="_top" xlink:title=" ">
<polygon fill="white" stroke="#666666" points="324.12,-538 140.88,-538 140.88,-506 324.12,-506 324.12,-538"/>
<text text-anchor="start" x="148.88" y="-524.5" font-family="Helvetica,sans-Serif" font-size="10.00">detail::is_basic_json</text>
<text text-anchor="middle" x="232.5" y="-512.5" font-family="Helvetica,sans-Serif" font-size="10.00">&lt; NLOHMANN_BASIC_JSON_TPL &gt;</text>
</a>
</g>
</g>
<!-- Node0&#45;&gt;Node14 -->
<g id="edge77_Node000000_Node000014" class="edge">
<title>Node0&#45;&gt;Node14</title>
<g id="a_edge77_Node000000_Node000014"><a xlink:title=" ">
<path fill="none" stroke="#63b8ff" d="M47.24,-410.52C58.22,-435.1 80.04,-475.64 112,-497 120.63,-502.77 130.34,-507.25 140.4,-510.72"/>
<polygon fill="#63b8ff" stroke="#63b8ff" points="50.57,-409.4 43.44,-401.57 44.13,-412.14 50.57,-409.4"/>
</a>
</g>
</g>
<!-- Node15 -->
<g id="Node000015" class="node">
<title>Node15</title>
<g id="a_Node000015"><a xlink:href="structdetail_1_1is__comparable_3_01_compare_00_01_a_00_01_b_00_01void__t_3_01decltype_07std_1_1d1335caac8ed6d774dd842c8360097f7d.html" target="_top" xlink:title=" ">
<polygon fill="white" stroke="#666666" points="306.88,-488 158.12,-488 158.12,-384 306.88,-384 306.88,-488"/>
<text text-anchor="start" x="166.12" y="-474.5" font-family="Helvetica,sans-Serif" font-size="10.00">detail::is_comparable</text>
<text text-anchor="start" x="166.12" y="-462.5" font-family="Helvetica,sans-Serif" font-size="10.00">&lt; Compare, A, B, void</text>
<text text-anchor="start" x="166.12" y="-450.5" font-family="Helvetica,sans-Serif" font-size="10.00">_t&lt; decltype(std::declval</text>
<text text-anchor="start" x="166.12" y="-438.5" font-family="Helvetica,sans-Serif" font-size="10.00">&lt; Compare &gt;()(std::declval</text>
<text text-anchor="start" x="166.12" y="-426.5" font-family="Helvetica,sans-Serif" font-size="10.00">&lt; A &gt;(), std::declval&lt; B &gt;</text>
<text text-anchor="start" x="166.12" y="-414.5" font-family="Helvetica,sans-Serif" font-size="10.00">())), decltype(std::declval</text>
<text text-anchor="start" x="166.12" y="-402.5" font-family="Helvetica,sans-Serif" font-size="10.00">&lt; Compare &gt;()(std::declval&lt; B</text>
<text text-anchor="middle" x="232.5" y="-390.5" font-family="Helvetica,sans-Serif" font-size="10.00"> &gt;(), std::declval&lt; A &gt;()))&gt; &gt;</text>
</a>
</g>
</g>
<!-- Node0&#45;&gt;Node15 -->
<g id="edge78_Node000000_Node000015" class="edge">
<title>Node0&#45;&gt;Node15</title>
<g id="a_edge78_Node000000_Node000015"><a xlink:title=" ">
<path fill="none" stroke="#63b8ff" d="M87.19,-401.51C108.55,-406.62 134.15,-412.74 157.83,-418.4"/>
<polygon fill="#63b8ff" stroke="#63b8ff" points="88.13,-398.14 77.59,-399.22 86.5,-404.95 88.13,-398.14"/>
</a>
</g>
</g>
<!-- Node16 -->
<g id="Node000016" class="node">
<title>Node16</title>
<g id="a_Node000016"><a xlink:href="structdetail_1_1is__complete__type_3_01_t_00_01decltype_07void_07sizeof_07_t_08_08_08_4.html" target="_top" xlink:title=" ">
<polygon fill="white" stroke="#666666" points="291.12,-366 173.88,-366 173.88,-322 291.12,-322 291.12,-366"/>
<text text-anchor="start" x="181.88" y="-352.5" font-family="Helvetica,sans-Serif" font-size="10.00">detail::is_complete</text>
<text text-anchor="start" x="181.88" y="-340.5" font-family="Helvetica,sans-Serif" font-size="10.00">_type&lt; T, decltype(void</text>
<text text-anchor="middle" x="232.5" y="-328.5" font-family="Helvetica,sans-Serif" font-size="10.00">(sizeof(T)))&gt;</text>
</a>
</g>
</g>
<!-- Node0&#45;&gt;Node16 -->
<g id="edge79_Node000000_Node000016" class="edge">
<title>Node0&#45;&gt;Node16</title>
<g id="a_edge79_Node000000_Node000016"><a xlink:title=" ">
<path fill="none" stroke="#63b8ff" d="M87.3,-378.46C113.51,-372.19 146.1,-364.41 173.66,-357.82"/>
<polygon fill="#63b8ff" stroke="#63b8ff" points="86.5,-375.05 77.59,-380.78 88.13,-381.86 86.5,-375.05"/>
</a>
</g>
</g>
<!-- Node17 -->
<g id="Node000017" class="node">
<title>Node17</title>
<g id="a_Node000017"><a xlink:href="structdetail_1_1is__constructible__array__type__impl_3_01_basic_json_type_00_01_constructible_ar18eb1802aca5c2f462bc2d940e11156a.html" target="_top" xlink:title=" ">
<polygon fill="white" stroke="#666666" points="353,-304 112,-304 112,-236 353,-236 353,-304"/>
<text text-anchor="start" x="120" y="-290.5" font-family="Helvetica,sans-Serif" font-size="10.00">detail::is_constructible</text>
<text text-anchor="start" x="120" y="-278.5" font-family="Helvetica,sans-Serif" font-size="10.00">_array_type_impl&lt; BasicJsonType,</text>
<text text-anchor="start" x="120" y="-266.5" font-family="Helvetica,sans-Serif" font-size="10.00"> ConstructibleArrayType, enable</text>
<text text-anchor="start" x="120" y="-254.5" font-family="Helvetica,sans-Serif" font-size="10.00">_if_t&lt; std::is_same&lt; ConstructibleArrayType,</text>
<text text-anchor="middle" x="232.5" y="-242.5" font-family="Helvetica,sans-Serif" font-size="10.00"> typename BasicJsonType::value_type &gt;::value &gt; &gt;</text>
</a>
</g>
</g>
<!-- Node0&#45;&gt;Node17 -->
<g id="edge80_Node000000_Node000017" class="edge">
<title>Node0&#45;&gt;Node17</title>
<g id="a_edge80_Node000000_Node000017"><a xlink:title=" ">
<path fill="none" stroke="#63b8ff" d="M53.27,-370.4C66.71,-353.17 88.28,-328.5 112,-313 116.61,-309.99 121.47,-307.15 126.47,-304.49"/>
<polygon fill="#63b8ff" stroke="#63b8ff" points="50.5,-368.26 47.25,-378.35 56.08,-372.48 50.5,-368.26"/>
</a>
</g>
</g>
<!-- Node18 -->
<g id="Node000018" class="node">
<title>Node18</title>
<g id="a_Node000018"><a xlink:href="structdetail_1_1is__json__iterator__of_3_01_basic_json_type_00_01typename_01_basic_json_type_1_1const__iterator_01_4.html" target="_top" xlink:title=" ">
<polygon fill="white" stroke="#666666" points="312.5,-218 152.5,-218 152.5,-174 312.5,-174 312.5,-218"/>
<text text-anchor="start" x="160.5" y="-204.5" font-family="Helvetica,sans-Serif" font-size="10.00">detail::is_json_iterator</text>
<text text-anchor="start" x="160.5" y="-192.5" font-family="Helvetica,sans-Serif" font-size="10.00">_of&lt; BasicJsonType, typename</text>
<text text-anchor="middle" x="232.5" y="-180.5" font-family="Helvetica,sans-Serif" font-size="10.00"> BasicJsonType::const_iterator &gt;</text>
</a>
</g>
</g>
<!-- Node0&#45;&gt;Node18 -->
<g id="edge81_Node000000_Node000018" class="edge">
<title>Node0&#45;&gt;Node18</title>
<g id="a_edge81_Node000000_Node000018"><a xlink:title=" ">
<path fill="none" stroke="#63b8ff" d="M42.49,-368.53C49.35,-333.51 67.92,-264.26 112,-227 123.46,-217.31 137.58,-210.61 152.06,-205.98"/>
<polygon fill="#63b8ff" stroke="#63b8ff" points="39.07,-367.81 40.74,-378.28 45.96,-369.05 39.07,-367.81"/>
</a>
</g>
</g>
<!-- Node19 -->
<g id="Node000019" class="node">
<title>Node19</title>
<g id="a_Node000019"><a xlink:href="structdetail_1_1is__json__iterator__of_3_01_basic_json_type_00_01typename_01_basic_json_type_1_1iterator_01_4.html" target="_top" xlink:title=" ">
<polygon fill="white" stroke="#666666" points="309.5,-156 155.5,-156 155.5,-112 309.5,-112 309.5,-156"/>
<text text-anchor="start" x="163.5" y="-142.5" font-family="Helvetica,sans-Serif" font-size="10.00">detail::is_json_iterator</text>
<text text-anchor="start" x="163.5" y="-130.5" font-family="Helvetica,sans-Serif" font-size="10.00">_of&lt; BasicJsonType, typename</text>
<text text-anchor="middle" x="232.5" y="-118.5" font-family="Helvetica,sans-Serif" font-size="10.00"> BasicJsonType::iterator &gt;</text>
</a>
</g>
</g>
<!-- Node0&#45;&gt;Node19 -->
<g id="edge82_Node000000_Node000019" class="edge">
<title>Node0&#45;&gt;Node19</title>
<g id="a_edge82_Node000000_Node000019"><a xlink:title=" ">
<path fill="none" stroke="#63b8ff" d="M39.47,-368.22C41.67,-323.38 53.23,-220.35 112,-165 123.94,-153.76 139.41,-146.47 155.24,-141.77"/>
<polygon fill="#63b8ff" stroke="#63b8ff" points="35.98,-368.06 39.11,-378.18 42.97,-368.31 35.98,-368.06"/>
</a>
</g>
</g>
<!-- Node20 -->
<g id="Node000020" class="node">
<title>Node20</title>
<g id="a_Node000020"><a xlink:href="structdetail_1_1is__json__ref_3_01json__ref_3_01_t_01_4_01_4.html" target="_top" xlink:title=" ">
<polygon fill="white" stroke="#666666" points="278.75,-94 186.25,-94 186.25,-62 278.75,-62 278.75,-94"/>
<text text-anchor="start" x="194.25" y="-80.5" font-family="Helvetica,sans-Serif" font-size="10.00">detail::is_json_ref</text>
<text text-anchor="middle" x="232.5" y="-68.5" font-family="Helvetica,sans-Serif" font-size="10.00">&lt; json_ref&lt; T &gt; &gt;</text>
</a>
</g>
</g>
<!-- Node0&#45;&gt;Node20 -->
<g id="edge83_Node000000_Node000020" class="edge">
<title>Node0&#45;&gt;Node20</title>
<g id="a_edge83_Node000000_Node000020"><a xlink:title=" ">
<path fill="none" stroke="#63b8ff" d="M41.54,-368.4C49.07,-308.14 73.18,-140.19 112,-103 131.44,-84.38 161,-78.08 185.86,-76.46"/>
<polygon fill="#63b8ff" stroke="#63b8ff" points="38.1,-367.68 40.37,-378.03 45.05,-368.53 38.1,-367.68"/>
</a>
</g>
</g>
<!-- Node21 -->
<g id="Node000021" class="node">
<title>Node21</title>
<g id="a_Node000021"><a xlink:href="structdetail_1_1is__specialization__of_3_01_primary_00_01_primary_3_01_args_8_8_8_01_4_01_4.html" target="_top" xlink:title=" ">
<polygon fill="white" stroke="#666666" points="291.12,-44 173.88,-44 173.88,0 291.12,0 291.12,-44"/>
<text text-anchor="start" x="181.88" y="-30.5" font-family="Helvetica,sans-Serif" font-size="10.00">detail::is_specialization</text>
<text text-anchor="start" x="181.88" y="-18.5" font-family="Helvetica,sans-Serif" font-size="10.00">_of&lt; Primary, Primary&lt;</text>
<text text-anchor="middle" x="232.5" y="-6.5" font-family="Helvetica,sans-Serif" font-size="10.00"> Args... &gt; &gt;</text>
</a>
</g>
</g>
<!-- Node0&#45;&gt;Node21 -->
<g id="edge84_Node000000_Node000021" class="edge">
<title>Node0&#45;&gt;Node21</title>
<g id="a_edge84_Node000000_Node000021"><a xlink:title=" ">
<path fill="none" stroke="#63b8ff" d="M40.77,-368.36C46.67,-301.34 67.88,-98.94 112,-53 127.96,-36.38 151.59,-28.25 173.63,-24.42"/>
<polygon fill="#63b8ff" stroke="#63b8ff" points="37.3,-367.79 39.94,-378.05 44.28,-368.38 37.3,-367.79"/>
</a>
</g>
</g>
<!-- Node2 -->
<g id="Node000002" class="node">
<title>Node2</title>
<g id="a_Node000002"><a xlink:href="structdetail_1_1is__constructible__tuple_3_01_t1_00_01std_1_1tuple_3_01_args_8_8_8_01_4_01_4.html" target="_top" xlink:title=" ">
<polygon fill="white" stroke="#666666" points="502.5,-836 389,-836 389,-792 502.5,-792 502.5,-836"/>
<text text-anchor="start" x="397" y="-822.5" font-family="Helvetica,sans-Serif" font-size="10.00">detail::is_constructible</text>
<text text-anchor="start" x="397" y="-810.5" font-family="Helvetica,sans-Serif" font-size="10.00">_tuple&lt; T1, std::tuple</text>
<text text-anchor="middle" x="445.75" y="-798.5" font-family="Helvetica,sans-Serif" font-size="10.00">&lt; Args... &gt; &gt;</text>
</a>
</g>
</g>
<!-- Node1&#45;&gt;Node2 -->
<g id="edge65_Node000001_Node000002" class="edge">
<title>Node1&#45;&gt;Node2</title>
<g id="a_edge65_Node000001_Node000002"><a xlink:title=" ">
<path fill="none" stroke="#63b8ff" d="M293.61,-796.11C323.45,-799.64 359.27,-803.88 388.55,-807.35"/>
<polygon fill="#63b8ff" stroke="#63b8ff" points="294.34,-792.68 284,-794.98 293.52,-799.63 294.34,-792.68"/>
</a>
</g>
</g>
<!-- Node4 -->
<g id="Node000004" class="node">
<title>Node4</title>
<g id="a_Node000004"><a xlink:href="structdetail_1_1is__default__constructible_3_01const_01std_1_1pair_3_01_t1_00_01_t2_01_4_01_4.html" target="_top" xlink:title=" ">
<polygon fill="white" stroke="#666666" points="500.62,-774 390.88,-774 390.88,-730 500.62,-730 500.62,-774"/>
<text text-anchor="start" x="398.88" y="-760.5" font-family="Helvetica,sans-Serif" font-size="10.00">detail::is_default</text>
<text text-anchor="start" x="398.88" y="-748.5" font-family="Helvetica,sans-Serif" font-size="10.00">_constructible&lt; const</text>
<text text-anchor="middle" x="445.75" y="-736.5" font-family="Helvetica,sans-Serif" font-size="10.00"> std::pair&lt; T1, T2 &gt; &gt;</text>
</a>
</g>
</g>
<!-- Node3&#45;&gt;Node4 -->
<g id="edge67_Node000003_Node000004" class="edge">
<title>Node3&#45;&gt;Node4</title>
<g id="a_edge67_Node000003_Node000004"><a xlink:title=" ">
<path fill="none" stroke="#63b8ff" d="M320.3,-719.01C344.1,-725.32 369.23,-731.98 390.62,-737.65"/>
<polygon fill="#63b8ff" stroke="#63b8ff" points="321.49,-715.71 310.93,-716.53 319.7,-722.47 321.49,-715.71"/>
</a>
</g>
</g>
<!-- Node6 -->
<g id="Node000006" class="node">
<title>Node6</title>
<g id="a_Node000006"><a xlink:href="structdetail_1_1is__default__constructible_3_01std_1_1pair_3_01_t1_00_01_t2_01_4_01_4.html" target="_top" xlink:title=" ">
<polygon fill="white" stroke="#666666" points="495.38,-712 396.12,-712 396.12,-668 495.38,-668 495.38,-712"/>
<text text-anchor="start" x="404.12" y="-698.5" font-family="Helvetica,sans-Serif" font-size="10.00">detail::is_default</text>
<text text-anchor="start" x="404.12" y="-686.5" font-family="Helvetica,sans-Serif" font-size="10.00">_constructible&lt; std</text>
<text text-anchor="middle" x="445.75" y="-674.5" font-family="Helvetica,sans-Serif" font-size="10.00">::pair&lt; T1, T2 &gt; &gt;</text>
</a>
</g>
</g>
<!-- Node3&#45;&gt;Node6 -->
<g id="edge69_Node000003_Node000006" class="edge">
<title>Node3&#45;&gt;Node6</title>
<g id="a_edge69_Node000003_Node000006"><a xlink:title=" ">
<path fill="none" stroke="#63b8ff" d="M320.72,-693.52C346.34,-692.8 373.45,-692.03 395.76,-691.39"/>
<polygon fill="#63b8ff" stroke="#63b8ff" points="320.88,-690.02 310.98,-693.8 321.08,-697.01 320.88,-690.02"/>
</a>
</g>
</g>
<!-- Node5 -->
<g id="Node000005" class="node">
<title>Node5</title>
<g id="a_Node000005"><a xlink:href="structdetail_1_1is__constructible_3_01const_01std_1_1pair_3_01_t1_00_01_t2_01_4_01_4.html" target="_top" xlink:title=" ">
<polygon fill="white" stroke="#666666" points="679.75,-768 538.5,-768 538.5,-736 679.75,-736 679.75,-768"/>
<text text-anchor="start" x="546.5" y="-754.5" font-family="Helvetica,sans-Serif" font-size="10.00">detail::is_constructible</text>
<text text-anchor="middle" x="609.12" y="-742.5" font-family="Helvetica,sans-Serif" font-size="10.00">&lt; const std::pair&lt; T1, T2 &gt; &gt;</text>
</a>
</g>
</g>
<!-- Node4&#45;&gt;Node5 -->
<g id="edge68_Node000004_Node000005" class="edge">
<title>Node4&#45;&gt;Node5</title>
<g id="a_edge68_Node000004_Node000005"><a xlink:title=" ">
<path fill="none" stroke="#63b8ff" d="M512.31,-752C520.79,-752 529.49,-752 538.03,-752"/>
<polygon fill="#63b8ff" stroke="#63b8ff" points="512.45,-748.5 502.45,-752 512.45,-755.5 512.45,-748.5"/>
</a>
</g>
</g>
<!-- Node7 -->
<g id="Node000007" class="node">
<title>Node7</title>
<g id="a_Node000007"><a xlink:href="structdetail_1_1is__constructible_3_01std_1_1pair_3_01_t1_00_01_t2_01_4_01_4.html" target="_top" xlink:title=" ">
<polygon fill="white" stroke="#666666" points="666.25,-706 552,-706 552,-674 666.25,-674 666.25,-706"/>
<text text-anchor="start" x="560" y="-692.5" font-family="Helvetica,sans-Serif" font-size="10.00">detail::is_constructible</text>
<text text-anchor="middle" x="609.12" y="-680.5" font-family="Helvetica,sans-Serif" font-size="10.00">&lt; std::pair&lt; T1, T2 &gt; &gt;</text>
</a>
</g>
</g>
<!-- Node6&#45;&gt;Node7 -->
<g id="edge70_Node000006_Node000007" class="edge">
<title>Node6&#45;&gt;Node7</title>
<g id="a_edge70_Node000006_Node000007"><a xlink:title=" ">
<path fill="none" stroke="#63b8ff" d="M507.04,-690C521.61,-690 537.12,-690 551.5,-690"/>
<polygon fill="#63b8ff" stroke="#63b8ff" points="507.12,-686.5 497.12,-690 507.12,-693.5 507.12,-686.5"/>
</a>
</g>
</g>
<!-- Node9 -->
<g id="Node000009" class="node">
<title>Node9</title>
<g id="a_Node000009"><a xlink:href="structdetail_1_1is__default__constructible_3_01const_01std_1_1tuple_3_01_ts_8_8_8_01_4_01_4.html" target="_top" xlink:title=" ">
<polygon fill="white" stroke="#666666" points="500.62,-650 390.88,-650 390.88,-606 500.62,-606 500.62,-650"/>
<text text-anchor="start" x="398.88" y="-636.5" font-family="Helvetica,sans-Serif" font-size="10.00">detail::is_default</text>
<text text-anchor="start" x="398.88" y="-624.5" font-family="Helvetica,sans-Serif" font-size="10.00">_constructible&lt; const</text>
<text text-anchor="middle" x="445.75" y="-612.5" font-family="Helvetica,sans-Serif" font-size="10.00"> std::tuple&lt; Ts... &gt; &gt;</text>
</a>
</g>
</g>
<!-- Node8&#45;&gt;Node9 -->
<g id="edge72_Node000008_Node000009" class="edge">
<title>Node8&#45;&gt;Node9</title>
<g id="a_edge72_Node000008_Node000009"><a xlink:title=" ">
<path fill="none" stroke="#63b8ff" d="M308.04,-628C335.24,-628 365.46,-628 390.55,-628"/>
<polygon fill="#63b8ff" stroke="#63b8ff" points="308.11,-624.5 298.11,-628 308.11,-631.5 308.11,-624.5"/>
</a>
</g>
</g>
<!-- Node11 -->
<g id="Node000011" class="node">
<title>Node11</title>
<g id="a_Node000011"><a xlink:href="structdetail_1_1is__default__constructible_3_01std_1_1tuple_3_01_ts_8_8_8_01_4_01_4.html" target="_top" xlink:title=" ">
<polygon fill="white" stroke="#666666" points="495.38,-588 396.12,-588 396.12,-544 495.38,-544 495.38,-588"/>
<text text-anchor="start" x="404.12" y="-574.5" font-family="Helvetica,sans-Serif" font-size="10.00">detail::is_default</text>
<text text-anchor="start" x="404.12" y="-562.5" font-family="Helvetica,sans-Serif" font-size="10.00">_constructible&lt; std</text>
<text text-anchor="middle" x="445.75" y="-550.5" font-family="Helvetica,sans-Serif" font-size="10.00">::tuple&lt; Ts... &gt; &gt;</text>
</a>
</g>
</g>
<!-- Node8&#45;&gt;Node11 -->
<g id="edge74_Node000008_Node000011" class="edge">
<title>Node8&#45;&gt;Node11</title>
<g id="a_edge74_Node000008_Node000011"><a xlink:title=" ">
<path fill="none" stroke="#63b8ff" d="M307.54,-609.68C322.64,-605.7 338.37,-601.36 353,-597 367.02,-592.82 382.1,-587.9 395.91,-583.23"/>
<polygon fill="#63b8ff" stroke="#63b8ff" points="306.94,-606.22 298.15,-612.13 308.71,-612.99 306.94,-606.22"/>
</a>
</g>
</g>
<!-- Node10 -->
<g id="Node000010" class="node">
<title>Node10</title>
<g id="a_Node000010"><a xlink:href="structdetail_1_1is__constructible_3_01const_01std_1_1tuple_3_01_ts_8_8_8_01_4_01_4.html" target="_top" xlink:title=" ">
<polygon fill="white" stroke="#666666" points="678.25,-644 540,-644 540,-612 678.25,-612 678.25,-644"/>
<text text-anchor="start" x="548" y="-630.5" font-family="Helvetica,sans-Serif" font-size="10.00">detail::is_constructible</text>
<text text-anchor="middle" x="609.12" y="-618.5" font-family="Helvetica,sans-Serif" font-size="10.00">&lt; const std::tuple&lt; Ts... &gt; &gt;</text>
</a>
</g>
</g>
<!-- Node9&#45;&gt;Node10 -->
<g id="edge73_Node000009_Node000010" class="edge">
<title>Node9&#45;&gt;Node10</title>
<g id="a_edge73_Node000009_Node000010"><a xlink:title=" ">
<path fill="none" stroke="#63b8ff" d="M512.24,-628C521.31,-628 530.64,-628 539.75,-628"/>
<polygon fill="#63b8ff" stroke="#63b8ff" points="512.45,-624.5 502.45,-628 512.45,-631.5 512.45,-624.5"/>
</a>
</g>
</g>
<!-- Node12 -->
<g id="Node000012" class="node">
<title>Node12</title>
<g id="a_Node000012"><a xlink:href="structdetail_1_1is__constructible_3_01std_1_1tuple_3_01_ts_8_8_8_01_4_01_4.html" target="_top" xlink:title=" ">
<polygon fill="white" stroke="#666666" points="665.88,-582 552.38,-582 552.38,-550 665.88,-550 665.88,-582"/>
<text text-anchor="start" x="560.38" y="-568.5" font-family="Helvetica,sans-Serif" font-size="10.00">detail::is_constructible</text>
<text text-anchor="middle" x="609.12" y="-556.5" font-family="Helvetica,sans-Serif" font-size="10.00">&lt; std::tuple&lt; Ts... &gt; &gt;</text>
</a>
</g>
</g>
<!-- Node11&#45;&gt;Node12 -->
<g id="edge75_Node000011_Node000012" class="edge">
<title>Node11&#45;&gt;Node12</title>
<g id="a_edge75_Node000011_Node000012"><a xlink:title=" ">
<path fill="none" stroke="#63b8ff" d="M506.73,-566C521.58,-566 537.43,-566 552.08,-566"/>
<polygon fill="#63b8ff" stroke="#63b8ff" points="507.12,-562.5 497.12,-566 507.12,-569.5 507.12,-562.5"/>
</a>
</g>
</g>
</g>
</svg>
