<?xml version="1.0" encoding="UTF-8" standalone="no"?>
<!DOCTYPE svg PUBLIC "-//W3C//DTD SVG 1.1//EN"
 "http://www.w3.org/Graphics/SVG/1.1/DTD/svg11.dtd">
<!-- Generated by graphviz version 12.2.1 (20241206.2353)
 -->
<!-- Title: Graphical Class Hierarchy Pages: 1 -->
<svg width="240pt" height="178pt"
 viewBox="0.00 0.00 239.50 178.00" xmlns="http://www.w3.org/2000/svg" xmlns:xlink="http://www.w3.org/1999/xlink">
<g id="graph0" class="graph" transform="scale(1 1) rotate(0) translate(4 174)">
<title>Graphical Class Hierarchy</title>
<!-- Node0 -->
<g id="Node000000" class="node">
<title>Node0</title>
<g id="a_Node000000"><a xlink:title=" ">
<polygon fill="#e0e0e0" stroke="#999999" points="81.25,-98 0,-98 0,-78 81.25,-78 81.25,-98"/>
<text text-anchor="middle" x="40.62" y="-84.5" font-family="Helvetica,sans-Serif" font-size="10.00">std::char_traits</text>
</a>
</g>
</g>
<!-- Node1 -->
<g id="Node000001" class="node">
<title>Node1</title>
<g id="a_Node000001"><a xlink:href="structdetail_1_1char__traits.html" target="_top" xlink:title=" ">
<polygon fill="white" stroke="#666666" points="219.88,-170 128.88,-170 128.88,-138 219.88,-138 219.88,-170"/>
<text text-anchor="start" x="136.88" y="-156.5" font-family="Helvetica,sans-Serif" font-size="10.00">detail::char_traits</text>
<text text-anchor="middle" x="174.38" y="-144.5" font-family="Helvetica,sans-Serif" font-size="10.00">&lt; char_type &gt;</text>
</a>
</g>
</g>
<!-- Node0&#45;&gt;Node1 -->
<g id="edge23_Node000000_Node000001" class="edge">
<title>Node0&#45;&gt;Node1</title>
<g id="a_edge23_Node000000_Node000001"><a xlink:title=" ">
<path fill="none" stroke="#63b8ff" d="M69.4,-103.73C83.58,-111.59 101.19,-121.08 117.25,-129 123.09,-131.88 129.33,-134.8 135.45,-137.59"/>
<polygon fill="#63b8ff" stroke="#63b8ff" points="71.51,-100.9 61.08,-99.08 68.1,-107.01 71.51,-100.9"/>
</a>
</g>
</g>
<!-- Node2 -->
<g id="Node000002" class="node">
<title>Node2</title>
<g id="a_Node000002"><a xlink:href="structdetail_1_1char__traits.html" target="_top" xlink:title=" ">
<polygon fill="white" stroke="#666666" points="231.5,-120 117.25,-120 117.25,-100 231.5,-100 231.5,-120"/>
<text text-anchor="middle" x="174.38" y="-106.5" font-family="Helvetica,sans-Serif" font-size="10.00">detail::char_traits&lt; T &gt;</text>
</a>
</g>
</g>
<!-- Node0&#45;&gt;Node2 -->
<g id="edge24_Node000000_Node000002" class="edge">
<title>Node0&#45;&gt;Node2</title>
<g id="a_edge24_Node000000_Node000002"><a xlink:title=" ">
<path fill="none" stroke="#63b8ff" d="M92.6,-96.51C100.62,-97.85 108.96,-99.24 117.1,-100.6"/>
<polygon fill="#63b8ff" stroke="#63b8ff" points="93.44,-93.1 83,-94.91 92.29,-100.01 93.44,-93.1"/>
</a>
</g>
</g>
<!-- Node3 -->
<g id="Node000003" class="node">
<title>Node3</title>
<g id="a_Node000003"><a xlink:href="structdetail_1_1char__traits_3_01signed_01char_01_4.html" target="_top" xlink:title=" ">
<polygon fill="white" stroke="#666666" points="219.88,-82 128.88,-82 128.88,-50 219.88,-50 219.88,-82"/>
<text text-anchor="start" x="136.88" y="-68.5" font-family="Helvetica,sans-Serif" font-size="10.00">detail::char_traits</text>
<text text-anchor="middle" x="174.38" y="-56.5" font-family="Helvetica,sans-Serif" font-size="10.00">&lt; signed char &gt;</text>
</a>
</g>
</g>
<!-- Node0&#45;&gt;Node3 -->
<g id="edge25_Node000000_Node000003" class="edge">
<title>Node0&#45;&gt;Node3</title>
<g id="a_edge25_Node000000_Node000003"><a xlink:title=" ">
<path fill="none" stroke="#63b8ff" d="M92.61,-79.49C104.46,-77.51 116.99,-75.41 128.56,-73.48"/>
<polygon fill="#63b8ff" stroke="#63b8ff" points="92.29,-75.99 83,-81.09 93.44,-82.9 92.29,-75.99"/>
</a>
</g>
</g>
<!-- Node4 -->
<g id="Node000004" class="node">
<title>Node4</title>
<g id="a_Node000004"><a xlink:href="structdetail_1_1char__traits_3_01unsigned_01char_01_4.html" target="_top" xlink:title=" ">
<polygon fill="white" stroke="#666666" points="221.75,-32 127,-32 127,0 221.75,0 221.75,-32"/>
<text text-anchor="start" x="135" y="-18.5" font-family="Helvetica,sans-Serif" font-size="10.00">detail::char_traits</text>
<text text-anchor="middle" x="174.38" y="-6.5" font-family="Helvetica,sans-Serif" font-size="10.00">&lt; unsigned char &gt;</text>
</a>
</g>
</g>
<!-- Node0&#45;&gt;Node4 -->
<g id="edge26_Node000000_Node000004" class="edge">
<title>Node0&#45;&gt;Node4</title>
<g id="a_edge26_Node000000_Node000004"><a xlink:title=" ">
<path fill="none" stroke="#63b8ff" d="M66.2,-71.53C80.75,-62.09 99.72,-50.3 117.25,-41 122.81,-38.05 128.79,-35.13 134.7,-32.39"/>
<polygon fill="#63b8ff" stroke="#63b8ff" points="64.6,-68.4 58.17,-76.81 68.45,-74.25 64.6,-68.4"/>
</a>
</g>
</g>
</g>
</svg>
