<?xml version="1.0" encoding="UTF-8" standalone="no"?>
<!DOCTYPE svg PUBLIC "-//W3C//DTD SVG 1.1//EN"
 "http://www.w3.org/Graphics/SVG/1.1/DTD/svg11.dtd">
<!-- Generated by graphviz version 12.2.1 (20241206.2353)
 -->
<!-- Title: detail::dtoa_impl::grisu2 Pages: 1 -->
<svg width="394pt" height="145pt"
 viewBox="0.00 0.00 393.50 145.00" xmlns="http://www.w3.org/2000/svg" xmlns:xlink="http://www.w3.org/1999/xlink">
<g id="graph0" class="graph" transform="scale(1 1) rotate(0) translate(4 141)">
<title>detail::dtoa_impl::grisu2</title>
<!-- Node1 -->
<g id="Node000001" class="node">
<title>Node1</title>
<g id="a_Node000001"><a xlink:title=" ">
<polygon fill="#999999" stroke="#666666" points="93.25,-94 0,-94 0,-62 93.25,-62 93.25,-94"/>
<text text-anchor="start" x="8" y="-80.5" font-family="Helvetica,sans-Serif" font-size="10.00">detail::dtoa_impl::</text>
<text text-anchor="middle" x="46.62" y="-68.5" font-family="Helvetica,sans-Serif" font-size="10.00">grisu2</text>
</a>
</g>
</g>
<!-- Node2 -->
<g id="Node000002" class="node">
<title>Node2</title>
<g id="a_Node000002"><a xlink:href="namespacedetail_1_1dtoa__impl.html#a6a5ccf11847aab7a0f42f587b33935df" target="_top" xlink:title=" ">
<polygon fill="white" stroke="#666666" points="235.25,-119 129.25,-119 129.25,-87 235.25,-87 235.25,-119"/>
<text text-anchor="start" x="137.25" y="-105.5" font-family="Helvetica,sans-Serif" font-size="10.00">detail::dtoa_impl::</text>
<text text-anchor="middle" x="182.25" y="-93.5" font-family="Helvetica,sans-Serif" font-size="10.00">compute_boundaries</text>
</a>
</g>
</g>
<!-- Node1&#45;&gt;Node2 -->
<g id="edge1_Node000001_Node000002" class="edge">
<title>Node1&#45;&gt;Node2</title>
<g id="a_edge1_Node000001_Node000002"><a xlink:title=" ">
<path fill="none" stroke="#63b8ff" d="M93.61,-86.6C101.31,-88.04 109.41,-89.56 117.46,-91.07"/>
<polygon fill="#63b8ff" stroke="#63b8ff" points="116.79,-94.5 127.26,-92.9 118.08,-87.62 116.79,-94.5"/>
</a>
</g>
</g>
<!-- Node3 -->
<g id="Node000003" class="node">
<title>Node3</title>
<g id="a_Node000003"><a xlink:href="namespacedetail_1_1dtoa__impl.html#ad549352ed1a9676a092d143a2daa3dee" target="_top" xlink:title=" ">
<polygon fill="white" stroke="#666666" points="228.88,-69 135.62,-69 135.62,-37 228.88,-37 228.88,-69"/>
<text text-anchor="start" x="143.62" y="-55.5" font-family="Helvetica,sans-Serif" font-size="10.00">detail::dtoa_impl::</text>
<text text-anchor="middle" x="182.25" y="-43.5" font-family="Helvetica,sans-Serif" font-size="10.00">grisu2</text>
</a>
</g>
</g>
<!-- Node1&#45;&gt;Node3 -->
<g id="edge3_Node000001_Node000003" class="edge">
<title>Node1&#45;&gt;Node3</title>
<g id="a_edge3_Node000001_Node000003"><a xlink:title=" ">
<path fill="none" stroke="#63b8ff" d="M93.61,-69.4C103.37,-67.57 113.8,-65.62 123.92,-63.73"/>
<polygon fill="#63b8ff" stroke="#63b8ff" points="124.51,-67.18 133.69,-61.9 123.22,-60.3 124.51,-67.18"/>
</a>
</g>
</g>
<!-- Node2&#45;&gt;Node2 -->
<g id="edge2_Node000002_Node000002" class="edge">
<title>Node2&#45;&gt;Node2</title>
<g id="a_edge2_Node000002_Node000002"><a xlink:title=" ">
<path fill="none" stroke="#63b8ff" d="M158.04,-119.44C153.52,-128.58 161.59,-137 182.25,-137 193.55,-137 201.08,-134.48 204.85,-130.71"/>
<polygon fill="#63b8ff" stroke="#63b8ff" points="208.3,-131.34 206.25,-120.94 201.37,-130.34 208.3,-131.34"/>
</a>
</g>
</g>
<!-- Node4 -->
<g id="Node000004" class="node">
<title>Node4</title>
<g id="a_Node000004"><a xlink:href="namespacedetail_1_1dtoa__impl.html#a29ae6574f6be09a5c8ab08da9a3f71b4" target="_top" xlink:title=" ">
<polygon fill="white" stroke="#666666" points="385.5,-112 271.25,-112 271.25,-68 385.5,-68 385.5,-112"/>
<text text-anchor="start" x="279.25" y="-98.5" font-family="Helvetica,sans-Serif" font-size="10.00">detail::dtoa_impl::</text>
<text text-anchor="start" x="279.25" y="-86.5" font-family="Helvetica,sans-Serif" font-size="10.00">get_cached_power_for</text>
<text text-anchor="middle" x="328.38" y="-74.5" font-family="Helvetica,sans-Serif" font-size="10.00">_binary_exponent</text>
</a>
</g>
</g>
<!-- Node3&#45;&gt;Node4 -->
<g id="edge4_Node000003_Node000004" class="edge">
<title>Node3&#45;&gt;Node4</title>
<g id="a_edge4_Node000003_Node000004"><a xlink:title=" ">
<path fill="none" stroke="#63b8ff" d="M229.25,-64.81C238.99,-67.31 249.46,-70 259.81,-72.66"/>
<polygon fill="#63b8ff" stroke="#63b8ff" points="258.93,-76.04 269.49,-75.14 260.67,-69.26 258.93,-76.04"/>
</a>
</g>
</g>
<!-- Node5 -->
<g id="Node000005" class="node">
<title>Node5</title>
<g id="a_Node000005"><a xlink:href="namespacedetail_1_1dtoa__impl.html#ae877aa13ab872c99a1c614e5e1524807" target="_top" xlink:title=" ">
<polygon fill="#fff0f0" stroke="red" points="375,-32 281.75,-32 281.75,0 375,0 375,-32"/>
<text text-anchor="start" x="289.75" y="-18.5" font-family="Helvetica,sans-Serif" font-size="10.00">detail::dtoa_impl::</text>
<text text-anchor="middle" x="328.38" y="-6.5" font-family="Helvetica,sans-Serif" font-size="10.00">grisu2_digit_gen</text>
</a>
</g>
</g>
<!-- Node3&#45;&gt;Node5 -->
<g id="edge6_Node000003_Node000005" class="edge">
<title>Node3&#45;&gt;Node5</title>
<g id="a_edge6_Node000003_Node000005"><a xlink:title=" ">
<path fill="none" stroke="#63b8ff" d="M229.25,-41.19C242.38,-37.82 256.84,-34.11 270.54,-30.59"/>
<polygon fill="#63b8ff" stroke="#63b8ff" points="271.04,-34.08 279.85,-28.2 269.3,-27.3 271.04,-34.08"/>
</a>
</g>
</g>
<!-- Node4&#45;&gt;Node4 -->
<g id="edge5_Node000004_Node000004" class="edge">
<title>Node4&#45;&gt;Node4</title>
<g id="a_edge5_Node000004_Node000004"><a xlink:title=" ">
<path fill="none" stroke="#63b8ff" d="M301.3,-112.21C299.09,-121.8 308.11,-130 328.38,-130 340.09,-130 348.05,-127.26 352.25,-123.09"/>
<polygon fill="#63b8ff" stroke="#63b8ff" points="355.56,-124.25 355.02,-113.66 348.84,-122.27 355.56,-124.25"/>
</a>
</g>
</g>
<!-- Node5&#45;&gt;Node5 -->
<g id="edge7_Node000005_Node000005" class="edge">
<title>Node5&#45;&gt;Node5</title>
<g id="a_edge7_Node000005_Node000005"><a xlink:title=" ">
<path fill="none" stroke="#63b8ff" d="M302.29,-32.44C297.42,-41.58 306.11,-50 328.38,-50 340.55,-50 348.67,-47.48 352.73,-43.71"/>
<polygon fill="#63b8ff" stroke="#63b8ff" points="356.17,-44.36 354.23,-33.94 349.25,-43.29 356.17,-44.36"/>
</a>
</g>
</g>
</g>
</svg>
