<?xml version="1.0" encoding="UTF-8" standalone="no"?>
<!DOCTYPE svg PUBLIC "-//W3C//DTD SVG 1.1//EN"
 "http://www.w3.org/Graphics/SVG/1.1/DTD/svg11.dtd">
<!-- Generated by graphviz version 12.2.1 (20241206.2353)
 -->
<!-- Title: detail::dtoa_impl::grisu2 Pages: 1 -->
<svg width="388pt" height="138pt"
 viewBox="0.00 0.00 387.50 138.00" xmlns="http://www.w3.org/2000/svg" xmlns:xlink="http://www.w3.org/1999/xlink">
<g id="graph0" class="graph" transform="scale(1 1) rotate(0) translate(4 134)">
<title>detail::dtoa_impl::grisu2</title>
<!-- Node1 -->
<g id="Node000001" class="node">
<title>Node1</title>
<g id="a_Node000001"><a xlink:title=" ">
<polygon fill="#999999" stroke="#666666" points="93.25,-69 0,-69 0,-37 93.25,-37 93.25,-69"/>
<text text-anchor="start" x="8" y="-55.5" font-family="Helvetica,sans-Serif" font-size="10.00">detail::dtoa_impl::</text>
<text text-anchor="middle" x="46.62" y="-43.5" font-family="Helvetica,sans-Serif" font-size="10.00">grisu2</text>
</a>
</g>
</g>
<!-- Node2 -->
<g id="Node000002" class="node">
<title>Node2</title>
<g id="a_Node000002"><a xlink:href="namespacedetail_1_1dtoa__impl.html#a29ae6574f6be09a5c8ab08da9a3f71b4" target="_top" xlink:title=" ">
<polygon fill="white" stroke="#666666" points="243.5,-112 129.25,-112 129.25,-68 243.5,-68 243.5,-112"/>
<text text-anchor="start" x="137.25" y="-98.5" font-family="Helvetica,sans-Serif" font-size="10.00">detail::dtoa_impl::</text>
<text text-anchor="start" x="137.25" y="-86.5" font-family="Helvetica,sans-Serif" font-size="10.00">get_cached_power_for</text>
<text text-anchor="middle" x="186.38" y="-74.5" font-family="Helvetica,sans-Serif" font-size="10.00">_binary_exponent</text>
</a>
</g>
</g>
<!-- Node1&#45;&gt;Node2 -->
<g id="edge1_Node000001_Node000002" class="edge">
<title>Node1&#45;&gt;Node2</title>
<g id="a_edge1_Node000001_Node000002"><a xlink:title=" ">
<path fill="none" stroke="#63b8ff" d="M93.49,-65.32C101.44,-67.45 109.85,-69.71 118.22,-71.96"/>
<polygon fill="#63b8ff" stroke="#63b8ff" points="117.14,-75.29 127.7,-74.51 118.95,-68.53 117.14,-75.29"/>
</a>
</g>
</g>
<!-- Node3 -->
<g id="Node000003" class="node">
<title>Node3</title>
<g id="a_Node000003"><a xlink:href="namespacedetail_1_1dtoa__impl.html#ae877aa13ab872c99a1c614e5e1524807" target="_top" xlink:title=" ">
<polygon fill="white" stroke="#666666" points="233,-32 139.75,-32 139.75,0 233,0 233,-32"/>
<text text-anchor="start" x="147.75" y="-18.5" font-family="Helvetica,sans-Serif" font-size="10.00">detail::dtoa_impl::</text>
<text text-anchor="middle" x="186.38" y="-6.5" font-family="Helvetica,sans-Serif" font-size="10.00">grisu2_digit_gen</text>
</a>
</g>
</g>
<!-- Node1&#45;&gt;Node3 -->
<g id="edge3_Node000001_Node000003" class="edge">
<title>Node1&#45;&gt;Node3</title>
<g id="a_edge3_Node000001_Node000003"><a xlink:title=" ">
<path fill="none" stroke="#63b8ff" d="M93.49,-40.68C104.76,-37.65 116.96,-34.38 128.67,-31.23"/>
<polygon fill="#63b8ff" stroke="#63b8ff" points="129.5,-34.63 138.24,-28.66 127.68,-27.87 129.5,-34.63"/>
</a>
</g>
</g>
<!-- Node2&#45;&gt;Node2 -->
<g id="edge2_Node000002_Node000002" class="edge">
<title>Node2&#45;&gt;Node2</title>
<g id="a_edge2_Node000002_Node000002"><a xlink:title=" ">
<path fill="none" stroke="#63b8ff" d="M160.49,-112.21C158.37,-121.8 167,-130 186.38,-130 197.58,-130 205.19,-127.26 209.21,-123.09"/>
<polygon fill="#63b8ff" stroke="#63b8ff" points="212.52,-124.24 211.86,-113.67 205.78,-122.35 212.52,-124.24"/>
</a>
</g>
</g>
<!-- Node3&#45;&gt;Node3 -->
<g id="edge6_Node000003_Node000003" class="edge">
<title>Node3&#45;&gt;Node3</title>
<g id="a_edge6_Node000003_Node000003"><a xlink:title=" ">
<path fill="none" stroke="#63b8ff" d="M161.43,-32.44C156.77,-41.58 165.08,-50 186.38,-50 198.02,-50 205.78,-47.48 209.66,-43.71"/>
<polygon fill="#63b8ff" stroke="#63b8ff" points="213.11,-44.34 211.1,-33.94 206.18,-43.32 213.11,-44.34"/>
</a>
</g>
</g>
<!-- Node4 -->
<g id="Node000004" class="node">
<title>Node4</title>
<g id="a_Node000004"><a xlink:href="namespacedetail_1_1dtoa__impl.html#a04eb234a28617519974fc962cd4da666" target="_top" xlink:title=" ">
<polygon fill="white" stroke="#666666" points="379.5,-32 279.5,-32 279.5,0 379.5,0 379.5,-32"/>
<text text-anchor="start" x="287.5" y="-18.5" font-family="Helvetica,sans-Serif" font-size="10.00">detail::dtoa_impl::</text>
<text text-anchor="middle" x="329.5" y="-6.5" font-family="Helvetica,sans-Serif" font-size="10.00">find_largest_pow10</text>
</a>
</g>
</g>
<!-- Node3&#45;&gt;Node4 -->
<g id="edge4_Node000003_Node000004" class="edge">
<title>Node3&#45;&gt;Node4</title>
<g id="a_edge4_Node000003_Node000004"><a xlink:title=" ">
<path fill="none" stroke="#63b8ff" d="M233.19,-16C244.18,-16 256.08,-16 267.63,-16"/>
<polygon fill="#63b8ff" stroke="#63b8ff" points="267.5,-19.5 277.5,-16 267.5,-12.5 267.5,-19.5"/>
</a>
</g>
</g>
<!-- Node4&#45;&gt;Node4 -->
<g id="edge5_Node000004_Node000004" class="edge">
<title>Node4&#45;&gt;Node4</title>
<g id="a_edge5_Node000004_Node000004"><a xlink:title=" ">
<path fill="none" stroke="#63b8ff" d="M303.95,-32.44C299.18,-41.58 307.7,-50 329.5,-50 341.42,-50 349.37,-47.48 353.35,-43.71"/>
<polygon fill="#63b8ff" stroke="#63b8ff" points="356.79,-44.35 354.83,-33.94 349.87,-43.3 356.79,-44.35"/>
</a>
</g>
</g>
</g>
</svg>
