<?xml version="1.0" encoding="UTF-8" standalone="no"?>
<!DOCTYPE svg PUBLIC "-//W3C//DTD SVG 1.1//EN"
 "http://www.w3.org/Graphics/SVG/1.1/DTD/svg11.dtd">
<!-- Generated by graphviz version 12.2.1 (20241206.2353)
 -->
<!-- Title: detail::dtoa_impl::grisu2_digit_gen Pages: 1 -->
<svg width="237pt" height="58pt"
 viewBox="0.00 0.00 237.25 58.00" xmlns="http://www.w3.org/2000/svg" xmlns:xlink="http://www.w3.org/1999/xlink">
<g id="graph0" class="graph" transform="scale(1 1) rotate(0) translate(4 54)">
<title>detail::dtoa_impl::grisu2_digit_gen</title>
<!-- Node1 -->
<g id="Node000001" class="node">
<title>Node1</title>
<g id="a_Node000001"><a xlink:title=" ">
<polygon fill="#999999" stroke="#666666" points="93.25,-32 0,-32 0,0 93.25,0 93.25,-32"/>
<text text-anchor="start" x="8" y="-18.5" font-family="Helvetica,sans-Serif" font-size="10.00">detail::dtoa_impl::</text>
<text text-anchor="middle" x="46.62" y="-6.5" font-family="Helvetica,sans-Serif" font-size="10.00">grisu2_digit_gen</text>
</a>
</g>
</g>
<!-- Node1&#45;&gt;Node1 -->
<g id="edge3_Node000001_Node000001" class="edge">
<title>Node1&#45;&gt;Node1</title>
<g id="a_edge3_Node000001_Node000001"><a xlink:title=" ">
<path fill="none" stroke="#63b8ff" d="M22.95,-32.44C18.53,-41.58 26.42,-50 46.62,-50 57.67,-50 65.04,-47.48 68.73,-43.71"/>
<polygon fill="#63b8ff" stroke="#63b8ff" points="72.17,-44.33 70.09,-33.94 65.24,-43.36 72.17,-44.33"/>
</a>
</g>
</g>
<!-- Node2 -->
<g id="Node000002" class="node">
<title>Node2</title>
<g id="a_Node000002"><a xlink:href="namespacedetail_1_1dtoa__impl.html#a04eb234a28617519974fc962cd4da666" target="_top" xlink:title=" ">
<polygon fill="white" stroke="#666666" points="229.25,-32 129.25,-32 129.25,0 229.25,0 229.25,-32"/>
<text text-anchor="start" x="137.25" y="-18.5" font-family="Helvetica,sans-Serif" font-size="10.00">detail::dtoa_impl::</text>
<text text-anchor="middle" x="179.25" y="-6.5" font-family="Helvetica,sans-Serif" font-size="10.00">find_largest_pow10</text>
</a>
</g>
</g>
<!-- Node1&#45;&gt;Node2 -->
<g id="edge1_Node000001_Node000002" class="edge">
<title>Node1&#45;&gt;Node2</title>
<g id="a_edge1_Node000001_Node000002"><a xlink:title=" ">
<path fill="none" stroke="#63b8ff" d="M93.68,-16C101.47,-16 109.66,-16 117.75,-16"/>
<polygon fill="#63b8ff" stroke="#63b8ff" points="117.55,-19.5 127.55,-16 117.55,-12.5 117.55,-19.5"/>
</a>
</g>
</g>
<!-- Node2&#45;&gt;Node2 -->
<g id="edge2_Node000002_Node000002" class="edge">
<title>Node2&#45;&gt;Node2</title>
<g id="a_edge2_Node000002_Node000002"><a xlink:title=" ">
<path fill="none" stroke="#63b8ff" d="M155.57,-32.44C151.15,-41.58 159.05,-50 179.25,-50 190.3,-50 197.67,-47.48 201.35,-43.71"/>
<polygon fill="#63b8ff" stroke="#63b8ff" points="204.8,-44.33 202.72,-33.94 197.87,-43.36 204.8,-44.33"/>
</a>
</g>
</g>
</g>
</svg>
