<?xml version="1.0" encoding="UTF-8" standalone="no"?>
<!DOCTYPE svg PUBLIC "-//W3C//DTD SVG 1.1//EN"
 "http://www.w3.org/Graphics/SVG/1.1/DTD/svg11.dtd">
<!-- Generated by graphviz version 12.2.1 (20241206.2353)
 -->
<!-- Title: detail::is_iterator_traits&lt; T, typename &gt; Pages: 1 -->
<svg width="114pt" height="160pt"
 viewBox="0.00 0.00 114.25 160.00" xmlns="http://www.w3.org/2000/svg" xmlns:xlink="http://www.w3.org/1999/xlink">
<g id="graph0" class="graph" transform="scale(1 1) rotate(0) translate(4 156)">
<title>detail::is_iterator_traits&lt; T, typename &gt;</title>
<!-- Node1 -->
<g id="Node000001" class="node">
<title>Node1</title>
<g id="a_Node000001"><a xlink:title=" ">
<polygon fill="#999999" stroke="none" points="106.25,-64 0,-64 0,0 106.25,0 106.25,-64"/>
<text text-anchor="start" x="4" y="-50.5" font-family="Helvetica,sans-Serif" font-size="10.00">detail::is_iterator</text>
<text text-anchor="start" x="4" y="-38.5" font-family="Helvetica,sans-Serif" font-size="10.00">_traits&lt; T, typename &gt;</text>
<text text-anchor="start" x="51.62" y="-22.5" font-family="Helvetica,sans-Serif" font-size="10.00"> </text>
<text text-anchor="start" x="51.62" y="-6.5" font-family="Helvetica,sans-Serif" font-size="10.00"> </text>
<polygon fill="#666666" stroke="#666666" points="0,-34 0,-34 106.25,-34 106.25,-34 0,-34"/>
<polygon fill="#666666" stroke="#666666" points="0,-18 0,-18 106.25,-18 106.25,-18 0,-18"/>
<polygon fill="none" stroke="#666666" points="0,0 0,-64 106.25,-64 106.25,0 0,0"/>
</a>
</g>
</g>
<!-- Node2 -->
<g id="Node000002" class="node">
<title>Node2</title>
<g id="a_Node000002"><a xlink:title=" ">
<polygon fill="white" stroke="none" points="89.38,-152 16.88,-152 16.88,-100 89.38,-100 89.38,-152"/>
<text text-anchor="start" x="20.88" y="-138.5" font-family="Helvetica,sans-Serif" font-size="10.00">std::false_type</text>
<text text-anchor="start" x="51.62" y="-122.5" font-family="Helvetica,sans-Serif" font-size="10.00"> </text>
<text text-anchor="start" x="51.62" y="-106.5" font-family="Helvetica,sans-Serif" font-size="10.00"> </text>
<polygon fill="#bfbfbf" stroke="#bfbfbf" points="16.88,-134 16.88,-134 89.38,-134 89.38,-134 16.88,-134"/>
<polygon fill="#bfbfbf" stroke="#bfbfbf" points="16.88,-118 16.88,-118 89.38,-118 89.38,-118 16.88,-118"/>
<polygon fill="none" stroke="#bfbfbf" points="16.88,-100 16.88,-152 89.38,-152 89.38,-100 16.88,-100"/>
</a>
</g>
</g>
<!-- Node2&#45;&gt;Node1 -->
<g id="edge1_Node000001_Node000002" class="edge">
<title>Node2&#45;&gt;Node1</title>
<g id="a_edge1_Node000001_Node000002"><a xlink:title=" ">
<path fill="none" stroke="#63b8ff" d="M53.12,-89.06C53.12,-80.78 53.12,-72.04 53.12,-63.98"/>
<polygon fill="none" stroke="#63b8ff" points="49.63,-88.83 53.13,-98.83 56.63,-88.83 49.63,-88.83"/>
</a>
</g>
</g>
</g>
</svg>
