<?xml version="1.0" encoding="UTF-8" standalone="no"?>
<!DOCTYPE svg PUBLIC "-//W3C//DTD SVG 1.1//EN"
 "http://www.w3.org/Graphics/SVG/1.1/DTD/svg11.dtd">
<!-- Generated by graphviz version 12.2.1 (20241206.2353)
 -->
<!-- Title: detail::is_json_iterator_of&lt; BasicJsonType, T &gt; Pages: 1 -->
<svg width="126pt" height="160pt"
 viewBox="0.00 0.00 125.50 160.00" xmlns="http://www.w3.org/2000/svg" xmlns:xlink="http://www.w3.org/1999/xlink">
<g id="graph0" class="graph" transform="scale(1 1) rotate(0) translate(4 156)">
<title>detail::is_json_iterator_of&lt; BasicJsonType, T &gt;</title>
<!-- Node1 -->
<g id="Node000001" class="node">
<title>Node1</title>
<g id="a_Node000001"><a xlink:title=" ">
<polygon fill="#999999" stroke="none" points="117.5,-64 0,-64 0,0 117.5,0 117.5,-64"/>
<text text-anchor="start" x="4" y="-50.5" font-family="Helvetica,sans-Serif" font-size="10.00">detail::is_json_iterator</text>
<text text-anchor="start" x="4" y="-38.5" font-family="Helvetica,sans-Serif" font-size="10.00">_of&lt; BasicJsonType, T &gt;</text>
<text text-anchor="start" x="57.25" y="-22.5" font-family="Helvetica,sans-Serif" font-size="10.00"> </text>
<text text-anchor="start" x="57.25" y="-6.5" font-family="Helvetica,sans-Serif" font-size="10.00"> </text>
<polygon fill="#666666" stroke="#666666" points="0,-34 0,-34 117.5,-34 117.5,-34 0,-34"/>
<polygon fill="#666666" stroke="#666666" points="0,-18 0,-18 117.5,-18 117.5,-18 0,-18"/>
<polygon fill="none" stroke="#666666" points="0,0 0,-64 117.5,-64 117.5,0 0,0"/>
</a>
</g>
</g>
<!-- Node2 -->
<g id="Node000002" class="node">
<title>Node2</title>
<g id="a_Node000002"><a xlink:title=" ">
<polygon fill="white" stroke="none" points="95,-152 22.5,-152 22.5,-100 95,-100 95,-152"/>
<text text-anchor="start" x="26.5" y="-138.5" font-family="Helvetica,sans-Serif" font-size="10.00">std::false_type</text>
<text text-anchor="start" x="57.25" y="-122.5" font-family="Helvetica,sans-Serif" font-size="10.00"> </text>
<text text-anchor="start" x="57.25" y="-106.5" font-family="Helvetica,sans-Serif" font-size="10.00"> </text>
<polygon fill="#bfbfbf" stroke="#bfbfbf" points="22.5,-134 22.5,-134 95,-134 95,-134 22.5,-134"/>
<polygon fill="#bfbfbf" stroke="#bfbfbf" points="22.5,-118 22.5,-118 95,-118 95,-118 22.5,-118"/>
<polygon fill="none" stroke="#bfbfbf" points="22.5,-100 22.5,-152 95,-152 95,-100 22.5,-100"/>
</a>
</g>
</g>
<!-- Node2&#45;&gt;Node1 -->
<g id="edge1_Node000001_Node000002" class="edge">
<title>Node2&#45;&gt;Node1</title>
<g id="a_edge1_Node000001_Node000002"><a xlink:title=" ">
<path fill="none" stroke="#63b8ff" d="M58.75,-89.06C58.75,-80.78 58.75,-72.04 58.75,-63.98"/>
<polygon fill="none" stroke="#63b8ff" points="55.25,-88.83 58.75,-98.83 62.25,-88.83 55.25,-88.83"/>
</a>
</g>
</g>
</g>
</svg>
