<?xml version="1.0" encoding="UTF-8" standalone="no"?>
<!DOCTYPE svg PUBLIC "-//W3C//DTD SVG 1.1//EN"
 "http://www.w3.org/Graphics/SVG/1.1/DTD/svg11.dtd">
<!-- Generated by graphviz version 12.2.1 (20241206.2353)
 -->
<!-- Title: detail::negation&lt; B &gt; Pages: 1 -->
<svg width="110pt" height="160pt"
 viewBox="0.00 0.00 109.75 160.00" xmlns="http://www.w3.org/2000/svg" xmlns:xlink="http://www.w3.org/1999/xlink">
<g id="graph0" class="graph" transform="scale(1 1) rotate(0) translate(4 156)">
<title>detail::negation&lt; B &gt;</title>
<!-- Node1 -->
<g id="Node000001" class="node">
<title>Node1</title>
<g id="a_Node000001"><a xlink:title=" ">
<polygon fill="#999999" stroke="none" points="100.25,-52 1.5,-52 1.5,0 100.25,0 100.25,-52"/>
<text text-anchor="start" x="5.5" y="-38.5" font-family="Helvetica,sans-Serif" font-size="10.00">detail::negation&lt; B &gt;</text>
<text text-anchor="start" x="49.38" y="-22.5" font-family="Helvetica,sans-Serif" font-size="10.00"> </text>
<text text-anchor="start" x="49.38" y="-6.5" font-family="Helvetica,sans-Serif" font-size="10.00"> </text>
<polygon fill="#666666" stroke="#666666" points="1.5,-34 1.5,-34 100.25,-34 100.25,-34 1.5,-34"/>
<polygon fill="#666666" stroke="#666666" points="1.5,-18 1.5,-18 100.25,-18 100.25,-18 1.5,-18"/>
<polygon fill="none" stroke="#666666" points="1.5,0 1.5,-52 100.25,-52 100.25,0 1.5,0"/>
</a>
</g>
</g>
<!-- Node2 -->
<g id="Node000002" class="node">
<title>Node2</title>
<g id="a_Node000002"><a xlink:title=" ">
<polygon fill="white" stroke="none" points="101.75,-152 0,-152 0,-88 101.75,-88 101.75,-152"/>
<text text-anchor="start" x="4" y="-138.5" font-family="Helvetica,sans-Serif" font-size="10.00">std::integral_constant</text>
<text text-anchor="start" x="10.38" y="-126.5" font-family="Helvetica,sans-Serif" font-size="10.00">&lt; bool, !B::value &gt;</text>
<text text-anchor="start" x="49.38" y="-110.5" font-family="Helvetica,sans-Serif" font-size="10.00"> </text>
<text text-anchor="start" x="49.38" y="-94.5" font-family="Helvetica,sans-Serif" font-size="10.00"> </text>
<polygon fill="#bfbfbf" stroke="#bfbfbf" points="0,-122 0,-122 101.75,-122 101.75,-122 0,-122"/>
<polygon fill="#bfbfbf" stroke="#bfbfbf" points="0,-106 0,-106 101.75,-106 101.75,-106 0,-106"/>
<polygon fill="none" stroke="#bfbfbf" points="0,-88 0,-152 101.75,-152 101.75,-88 0,-88"/>
</a>
</g>
</g>
<!-- Node2&#45;&gt;Node1 -->
<g id="edge1_Node000001_Node000002" class="edge">
<title>Node2&#45;&gt;Node1</title>
<g id="a_edge1_Node000001_Node000002"><a xlink:title=" ">
<path fill="none" stroke="#63b8ff" d="M50.88,-76.72C50.88,-68.21 50.88,-59.53 50.88,-51.86"/>
<polygon fill="none" stroke="#63b8ff" points="47.38,-76.6 50.88,-86.6 54.38,-76.6 47.38,-76.6"/>
</a>
</g>
</g>
</g>
</svg>
