<?xml version="1.0" encoding="UTF-8" standalone="no"?>
<!DOCTYPE svg PUBLIC "-//W3C//DTD SVG 1.1//EN"
 "http://www.w3.org/Graphics/SVG/1.1/DTD/svg11.dtd">
<!-- Generated by graphviz version 12.2.1 (20241206.2353)
 -->
<!-- Title: detail::conjunction&lt; B, Bn... &gt; Pages: 1 -->
<svg width="118pt" height="196pt"
 viewBox="0.00 0.00 118.00 196.00" xmlns="http://www.w3.org/2000/svg" xmlns:xlink="http://www.w3.org/1999/xlink">
<g id="graph0" class="graph" transform="scale(1 1) rotate(0) translate(4 192)">
<title>detail::conjunction&lt; B, Bn... &gt;</title>
<!-- Node1 -->
<g id="Node000001" class="node">
<title>Node1</title>
<g id="a_Node000001"><a xlink:title=" ">
<polygon fill="#999999" stroke="none" points="98.38,-64 11.62,-64 11.62,0 98.38,0 98.38,-64"/>
<text text-anchor="start" x="15.62" y="-50.5" font-family="Helvetica,sans-Serif" font-size="10.00">detail::conjunction</text>
<text text-anchor="start" x="29.12" y="-38.5" font-family="Helvetica,sans-Serif" font-size="10.00">&lt; B, Bn... &gt;</text>
<text text-anchor="start" x="53.5" y="-22.5" font-family="Helvetica,sans-Serif" font-size="10.00"> </text>
<text text-anchor="start" x="53.5" y="-6.5" font-family="Helvetica,sans-Serif" font-size="10.00"> </text>
<polygon fill="#666666" stroke="#666666" points="11.62,-34 11.62,-34 98.38,-34 98.38,-34 11.62,-34"/>
<polygon fill="#666666" stroke="#666666" points="11.62,-18 11.62,-18 98.38,-18 98.38,-18 11.62,-18"/>
<polygon fill="none" stroke="#666666" points="11.62,0 11.62,-64 98.38,-64 98.38,0 11.62,0"/>
</a>
</g>
</g>
<!-- Node2 -->
<g id="Node000002" class="node">
<title>Node2</title>
<g id="a_Node000002"><a xlink:title=" ">
<polygon fill="white" stroke="none" points="110,-188 0,-188 0,-100 110,-100 110,-188"/>
<text text-anchor="start" x="4" y="-174.5" font-family="Helvetica,sans-Serif" font-size="10.00">std::conditional&lt; static</text>
<text text-anchor="start" x="4" y="-162.5" font-family="Helvetica,sans-Serif" font-size="10.00">_cast&lt; bool &gt;(B::value)</text>
<text text-anchor="start" x="4" y="-150.5" font-family="Helvetica,sans-Serif" font-size="10.00">, conjunction&lt; Bn... &gt;,</text>
<text text-anchor="start" x="33.25" y="-138.5" font-family="Helvetica,sans-Serif" font-size="10.00"> B &gt;::type</text>
<text text-anchor="start" x="53.5" y="-122.5" font-family="Helvetica,sans-Serif" font-size="10.00"> </text>
<text text-anchor="start" x="53.5" y="-106.5" font-family="Helvetica,sans-Serif" font-size="10.00"> </text>
<polygon fill="#bfbfbf" stroke="#bfbfbf" points="0,-134 0,-134 110,-134 110,-134 0,-134"/>
<polygon fill="#bfbfbf" stroke="#bfbfbf" points="0,-118 0,-118 110,-118 110,-118 0,-118"/>
<polygon fill="none" stroke="#bfbfbf" points="0,-100 0,-188 110,-188 110,-100 0,-100"/>
</a>
</g>
</g>
<!-- Node2&#45;&gt;Node1 -->
<g id="edge1_Node000001_Node000002" class="edge">
<title>Node2&#45;&gt;Node1</title>
<g id="a_edge1_Node000001_Node000002"><a xlink:title=" ">
<path fill="none" stroke="#63b8ff" d="M55,-88.68C55,-80.2 55,-71.7 55,-63.98"/>
<polygon fill="none" stroke="#63b8ff" points="51.5,-88.64 55,-98.64 58.5,-88.64 51.5,-88.64"/>
</a>
</g>
</g>
</g>
</svg>
