<?xml version="1.0" encoding="UTF-8" standalone="no"?>
<!DOCTYPE svg PUBLIC "-//W3C//DTD SVG 1.1//EN"
 "http://www.w3.org/Graphics/SVG/1.1/DTD/svg11.dtd">
<!-- Generated by graphviz version 12.2.1 (20241206.2353)
 -->
<!-- Title: detail::is_comparable&lt; Compare, A, B, void_t&lt; decltype(std::declval&lt; Compare &gt;()(std::declval&lt; A &gt;(), std::declval&lt; B &gt;())), decltype(std::declval&lt; Compare &gt;()(std::declval&lt; B &gt;(), std::declval&lt; A &gt;()))&gt; &gt; Pages: 1 -->
<svg width="149pt" height="232pt"
 viewBox="0.00 0.00 148.75 232.00" xmlns="http://www.w3.org/2000/svg" xmlns:xlink="http://www.w3.org/1999/xlink">
<g id="graph0" class="graph" transform="scale(1 1) rotate(0) translate(4 228)">
<title>detail::is_comparable&lt; Compare, A, B, void_t&lt; decltype(std::declval&lt; Compare &gt;()(std::declval&lt; A &gt;(), std::declval&lt; B &gt;())), decltype(std::declval&lt; Compare &gt;()(std::declval&lt; B &gt;(), std::declval&lt; A &gt;()))&gt; &gt;</title>
<!-- Node1 -->
<g id="Node000001" class="node">
<title>Node1</title>
<g id="a_Node000001"><a xlink:title=" ">
<polygon fill="#999999" stroke="none" points="140.75,-136 0,-136 0,0 140.75,0 140.75,-136"/>
<text text-anchor="start" x="4" y="-122.5" font-family="Helvetica,sans-Serif" font-size="10.00">detail::is_comparable</text>
<text text-anchor="start" x="4" y="-110.5" font-family="Helvetica,sans-Serif" font-size="10.00">&lt; Compare, A, B, void</text>
<text text-anchor="start" x="4" y="-98.5" font-family="Helvetica,sans-Serif" font-size="10.00">_t&lt; decltype(std::declval</text>
<text text-anchor="start" x="4" y="-86.5" font-family="Helvetica,sans-Serif" font-size="10.00">&lt; Compare &gt;()(std::declval</text>
<text text-anchor="start" x="4" y="-74.5" font-family="Helvetica,sans-Serif" font-size="10.00">&lt; A &gt;(), std::declval&lt; B &gt;</text>
<text text-anchor="start" x="4" y="-62.5" font-family="Helvetica,sans-Serif" font-size="10.00">())), decltype(std::declval</text>
<text text-anchor="start" x="4" y="-50.5" font-family="Helvetica,sans-Serif" font-size="10.00">&lt; Compare &gt;()(std::declval&lt; B</text>
<text text-anchor="start" x="9.62" y="-38.5" font-family="Helvetica,sans-Serif" font-size="10.00"> &gt;(), std::declval&lt; A &gt;()))&gt; &gt;</text>
<text text-anchor="start" x="68.88" y="-22.5" font-family="Helvetica,sans-Serif" font-size="10.00"> </text>
<text text-anchor="start" x="68.88" y="-6.5" font-family="Helvetica,sans-Serif" font-size="10.00"> </text>
<polygon fill="#666666" stroke="#666666" points="0,-34 0,-34 140.75,-34 140.75,-34 0,-34"/>
<polygon fill="#666666" stroke="#666666" points="0,-18 0,-18 140.75,-18 140.75,-18 0,-18"/>
<polygon fill="none" stroke="#666666" points="0,0 0,-136 140.75,-136 140.75,0 0,0"/>
</a>
</g>
</g>
<!-- Node2 -->
<g id="Node000002" class="node">
<title>Node2</title>
<g id="a_Node000002"><a xlink:title=" ">
<polygon fill="white" stroke="none" points="104.38,-224 36.38,-224 36.38,-172 104.38,-172 104.38,-224"/>
<text text-anchor="start" x="40.38" y="-210.5" font-family="Helvetica,sans-Serif" font-size="10.00">std::true_type</text>
<text text-anchor="start" x="68.88" y="-194.5" font-family="Helvetica,sans-Serif" font-size="10.00"> </text>
<text text-anchor="start" x="68.88" y="-178.5" font-family="Helvetica,sans-Serif" font-size="10.00"> </text>
<polygon fill="#bfbfbf" stroke="#bfbfbf" points="36.38,-206 36.38,-206 104.38,-206 104.38,-206 36.38,-206"/>
<polygon fill="#bfbfbf" stroke="#bfbfbf" points="36.38,-190 36.38,-190 104.38,-190 104.38,-190 36.38,-190"/>
<polygon fill="none" stroke="#bfbfbf" points="36.38,-172 36.38,-224 104.38,-224 104.38,-172 36.38,-172"/>
</a>
</g>
</g>
<!-- Node2&#45;&gt;Node1 -->
<g id="edge1_Node000001_Node000002" class="edge">
<title>Node2&#45;&gt;Node1</title>
<g id="a_edge1_Node000001_Node000002"><a xlink:title=" ">
<path fill="none" stroke="#63b8ff" d="M70.38,-160.77C70.38,-152.97 70.38,-144.48 70.38,-135.92"/>
<polygon fill="none" stroke="#63b8ff" points="66.88,-160.5 70.38,-170.5 73.88,-160.5 66.88,-160.5"/>
</a>
</g>
</g>
</g>
</svg>
