<?xml version="1.0" encoding="UTF-8" standalone="no"?>
<!DOCTYPE svg PUBLIC "-//W3C//DTD SVG 1.1//EN"
 "http://www.w3.org/Graphics/SVG/1.1/DTD/svg11.dtd">
<!-- Generated by graphviz version 12.2.1 (20241206.2353)
 -->
<!-- Title: ordered_map&lt; Key, T, IgnoredLess, Allocator &gt; Pages: 1 -->
<svg width="130pt" height="356pt"
 viewBox="0.00 0.00 130.00 356.00" xmlns="http://www.w3.org/2000/svg" xmlns:xlink="http://www.w3.org/1999/xlink">
<g id="graph0" class="graph" transform="scale(1 1) rotate(0) translate(4 352)">
<title>ordered_map&lt; Key, T, IgnoredLess, Allocator &gt;</title>
<!-- Node1 -->
<g id="Node000001" class="node">
<title>Node1</title>
<g id="a_Node000001"><a xlink:title="a minimal map&#45;like container that preserves insertion order">
<polygon fill="#999999" stroke="none" points="119.38,-224 2.62,-224 2.62,0 119.38,0 119.38,-224"/>
<text text-anchor="start" x="6.62" y="-210.5" font-family="Helvetica,sans-Serif" font-size="10.00">ordered_map&lt; Key, T,</text>
<text text-anchor="start" x="6.62" y="-198.5" font-family="Helvetica,sans-Serif" font-size="10.00"> IgnoredLess, Allocator &gt;</text>
<text text-anchor="start" x="59.5" y="-182.5" font-family="Helvetica,sans-Serif" font-size="10.00"> </text>
<text text-anchor="start" x="15.56" y="-166.5" font-family="Helvetica,sans-Serif" font-size="10.00">+</text>
<text text-anchor="start" x="34.5" y="-166.5" font-family="Helvetica,sans-Serif" font-size="10.00">ordered_map()</text>
<text text-anchor="start" x="15.56" y="-150.5" font-family="Helvetica,sans-Serif" font-size="10.00">+</text>
<text text-anchor="start" x="34.5" y="-150.5" font-family="Helvetica,sans-Serif" font-size="10.00">ordered_map()</text>
<text text-anchor="start" x="15.56" y="-134.5" font-family="Helvetica,sans-Serif" font-size="10.00">+</text>
<text text-anchor="start" x="34.5" y="-134.5" font-family="Helvetica,sans-Serif" font-size="10.00">ordered_map()</text>
<text text-anchor="start" x="15.56" y="-118.5" font-family="Helvetica,sans-Serif" font-size="10.00">+</text>
<text text-anchor="start" x="34.5" y="-118.5" font-family="Helvetica,sans-Serif" font-size="10.00">ordered_map()</text>
<text text-anchor="start" x="15.56" y="-102.5" font-family="Helvetica,sans-Serif" font-size="10.00">+</text>
<text text-anchor="start" x="34.5" y="-102.5" font-family="Helvetica,sans-Serif" font-size="10.00">emplace()</text>
<text text-anchor="start" x="15.56" y="-86.5" font-family="Helvetica,sans-Serif" font-size="10.00">+</text>
<text text-anchor="start" x="34.5" y="-86.5" font-family="Helvetica,sans-Serif" font-size="10.00">emplace()</text>
<text text-anchor="start" x="15.56" y="-70.5" font-family="Helvetica,sans-Serif" font-size="10.00">+</text>
<text text-anchor="start" x="34.5" y="-70.5" font-family="Helvetica,sans-Serif" font-size="10.00">operator[]()</text>
<text text-anchor="start" x="15.56" y="-54.5" font-family="Helvetica,sans-Serif" font-size="10.00">+</text>
<text text-anchor="start" x="34.5" y="-54.5" font-family="Helvetica,sans-Serif" font-size="10.00">operator[]()</text>
<text text-anchor="start" x="15.56" y="-38.5" font-family="Helvetica,sans-Serif" font-size="10.00">+</text>
<text text-anchor="start" x="34.5" y="-38.5" font-family="Helvetica,sans-Serif" font-size="10.00">operator[]()</text>
<text text-anchor="start" x="15.56" y="-22.5" font-family="Helvetica,sans-Serif" font-size="10.00">+</text>
<text text-anchor="start" x="34.5" y="-22.5" font-family="Helvetica,sans-Serif" font-size="10.00">operator[]()</text>
<text text-anchor="start" x="34.5" y="-6.5" font-family="Helvetica,sans-Serif" font-size="10.00">and 16 more...</text>
<polygon fill="#666666" stroke="#666666" points="2.62,-194 2.62,-194 119.38,-194 119.38,-194 2.62,-194"/>
<polygon fill="#666666" stroke="#666666" points="2.62,-178 2.62,-178 119.38,-178 119.38,-178 2.62,-178"/>
<polygon fill="none" stroke="#666666" points="2.62,0 2.62,-224 119.38,-224 119.38,0 2.62,0"/>
</a>
</g>
</g>
<!-- Node2 -->
<g id="Node000002" class="node">
<title>Node2</title>
<g id="a_Node000002"><a xlink:title=" ">
<polygon fill="white" stroke="none" points="122,-348 0,-348 0,-260 122,-260 122,-348"/>
<text text-anchor="start" x="4" y="-334.5" font-family="Helvetica,sans-Serif" font-size="10.00">std::vector&lt; std::pair</text>
<text text-anchor="start" x="4" y="-322.5" font-family="Helvetica,sans-Serif" font-size="10.00">&lt; const Key, T &gt;, std</text>
<text text-anchor="start" x="4" y="-310.5" font-family="Helvetica,sans-Serif" font-size="10.00">::allocator&lt;std::pair&lt;const</text>
<text text-anchor="start" x="35.12" y="-298.5" font-family="Helvetica,sans-Serif" font-size="10.00"> Key, T&gt;&gt; &gt;</text>
<text text-anchor="start" x="59.5" y="-282.5" font-family="Helvetica,sans-Serif" font-size="10.00"> </text>
<text text-anchor="start" x="59.5" y="-266.5" font-family="Helvetica,sans-Serif" font-size="10.00"> </text>
<polygon fill="#bfbfbf" stroke="#bfbfbf" points="0,-294 0,-294 122,-294 122,-294 0,-294"/>
<polygon fill="#bfbfbf" stroke="#bfbfbf" points="0,-278 0,-278 122,-278 122,-278 0,-278"/>
<polygon fill="none" stroke="#bfbfbf" points="0,-260 0,-348 122,-348 122,-260 0,-260"/>
</a>
</g>
</g>
<!-- Node2&#45;&gt;Node1 -->
<g id="edge1_Node000001_Node000002" class="edge">
<title>Node2&#45;&gt;Node1</title>
<g id="a_edge1_Node000001_Node000002"><a xlink:title=" ">
<path fill="none" stroke="#63b8ff" d="M61,-248.96C61,-240.91 61,-232.39 61,-223.68"/>
<polygon fill="none" stroke="#63b8ff" points="57.5,-248.85 61,-258.85 64.5,-248.85 57.5,-248.85"/>
</a>
</g>
</g>
</g>
</svg>
