<?xml version="1.0" encoding="UTF-8" standalone="no"?>
<!DOCTYPE svg PUBLIC "-//W3C//DTD SVG 1.1//EN"
 "http://www.w3.org/Graphics/SVG/1.1/DTD/svg11.dtd">
<!-- Generated by graphviz version 12.2.1 (20241206.2353)
 -->
<!-- Title: detail::is_constructible_object_type_impl&lt; BasicJsonType, ConstructibleObjectType, typename &gt; Pages: 1 -->
<svg width="184pt" height="172pt"
 viewBox="0.00 0.00 184.00 172.00" xmlns="http://www.w3.org/2000/svg" xmlns:xlink="http://www.w3.org/1999/xlink">
<g id="graph0" class="graph" transform="scale(1 1) rotate(0) translate(4 168)">
<title>detail::is_constructible_object_type_impl&lt; BasicJsonType, ConstructibleObjectType, typename &gt;</title>
<!-- Node1 -->
<g id="Node000001" class="node">
<title>Node1</title>
<g id="a_Node000001"><a xlink:title=" ">
<polygon fill="#999999" stroke="none" points="176,-76 0,-76 0,0 176,0 176,-76"/>
<text text-anchor="start" x="4" y="-62.5" font-family="Helvetica,sans-Serif" font-size="10.00">detail::is_constructible</text>
<text text-anchor="start" x="4" y="-50.5" font-family="Helvetica,sans-Serif" font-size="10.00">_object_type_impl&lt; BasicJsonType,</text>
<text text-anchor="start" x="4" y="-38.5" font-family="Helvetica,sans-Serif" font-size="10.00"> ConstructibleObjectType, typename &gt;</text>
<text text-anchor="start" x="86.5" y="-22.5" font-family="Helvetica,sans-Serif" font-size="10.00"> </text>
<text text-anchor="start" x="86.5" y="-6.5" font-family="Helvetica,sans-Serif" font-size="10.00"> </text>
<polygon fill="#666666" stroke="#666666" points="0,-34 0,-34 176,-34 176,-34 0,-34"/>
<polygon fill="#666666" stroke="#666666" points="0,-18 0,-18 176,-18 176,-18 0,-18"/>
<polygon fill="none" stroke="#666666" points="0,0 0,-76 176,-76 176,0 0,0"/>
</a>
</g>
</g>
<!-- Node2 -->
<g id="Node000002" class="node">
<title>Node2</title>
<g id="a_Node000002"><a xlink:title=" ">
<polygon fill="white" stroke="none" points="124.25,-164 51.75,-164 51.75,-112 124.25,-112 124.25,-164"/>
<text text-anchor="start" x="55.75" y="-150.5" font-family="Helvetica,sans-Serif" font-size="10.00">std::false_type</text>
<text text-anchor="start" x="86.5" y="-134.5" font-family="Helvetica,sans-Serif" font-size="10.00"> </text>
<text text-anchor="start" x="86.5" y="-118.5" font-family="Helvetica,sans-Serif" font-size="10.00"> </text>
<polygon fill="#bfbfbf" stroke="#bfbfbf" points="51.75,-146 51.75,-146 124.25,-146 124.25,-146 51.75,-146"/>
<polygon fill="#bfbfbf" stroke="#bfbfbf" points="51.75,-130 51.75,-130 124.25,-130 124.25,-130 51.75,-130"/>
<polygon fill="none" stroke="#bfbfbf" points="51.75,-112 51.75,-164 124.25,-164 124.25,-112 51.75,-112"/>
</a>
</g>
</g>
<!-- Node2&#45;&gt;Node1 -->
<g id="edge1_Node000001_Node000002" class="edge">
<title>Node2&#45;&gt;Node1</title>
<g id="a_edge1_Node000001_Node000002"><a xlink:title=" ">
<path fill="none" stroke="#63b8ff" d="M88,-100.61C88,-92.5 88,-83.9 88,-75.78"/>
<polygon fill="none" stroke="#63b8ff" points="84.5,-100.5 88,-110.5 91.5,-100.5 84.5,-100.5"/>
</a>
</g>
</g>
</g>
</svg>
