<?xml version="1.0" encoding="UTF-8" standalone="no"?>
<!DOCTYPE svg PUBLIC "-//W3C//DTD SVG 1.1//EN"
 "http://www.w3.org/Graphics/SVG/1.1/DTD/svg11.dtd">
<!-- Generated by graphviz version 12.2.1 (20241206.2353)
 -->
<!-- Title: detail::is_json_iterator_of&lt; BasicJsonType, typename BasicJsonType::const_iterator &gt; Pages: 1 -->
<svg width="160pt" height="172pt"
 viewBox="0.00 0.00 160.00 172.00" xmlns="http://www.w3.org/2000/svg" xmlns:xlink="http://www.w3.org/1999/xlink">
<g id="graph0" class="graph" transform="scale(1 1) rotate(0) translate(4 168)">
<title>detail::is_json_iterator_of&lt; BasicJsonType, typename BasicJsonType::const_iterator &gt;</title>
<!-- Node1 -->
<g id="Node000001" class="node">
<title>Node1</title>
<g id="a_Node000001"><a xlink:title=" ">
<polygon fill="#999999" stroke="none" points="152,-76 0,-76 0,0 152,0 152,-76"/>
<text text-anchor="start" x="4" y="-62.5" font-family="Helvetica,sans-Serif" font-size="10.00">detail::is_json_iterator</text>
<text text-anchor="start" x="4" y="-50.5" font-family="Helvetica,sans-Serif" font-size="10.00">_of&lt; BasicJsonType, typename</text>
<text text-anchor="start" x="4" y="-38.5" font-family="Helvetica,sans-Serif" font-size="10.00"> BasicJsonType::const_iterator &gt;</text>
<text text-anchor="start" x="74.5" y="-22.5" font-family="Helvetica,sans-Serif" font-size="10.00"> </text>
<text text-anchor="start" x="74.5" y="-6.5" font-family="Helvetica,sans-Serif" font-size="10.00"> </text>
<polygon fill="#666666" stroke="#666666" points="0,-34 0,-34 152,-34 152,-34 0,-34"/>
<polygon fill="#666666" stroke="#666666" points="0,-18 0,-18 152,-18 152,-18 0,-18"/>
<polygon fill="none" stroke="#666666" points="0,0 0,-76 152,-76 152,0 0,0"/>
</a>
</g>
</g>
<!-- Node2 -->
<g id="Node000002" class="node">
<title>Node2</title>
<g id="a_Node000002"><a xlink:title=" ">
<polygon fill="white" stroke="none" points="110,-164 42,-164 42,-112 110,-112 110,-164"/>
<text text-anchor="start" x="46" y="-150.5" font-family="Helvetica,sans-Serif" font-size="10.00">std::true_type</text>
<text text-anchor="start" x="74.5" y="-134.5" font-family="Helvetica,sans-Serif" font-size="10.00"> </text>
<text text-anchor="start" x="74.5" y="-118.5" font-family="Helvetica,sans-Serif" font-size="10.00"> </text>
<polygon fill="#bfbfbf" stroke="#bfbfbf" points="42,-146 42,-146 110,-146 110,-146 42,-146"/>
<polygon fill="#bfbfbf" stroke="#bfbfbf" points="42,-130 42,-130 110,-130 110,-130 42,-130"/>
<polygon fill="none" stroke="#bfbfbf" points="42,-112 42,-164 110,-164 110,-112 42,-112"/>
</a>
</g>
</g>
<!-- Node2&#45;&gt;Node1 -->
<g id="edge1_Node000001_Node000002" class="edge">
<title>Node2&#45;&gt;Node1</title>
<g id="a_edge1_Node000001_Node000002"><a xlink:title=" ">
<path fill="none" stroke="#63b8ff" d="M76,-100.61C76,-92.5 76,-83.9 76,-75.78"/>
<polygon fill="none" stroke="#63b8ff" points="72.5,-100.5 76,-110.5 79.5,-100.5 72.5,-100.5"/>
</a>
</g>
</g>
</g>
</svg>
