<?xml version="1.0" encoding="UTF-8" standalone="no"?>
<!DOCTYPE svg PUBLIC "-//W3C//DTD SVG 1.1//EN"
 "http://www.w3.org/Graphics/SVG/1.1/DTD/svg11.dtd">
<!-- Generated by graphviz version 12.2.1 (20241206.2353)
 -->
<!-- Title: detail::is_compatible_array_type_impl&lt; BasicJsonType, CompatibleArrayType, typename &gt; Pages: 1 -->
<svg width="146pt" height="296pt"
 viewBox="0.00 0.00 145.75 296.00" xmlns="http://www.w3.org/2000/svg" xmlns:xlink="http://www.w3.org/1999/xlink">
<g id="graph0" class="graph" transform="scale(1 1) rotate(0) translate(4 292)">
<title>detail::is_compatible_array_type_impl&lt; BasicJsonType, CompatibleArrayType, typename &gt;</title>
<!-- Node1 -->
<g id="Node000001" class="node">
<title>Node1</title>
<g id="a_Node000001"><a xlink:title=" ">
<polygon fill="#999999" stroke="none" points="137.38,-200 0.38,-200 0.38,-112 137.38,-112 137.38,-200"/>
<text text-anchor="start" x="4.38" y="-186.5" font-family="Helvetica,sans-Serif" font-size="10.00">detail::is_compatible</text>
<text text-anchor="start" x="4.38" y="-174.5" font-family="Helvetica,sans-Serif" font-size="10.00">_array_type_impl&lt; BasicJson</text>
<text text-anchor="start" x="4.38" y="-162.5" font-family="Helvetica,sans-Serif" font-size="10.00">Type, CompatibleArrayType,</text>
<text text-anchor="start" x="41.5" y="-150.5" font-family="Helvetica,sans-Serif" font-size="10.00"> typename &gt;</text>
<text text-anchor="start" x="67.38" y="-134.5" font-family="Helvetica,sans-Serif" font-size="10.00"> </text>
<text text-anchor="start" x="67.38" y="-118.5" font-family="Helvetica,sans-Serif" font-size="10.00"> </text>
<polygon fill="#666666" stroke="#666666" points="0.38,-146 0.38,-146 137.38,-146 137.38,-146 0.38,-146"/>
<polygon fill="#666666" stroke="#666666" points="0.38,-130 0.38,-130 137.38,-130 137.38,-130 0.38,-130"/>
<polygon fill="none" stroke="#666666" points="0.38,-112 0.38,-200 137.38,-200 137.38,-112 0.38,-112"/>
</a>
</g>
</g>
<!-- Node3 -->
<g id="Node000003" class="node">
<title>Node3</title>
<g id="a_Node000003"><a xlink:href="structdetail_1_1is__compatible__array__type.html" target="_top" xlink:title=" ">
<polygon fill="white" stroke="none" points="137.75,-76 0,-76 0,0 137.75,0 137.75,-76"/>
<text text-anchor="start" x="4" y="-62.5" font-family="Helvetica,sans-Serif" font-size="10.00">detail::is_compatible</text>
<text text-anchor="start" x="4" y="-50.5" font-family="Helvetica,sans-Serif" font-size="10.00">_array_type&lt; BasicJsonType,</text>
<text text-anchor="start" x="16" y="-38.5" font-family="Helvetica,sans-Serif" font-size="10.00"> CompatibleArrayType &gt;</text>
<text text-anchor="start" x="67.38" y="-22.5" font-family="Helvetica,sans-Serif" font-size="10.00"> </text>
<text text-anchor="start" x="67.38" y="-6.5" font-family="Helvetica,sans-Serif" font-size="10.00"> </text>
<polygon fill="#bfbfbf" stroke="#bfbfbf" points="0,-34 0,-34 137.75,-34 137.75,-34 0,-34"/>
<polygon fill="#bfbfbf" stroke="#bfbfbf" points="0,-18 0,-18 137.75,-18 137.75,-18 0,-18"/>
<polygon fill="none" stroke="#bfbfbf" points="0,0 0,-76 137.75,-76 137.75,0 0,0"/>
</a>
</g>
</g>
<!-- Node1&#45;&gt;Node3 -->
<g id="edge2_Node000001_Node000003" class="edge">
<title>Node1&#45;&gt;Node3</title>
<g id="a_edge2_Node000001_Node000003"><a xlink:title=" ">
<path fill="none" stroke="#63b8ff" d="M68.88,-100.8C68.88,-92.39 68.88,-83.88 68.88,-75.97"/>
<polygon fill="none" stroke="#63b8ff" points="65.38,-100.62 68.88,-110.62 72.38,-100.62 65.38,-100.62"/>
</a>
</g>
</g>
<!-- Node2 -->
<g id="Node000002" class="node">
<title>Node2</title>
<g id="a_Node000002"><a xlink:title=" ">
<polygon fill="white" stroke="none" points="105.12,-288 32.62,-288 32.62,-236 105.12,-236 105.12,-288"/>
<text text-anchor="start" x="36.62" y="-274.5" font-family="Helvetica,sans-Serif" font-size="10.00">std::false_type</text>
<text text-anchor="start" x="67.38" y="-258.5" font-family="Helvetica,sans-Serif" font-size="10.00"> </text>
<text text-anchor="start" x="67.38" y="-242.5" font-family="Helvetica,sans-Serif" font-size="10.00"> </text>
<polygon fill="#bfbfbf" stroke="#bfbfbf" points="32.62,-270 32.62,-270 105.12,-270 105.12,-270 32.62,-270"/>
<polygon fill="#bfbfbf" stroke="#bfbfbf" points="32.62,-254 32.62,-254 105.12,-254 105.12,-254 32.62,-254"/>
<polygon fill="none" stroke="#bfbfbf" points="32.62,-236 32.62,-288 105.12,-288 105.12,-236 32.62,-236"/>
</a>
</g>
</g>
<!-- Node2&#45;&gt;Node1 -->
<g id="edge1_Node000001_Node000002" class="edge">
<title>Node2&#45;&gt;Node1</title>
<g id="a_edge1_Node000001_Node000002"><a xlink:title=" ">
<path fill="none" stroke="#63b8ff" d="M68.88,-224.84C68.88,-216.83 68.88,-208.25 68.88,-199.99"/>
<polygon fill="none" stroke="#63b8ff" points="65.38,-224.58 68.88,-234.58 72.38,-224.58 65.38,-224.58"/>
</a>
</g>
</g>
</g>
</svg>
