<?xml version="1.0" encoding="UTF-8" standalone="no"?>
<!DOCTYPE svg PUBLIC "-//W3C//DTD SVG 1.1//EN"
 "http://www.w3.org/Graphics/SVG/1.1/DTD/svg11.dtd">
<!-- Generated by graphviz version 12.2.1 (20241206.2353)
 -->
<!-- Title: detail::is_specialization_of&lt; Primary, Primary&lt; Args... &gt; &gt; Pages: 1 -->
<svg width="117pt" height="172pt"
 viewBox="0.00 0.00 117.25 172.00" xmlns="http://www.w3.org/2000/svg" xmlns:xlink="http://www.w3.org/1999/xlink">
<g id="graph0" class="graph" transform="scale(1 1) rotate(0) translate(4 168)">
<title>detail::is_specialization_of&lt; Primary, Primary&lt; Args... &gt; &gt;</title>
<!-- Node1 -->
<g id="Node000001" class="node">
<title>Node1</title>
<g id="a_Node000001"><a xlink:title=" ">
<polygon fill="#999999" stroke="none" points="109.25,-76 0,-76 0,0 109.25,0 109.25,-76"/>
<text text-anchor="start" x="4" y="-62.5" font-family="Helvetica,sans-Serif" font-size="10.00">detail::is_specialization</text>
<text text-anchor="start" x="4" y="-50.5" font-family="Helvetica,sans-Serif" font-size="10.00">_of&lt; Primary, Primary&lt;</text>
<text text-anchor="start" x="29.88" y="-38.5" font-family="Helvetica,sans-Serif" font-size="10.00"> Args... &gt; &gt;</text>
<text text-anchor="start" x="53.12" y="-22.5" font-family="Helvetica,sans-Serif" font-size="10.00"> </text>
<text text-anchor="start" x="53.12" y="-6.5" font-family="Helvetica,sans-Serif" font-size="10.00"> </text>
<polygon fill="#666666" stroke="#666666" points="0,-34 0,-34 109.25,-34 109.25,-34 0,-34"/>
<polygon fill="#666666" stroke="#666666" points="0,-18 0,-18 109.25,-18 109.25,-18 0,-18"/>
<polygon fill="none" stroke="#666666" points="0,0 0,-76 109.25,-76 109.25,0 0,0"/>
</a>
</g>
</g>
<!-- Node2 -->
<g id="Node000002" class="node">
<title>Node2</title>
<g id="a_Node000002"><a xlink:title=" ">
<polygon fill="white" stroke="none" points="88.62,-164 20.62,-164 20.62,-112 88.62,-112 88.62,-164"/>
<text text-anchor="start" x="24.62" y="-150.5" font-family="Helvetica,sans-Serif" font-size="10.00">std::true_type</text>
<text text-anchor="start" x="53.12" y="-134.5" font-family="Helvetica,sans-Serif" font-size="10.00"> </text>
<text text-anchor="start" x="53.12" y="-118.5" font-family="Helvetica,sans-Serif" font-size="10.00"> </text>
<polygon fill="#bfbfbf" stroke="#bfbfbf" points="20.62,-146 20.62,-146 88.62,-146 88.62,-146 20.62,-146"/>
<polygon fill="#bfbfbf" stroke="#bfbfbf" points="20.62,-130 20.62,-130 88.62,-130 88.62,-130 20.62,-130"/>
<polygon fill="none" stroke="#bfbfbf" points="20.62,-112 20.62,-164 88.62,-164 88.62,-112 20.62,-112"/>
</a>
</g>
</g>
<!-- Node2&#45;&gt;Node1 -->
<g id="edge1_Node000001_Node000002" class="edge">
<title>Node2&#45;&gt;Node1</title>
<g id="a_edge1_Node000001_Node000002"><a xlink:title=" ">
<path fill="none" stroke="#63b8ff" d="M54.62,-100.61C54.62,-92.5 54.62,-83.9 54.62,-75.78"/>
<polygon fill="none" stroke="#63b8ff" points="51.13,-100.5 54.63,-110.5 58.13,-100.5 51.13,-100.5"/>
</a>
</g>
</g>
</g>
</svg>
