<?xml version="1.0" encoding="UTF-8" standalone="no"?>
<!DOCTYPE svg PUBLIC "-//W3C//DTD SVG 1.1//EN"
 "http://www.w3.org/Graphics/SVG/1.1/DTD/svg11.dtd">
<!-- Generated by graphviz version 12.2.1 (20241206.2353)
 -->
<!-- Title: detail::is_constructible_array_type_impl&lt; BasicJsonType, ConstructibleArrayType, enable_if_t&lt; std::is_same&lt; ConstructibleArrayType, typename BasicJsonType::value_type &gt;::value &gt; &gt; Pages: 1 -->
<svg width="241pt" height="196pt"
 viewBox="0.00 0.00 241.00 196.00" xmlns="http://www.w3.org/2000/svg" xmlns:xlink="http://www.w3.org/1999/xlink">
<g id="graph0" class="graph" transform="scale(1 1) rotate(0) translate(4 192)">
<title>detail::is_constructible_array_type_impl&lt; BasicJsonType, ConstructibleArrayType, enable_if_t&lt; std::is_same&lt; ConstructibleArrayType, typename BasicJsonType::value_type &gt;::value &gt; &gt;</title>
<!-- Node1 -->
<g id="Node000001" class="node">
<title>Node1</title>
<g id="a_Node000001"><a xlink:title=" ">
<polygon fill="#999999" stroke="none" points="233,-100 0,-100 0,0 233,0 233,-100"/>
<text text-anchor="start" x="4" y="-86.5" font-family="Helvetica,sans-Serif" font-size="10.00">detail::is_constructible</text>
<text text-anchor="start" x="4" y="-74.5" font-family="Helvetica,sans-Serif" font-size="10.00">_array_type_impl&lt; BasicJsonType,</text>
<text text-anchor="start" x="4" y="-62.5" font-family="Helvetica,sans-Serif" font-size="10.00"> ConstructibleArrayType, enable</text>
<text text-anchor="start" x="4" y="-50.5" font-family="Helvetica,sans-Serif" font-size="10.00">_if_t&lt; std::is_same&lt; ConstructibleArrayType,</text>
<text text-anchor="start" x="4" y="-38.5" font-family="Helvetica,sans-Serif" font-size="10.00"> typename BasicJsonType::value_type &gt;::value &gt; &gt;</text>
<text text-anchor="start" x="115" y="-22.5" font-family="Helvetica,sans-Serif" font-size="10.00"> </text>
<text text-anchor="start" x="115" y="-6.5" font-family="Helvetica,sans-Serif" font-size="10.00"> </text>
<polygon fill="#666666" stroke="#666666" points="0,-34 0,-34 233,-34 233,-34 0,-34"/>
<polygon fill="#666666" stroke="#666666" points="0,-18 0,-18 233,-18 233,-18 0,-18"/>
<polygon fill="none" stroke="#666666" points="0,0 0,-100 233,-100 233,0 0,0"/>
</a>
</g>
</g>
<!-- Node2 -->
<g id="Node000002" class="node">
<title>Node2</title>
<g id="a_Node000002"><a xlink:title=" ">
<polygon fill="white" stroke="none" points="150.5,-188 82.5,-188 82.5,-136 150.5,-136 150.5,-188"/>
<text text-anchor="start" x="86.5" y="-174.5" font-family="Helvetica,sans-Serif" font-size="10.00">std::true_type</text>
<text text-anchor="start" x="115" y="-158.5" font-family="Helvetica,sans-Serif" font-size="10.00"> </text>
<text text-anchor="start" x="115" y="-142.5" font-family="Helvetica,sans-Serif" font-size="10.00"> </text>
<polygon fill="#bfbfbf" stroke="#bfbfbf" points="82.5,-170 82.5,-170 150.5,-170 150.5,-170 82.5,-170"/>
<polygon fill="#bfbfbf" stroke="#bfbfbf" points="82.5,-154 82.5,-154 150.5,-154 150.5,-154 82.5,-154"/>
<polygon fill="none" stroke="#bfbfbf" points="82.5,-136 82.5,-188 150.5,-188 150.5,-136 82.5,-136"/>
</a>
</g>
</g>
<!-- Node2&#45;&gt;Node1 -->
<g id="edge1_Node000001_Node000002" class="edge">
<title>Node2&#45;&gt;Node1</title>
<g id="a_edge1_Node000001_Node000002"><a xlink:title=" ">
<path fill="none" stroke="#63b8ff" d="M116.5,-124.53C116.5,-116.58 116.5,-108.05 116.5,-99.72"/>
<polygon fill="none" stroke="#63b8ff" points="113,-124.53 116.5,-134.53 120,-124.53 113,-124.53"/>
</a>
</g>
</g>
</g>
</svg>
