<?xml version="1.0" encoding="UTF-8" standalone="no"?>
<!DOCTYPE svg PUBLIC "-//W3C//DTD SVG 1.1//EN"
 "http://www.w3.org/Graphics/SVG/1.1/DTD/svg11.dtd">
<!-- Generated by graphviz version 12.2.1 (20241206.2353)
 -->
<!-- Title: detail::is_compatible_type&lt; BasicJsonType, CompatibleType &gt; Pages: 1 -->
<svg width="147pt" height="284pt"
 viewBox="0.00 0.00 147.25 284.00" xmlns="http://www.w3.org/2000/svg" xmlns:xlink="http://www.w3.org/1999/xlink">
<g id="graph0" class="graph" transform="scale(1 1) rotate(0) translate(4 280)">
<title>detail::is_compatible_type&lt; BasicJsonType, CompatibleType &gt;</title>
<!-- Node1 -->
<g id="Node000001" class="node">
<title>Node1</title>
<g id="a_Node000001"><a xlink:title=" ">
<polygon fill="#999999" stroke="none" points="125,-76 14.25,-76 14.25,0 125,0 125,-76"/>
<text text-anchor="start" x="18.25" y="-62.5" font-family="Helvetica,sans-Serif" font-size="10.00">detail::is_compatible</text>
<text text-anchor="start" x="18.25" y="-50.5" font-family="Helvetica,sans-Serif" font-size="10.00">_type&lt; BasicJsonType,</text>
<text text-anchor="start" x="28.38" y="-38.5" font-family="Helvetica,sans-Serif" font-size="10.00"> CompatibleType &gt;</text>
<text text-anchor="start" x="68.12" y="-22.5" font-family="Helvetica,sans-Serif" font-size="10.00"> </text>
<text text-anchor="start" x="68.12" y="-6.5" font-family="Helvetica,sans-Serif" font-size="10.00"> </text>
<polygon fill="#666666" stroke="#666666" points="14.25,-34 14.25,-34 125,-34 125,-34 14.25,-34"/>
<polygon fill="#666666" stroke="#666666" points="14.25,-18 14.25,-18 125,-18 125,-18 14.25,-18"/>
<polygon fill="none" stroke="#666666" points="14.25,0 14.25,-76 125,-76 125,0 14.25,0"/>
</a>
</g>
</g>
<!-- Node2 -->
<g id="Node000002" class="node">
<title>Node2</title>
<g id="a_Node000002"><a xlink:href="structdetail_1_1is__compatible__type__impl.html" target="_top" xlink:title=" ">
<polygon fill="white" stroke="none" points="139.25,-188 0,-188 0,-112 139.25,-112 139.25,-188"/>
<text text-anchor="start" x="4" y="-174.5" font-family="Helvetica,sans-Serif" font-size="10.00">detail::is_compatible</text>
<text text-anchor="start" x="4" y="-162.5" font-family="Helvetica,sans-Serif" font-size="10.00">_type_impl&lt; BasicJsonType,</text>
<text text-anchor="start" x="4" y="-150.5" font-family="Helvetica,sans-Serif" font-size="10.00"> CompatibleType, typename &gt;</text>
<text text-anchor="start" x="68.12" y="-134.5" font-family="Helvetica,sans-Serif" font-size="10.00"> </text>
<text text-anchor="start" x="68.12" y="-118.5" font-family="Helvetica,sans-Serif" font-size="10.00"> </text>
<polygon fill="#bfbfbf" stroke="#bfbfbf" points="0,-146 0,-146 139.25,-146 139.25,-146 0,-146"/>
<polygon fill="#bfbfbf" stroke="#bfbfbf" points="0,-130 0,-130 139.25,-130 139.25,-130 0,-130"/>
<polygon fill="none" stroke="#bfbfbf" points="0,-112 0,-188 139.25,-188 139.25,-112 0,-112"/>
</a>
</g>
</g>
<!-- Node2&#45;&gt;Node1 -->
<g id="edge1_Node000001_Node000002" class="edge">
<title>Node2&#45;&gt;Node1</title>
<g id="a_edge1_Node000001_Node000002"><a xlink:title=" ">
<path fill="none" stroke="#63b8ff" d="M69.62,-100.78C69.62,-92.35 69.62,-83.7 69.62,-75.65"/>
<polygon fill="none" stroke="#63b8ff" points="66.13,-100.55 69.63,-110.55 73.13,-100.55 66.13,-100.55"/>
</a>
</g>
</g>
<!-- Node3 -->
<g id="Node000003" class="node">
<title>Node3</title>
<g id="a_Node000003"><a xlink:title=" ">
<polygon fill="white" stroke="none" points="105.88,-276 33.38,-276 33.38,-224 105.88,-224 105.88,-276"/>
<text text-anchor="start" x="37.38" y="-262.5" font-family="Helvetica,sans-Serif" font-size="10.00">std::false_type</text>
<text text-anchor="start" x="68.12" y="-246.5" font-family="Helvetica,sans-Serif" font-size="10.00"> </text>
<text text-anchor="start" x="68.12" y="-230.5" font-family="Helvetica,sans-Serif" font-size="10.00"> </text>
<polygon fill="#bfbfbf" stroke="#bfbfbf" points="33.38,-258 33.38,-258 105.88,-258 105.88,-258 33.38,-258"/>
<polygon fill="#bfbfbf" stroke="#bfbfbf" points="33.38,-242 33.38,-242 105.88,-242 105.88,-242 33.38,-242"/>
<polygon fill="none" stroke="#bfbfbf" points="33.38,-224 33.38,-276 105.88,-276 105.88,-224 33.38,-224"/>
</a>
</g>
</g>
<!-- Node3&#45;&gt;Node2 -->
<g id="edge2_Node000002_Node000003" class="edge">
<title>Node3&#45;&gt;Node2</title>
<g id="a_edge2_Node000002_Node000003"><a xlink:title=" ">
<path fill="none" stroke="#63b8ff" d="M69.62,-212.61C69.62,-204.5 69.62,-195.9 69.62,-187.78"/>
<polygon fill="none" stroke="#63b8ff" points="66.13,-212.5 69.63,-222.5 73.13,-212.5 66.13,-212.5"/>
</a>
</g>
</g>
</g>
</svg>
