<?xml version="1.0" encoding="UTF-8" standalone="no"?>
<!DOCTYPE svg PUBLIC "-//W3C//DTD SVG 1.1//EN"
 "http://www.w3.org/Graphics/SVG/1.1/DTD/svg11.dtd">
<!-- Generated by graphviz version 12.2.1 (20241206.2353)
 -->
<!-- Title: detail::is_compatible_object_type_impl&lt; BasicJsonType, CompatibleObjectType, typename &gt; Pages: 1 -->
<svg width="150pt" height="296pt"
 viewBox="0.00 0.00 150.25 296.00" xmlns="http://www.w3.org/2000/svg" xmlns:xlink="http://www.w3.org/1999/xlink">
<g id="graph0" class="graph" transform="scale(1 1) rotate(0) translate(4 292)">
<title>detail::is_compatible_object_type_impl&lt; BasicJsonType, CompatibleObjectType, typename &gt;</title>
<!-- Node1 -->
<g id="Node000001" class="node">
<title>Node1</title>
<g id="a_Node000001"><a xlink:title=" ">
<polygon fill="#999999" stroke="none" points="141.88,-200 0.38,-200 0.38,-112 141.88,-112 141.88,-200"/>
<text text-anchor="start" x="4.38" y="-186.5" font-family="Helvetica,sans-Serif" font-size="10.00">detail::is_compatible</text>
<text text-anchor="start" x="4.38" y="-174.5" font-family="Helvetica,sans-Serif" font-size="10.00">_object_type_impl&lt; BasicJson</text>
<text text-anchor="start" x="4.38" y="-162.5" font-family="Helvetica,sans-Serif" font-size="10.00">Type, CompatibleObjectType,</text>
<text text-anchor="start" x="43.75" y="-150.5" font-family="Helvetica,sans-Serif" font-size="10.00"> typename &gt;</text>
<text text-anchor="start" x="69.62" y="-134.5" font-family="Helvetica,sans-Serif" font-size="10.00"> </text>
<text text-anchor="start" x="69.62" y="-118.5" font-family="Helvetica,sans-Serif" font-size="10.00"> </text>
<polygon fill="#666666" stroke="#666666" points="0.38,-146 0.38,-146 141.88,-146 141.88,-146 0.38,-146"/>
<polygon fill="#666666" stroke="#666666" points="0.38,-130 0.38,-130 141.88,-130 141.88,-130 0.38,-130"/>
<polygon fill="none" stroke="#666666" points="0.38,-112 0.38,-200 141.88,-200 141.88,-112 0.38,-112"/>
</a>
</g>
</g>
<!-- Node3 -->
<g id="Node000003" class="node">
<title>Node3</title>
<g id="a_Node000003"><a xlink:href="structdetail_1_1is__compatible__object__type.html" target="_top" xlink:title=" ">
<polygon fill="white" stroke="none" points="142.25,-76 0,-76 0,0 142.25,0 142.25,-76"/>
<text text-anchor="start" x="4" y="-62.5" font-family="Helvetica,sans-Serif" font-size="10.00">detail::is_compatible</text>
<text text-anchor="start" x="4" y="-50.5" font-family="Helvetica,sans-Serif" font-size="10.00">_object_type&lt; BasicJsonType,</text>
<text text-anchor="start" x="15.62" y="-38.5" font-family="Helvetica,sans-Serif" font-size="10.00"> CompatibleObjectType &gt;</text>
<text text-anchor="start" x="69.62" y="-22.5" font-family="Helvetica,sans-Serif" font-size="10.00"> </text>
<text text-anchor="start" x="69.62" y="-6.5" font-family="Helvetica,sans-Serif" font-size="10.00"> </text>
<polygon fill="#bfbfbf" stroke="#bfbfbf" points="0,-34 0,-34 142.25,-34 142.25,-34 0,-34"/>
<polygon fill="#bfbfbf" stroke="#bfbfbf" points="0,-18 0,-18 142.25,-18 142.25,-18 0,-18"/>
<polygon fill="none" stroke="#bfbfbf" points="0,0 0,-76 142.25,-76 142.25,0 0,0"/>
</a>
</g>
</g>
<!-- Node1&#45;&gt;Node3 -->
<g id="edge2_Node000001_Node000003" class="edge">
<title>Node1&#45;&gt;Node3</title>
<g id="a_edge2_Node000001_Node000003"><a xlink:title=" ">
<path fill="none" stroke="#63b8ff" d="M71.12,-100.8C71.12,-92.39 71.12,-83.88 71.12,-75.97"/>
<polygon fill="none" stroke="#63b8ff" points="67.63,-100.62 71.13,-110.62 74.63,-100.62 67.63,-100.62"/>
</a>
</g>
</g>
<!-- Node2 -->
<g id="Node000002" class="node">
<title>Node2</title>
<g id="a_Node000002"><a xlink:title=" ">
<polygon fill="white" stroke="none" points="107.38,-288 34.88,-288 34.88,-236 107.38,-236 107.38,-288"/>
<text text-anchor="start" x="38.88" y="-274.5" font-family="Helvetica,sans-Serif" font-size="10.00">std::false_type</text>
<text text-anchor="start" x="69.62" y="-258.5" font-family="Helvetica,sans-Serif" font-size="10.00"> </text>
<text text-anchor="start" x="69.62" y="-242.5" font-family="Helvetica,sans-Serif" font-size="10.00"> </text>
<polygon fill="#bfbfbf" stroke="#bfbfbf" points="34.88,-270 34.88,-270 107.38,-270 107.38,-270 34.88,-270"/>
<polygon fill="#bfbfbf" stroke="#bfbfbf" points="34.88,-254 34.88,-254 107.38,-254 107.38,-254 34.88,-254"/>
<polygon fill="none" stroke="#bfbfbf" points="34.88,-236 34.88,-288 107.38,-288 107.38,-236 34.88,-236"/>
</a>
</g>
</g>
<!-- Node2&#45;&gt;Node1 -->
<g id="edge1_Node000001_Node000002" class="edge">
<title>Node2&#45;&gt;Node1</title>
<g id="a_edge1_Node000001_Node000002"><a xlink:title=" ">
<path fill="none" stroke="#63b8ff" d="M71.12,-224.84C71.12,-216.83 71.12,-208.25 71.12,-199.99"/>
<polygon fill="none" stroke="#63b8ff" points="67.63,-224.58 71.13,-234.58 74.63,-224.58 67.63,-224.58"/>
</a>
</g>
</g>
</g>
</svg>
