<?xml version="1.0" encoding="UTF-8" standalone="no"?>
<!DOCTYPE svg PUBLIC "-//W3C//DTD SVG 1.1//EN"
 "http://www.w3.org/Graphics/SVG/1.1/DTD/svg11.dtd">
<!-- Generated by graphviz version 12.2.1 (20241206.2353)
 -->
<!-- Title: detail::output_adapter_protocol&lt; CharType &gt; Pages: 1 -->
<svg width="466pt" height="328pt"
 viewBox="0.00 0.00 465.88 328.00" xmlns="http://www.w3.org/2000/svg" xmlns:xlink="http://www.w3.org/1999/xlink">
<g id="graph0" class="graph" transform="scale(1 1) rotate(0) translate(4 324)">
<title>detail::output_adapter_protocol&lt; CharType &gt;</title>
<!-- Node1 -->
<g id="Node000001" class="node">
<title>Node1</title>
<g id="a_Node000001"><a xlink:title="abstract output adapter interface">
<polygon fill="#999999" stroke="none" points="288,-320 153.75,-320 153.75,-144 288,-144 288,-320"/>
<text text-anchor="start" x="171" y="-306.5" font-family="Helvetica,sans-Serif" font-size="10.00">detail::output_adapter</text>
<text text-anchor="start" x="171" y="-294.5" font-family="Helvetica,sans-Serif" font-size="10.00">_protocol&lt; CharType &gt;</text>
<text text-anchor="start" x="219.38" y="-278.5" font-family="Helvetica,sans-Serif" font-size="10.00"> </text>
<text text-anchor="start" x="157.75" y="-262.5" font-family="Helvetica,sans-Serif" font-size="10.00">+</text>
<text text-anchor="start" x="167.75" y="-262.5" font-family="Helvetica,sans-Serif" font-size="10.00">write_character()</text>
<text text-anchor="start" x="157.75" y="-246.5" font-family="Helvetica,sans-Serif" font-size="10.00">+</text>
<text text-anchor="start" x="167.75" y="-246.5" font-family="Helvetica,sans-Serif" font-size="10.00">write_characters()</text>
<text text-anchor="start" x="157.75" y="-230.5" font-family="Helvetica,sans-Serif" font-size="10.00">+</text>
<text text-anchor="start" x="167.75" y="-230.5" font-family="Helvetica,sans-Serif" font-size="10.00">~output_adapter_protocol()</text>
<text text-anchor="start" x="157.75" y="-214.5" font-family="Helvetica,sans-Serif" font-size="10.00">+</text>
<text text-anchor="start" x="167.75" y="-214.5" font-family="Helvetica,sans-Serif" font-size="10.00">output_adapter_protocol()</text>
<text text-anchor="start" x="157.75" y="-198.5" font-family="Helvetica,sans-Serif" font-size="10.00">+</text>
<text text-anchor="start" x="167.75" y="-198.5" font-family="Helvetica,sans-Serif" font-size="10.00">output_adapter_protocol()</text>
<text text-anchor="start" x="157.75" y="-182.5" font-family="Helvetica,sans-Serif" font-size="10.00">+</text>
<text text-anchor="start" x="167.75" y="-182.5" font-family="Helvetica,sans-Serif" font-size="10.00">output_adapter_protocol()</text>
<text text-anchor="start" x="157.75" y="-166.5" font-family="Helvetica,sans-Serif" font-size="10.00">+</text>
<text text-anchor="start" x="167.75" y="-166.5" font-family="Helvetica,sans-Serif" font-size="10.00">operator=()</text>
<text text-anchor="start" x="157.75" y="-150.5" font-family="Helvetica,sans-Serif" font-size="10.00">+</text>
<text text-anchor="start" x="167.75" y="-150.5" font-family="Helvetica,sans-Serif" font-size="10.00">operator=()</text>
<polygon fill="#666666" stroke="#666666" points="153.75,-290 153.75,-290 288,-290 288,-290 153.75,-290"/>
<polygon fill="#666666" stroke="#666666" points="153.75,-274 153.75,-274 288,-274 288,-274 153.75,-274"/>
<polygon fill="none" stroke="#666666" points="153.75,-144 153.75,-320 288,-320 288,-144 153.75,-144"/>
</a>
</g>
</g>
<!-- Node2 -->
<g id="Node000002" class="node">
<title>Node2</title>
<g id="a_Node000002"><a xlink:href="classdetail_1_1output__stream__adapter.html" target="_top" xlink:title="output adapter for output streams">
<polygon fill="white" stroke="none" points="123.75,-102 0,-102 0,-6 123.75,-6 123.75,-102"/>
<text text-anchor="start" x="13.12" y="-88.5" font-family="Helvetica,sans-Serif" font-size="10.00">detail::output_stream</text>
<text text-anchor="start" x="13.12" y="-76.5" font-family="Helvetica,sans-Serif" font-size="10.00">_adapter&lt; CharType &gt;</text>
<text text-anchor="start" x="60.38" y="-60.5" font-family="Helvetica,sans-Serif" font-size="10.00"> </text>
<text text-anchor="start" x="4" y="-44.5" font-family="Helvetica,sans-Serif" font-size="10.00">+</text>
<text text-anchor="start" x="14" y="-44.5" font-family="Helvetica,sans-Serif" font-size="10.00">output_stream_adapter()</text>
<text text-anchor="start" x="4" y="-28.5" font-family="Helvetica,sans-Serif" font-size="10.00">+</text>
<text text-anchor="start" x="14" y="-28.5" font-family="Helvetica,sans-Serif" font-size="10.00">write_character()</text>
<text text-anchor="start" x="4" y="-12.5" font-family="Helvetica,sans-Serif" font-size="10.00">+</text>
<text text-anchor="start" x="14" y="-12.5" font-family="Helvetica,sans-Serif" font-size="10.00">write_characters()</text>
<polygon fill="#666666" stroke="#666666" points="0,-72 0,-72 123.75,-72 123.75,-72 0,-72"/>
<polygon fill="#666666" stroke="#666666" points="0,-56 0,-56 123.75,-56 123.75,-56 0,-56"/>
<polygon fill="none" stroke="#666666" points="0,-6 0,-102 123.75,-102 123.75,-6 0,-6"/>
</a>
</g>
</g>
<!-- Node1&#45;&gt;Node2 -->
<g id="edge1_Node000001_Node000002" class="edge">
<title>Node1&#45;&gt;Node2</title>
<g id="a_edge1_Node000001_Node000002"><a xlink:title=" ">
<path fill="none" stroke="#63b8ff" d="M146.38,-148.54C131.94,-132.55 117.27,-116.32 104.3,-101.96"/>
<polygon fill="none" stroke="#63b8ff" points="143.59,-150.67 152.89,-155.75 148.78,-145.98 143.59,-150.67"/>
</a>
</g>
</g>
<!-- Node3 -->
<g id="Node000003" class="node">
<title>Node3</title>
<g id="a_Node000003"><a xlink:href="classdetail_1_1output__string__adapter.html" target="_top" xlink:title="output adapter for basic_string">
<polygon fill="white" stroke="none" points="299.88,-102 141.88,-102 141.88,-6 299.88,-6 299.88,-102"/>
<text text-anchor="start" x="145.88" y="-88.5" font-family="Helvetica,sans-Serif" font-size="10.00">detail::output_string</text>
<text text-anchor="start" x="145.88" y="-76.5" font-family="Helvetica,sans-Serif" font-size="10.00">_adapter&lt; CharType, StringType &gt;</text>
<text text-anchor="start" x="219.38" y="-60.5" font-family="Helvetica,sans-Serif" font-size="10.00"> </text>
<text text-anchor="start" x="155.94" y="-44.5" font-family="Helvetica,sans-Serif" font-size="10.00">+</text>
<text text-anchor="start" x="176" y="-44.5" font-family="Helvetica,sans-Serif" font-size="10.00">output_string_adapter()</text>
<text text-anchor="start" x="155.94" y="-28.5" font-family="Helvetica,sans-Serif" font-size="10.00">+</text>
<text text-anchor="start" x="176" y="-28.5" font-family="Helvetica,sans-Serif" font-size="10.00">write_character()</text>
<text text-anchor="start" x="155.94" y="-12.5" font-family="Helvetica,sans-Serif" font-size="10.00">+</text>
<text text-anchor="start" x="176" y="-12.5" font-family="Helvetica,sans-Serif" font-size="10.00">write_characters()</text>
<polygon fill="#666666" stroke="#666666" points="141.88,-72 141.88,-72 299.88,-72 299.88,-72 141.88,-72"/>
<polygon fill="#666666" stroke="#666666" points="141.88,-56 141.88,-56 299.88,-56 299.88,-56 141.88,-56"/>
<polygon fill="none" stroke="#666666" points="141.88,-6 141.88,-102 299.88,-102 299.88,-6 141.88,-6"/>
</a>
</g>
</g>
<!-- Node1&#45;&gt;Node3 -->
<g id="edge2_Node000001_Node000003" class="edge">
<title>Node1&#45;&gt;Node3</title>
<g id="a_edge2_Node000001_Node000003"><a xlink:title=" ">
<path fill="none" stroke="#63b8ff" d="M220.88,-132.8C220.88,-122.06 220.88,-111.53 220.88,-101.86"/>
<polygon fill="none" stroke="#63b8ff" points="217.38,-132.52 220.88,-142.52 224.38,-132.52 217.38,-132.52"/>
</a>
</g>
</g>
<!-- Node4 -->
<g id="Node000004" class="node">
<title>Node4</title>
<g id="a_Node000004"><a xlink:href="classdetail_1_1output__vector__adapter.html" target="_top" xlink:title="output adapter for byte vectors">
<polygon fill="white" stroke="none" points="457.88,-108 317.88,-108 317.88,0 457.88,0 457.88,-108"/>
<text text-anchor="start" x="321.88" y="-94.5" font-family="Helvetica,sans-Serif" font-size="10.00">detail::output_vector</text>
<text text-anchor="start" x="321.88" y="-82.5" font-family="Helvetica,sans-Serif" font-size="10.00">_adapter&lt; CharType, Allocator</text>
<text text-anchor="start" x="372.88" y="-70.5" font-family="Helvetica,sans-Serif" font-size="10.00">Type &gt;</text>
<text text-anchor="start" x="386.38" y="-54.5" font-family="Helvetica,sans-Serif" font-size="10.00"> </text>
<text text-anchor="start" x="326.69" y="-38.5" font-family="Helvetica,sans-Serif" font-size="10.00">+</text>
<text text-anchor="start" x="341.5" y="-38.5" font-family="Helvetica,sans-Serif" font-size="10.00">output_vector_adapter()</text>
<text text-anchor="start" x="326.69" y="-22.5" font-family="Helvetica,sans-Serif" font-size="10.00">+</text>
<text text-anchor="start" x="341.5" y="-22.5" font-family="Helvetica,sans-Serif" font-size="10.00">write_character()</text>
<text text-anchor="start" x="326.69" y="-6.5" font-family="Helvetica,sans-Serif" font-size="10.00">+</text>
<text text-anchor="start" x="341.5" y="-6.5" font-family="Helvetica,sans-Serif" font-size="10.00">write_characters()</text>
<polygon fill="#666666" stroke="#666666" points="317.88,-66 317.88,-66 457.88,-66 457.88,-66 317.88,-66"/>
<polygon fill="#666666" stroke="#666666" points="317.88,-50 317.88,-50 457.88,-50 457.88,-50 317.88,-50"/>
<polygon fill="none" stroke="#666666" points="317.88,0 317.88,-108 457.88,-108 457.88,0 317.88,0"/>
</a>
</g>
</g>
<!-- Node1&#45;&gt;Node4 -->
<g id="edge3_Node000001_Node000004" class="edge">
<title>Node1&#45;&gt;Node4</title>
<g id="a_edge3_Node000001_Node000004"><a xlink:title=" ">
<path fill="none" stroke="#63b8ff" d="M295.68,-152.17C309.87,-137.21 324.4,-121.89 337.61,-107.97"/>
<polygon fill="none" stroke="#63b8ff" points="293.22,-149.67 288.88,-159.33 298.3,-154.49 293.22,-149.67"/>
</a>
</g>
</g>
</g>
</svg>
