<?xml version="1.0" encoding="UTF-8" standalone="no"?>
<!DOCTYPE svg PUBLIC "-//W3C//DTD SVG 1.1//EN"
 "http://www.w3.org/Graphics/SVG/1.1/DTD/svg11.dtd">
<!-- Generated by graphviz version 12.2.1 (20241206.2353)
 -->
<!-- Title: detail::is_default_constructible&lt; std::pair&lt; T1, T2 &gt; &gt; Pages: 1 -->
<svg width="153pt" height="296pt"
 viewBox="0.00 0.00 153.25 296.00" xmlns="http://www.w3.org/2000/svg" xmlns:xlink="http://www.w3.org/1999/xlink">
<g id="graph0" class="graph" transform="scale(1 1) rotate(0) translate(4 292)">
<title>detail::is_default_constructible&lt; std::pair&lt; T1, T2 &gt; &gt;</title>
<!-- Node1 -->
<g id="Node000001" class="node">
<title>Node1</title>
<g id="a_Node000001"><a xlink:title=" ">
<polygon fill="#999999" stroke="none" points="118.25,-76 27,-76 27,0 118.25,0 118.25,-76"/>
<text text-anchor="start" x="31" y="-62.5" font-family="Helvetica,sans-Serif" font-size="10.00">detail::is_default</text>
<text text-anchor="start" x="31" y="-50.5" font-family="Helvetica,sans-Serif" font-size="10.00">_constructible&lt; std</text>
<text text-anchor="start" x="34.75" y="-38.5" font-family="Helvetica,sans-Serif" font-size="10.00">::pair&lt; T1, T2 &gt; &gt;</text>
<text text-anchor="start" x="71.12" y="-22.5" font-family="Helvetica,sans-Serif" font-size="10.00"> </text>
<text text-anchor="start" x="71.12" y="-6.5" font-family="Helvetica,sans-Serif" font-size="10.00"> </text>
<polygon fill="#666666" stroke="#666666" points="27,-34 27,-34 118.25,-34 118.25,-34 27,-34"/>
<polygon fill="#666666" stroke="#666666" points="27,-18 27,-18 118.25,-18 118.25,-18 27,-18"/>
<polygon fill="none" stroke="#666666" points="27,0 27,-76 118.25,-76 118.25,0 27,0"/>
</a>
</g>
</g>
<!-- Node2 -->
<g id="Node000002" class="node">
<title>Node2</title>
<g id="a_Node000002"><a xlink:href="structdetail_1_1conjunction.html" target="_top" xlink:title=" ">
<polygon fill="white" stroke="none" points="145.25,-200 0,-200 0,-112 145.25,-112 145.25,-200"/>
<text text-anchor="start" x="4" y="-186.5" font-family="Helvetica,sans-Serif" font-size="10.00">detail::conjunction</text>
<text text-anchor="start" x="4" y="-174.5" font-family="Helvetica,sans-Serif" font-size="10.00">&lt; is_default_constructible</text>
<text text-anchor="start" x="4" y="-162.5" font-family="Helvetica,sans-Serif" font-size="10.00">&lt; T1 &gt;, is_default_constructible</text>
<text text-anchor="start" x="53.88" y="-150.5" font-family="Helvetica,sans-Serif" font-size="10.00">&lt; T2 &gt; &gt;</text>
<text text-anchor="start" x="71.12" y="-134.5" font-family="Helvetica,sans-Serif" font-size="10.00"> </text>
<text text-anchor="start" x="71.12" y="-118.5" font-family="Helvetica,sans-Serif" font-size="10.00"> </text>
<polygon fill="#bfbfbf" stroke="#bfbfbf" points="0,-146 0,-146 145.25,-146 145.25,-146 0,-146"/>
<polygon fill="#bfbfbf" stroke="#bfbfbf" points="0,-130 0,-130 145.25,-130 145.25,-130 0,-130"/>
<polygon fill="none" stroke="#bfbfbf" points="0,-112 0,-200 145.25,-200 145.25,-112 0,-112"/>
</a>
</g>
</g>
<!-- Node2&#45;&gt;Node1 -->
<g id="edge1_Node000001_Node000002" class="edge">
<title>Node2&#45;&gt;Node1</title>
<g id="a_edge1_Node000001_Node000002"><a xlink:title=" ">
<path fill="none" stroke="#63b8ff" d="M72.62,-100.8C72.62,-92.39 72.62,-83.88 72.62,-75.97"/>
<polygon fill="none" stroke="#63b8ff" points="69.13,-100.62 72.63,-110.62 76.13,-100.62 69.13,-100.62"/>
</a>
</g>
</g>
<!-- Node3 -->
<g id="Node000003" class="node">
<title>Node3</title>
<g id="a_Node000003"><a xlink:title=" ">
<polygon fill="white" stroke="none" points="106.62,-288 38.62,-288 38.62,-236 106.62,-236 106.62,-288"/>
<text text-anchor="start" x="42.62" y="-274.5" font-family="Helvetica,sans-Serif" font-size="10.00">std::true_type</text>
<text text-anchor="start" x="71.12" y="-258.5" font-family="Helvetica,sans-Serif" font-size="10.00"> </text>
<text text-anchor="start" x="71.12" y="-242.5" font-family="Helvetica,sans-Serif" font-size="10.00"> </text>
<polygon fill="#bfbfbf" stroke="#bfbfbf" points="38.62,-270 38.62,-270 106.62,-270 106.62,-270 38.62,-270"/>
<polygon fill="#bfbfbf" stroke="#bfbfbf" points="38.62,-254 38.62,-254 106.62,-254 106.62,-254 38.62,-254"/>
<polygon fill="none" stroke="#bfbfbf" points="38.62,-236 38.62,-288 106.62,-288 106.62,-236 38.62,-236"/>
</a>
</g>
</g>
<!-- Node3&#45;&gt;Node2 -->
<g id="edge2_Node000002_Node000003" class="edge">
<title>Node3&#45;&gt;Node2</title>
<g id="a_edge2_Node000002_Node000003"><a xlink:title=" ">
<path fill="none" stroke="#63b8ff" d="M72.62,-224.84C72.62,-216.83 72.62,-208.25 72.62,-199.99"/>
<polygon fill="none" stroke="#63b8ff" points="69.13,-224.58 72.63,-234.58 76.13,-224.58 69.13,-224.58"/>
</a>
</g>
</g>
</g>
</svg>
