<?xml version="1.0" encoding="UTF-8" standalone="no"?>
<!DOCTYPE svg PUBLIC "-//W3C//DTD SVG 1.1//EN"
 "http://www.w3.org/Graphics/SVG/1.1/DTD/svg11.dtd">
<!-- Generated by graphviz version 12.2.1 (20241206.2353)
 -->
<!-- Title: detail::is_compatible_object_type_impl&lt; BasicJsonType, CompatibleObjectType, enable_if_t&lt; is_detected&lt; mapped_type_t, CompatibleObjectType &gt;::value &amp;&amp;is_detected&lt; key_type_t, CompatibleObjectType &gt;::value &gt; &gt; Pages: 1 -->
<svg width="191pt" height="132pt"
 viewBox="0.00 0.00 190.75 132.00" xmlns="http://www.w3.org/2000/svg" xmlns:xlink="http://www.w3.org/1999/xlink">
<g id="graph0" class="graph" transform="scale(1 1) rotate(0) translate(4 128)">
<title>detail::is_compatible_object_type_impl&lt; BasicJsonType, CompatibleObjectType, enable_if_t&lt; is_detected&lt; mapped_type_t, CompatibleObjectType &gt;::value &amp;&amp;is_detected&lt; key_type_t, CompatibleObjectType &gt;::value &gt; &gt;</title>
<!-- Node1 -->
<g id="Node000001" class="node">
<title>Node1</title>
<g id="a_Node000001"><a xlink:title=" ">
<polygon fill="#999999" stroke="none" points="182.75,-124 0,-124 0,0 182.75,0 182.75,-124"/>
<text text-anchor="start" x="4" y="-110.5" font-family="Helvetica,sans-Serif" font-size="10.00">detail::is_compatible</text>
<text text-anchor="start" x="4" y="-98.5" font-family="Helvetica,sans-Serif" font-size="10.00">_object_type_impl&lt; BasicJson</text>
<text text-anchor="start" x="4" y="-86.5" font-family="Helvetica,sans-Serif" font-size="10.00">Type, CompatibleObjectType,</text>
<text text-anchor="start" x="4" y="-74.5" font-family="Helvetica,sans-Serif" font-size="10.00"> enable_if_t&lt; is_detected&lt;</text>
<text text-anchor="start" x="4" y="-62.5" font-family="Helvetica,sans-Serif" font-size="10.00"> mapped_type_t, CompatibleObjectType</text>
<text text-anchor="start" x="4" y="-50.5" font-family="Helvetica,sans-Serif" font-size="10.00"> &gt;::value &amp;&amp;is_detected&lt; key_type</text>
<text text-anchor="start" x="6.62" y="-38.5" font-family="Helvetica,sans-Serif" font-size="10.00">_t, CompatibleObjectType &gt;::value &gt; &gt;</text>
<text text-anchor="start" x="39.38" y="-22.5" font-family="Helvetica,sans-Serif" font-size="10.00">+</text>
<text text-anchor="start" x="84.75" y="-22.5" font-family="Helvetica,sans-Serif" font-size="10.00">value</text>
<text text-anchor="start" x="89.88" y="-6.5" font-family="Helvetica,sans-Serif" font-size="10.00"> </text>
<polygon fill="#666666" stroke="#666666" points="0,-34 0,-34 182.75,-34 182.75,-34 0,-34"/>
<polygon fill="#666666" stroke="#666666" points="0,-18 0,-18 82.75,-18 82.75,-18 0,-18"/>
<polygon fill="#666666" stroke="#666666" points="82.75,-18 82.75,-18 182.75,-18 182.75,-18 82.75,-18"/>
<polygon fill="none" stroke="#666666" points="0,0 0,-124 182.75,-124 182.75,0 0,0"/>
</a>
</g>
</g>
</g>
</svg>
