<?xml version="1.0" encoding="UTF-8" standalone="no"?>
<!DOCTYPE svg PUBLIC "-//W3C//DTD SVG 1.1//EN"
 "http://www.w3.org/Graphics/SVG/1.1/DTD/svg11.dtd">
<!-- Generated by graphviz version 12.2.1 (20241206.2353)
 -->
<!-- Title: detail::char_traits&lt; unsigned char &gt; Pages: 1 -->
<svg width="118pt" height="192pt"
 viewBox="0.00 0.00 118.00 192.00" xmlns="http://www.w3.org/2000/svg" xmlns:xlink="http://www.w3.org/1999/xlink">
<g id="graph0" class="graph" transform="scale(1 1) rotate(0) translate(4 188)">
<title>detail::char_traits&lt; unsigned char &gt;</title>
<!-- Node1 -->
<g id="Node000001" class="node">
<title>Node1</title>
<g id="a_Node000001"><a xlink:title=" ">
<polygon fill="#999999" stroke="none" points="98.38,-96 11.62,-96 11.62,0 98.38,0 98.38,-96"/>
<text text-anchor="start" x="15.62" y="-82.5" font-family="Helvetica,sans-Serif" font-size="10.00">detail::char_traits</text>
<text text-anchor="start" x="15.62" y="-70.5" font-family="Helvetica,sans-Serif" font-size="10.00">&lt; unsigned char &gt;</text>
<text text-anchor="start" x="53.5" y="-54.5" font-family="Helvetica,sans-Serif" font-size="10.00"> </text>
<text text-anchor="start" x="17.25" y="-38.5" font-family="Helvetica,sans-Serif" font-size="10.00">+</text>
<text text-anchor="start" x="28.88" y="-38.5" font-family="Helvetica,sans-Serif" font-size="10.00">to_int_type()</text>
<text text-anchor="start" x="17.25" y="-22.5" font-family="Helvetica,sans-Serif" font-size="10.00">+</text>
<text text-anchor="start" x="28.88" y="-22.5" font-family="Helvetica,sans-Serif" font-size="10.00">to_char_type()</text>
<text text-anchor="start" x="17.25" y="-6.5" font-family="Helvetica,sans-Serif" font-size="10.00">+</text>
<text text-anchor="start" x="28.88" y="-6.5" font-family="Helvetica,sans-Serif" font-size="10.00">eof()</text>
<polygon fill="#666666" stroke="#666666" points="11.62,-66 11.62,-66 98.38,-66 98.38,-66 11.62,-66"/>
<polygon fill="#666666" stroke="#666666" points="11.62,-50 11.62,-50 98.38,-50 98.38,-50 11.62,-50"/>
<polygon fill="none" stroke="#666666" points="11.62,0 11.62,-96 98.38,-96 98.38,0 11.62,0"/>
</a>
</g>
</g>
<!-- Node2 -->
<g id="Node000002" class="node">
<title>Node2</title>
<g id="a_Node000002"><a xlink:title=" ">
<polygon fill="white" stroke="none" points="110,-184 0,-184 0,-132 110,-132 110,-184"/>
<text text-anchor="start" x="4" y="-170.5" font-family="Helvetica,sans-Serif" font-size="10.00">std::char_traits&lt; char &gt;</text>
<text text-anchor="start" x="53.5" y="-154.5" font-family="Helvetica,sans-Serif" font-size="10.00"> </text>
<text text-anchor="start" x="53.5" y="-138.5" font-family="Helvetica,sans-Serif" font-size="10.00"> </text>
<polygon fill="#bfbfbf" stroke="#bfbfbf" points="0,-166 0,-166 110,-166 110,-166 0,-166"/>
<polygon fill="#bfbfbf" stroke="#bfbfbf" points="0,-150 0,-150 110,-150 110,-150 0,-150"/>
<polygon fill="none" stroke="#bfbfbf" points="0,-132 0,-184 110,-184 110,-132 0,-132"/>
</a>
</g>
</g>
<!-- Node2&#45;&gt;Node1 -->
<g id="edge1_Node000001_Node000002" class="edge">
<title>Node2&#45;&gt;Node1</title>
<g id="a_edge1_Node000001_Node000002"><a xlink:title=" ">
<path fill="none" stroke="#63b8ff" d="M55,-120.93C55,-112.86 55,-104.19 55,-95.75"/>
<polygon fill="none" stroke="#63b8ff" points="51.5,-120.71 55,-130.71 58.5,-120.71 51.5,-120.71"/>
</a>
</g>
</g>
</g>
</svg>
