<?xml version="1.0" encoding="UTF-8" standalone="no"?>
<!DOCTYPE svg PUBLIC "-//W3C//DTD SVG 1.1//EN"
 "http://www.w3.org/Graphics/SVG/1.1/DTD/svg11.dtd">
<!-- Generated by graphviz version 12.2.1 (20241206.2353)
 -->
<!-- Title: detail::has_to_json&lt; BasicJsonType, T, typename &gt; Pages: 1 -->
<svg width="105pt" height="172pt"
 viewBox="0.00 0.00 105.25 172.00" xmlns="http://www.w3.org/2000/svg" xmlns:xlink="http://www.w3.org/1999/xlink">
<g id="graph0" class="graph" transform="scale(1 1) rotate(0) translate(4 168)">
<title>detail::has_to_json&lt; BasicJsonType, T, typename &gt;</title>
<!-- Node1 -->
<g id="Node000001" class="node">
<title>Node1</title>
<g id="a_Node000001"><a xlink:title=" ">
<polygon fill="#999999" stroke="none" points="97.25,-76 0,-76 0,0 97.25,0 97.25,-76"/>
<text text-anchor="start" x="4" y="-62.5" font-family="Helvetica,sans-Serif" font-size="10.00">detail::has_to_json</text>
<text text-anchor="start" x="4" y="-50.5" font-family="Helvetica,sans-Serif" font-size="10.00">&lt; BasicJsonType, T,</text>
<text text-anchor="start" x="21.25" y="-38.5" font-family="Helvetica,sans-Serif" font-size="10.00"> typename &gt;</text>
<text text-anchor="start" x="47.12" y="-22.5" font-family="Helvetica,sans-Serif" font-size="10.00"> </text>
<text text-anchor="start" x="47.12" y="-6.5" font-family="Helvetica,sans-Serif" font-size="10.00"> </text>
<polygon fill="#666666" stroke="#666666" points="0,-34 0,-34 97.25,-34 97.25,-34 0,-34"/>
<polygon fill="#666666" stroke="#666666" points="0,-18 0,-18 97.25,-18 97.25,-18 0,-18"/>
<polygon fill="none" stroke="#666666" points="0,0 0,-76 97.25,-76 97.25,0 0,0"/>
</a>
</g>
</g>
<!-- Node2 -->
<g id="Node000002" class="node">
<title>Node2</title>
<g id="a_Node000002"><a xlink:title=" ">
<polygon fill="white" stroke="none" points="84.88,-164 12.38,-164 12.38,-112 84.88,-112 84.88,-164"/>
<text text-anchor="start" x="16.38" y="-150.5" font-family="Helvetica,sans-Serif" font-size="10.00">std::false_type</text>
<text text-anchor="start" x="47.12" y="-134.5" font-family="Helvetica,sans-Serif" font-size="10.00"> </text>
<text text-anchor="start" x="47.12" y="-118.5" font-family="Helvetica,sans-Serif" font-size="10.00"> </text>
<polygon fill="#bfbfbf" stroke="#bfbfbf" points="12.38,-146 12.38,-146 84.88,-146 84.88,-146 12.38,-146"/>
<polygon fill="#bfbfbf" stroke="#bfbfbf" points="12.38,-130 12.38,-130 84.88,-130 84.88,-130 12.38,-130"/>
<polygon fill="none" stroke="#bfbfbf" points="12.38,-112 12.38,-164 84.88,-164 84.88,-112 12.38,-112"/>
</a>
</g>
</g>
<!-- Node2&#45;&gt;Node1 -->
<g id="edge1_Node000001_Node000002" class="edge">
<title>Node2&#45;&gt;Node1</title>
<g id="a_edge1_Node000001_Node000002"><a xlink:title=" ">
<path fill="none" stroke="#63b8ff" d="M48.62,-100.61C48.62,-92.5 48.62,-83.9 48.62,-75.78"/>
<polygon fill="none" stroke="#63b8ff" points="45.13,-100.5 48.63,-110.5 52.13,-100.5 45.13,-100.5"/>
</a>
</g>
</g>
</g>
</svg>
