<?xml version="1.0" encoding="UTF-8" standalone="no"?>
<!DOCTYPE svg PUBLIC "-//W3C//DTD SVG 1.1//EN"
 "http://www.w3.org/Graphics/SVG/1.1/DTD/svg11.dtd">
<!-- Generated by graphviz version 12.2.1 (20241206.2353)
 -->
<!-- Title: detail::iterator_input_adapter_factory&lt; IteratorType, enable_if_t&lt; is_iterator_of_multibyte&lt; IteratorType &gt;::value &gt; &gt; Pages: 1 -->
<svg width="178pt" height="96pt"
 viewBox="0.00 0.00 178.00 96.00" xmlns="http://www.w3.org/2000/svg" xmlns:xlink="http://www.w3.org/1999/xlink">
<g id="graph0" class="graph" transform="scale(1 1) rotate(0) translate(4 92)">
<title>detail::iterator_input_adapter_factory&lt; IteratorType, enable_if_t&lt; is_iterator_of_multibyte&lt; IteratorType &gt;::value &gt; &gt;</title>
<!-- Node1 -->
<g id="Node000001" class="node">
<title>Node1</title>
<g id="a_Node000001"><a xlink:title=" ">
<polygon fill="#999999" stroke="none" points="170,-88 0,-88 0,0 170,0 170,-88"/>
<text text-anchor="start" x="4" y="-74.5" font-family="Helvetica,sans-Serif" font-size="10.00">detail::iterator_input</text>
<text text-anchor="start" x="4" y="-62.5" font-family="Helvetica,sans-Serif" font-size="10.00">_adapter_factory&lt; IteratorType,</text>
<text text-anchor="start" x="4" y="-50.5" font-family="Helvetica,sans-Serif" font-size="10.00"> enable_if_t&lt; is_iterator_of</text>
<text text-anchor="start" x="4" y="-38.5" font-family="Helvetica,sans-Serif" font-size="10.00">_multibyte&lt; IteratorType &gt;::value &gt; &gt;</text>
<text text-anchor="start" x="83.5" y="-22.5" font-family="Helvetica,sans-Serif" font-size="10.00"> </text>
<text text-anchor="start" x="33.75" y="-6.5" font-family="Helvetica,sans-Serif" font-size="10.00">+</text>
<text text-anchor="start" x="73.5" y="-6.5" font-family="Helvetica,sans-Serif" font-size="10.00">create()</text>
<polygon fill="#666666" stroke="#666666" points="0,-34 0,-34 170,-34 170,-34 0,-34"/>
<polygon fill="#666666" stroke="#666666" points="0,-18 0,-18 170,-18 170,-18 0,-18"/>
<polygon fill="none" stroke="#666666" points="0,0 0,-88 170,-88 170,0 0,0"/>
</a>
</g>
</g>
</g>
</svg>
