<?xml version="1.0" encoding="UTF-8" standalone="no"?>
<!DOCTYPE svg PUBLIC "-//W3C//DTD SVG 1.1//EN"
 "http://www.w3.org/Graphics/SVG/1.1/DTD/svg11.dtd">
<!-- Generated by graphviz version 12.2.1 (20241206.2353)
 -->
<!-- Title: detail::nonesuch Pages: 1 -->
<svg width="87pt" height="140pt"
 viewBox="0.00 0.00 87.25 140.00" xmlns="http://www.w3.org/2000/svg" xmlns:xlink="http://www.w3.org/1999/xlink">
<g id="graph0" class="graph" transform="scale(1 1) rotate(0) translate(4 136)">
<title>detail::nonesuch</title>
<!-- Node1 -->
<g id="Node000001" class="node">
<title>Node1</title>
<g id="a_Node000001"><a xlink:title=" ">
<polygon fill="#999999" stroke="none" points="79.25,-132 0,-132 0,0 79.25,0 79.25,-132"/>
<text text-anchor="start" x="4" y="-118.5" font-family="Helvetica,sans-Serif" font-size="10.00">detail::nonesuch</text>
<text text-anchor="start" x="38.12" y="-102.5" font-family="Helvetica,sans-Serif" font-size="10.00"> </text>
<text text-anchor="start" x="5.81" y="-86.5" font-family="Helvetica,sans-Serif" font-size="10.00">+</text>
<text text-anchor="start" x="17.62" y="-86.5" font-family="Helvetica,sans-Serif" font-size="10.00">nonesuch()</text>
<text text-anchor="start" x="5.81" y="-70.5" font-family="Helvetica,sans-Serif" font-size="10.00">+</text>
<text text-anchor="start" x="17.62" y="-70.5" font-family="Helvetica,sans-Serif" font-size="10.00">~nonesuch()</text>
<text text-anchor="start" x="5.81" y="-54.5" font-family="Helvetica,sans-Serif" font-size="10.00">+</text>
<text text-anchor="start" x="17.62" y="-54.5" font-family="Helvetica,sans-Serif" font-size="10.00">nonesuch()</text>
<text text-anchor="start" x="5.81" y="-38.5" font-family="Helvetica,sans-Serif" font-size="10.00">+</text>
<text text-anchor="start" x="17.62" y="-38.5" font-family="Helvetica,sans-Serif" font-size="10.00">nonesuch()</text>
<text text-anchor="start" x="5.81" y="-22.5" font-family="Helvetica,sans-Serif" font-size="10.00">+</text>
<text text-anchor="start" x="17.62" y="-22.5" font-family="Helvetica,sans-Serif" font-size="10.00">operator=()</text>
<text text-anchor="start" x="5.81" y="-6.5" font-family="Helvetica,sans-Serif" font-size="10.00">+</text>
<text text-anchor="start" x="17.62" y="-6.5" font-family="Helvetica,sans-Serif" font-size="10.00">operator=()</text>
<polygon fill="#666666" stroke="#666666" points="0,-114 0,-114 79.25,-114 79.25,-114 0,-114"/>
<polygon fill="#666666" stroke="#666666" points="0,-98 0,-98 79.25,-98 79.25,-98 0,-98"/>
<polygon fill="none" stroke="#666666" points="0,0 0,-132 79.25,-132 79.25,0 0,0"/>
</a>
</g>
</g>
</g>
</svg>
