<?xml version="1.0" encoding="UTF-8" standalone="no"?>
<!DOCTYPE svg PUBLIC "-//W3C//DTD SVG 1.1//EN"
 "http://www.w3.org/Graphics/SVG/1.1/DTD/svg11.dtd">
<!-- Generated by graphviz version 12.2.1 (20241206.2353)
 -->
<!-- Title: json_sax&lt; BasicJsonType &gt; Pages: 1 -->
<svg width="140pt" height="220pt"
 viewBox="0.00 0.00 139.75 220.00" xmlns="http://www.w3.org/2000/svg" xmlns:xlink="http://www.w3.org/1999/xlink">
<g id="graph0" class="graph" transform="scale(1 1) rotate(0) translate(4 216)">
<title>json_sax&lt; BasicJsonType &gt;</title>
<!-- Node1 -->
<g id="Node000001" class="node">
<title>Node1</title>
<g id="a_Node000001"><a xlink:title="SAX interface.">
<polygon fill="#999999" stroke="none" points="131.75,-212 0,-212 0,0 131.75,0 131.75,-212"/>
<text text-anchor="start" x="4" y="-198.5" font-family="Helvetica,sans-Serif" font-size="10.00">json_sax&lt; BasicJsonType &gt;</text>
<text text-anchor="start" x="64.38" y="-182.5" font-family="Helvetica,sans-Serif" font-size="10.00"> </text>
<text text-anchor="start" x="11.81" y="-166.5" font-family="Helvetica,sans-Serif" font-size="10.00">+</text>
<text text-anchor="start" x="29.62" y="-166.5" font-family="Helvetica,sans-Serif" font-size="10.00">null()</text>
<text text-anchor="start" x="11.81" y="-150.5" font-family="Helvetica,sans-Serif" font-size="10.00">+</text>
<text text-anchor="start" x="29.62" y="-150.5" font-family="Helvetica,sans-Serif" font-size="10.00">boolean()</text>
<text text-anchor="start" x="11.81" y="-134.5" font-family="Helvetica,sans-Serif" font-size="10.00">+</text>
<text text-anchor="start" x="29.62" y="-134.5" font-family="Helvetica,sans-Serif" font-size="10.00">number_integer()</text>
<text text-anchor="start" x="11.81" y="-118.5" font-family="Helvetica,sans-Serif" font-size="10.00">+</text>
<text text-anchor="start" x="29.62" y="-118.5" font-family="Helvetica,sans-Serif" font-size="10.00">number_unsigned()</text>
<text text-anchor="start" x="11.81" y="-102.5" font-family="Helvetica,sans-Serif" font-size="10.00">+</text>
<text text-anchor="start" x="29.62" y="-102.5" font-family="Helvetica,sans-Serif" font-size="10.00">number_float()</text>
<text text-anchor="start" x="11.81" y="-86.5" font-family="Helvetica,sans-Serif" font-size="10.00">+</text>
<text text-anchor="start" x="29.62" y="-86.5" font-family="Helvetica,sans-Serif" font-size="10.00">string()</text>
<text text-anchor="start" x="11.81" y="-70.5" font-family="Helvetica,sans-Serif" font-size="10.00">+</text>
<text text-anchor="start" x="29.62" y="-70.5" font-family="Helvetica,sans-Serif" font-size="10.00">binary()</text>
<text text-anchor="start" x="11.81" y="-54.5" font-family="Helvetica,sans-Serif" font-size="10.00">+</text>
<text text-anchor="start" x="29.62" y="-54.5" font-family="Helvetica,sans-Serif" font-size="10.00">start_object()</text>
<text text-anchor="start" x="11.81" y="-38.5" font-family="Helvetica,sans-Serif" font-size="10.00">+</text>
<text text-anchor="start" x="29.62" y="-38.5" font-family="Helvetica,sans-Serif" font-size="10.00">key()</text>
<text text-anchor="start" x="11.81" y="-22.5" font-family="Helvetica,sans-Serif" font-size="10.00">+</text>
<text text-anchor="start" x="29.62" y="-22.5" font-family="Helvetica,sans-Serif" font-size="10.00">end_object()</text>
<text text-anchor="start" x="29.62" y="-6.5" font-family="Helvetica,sans-Serif" font-size="10.00">and 9 more...</text>
<polygon fill="#666666" stroke="#666666" points="0,-194 0,-194 131.75,-194 131.75,-194 0,-194"/>
<polygon fill="#666666" stroke="#666666" points="0,-178 0,-178 131.75,-178 131.75,-178 0,-178"/>
<polygon fill="none" stroke="#666666" points="0,0 0,-212 131.75,-212 131.75,0 0,0"/>
</a>
</g>
</g>
</g>
</svg>
