<?xml version="1.0" encoding="UTF-8" standalone="no"?>
<!DOCTYPE svg PUBLIC "-//W3C//DTD SVG 1.1//EN"
 "http://www.w3.org/Graphics/SVG/1.1/DTD/svg11.dtd">
<!-- Generated by graphviz version 12.2.1 (20241206.2353)
 -->
<!-- Title: detail::has_non_default_from_json&lt; BasicJsonType, T, typename &gt; Pages: 1 -->
<svg width="143pt" height="172pt"
 viewBox="0.00 0.00 142.75 172.00" xmlns="http://www.w3.org/2000/svg" xmlns:xlink="http://www.w3.org/1999/xlink">
<g id="graph0" class="graph" transform="scale(1 1) rotate(0) translate(4 168)">
<title>detail::has_non_default_from_json&lt; BasicJsonType, T, typename &gt;</title>
<!-- Node1 -->
<g id="Node000001" class="node">
<title>Node1</title>
<g id="a_Node000001"><a xlink:title=" ">
<polygon fill="#999999" stroke="none" points="134.75,-76 0,-76 0,0 134.75,0 134.75,-76"/>
<text text-anchor="start" x="4" y="-62.5" font-family="Helvetica,sans-Serif" font-size="10.00">detail::has_non_default</text>
<text text-anchor="start" x="4" y="-50.5" font-family="Helvetica,sans-Serif" font-size="10.00">_from_json&lt; BasicJsonType,</text>
<text text-anchor="start" x="34.75" y="-38.5" font-family="Helvetica,sans-Serif" font-size="10.00"> T, typename &gt;</text>
<text text-anchor="start" x="65.88" y="-22.5" font-family="Helvetica,sans-Serif" font-size="10.00"> </text>
<text text-anchor="start" x="65.88" y="-6.5" font-family="Helvetica,sans-Serif" font-size="10.00"> </text>
<polygon fill="#666666" stroke="#666666" points="0,-34 0,-34 134.75,-34 134.75,-34 0,-34"/>
<polygon fill="#666666" stroke="#666666" points="0,-18 0,-18 134.75,-18 134.75,-18 0,-18"/>
<polygon fill="none" stroke="#666666" points="0,0 0,-76 134.75,-76 134.75,0 0,0"/>
</a>
</g>
</g>
<!-- Node2 -->
<g id="Node000002" class="node">
<title>Node2</title>
<g id="a_Node000002"><a xlink:title=" ">
<polygon fill="white" stroke="none" points="103.62,-164 31.12,-164 31.12,-112 103.62,-112 103.62,-164"/>
<text text-anchor="start" x="35.12" y="-150.5" font-family="Helvetica,sans-Serif" font-size="10.00">std::false_type</text>
<text text-anchor="start" x="65.88" y="-134.5" font-family="Helvetica,sans-Serif" font-size="10.00"> </text>
<text text-anchor="start" x="65.88" y="-118.5" font-family="Helvetica,sans-Serif" font-size="10.00"> </text>
<polygon fill="#bfbfbf" stroke="#bfbfbf" points="31.12,-146 31.12,-146 103.62,-146 103.62,-146 31.12,-146"/>
<polygon fill="#bfbfbf" stroke="#bfbfbf" points="31.12,-130 31.12,-130 103.62,-130 103.62,-130 31.12,-130"/>
<polygon fill="none" stroke="#bfbfbf" points="31.12,-112 31.12,-164 103.62,-164 103.62,-112 31.12,-112"/>
</a>
</g>
</g>
<!-- Node2&#45;&gt;Node1 -->
<g id="edge1_Node000001_Node000002" class="edge">
<title>Node2&#45;&gt;Node1</title>
<g id="a_edge1_Node000001_Node000002"><a xlink:title=" ">
<path fill="none" stroke="#63b8ff" d="M67.38,-100.61C67.38,-92.5 67.38,-83.9 67.38,-75.78"/>
<polygon fill="none" stroke="#63b8ff" points="63.88,-100.5 67.38,-110.5 70.88,-100.5 63.88,-100.5"/>
</a>
</g>
</g>
</g>
</svg>
