<?xml version="1.0" encoding="UTF-8" standalone="no"?>
<!DOCTYPE svg PUBLIC "-//W3C//DTD SVG 1.1//EN"
 "http://www.w3.org/Graphics/SVG/1.1/DTD/svg11.dtd">
<!-- Generated by graphviz version 12.2.1 (20241206.2353)
 -->
<!-- Title: detail::is_constructible&lt; std::pair&lt; T1, T2 &gt; &gt; Pages: 1 -->
<svg width="153pt" height="308pt"
 viewBox="0.00 0.00 153.25 308.00" xmlns="http://www.w3.org/2000/svg" xmlns:xlink="http://www.w3.org/1999/xlink">
<g id="graph0" class="graph" transform="scale(1 1) rotate(0) translate(4 304)">
<title>detail::is_constructible&lt; std::pair&lt; T1, T2 &gt; &gt;</title>
<!-- Node1 -->
<g id="Node000001" class="node">
<title>Node1</title>
<g id="a_Node000001"><a xlink:title=" ">
<polygon fill="#999999" stroke="none" points="125.75,-64 19.5,-64 19.5,0 125.75,0 125.75,-64"/>
<text text-anchor="start" x="23.5" y="-50.5" font-family="Helvetica,sans-Serif" font-size="10.00">detail::is_constructible</text>
<text text-anchor="start" x="23.5" y="-38.5" font-family="Helvetica,sans-Serif" font-size="10.00">&lt; std::pair&lt; T1, T2 &gt; &gt;</text>
<text text-anchor="start" x="71.12" y="-22.5" font-family="Helvetica,sans-Serif" font-size="10.00"> </text>
<text text-anchor="start" x="71.12" y="-6.5" font-family="Helvetica,sans-Serif" font-size="10.00"> </text>
<polygon fill="#666666" stroke="#666666" points="19.5,-34 19.5,-34 125.75,-34 125.75,-34 19.5,-34"/>
<polygon fill="#666666" stroke="#666666" points="19.5,-18 19.5,-18 125.75,-18 125.75,-18 19.5,-18"/>
<polygon fill="none" stroke="#666666" points="19.5,0 19.5,-64 125.75,-64 125.75,0 19.5,0"/>
</a>
</g>
</g>
<!-- Node2 -->
<g id="Node000002" class="node">
<title>Node2</title>
<g id="a_Node000002"><a xlink:href="structdetail_1_1is__default__constructible_3_01std_1_1pair_3_01_t1_00_01_t2_01_4_01_4.html" target="_top" xlink:title=" ">
<polygon fill="white" stroke="none" points="118.25,-176 27,-176 27,-100 118.25,-100 118.25,-176"/>
<text text-anchor="start" x="31" y="-162.5" font-family="Helvetica,sans-Serif" font-size="10.00">detail::is_default</text>
<text text-anchor="start" x="31" y="-150.5" font-family="Helvetica,sans-Serif" font-size="10.00">_constructible&lt; std</text>
<text text-anchor="start" x="34.75" y="-138.5" font-family="Helvetica,sans-Serif" font-size="10.00">::pair&lt; T1, T2 &gt; &gt;</text>
<text text-anchor="start" x="71.12" y="-122.5" font-family="Helvetica,sans-Serif" font-size="10.00"> </text>
<text text-anchor="start" x="71.12" y="-106.5" font-family="Helvetica,sans-Serif" font-size="10.00"> </text>
<polygon fill="#bfbfbf" stroke="#bfbfbf" points="27,-134 27,-134 118.25,-134 118.25,-134 27,-134"/>
<polygon fill="#bfbfbf" stroke="#bfbfbf" points="27,-118 27,-118 118.25,-118 118.25,-118 27,-118"/>
<polygon fill="none" stroke="#bfbfbf" points="27,-100 27,-176 118.25,-176 118.25,-100 27,-100"/>
</a>
</g>
</g>
<!-- Node2&#45;&gt;Node1 -->
<g id="edge1_Node000001_Node000002" class="edge">
<title>Node2&#45;&gt;Node1</title>
<g id="a_edge1_Node000001_Node000002"><a xlink:title=" ">
<path fill="none" stroke="#63b8ff" d="M72.62,-88.74C72.62,-80.33 72.62,-71.78 72.62,-64"/>
<polygon fill="none" stroke="#63b8ff" points="69.13,-88.53 72.63,-98.53 76.13,-88.53 69.13,-88.53"/>
</a>
</g>
</g>
<!-- Node3 -->
<g id="Node000003" class="node">
<title>Node3</title>
<g id="a_Node000003"><a xlink:href="structdetail_1_1conjunction.html" target="_top" xlink:title=" ">
<polygon fill="white" stroke="none" points="145.25,-300 0,-300 0,-212 145.25,-212 145.25,-300"/>
<text text-anchor="start" x="4" y="-286.5" font-family="Helvetica,sans-Serif" font-size="10.00">detail::conjunction</text>
<text text-anchor="start" x="4" y="-274.5" font-family="Helvetica,sans-Serif" font-size="10.00">&lt; is_default_constructible</text>
<text text-anchor="start" x="4" y="-262.5" font-family="Helvetica,sans-Serif" font-size="10.00">&lt; T1 &gt;, is_default_constructible</text>
<text text-anchor="start" x="53.88" y="-250.5" font-family="Helvetica,sans-Serif" font-size="10.00">&lt; T2 &gt; &gt;</text>
<text text-anchor="start" x="71.12" y="-234.5" font-family="Helvetica,sans-Serif" font-size="10.00"> </text>
<text text-anchor="start" x="71.12" y="-218.5" font-family="Helvetica,sans-Serif" font-size="10.00"> </text>
<polygon fill="orangered" stroke="orangered" points="0,-246 0,-246 145.25,-246 145.25,-246 0,-246"/>
<polygon fill="orangered" stroke="orangered" points="0,-230 0,-230 145.25,-230 145.25,-230 0,-230"/>
<polygon fill="none" stroke="orangered" points="0,-212 0,-300 145.25,-300 145.25,-212 0,-212"/>
</a>
</g>
</g>
<!-- Node3&#45;&gt;Node2 -->
<g id="edge2_Node000002_Node000003" class="edge">
<title>Node3&#45;&gt;Node2</title>
<g id="a_edge2_Node000002_Node000003"><a xlink:title=" ">
<path fill="none" stroke="#63b8ff" d="M72.62,-200.8C72.62,-192.39 72.62,-183.88 72.62,-175.97"/>
<polygon fill="none" stroke="#63b8ff" points="69.13,-200.62 72.63,-210.62 76.13,-200.62 69.13,-200.62"/>
</a>
</g>
</g>
</g>
</svg>
