<?xml version="1.0" encoding="UTF-8" standalone="no"?>
<!DOCTYPE svg PUBLIC "-//W3C//DTD SVG 1.1//EN"
 "http://www.w3.org/Graphics/SVG/1.1/DTD/svg11.dtd">
<!-- Generated by graphviz version 12.2.1 (20241206.2353)
 -->
<!-- Title: detail::is_default_constructible&lt; const std::tuple&lt; Ts... &gt; &gt; Pages: 1 -->
<svg width="128pt" height="284pt"
 viewBox="0.00 0.00 127.75 284.00" xmlns="http://www.w3.org/2000/svg" xmlns:xlink="http://www.w3.org/1999/xlink">
<g id="graph0" class="graph" transform="scale(1 1) rotate(0) translate(4 280)">
<title>detail::is_default_constructible&lt; const std::tuple&lt; Ts... &gt; &gt;</title>
<!-- Node1 -->
<g id="Node000001" class="node">
<title>Node1</title>
<g id="a_Node000001"><a xlink:title=" ">
<polygon fill="#999999" stroke="none" points="110.75,-76 9,-76 9,0 110.75,0 110.75,-76"/>
<text text-anchor="start" x="13" y="-62.5" font-family="Helvetica,sans-Serif" font-size="10.00">detail::is_default</text>
<text text-anchor="start" x="13" y="-50.5" font-family="Helvetica,sans-Serif" font-size="10.00">_constructible&lt; const</text>
<text text-anchor="start" x="15.25" y="-38.5" font-family="Helvetica,sans-Serif" font-size="10.00"> std::tuple&lt; Ts... &gt; &gt;</text>
<text text-anchor="start" x="58.38" y="-22.5" font-family="Helvetica,sans-Serif" font-size="10.00"> </text>
<text text-anchor="start" x="58.38" y="-6.5" font-family="Helvetica,sans-Serif" font-size="10.00"> </text>
<polygon fill="#666666" stroke="#666666" points="9,-34 9,-34 110.75,-34 110.75,-34 9,-34"/>
<polygon fill="#666666" stroke="#666666" points="9,-18 9,-18 110.75,-18 110.75,-18 9,-18"/>
<polygon fill="none" stroke="#666666" points="9,0 9,-76 110.75,-76 110.75,0 9,0"/>
</a>
</g>
</g>
<!-- Node2 -->
<g id="Node000002" class="node">
<title>Node2</title>
<g id="a_Node000002"><a xlink:href="structdetail_1_1conjunction.html" target="_top" xlink:title=" ">
<polygon fill="white" stroke="none" points="119.75,-188 0,-188 0,-112 119.75,-112 119.75,-188"/>
<text text-anchor="start" x="4" y="-174.5" font-family="Helvetica,sans-Serif" font-size="10.00">detail::conjunction</text>
<text text-anchor="start" x="4" y="-162.5" font-family="Helvetica,sans-Serif" font-size="10.00">&lt; is_default_constructible</text>
<text text-anchor="start" x="37" y="-150.5" font-family="Helvetica,sans-Serif" font-size="10.00">&lt; Ts &gt;... &gt;</text>
<text text-anchor="start" x="58.38" y="-134.5" font-family="Helvetica,sans-Serif" font-size="10.00"> </text>
<text text-anchor="start" x="58.38" y="-118.5" font-family="Helvetica,sans-Serif" font-size="10.00"> </text>
<polygon fill="#bfbfbf" stroke="#bfbfbf" points="0,-146 0,-146 119.75,-146 119.75,-146 0,-146"/>
<polygon fill="#bfbfbf" stroke="#bfbfbf" points="0,-130 0,-130 119.75,-130 119.75,-130 0,-130"/>
<polygon fill="none" stroke="#bfbfbf" points="0,-112 0,-188 119.75,-188 119.75,-112 0,-112"/>
</a>
</g>
</g>
<!-- Node2&#45;&gt;Node1 -->
<g id="edge1_Node000001_Node000002" class="edge">
<title>Node2&#45;&gt;Node1</title>
<g id="a_edge1_Node000001_Node000002"><a xlink:title=" ">
<path fill="none" stroke="#63b8ff" d="M59.88,-100.78C59.88,-92.35 59.88,-83.7 59.88,-75.65"/>
<polygon fill="none" stroke="#63b8ff" points="56.38,-100.55 59.88,-110.55 63.38,-100.55 56.38,-100.55"/>
</a>
</g>
</g>
<!-- Node3 -->
<g id="Node000003" class="node">
<title>Node3</title>
<g id="a_Node000003"><a xlink:title=" ">
<polygon fill="white" stroke="none" points="93.88,-276 25.88,-276 25.88,-224 93.88,-224 93.88,-276"/>
<text text-anchor="start" x="29.88" y="-262.5" font-family="Helvetica,sans-Serif" font-size="10.00">std::true_type</text>
<text text-anchor="start" x="58.38" y="-246.5" font-family="Helvetica,sans-Serif" font-size="10.00"> </text>
<text text-anchor="start" x="58.38" y="-230.5" font-family="Helvetica,sans-Serif" font-size="10.00"> </text>
<polygon fill="#bfbfbf" stroke="#bfbfbf" points="25.88,-258 25.88,-258 93.88,-258 93.88,-258 25.88,-258"/>
<polygon fill="#bfbfbf" stroke="#bfbfbf" points="25.88,-242 25.88,-242 93.88,-242 93.88,-242 25.88,-242"/>
<polygon fill="none" stroke="#bfbfbf" points="25.88,-224 25.88,-276 93.88,-276 93.88,-224 25.88,-224"/>
</a>
</g>
</g>
<!-- Node3&#45;&gt;Node2 -->
<g id="edge2_Node000002_Node000003" class="edge">
<title>Node3&#45;&gt;Node2</title>
<g id="a_edge2_Node000002_Node000003"><a xlink:title=" ">
<path fill="none" stroke="#63b8ff" d="M59.88,-212.61C59.88,-204.5 59.88,-195.9 59.88,-187.78"/>
<polygon fill="none" stroke="#63b8ff" points="56.38,-212.5 59.88,-222.5 63.38,-212.5 56.38,-212.5"/>
</a>
</g>
</g>
</g>
</svg>
