<?xml version="1.0" encoding="UTF-8" standalone="no"?>
<!DOCTYPE svg PUBLIC "-//W3C//DTD SVG 1.1//EN"
 "http://www.w3.org/Graphics/SVG/1.1/DTD/svg11.dtd">
<!-- Generated by graphviz version 12.2.1 (20241206.2353)
 -->
<!-- Title: json_sax::key Pages: 1 -->
<svg width="401pt" height="864pt"
 viewBox="0.00 0.00 401.00 864.00" xmlns="http://www.w3.org/2000/svg" xmlns:xlink="http://www.w3.org/1999/xlink">
<g id="graph0" class="graph" transform="scale(1 1) rotate(0) translate(4 860)">
<title>json_sax::key</title>
<!-- Node1 -->
<g id="Node000001" class="node">
<title>Node1</title>
<g id="a_Node000001"><a xlink:title="an object key was read">
<polygon fill="#999999" stroke="#666666" points="393,-438 316.25,-438 316.25,-418 393,-418 393,-438"/>
<text text-anchor="middle" x="354.62" y="-424.5" font-family="Helvetica,sans-Serif" font-size="10.00">json_sax::key</text>
</a>
</g>
</g>
<!-- Node2 -->
<g id="Node000002" class="node">
<title>Node2</title>
<g id="a_Node000002"><a xlink:href="classbasic__json.html#accafaaf23f60bb245ddb1fa0972b33a3" target="_top" xlink:title="access specified object element with bounds checking">
<polygon fill="white" stroke="#666666" points="260.75,-856 184,-856 184,-836 260.75,-836 260.75,-856"/>
<text text-anchor="middle" x="222.38" y="-842.5" font-family="Helvetica,sans-Serif" font-size="10.00">basic_json::at</text>
</a>
</g>
</g>
<!-- Node1&#45;&gt;Node2 -->
<g id="edge1_Node000001_Node000002" class="edge">
<title>Node1&#45;&gt;Node2</title>
<g id="a_edge1_Node000001_Node000002"><a xlink:title=" ">
<path fill="none" stroke="#63b8ff" d="M352.49,-449.48C348.15,-523.92 330.24,-769.44 280.25,-827 275.2,-832.82 268.32,-836.86 261.08,-839.66"/>
<polygon fill="#63b8ff" stroke="#63b8ff" points="355.97,-450.04 353.03,-439.86 348.98,-449.65 355.97,-450.04"/>
</a>
</g>
</g>
<!-- Node3 -->
<g id="Node000003" class="node">
<title>Node3</title>
<g id="a_Node000003"><a xlink:href="classbasic__json.html#aba9a21714e81e98fc5786a2339ea1665" target="_top" xlink:title="access specified object element with bounds checking">
<polygon fill="white" stroke="#666666" points="260.75,-818 184,-818 184,-798 260.75,-798 260.75,-818"/>
<text text-anchor="middle" x="222.38" y="-804.5" font-family="Helvetica,sans-Serif" font-size="10.00">basic_json::at</text>
</a>
</g>
</g>
<!-- Node1&#45;&gt;Node3 -->
<g id="edge2_Node000001_Node000003" class="edge">
<title>Node1&#45;&gt;Node3</title>
<g id="a_edge2_Node000001_Node000003"><a xlink:title=" ">
<path fill="none" stroke="#63b8ff" d="M352.02,-449.66C346.44,-519.58 325.64,-737.71 280.25,-789 275.14,-794.77 268.24,-798.79 261,-801.59"/>
<polygon fill="#63b8ff" stroke="#63b8ff" points="355.5,-450.15 352.78,-439.91 348.52,-449.61 355.5,-450.15"/>
</a>
</g>
</g>
<!-- Node4 -->
<g id="Node000004" class="node">
<title>Node4</title>
<g id="a_Node000004"><a xlink:href="classbasic__json.html#a4cd9ba2f2164d9cee83b07f76d40843f" target="_top" xlink:title="access specified object element with bounds checking">
<polygon fill="white" stroke="#666666" points="260.75,-780 184,-780 184,-760 260.75,-760 260.75,-780"/>
<text text-anchor="middle" x="222.38" y="-766.5" font-family="Helvetica,sans-Serif" font-size="10.00">basic_json::at</text>
</a>
</g>
</g>
<!-- Node1&#45;&gt;Node4 -->
<g id="edge3_Node000001_Node000004" class="edge">
<title>Node1&#45;&gt;Node4</title>
<g id="a_edge3_Node000001_Node000004"><a xlink:title=" ">
<path fill="none" stroke="#63b8ff" d="M351.48,-449.46C344.61,-514.18 321.14,-705.84 280.25,-751 275.15,-756.63 268.33,-760.6 261.19,-763.39"/>
<polygon fill="#63b8ff" stroke="#63b8ff" points="354.93,-450.1 352.48,-439.79 347.97,-449.38 354.93,-450.1"/>
</a>
</g>
</g>
<!-- Node5 -->
<g id="Node000005" class="node">
<title>Node5</title>
<g id="a_Node000005"><a xlink:href="classbasic__json.html#a7ae6267ca4bd85e25f61dc5ba30204da" target="_top" xlink:title="access specified object element with bounds checking">
<polygon fill="white" stroke="#666666" points="260.75,-742 184,-742 184,-722 260.75,-722 260.75,-742"/>
<text text-anchor="middle" x="222.38" y="-728.5" font-family="Helvetica,sans-Serif" font-size="10.00">basic_json::at</text>
</a>
</g>
</g>
<!-- Node1&#45;&gt;Node5 -->
<g id="edge4_Node000001_Node000005" class="edge">
<title>Node1&#45;&gt;Node5</title>
<g id="a_edge4_Node000001_Node000005"><a xlink:title=" ">
<path fill="none" stroke="#63b8ff" d="M350.76,-449.61C342.44,-509.19 316.6,-674 280.25,-713 275.07,-718.56 268.22,-722.49 261.07,-725.28"/>
<polygon fill="#63b8ff" stroke="#63b8ff" points="354.21,-450.16 352.1,-439.78 347.28,-449.22 354.21,-450.16"/>
</a>
</g>
</g>
<!-- Node6 -->
<g id="Node000006" class="node">
<title>Node6</title>
<g id="a_Node000006"><a xlink:href="classbasic__json.html#afd5ea67fe1a4778be5189423e2545d7a" target="_top" xlink:title="check the existence of an element in a JSON object">
<polygon fill="white" stroke="#666666" points="275,-704 169.75,-704 169.75,-684 275,-684 275,-704"/>
<text text-anchor="middle" x="222.38" y="-690.5" font-family="Helvetica,sans-Serif" font-size="10.00">basic_json::contains</text>
</a>
</g>
</g>
<!-- Node1&#45;&gt;Node6 -->
<g id="edge5_Node000001_Node000006" class="edge">
<title>Node1&#45;&gt;Node6</title>
<g id="a_edge5_Node000001_Node000006"><a xlink:title=" ">
<path fill="none" stroke="#63b8ff" d="M353.54,-449.6C352.17,-496.98 342.2,-610.93 280.25,-675 276.92,-678.44 272.95,-681.26 268.68,-683.57"/>
<polygon fill="#63b8ff" stroke="#63b8ff" points="357.04,-449.91 353.71,-439.85 350.04,-449.78 357.04,-449.91"/>
</a>
</g>
</g>
<!-- Node7 -->
<g id="Node000007" class="node">
<title>Node7</title>
<g id="a_Node000007"><a xlink:href="classbasic__json.html#a7053bdd8e9ee2fcb0ca9c54ec85f1297" target="_top" xlink:title="check the existence of an element in a JSON object">
<polygon fill="white" stroke="#666666" points="275,-666 169.75,-666 169.75,-646 275,-646 275,-666"/>
<text text-anchor="middle" x="222.38" y="-652.5" font-family="Helvetica,sans-Serif" font-size="10.00">basic_json::contains</text>
</a>
</g>
</g>
<!-- Node1&#45;&gt;Node7 -->
<g id="edge6_Node000001_Node000007" class="edge">
<title>Node1&#45;&gt;Node7</title>
<g id="a_edge6_Node000001_Node000007"><a xlink:title=" ">
<path fill="none" stroke="#63b8ff" d="M352.15,-449.67C348.12,-491.68 333.39,-584.67 280.25,-637 276.76,-640.43 272.64,-643.25 268.23,-645.55"/>
<polygon fill="#63b8ff" stroke="#63b8ff" points="355.62,-450.13 352.96,-439.88 348.64,-449.55 355.62,-450.13"/>
</a>
</g>
</g>
<!-- Node8 -->
<g id="Node000008" class="node">
<title>Node8</title>
<g id="a_Node000008"><a xlink:href="classbasic__json.html#ad1e1eff03a320299e6a8639a7579ca46" target="_top" xlink:title="returns the number of occurrences of a key in a JSON object">
<polygon fill="white" stroke="#666666" points="268.62,-628 176.12,-628 176.12,-608 268.62,-608 268.62,-628"/>
<text text-anchor="middle" x="222.38" y="-614.5" font-family="Helvetica,sans-Serif" font-size="10.00">basic_json::count</text>
</a>
</g>
</g>
<!-- Node1&#45;&gt;Node8 -->
<g id="edge7_Node000001_Node000008" class="edge">
<title>Node1&#45;&gt;Node8</title>
<g id="a_edge7_Node000001_Node000008"><a xlink:title=" ">
<path fill="none" stroke="#63b8ff" d="M350.29,-449.17C343.53,-485.04 324.9,-557.9 280.25,-599 276.5,-602.45 272.1,-605.28 267.43,-607.6"/>
<polygon fill="#63b8ff" stroke="#63b8ff" points="353.68,-450.07 351.95,-439.62 346.79,-448.87 353.68,-450.07"/>
</a>
</g>
</g>
<!-- Node9 -->
<g id="Node000009" class="node">
<title>Node9</title>
<g id="a_Node000009"><a xlink:href="classbasic__json.html#a1ba1cd73d36a2cd58a9da7021b0f7317" target="_top" xlink:title="returns the number of occurrences of a key in a JSON object">
<polygon fill="white" stroke="#666666" points="268.62,-590 176.12,-590 176.12,-570 268.62,-570 268.62,-590"/>
<text text-anchor="middle" x="222.38" y="-576.5" font-family="Helvetica,sans-Serif" font-size="10.00">basic_json::count</text>
</a>
</g>
</g>
<!-- Node1&#45;&gt;Node9 -->
<g id="edge8_Node000001_Node000009" class="edge">
<title>Node1&#45;&gt;Node9</title>
<g id="a_edge8_Node000001_Node000009"><a xlink:title=" ">
<path fill="none" stroke="#63b8ff" d="M347.45,-448.94C337.8,-478.15 316.4,-530.89 280.25,-561 276.09,-564.46 271.27,-567.31 266.24,-569.63"/>
<polygon fill="#63b8ff" stroke="#63b8ff" points="350.67,-450.37 350.33,-439.78 344,-448.27 350.67,-450.37"/>
</a>
</g>
</g>
<!-- Node10 -->
<g id="Node000010" class="node">
<title>Node10</title>
<g id="a_Node000010"><a xlink:href="classbasic__json.html#a05da3b93f2d4a7164589abffaa9acb33" target="_top" xlink:title="remove element from a JSON object given a key">
<polygon fill="white" stroke="#666666" points="268.62,-552 176.12,-552 176.12,-532 268.62,-532 268.62,-552"/>
<text text-anchor="middle" x="222.38" y="-538.5" font-family="Helvetica,sans-Serif" font-size="10.00">basic_json::erase</text>
</a>
</g>
</g>
<!-- Node1&#45;&gt;Node10 -->
<g id="edge9_Node000001_Node000010" class="edge">
<title>Node1&#45;&gt;Node10</title>
<g id="a_edge9_Node000001_Node000010"><a xlink:title=" ">
<path fill="none" stroke="#63b8ff" d="M342.69,-448.52C330.25,-469.99 308.03,-503.26 280.25,-523 275.5,-526.38 270.1,-529.19 264.57,-531.51"/>
<polygon fill="#63b8ff" stroke="#63b8ff" points="345.72,-450.26 347.54,-439.82 339.61,-446.85 345.72,-450.26"/>
</a>
</g>
</g>
<!-- Node11 -->
<g id="Node000011" class="node">
<title>Node11</title>
<g id="a_Node000011"><a xlink:href="classbasic__json.html#a5f763336e84232f38e2d80e142f9820e" target="_top" xlink:title="remove element from a JSON object given a key">
<polygon fill="white" stroke="#666666" points="268.62,-514 176.12,-514 176.12,-494 268.62,-494 268.62,-514"/>
<text text-anchor="middle" x="222.38" y="-500.5" font-family="Helvetica,sans-Serif" font-size="10.00">basic_json::erase</text>
</a>
</g>
</g>
<!-- Node1&#45;&gt;Node11 -->
<g id="edge10_Node000001_Node000011" class="edge">
<title>Node1&#45;&gt;Node11</title>
<g id="a_edge10_Node000001_Node000011"><a xlink:title=" ">
<path fill="none" stroke="#63b8ff" d="M334.68,-445.65C320.55,-458.04 300.32,-474.26 280.25,-485 274.1,-488.29 267.27,-491.16 260.55,-493.61"/>
<polygon fill="#63b8ff" stroke="#63b8ff" points="336.79,-448.46 341.89,-439.17 332.11,-443.25 336.79,-448.46"/>
</a>
</g>
</g>
<!-- Node12 -->
<g id="Node000012" class="node">
<title>Node12</title>
<g id="a_Node000012"><a xlink:href="classbasic__json.html#a727e3cfb5a874314d8deb12cb53a8105" target="_top" xlink:title="find an element in a JSON object">
<polygon fill="white" stroke="#666666" points="264.5,-476 180.25,-476 180.25,-456 264.5,-456 264.5,-476"/>
<text text-anchor="middle" x="222.38" y="-462.5" font-family="Helvetica,sans-Serif" font-size="10.00">basic_json::find</text>
</a>
</g>
</g>
<!-- Node1&#45;&gt;Node12 -->
<g id="edge11_Node000001_Node000012" class="edge">
<title>Node1&#45;&gt;Node12</title>
<g id="a_edge11_Node000001_Node000012"><a xlink:title=" ">
<path fill="none" stroke="#63b8ff" d="M307.08,-441.58C291.33,-446.18 273.99,-451.23 259.19,-455.55"/>
<polygon fill="#63b8ff" stroke="#63b8ff" points="307.62,-445.07 316.24,-438.91 305.66,-438.35 307.62,-445.07"/>
</a>
</g>
</g>
<!-- Node16 -->
<g id="Node000016" class="node">
<title>Node16</title>
<g id="a_Node000016"><a xlink:href="classbasic__json.html#a7bf93ae61eb63a9e543cafb3f723900c" target="_top" xlink:title="find an element in a JSON object">
<polygon fill="white" stroke="#666666" points="264.5,-438 180.25,-438 180.25,-418 264.5,-418 264.5,-438"/>
<text text-anchor="middle" x="222.38" y="-424.5" font-family="Helvetica,sans-Serif" font-size="10.00">basic_json::find</text>
</a>
</g>
</g>
<!-- Node1&#45;&gt;Node16 -->
<g id="edge14_Node000001_Node000016" class="edge">
<title>Node1&#45;&gt;Node16</title>
<g id="a_edge14_Node000001_Node000016"><a xlink:title=" ">
<path fill="none" stroke="#63b8ff" d="M304.66,-428C291.47,-428 277.34,-428 264.61,-428"/>
<polygon fill="#63b8ff" stroke="#63b8ff" points="304.44,-431.5 314.44,-428 304.44,-424.5 304.44,-431.5"/>
</a>
</g>
</g>
<!-- Node17 -->
<g id="Node000017" class="node">
<title>Node17</title>
<g id="a_Node000017"><a xlink:href="classbasic__json.html#a89dd769ce700326266883ba96a98a8f2" target="_top" xlink:title="find an element in a JSON object">
<polygon fill="white" stroke="#666666" points="264.5,-400 180.25,-400 180.25,-380 264.5,-380 264.5,-400"/>
<text text-anchor="middle" x="222.38" y="-386.5" font-family="Helvetica,sans-Serif" font-size="10.00">basic_json::find</text>
</a>
</g>
</g>
<!-- Node1&#45;&gt;Node17 -->
<g id="edge15_Node000001_Node000017" class="edge">
<title>Node1&#45;&gt;Node17</title>
<g id="a_edge15_Node000001_Node000017"><a xlink:title=" ">
<path fill="none" stroke="#63b8ff" d="M307.08,-414.42C291.33,-409.82 273.99,-404.77 259.19,-400.45"/>
<polygon fill="#63b8ff" stroke="#63b8ff" points="305.66,-417.65 316.24,-417.09 307.62,-410.93 305.66,-417.65"/>
</a>
</g>
</g>
<!-- Node18 -->
<g id="Node000018" class="node">
<title>Node18</title>
<g id="a_Node000018"><a xlink:href="classbasic__json.html#afe1bb257797042aef7142c91f35390d8" target="_top" xlink:title="find an element in a JSON object">
<polygon fill="white" stroke="#666666" points="264.5,-362 180.25,-362 180.25,-342 264.5,-342 264.5,-362"/>
<text text-anchor="middle" x="222.38" y="-348.5" font-family="Helvetica,sans-Serif" font-size="10.00">basic_json::find</text>
</a>
</g>
</g>
<!-- Node1&#45;&gt;Node18 -->
<g id="edge16_Node000001_Node000018" class="edge">
<title>Node1&#45;&gt;Node18</title>
<g id="a_edge16_Node000001_Node000018"><a xlink:title=" ">
<path fill="none" stroke="#63b8ff" d="M334.68,-410.35C320.55,-397.96 300.32,-381.74 280.25,-371 274.1,-367.71 267.27,-364.84 260.55,-362.39"/>
<polygon fill="#63b8ff" stroke="#63b8ff" points="332.11,-412.75 341.89,-416.83 336.79,-407.54 332.11,-412.75"/>
</a>
</g>
</g>
<!-- Node19 -->
<g id="Node000019" class="node">
<title>Node19</title>
<g id="a_Node000019"><a xlink:href="classbasic__json.html#a3d3ea17617e94886f3e86ac921095a13" target="_top" xlink:title="access specified object element">
<polygon fill="white" stroke="#666666" points="277.25,-324 167.5,-324 167.5,-304 277.25,-304 277.25,-324"/>
<text text-anchor="middle" x="222.38" y="-310.5" font-family="Helvetica,sans-Serif" font-size="10.00">basic_json::operator[]</text>
</a>
</g>
</g>
<!-- Node1&#45;&gt;Node19 -->
<g id="edge17_Node000001_Node000019" class="edge">
<title>Node1&#45;&gt;Node19</title>
<g id="a_edge17_Node000001_Node000019"><a xlink:title=" ">
<path fill="none" stroke="#63b8ff" d="M342.69,-407.48C330.25,-386.01 308.03,-352.74 280.25,-333 275.5,-329.62 270.1,-326.81 264.57,-324.49"/>
<polygon fill="#63b8ff" stroke="#63b8ff" points="339.61,-409.15 347.54,-416.18 345.72,-405.74 339.61,-409.15"/>
</a>
</g>
</g>
<!-- Node20 -->
<g id="Node000020" class="node">
<title>Node20</title>
<g id="a_Node000020"><a xlink:href="classbasic__json.html#a06fe1a1c7aa8c193c73aa40b17ee5f68" target="_top" xlink:title="access specified object element">
<polygon fill="white" stroke="#666666" points="277.25,-286 167.5,-286 167.5,-266 277.25,-266 277.25,-286"/>
<text text-anchor="middle" x="222.38" y="-272.5" font-family="Helvetica,sans-Serif" font-size="10.00">basic_json::operator[]</text>
</a>
</g>
</g>
<!-- Node1&#45;&gt;Node20 -->
<g id="edge18_Node000001_Node000020" class="edge">
<title>Node1&#45;&gt;Node20</title>
<g id="a_edge18_Node000001_Node000020"><a xlink:title=" ">
<path fill="none" stroke="#63b8ff" d="M347.45,-407.06C337.8,-377.85 316.4,-325.11 280.25,-295 276.09,-291.54 271.27,-288.69 266.24,-286.37"/>
<polygon fill="#63b8ff" stroke="#63b8ff" points="344,-407.73 350.33,-416.22 350.67,-405.63 344,-407.73"/>
</a>
</g>
</g>
<!-- Node21 -->
<g id="Node000021" class="node">
<title>Node21</title>
<g id="a_Node000021"><a xlink:href="classbasic__json.html#a2e11a3f2a234cd296b515173b6a3b986" target="_top" xlink:title="access specified object element">
<polygon fill="white" stroke="#666666" points="277.25,-248 167.5,-248 167.5,-228 277.25,-228 277.25,-248"/>
<text text-anchor="middle" x="222.38" y="-234.5" font-family="Helvetica,sans-Serif" font-size="10.00">basic_json::operator[]</text>
</a>
</g>
</g>
<!-- Node1&#45;&gt;Node21 -->
<g id="edge19_Node000001_Node000021" class="edge">
<title>Node1&#45;&gt;Node21</title>
<g id="a_edge19_Node000001_Node000021"><a xlink:title=" ">
<path fill="none" stroke="#63b8ff" d="M350.29,-406.83C343.53,-370.96 324.9,-298.1 280.25,-257 276.5,-253.55 272.1,-250.72 267.43,-248.4"/>
<polygon fill="#63b8ff" stroke="#63b8ff" points="346.79,-407.13 351.95,-416.38 353.68,-405.93 346.79,-407.13"/>
</a>
</g>
</g>
<!-- Node22 -->
<g id="Node000022" class="node">
<title>Node22</title>
<g id="a_Node000022"><a xlink:href="classbasic__json.html#a9c5825034534bf9256a33d2dd995c25a" target="_top" xlink:title="access specified object element">
<polygon fill="white" stroke="#666666" points="277.25,-210 167.5,-210 167.5,-190 277.25,-190 277.25,-210"/>
<text text-anchor="middle" x="222.38" y="-196.5" font-family="Helvetica,sans-Serif" font-size="10.00">basic_json::operator[]</text>
</a>
</g>
</g>
<!-- Node1&#45;&gt;Node22 -->
<g id="edge20_Node000001_Node000022" class="edge">
<title>Node1&#45;&gt;Node22</title>
<g id="a_edge20_Node000001_Node000022"><a xlink:title=" ">
<path fill="none" stroke="#63b8ff" d="M352.15,-406.33C348.12,-364.32 333.39,-271.33 280.25,-219 276.76,-215.57 272.64,-212.75 268.23,-210.45"/>
<polygon fill="#63b8ff" stroke="#63b8ff" points="348.64,-406.45 352.96,-416.12 355.62,-405.87 348.64,-406.45"/>
</a>
</g>
</g>
<!-- Node23 -->
<g id="Node000023" class="node">
<title>Node23</title>
<g id="a_Node000023"><a xlink:href="classbasic__json.html#a4fcacc90f17b156f0b6c8e0430624853" target="_top" xlink:title="add an object to an object">
<polygon fill="white" stroke="#666666" points="280.25,-172 164.5,-172 164.5,-152 280.25,-152 280.25,-172"/>
<text text-anchor="middle" x="222.38" y="-158.5" font-family="Helvetica,sans-Serif" font-size="10.00">basic_json::push_back</text>
</a>
</g>
</g>
<!-- Node1&#45;&gt;Node23 -->
<g id="edge21_Node000001_Node000023" class="edge">
<title>Node1&#45;&gt;Node23</title>
<g id="a_edge21_Node000001_Node000023"><a xlink:title=" ">
<path fill="none" stroke="#63b8ff" d="M353.54,-406.4C352.17,-359.02 342.2,-245.07 280.25,-181 276.92,-177.56 272.95,-174.74 268.68,-172.43"/>
<polygon fill="#63b8ff" stroke="#63b8ff" points="350.04,-406.22 353.71,-416.15 357.04,-406.09 350.04,-406.22"/>
</a>
</g>
</g>
<!-- Node24 -->
<g id="Node000024" class="node">
<title>Node24</title>
<g id="a_Node000024"><a xlink:href="classbasic__json.html#a80c2436388fd16a1529ce9afce8229ef" target="_top" xlink:title="access specified object element with default value">
<polygon fill="white" stroke="#666666" points="268.25,-134 176.5,-134 176.5,-114 268.25,-114 268.25,-134"/>
<text text-anchor="middle" x="222.38" y="-120.5" font-family="Helvetica,sans-Serif" font-size="10.00">basic_json::value</text>
</a>
</g>
</g>
<!-- Node1&#45;&gt;Node24 -->
<g id="edge22_Node000001_Node000024" class="edge">
<title>Node1&#45;&gt;Node24</title>
<g id="a_edge22_Node000001_Node000024"><a xlink:title=" ">
<path fill="none" stroke="#63b8ff" d="M350.76,-406.39C342.44,-346.81 316.6,-182 280.25,-143 276.91,-139.42 272.89,-136.51 268.53,-134.16"/>
<polygon fill="#63b8ff" stroke="#63b8ff" points="347.28,-406.78 352.1,-416.22 354.21,-405.84 347.28,-406.78"/>
</a>
</g>
</g>
<!-- Node25 -->
<g id="Node000025" class="node">
<title>Node25</title>
<g id="a_Node000025"><a xlink:href="classbasic__json.html#a56244e0ed0943ad62faf61b06e7ba139" target="_top" xlink:title="access specified object element with default value">
<polygon fill="white" stroke="#666666" points="268.25,-96 176.5,-96 176.5,-76 268.25,-76 268.25,-96"/>
<text text-anchor="middle" x="222.38" y="-82.5" font-family="Helvetica,sans-Serif" font-size="10.00">basic_json::value</text>
</a>
</g>
</g>
<!-- Node1&#45;&gt;Node25 -->
<g id="edge23_Node000001_Node000025" class="edge">
<title>Node1&#45;&gt;Node25</title>
<g id="a_edge23_Node000001_Node000025"><a xlink:title=" ">
<path fill="none" stroke="#63b8ff" d="M351.48,-406.54C344.61,-341.82 321.14,-150.16 280.25,-105 276.97,-101.37 272.97,-98.44 268.64,-96.06"/>
<polygon fill="#63b8ff" stroke="#63b8ff" points="347.97,-406.62 352.48,-416.21 354.93,-405.9 347.97,-406.62"/>
</a>
</g>
</g>
<!-- Node26 -->
<g id="Node000026" class="node">
<title>Node26</title>
<g id="a_Node000026"><a xlink:href="classbasic__json.html#acbe572bbfbd4687a7a9167465e4d41f2" target="_top" xlink:title="access specified object element with default value">
<polygon fill="white" stroke="#666666" points="268.25,-58 176.5,-58 176.5,-38 268.25,-38 268.25,-58"/>
<text text-anchor="middle" x="222.38" y="-44.5" font-family="Helvetica,sans-Serif" font-size="10.00">basic_json::value</text>
</a>
</g>
</g>
<!-- Node1&#45;&gt;Node26 -->
<g id="edge24_Node000001_Node000026" class="edge">
<title>Node1&#45;&gt;Node26</title>
<g id="a_edge24_Node000001_Node000026"><a xlink:title=" ">
<path fill="none" stroke="#63b8ff" d="M352.02,-406.34C346.44,-336.42 325.64,-118.29 280.25,-67 277.01,-63.34 273.04,-60.38 268.72,-57.99"/>
<polygon fill="#63b8ff" stroke="#63b8ff" points="348.52,-406.39 352.78,-416.09 355.5,-405.85 348.52,-406.39"/>
</a>
</g>
</g>
<!-- Node27 -->
<g id="Node000027" class="node">
<title>Node27</title>
<g id="a_Node000027"><a xlink:href="classbasic__json.html#a694398741710ce1c22797ad47109898b" target="_top" xlink:title="access specified object element via JSON Pointer with default value">
<polygon fill="white" stroke="#666666" points="268.25,-20 176.5,-20 176.5,0 268.25,0 268.25,-20"/>
<text text-anchor="middle" x="222.38" y="-6.5" font-family="Helvetica,sans-Serif" font-size="10.00">basic_json::value</text>
</a>
</g>
</g>
<!-- Node1&#45;&gt;Node27 -->
<g id="edge25_Node000001_Node000027" class="edge">
<title>Node1&#45;&gt;Node27</title>
<g id="a_edge25_Node000001_Node000027"><a xlink:title=" ">
<path fill="none" stroke="#63b8ff" d="M352.49,-406.52C348.15,-332.08 330.24,-86.56 280.25,-29 276.97,-25.23 272.93,-22.2 268.51,-19.77"/>
<polygon fill="#63b8ff" stroke="#63b8ff" points="348.98,-406.35 353.03,-416.14 355.97,-405.96 348.98,-406.35"/>
</a>
</g>
</g>
<!-- Node13 -->
<g id="Node000013" class="node">
<title>Node13</title>
<g id="a_Node000013"><a xlink:href="classbasic__json.html#a699ef418df577e75f28dfce6b04d6c2f" target="_top" xlink:title="creates a diff as a JSON patch">
<polygon fill="white" stroke="#666666" points="104.88,-495 23.62,-495 23.62,-475 104.88,-475 104.88,-495"/>
<text text-anchor="middle" x="64.25" y="-481.5" font-family="Helvetica,sans-Serif" font-size="10.00">basic_json::diff</text>
</a>
</g>
</g>
<!-- Node12&#45;&gt;Node13 -->
<g id="edge12_Node000012_Node000013" class="edge">
<title>Node12&#45;&gt;Node13</title>
<g id="a_edge12_Node000012_Node000013"><a xlink:title=" ">
<path fill="none" stroke="#63b8ff" d="M168.74,-472.41C148,-474.93 124.57,-477.78 105.25,-480.13"/>
<polygon fill="#63b8ff" stroke="#63b8ff" points="168.94,-475.91 178.44,-471.22 168.09,-468.96 168.94,-475.91"/>
</a>
</g>
</g>
<!-- Node14 -->
<g id="Node000014" class="node">
<title>Node14</title>
<g id="a_Node000014"><a xlink:href="classbasic__json.html#a693812b31e106dec9166e93d8f6dd7d7" target="_top" xlink:title="applies a JSON patch in&#45;place without copying the object">
<polygon fill="#fff0f0" stroke="red" points="128.5,-457 0,-457 0,-437 128.5,-437 128.5,-457"/>
<text text-anchor="middle" x="64.25" y="-443.5" font-family="Helvetica,sans-Serif" font-size="10.00">basic_json::patch_inplace</text>
</a>
</g>
</g>
<!-- Node12&#45;&gt;Node14 -->
<g id="edge13_Node000012_Node000014" class="edge">
<title>Node12&#45;&gt;Node14</title>
<g id="a_edge13_Node000012_Node000014"><a xlink:title=" ">
<path fill="none" stroke="#63b8ff" d="M168.59,-459.58C155.86,-458.03 142.12,-456.36 128.96,-454.75"/>
<polygon fill="#63b8ff" stroke="#63b8ff" points="168.09,-463.04 178.44,-460.78 168.94,-456.09 168.09,-463.04"/>
</a>
</g>
</g>
</g>
</svg>
