<?xml version="1.0" encoding="UTF-8" standalone="no"?>
<!DOCTYPE svg PUBLIC "-//W3C//DTD SVG 1.1//EN"
 "http://www.w3.org/Graphics/SVG/1.1/DTD/svg11.dtd">
<!-- Generated by graphviz version 12.2.1 (20241206.2353)
 -->
<!-- Title: detail::container_input_adapter_factory_impl::container_input_adapter_factory&lt; ContainerType, Enable &gt; Pages: 1 -->
<svg width="126pt" height="108pt"
 viewBox="0.00 0.00 126.25 108.00" xmlns="http://www.w3.org/2000/svg" xmlns:xlink="http://www.w3.org/1999/xlink">
<g id="graph0" class="graph" transform="scale(1 1) rotate(0) translate(4 104)">
<title>detail::container_input_adapter_factory_impl::container_input_adapter_factory&lt; ContainerType, Enable &gt;</title>
<!-- Node1 -->
<g id="Node000001" class="node">
<title>Node1</title>
<g id="a_Node000001"><a xlink:title=" ">
<polygon fill="#999999" stroke="none" points="118.25,-100 0,-100 0,0 118.25,0 118.25,-100"/>
<text text-anchor="start" x="4" y="-86.5" font-family="Helvetica,sans-Serif" font-size="10.00">detail::container_input</text>
<text text-anchor="start" x="4" y="-74.5" font-family="Helvetica,sans-Serif" font-size="10.00">_adapter_factory_impl</text>
<text text-anchor="start" x="4" y="-62.5" font-family="Helvetica,sans-Serif" font-size="10.00">::container_input_adapter</text>
<text text-anchor="start" x="4" y="-50.5" font-family="Helvetica,sans-Serif" font-size="10.00">_factory&lt; ContainerType,</text>
<text text-anchor="start" x="38.12" y="-38.5" font-family="Helvetica,sans-Serif" font-size="10.00"> Enable &gt;</text>
<text text-anchor="start" x="57.62" y="-22.5" font-family="Helvetica,sans-Serif" font-size="10.00"> </text>
<text text-anchor="start" x="57.62" y="-6.5" font-family="Helvetica,sans-Serif" font-size="10.00"> </text>
<polygon fill="#666666" stroke="#666666" points="0,-34 0,-34 118.25,-34 118.25,-34 0,-34"/>
<polygon fill="#666666" stroke="#666666" points="0,-18 0,-18 118.25,-18 118.25,-18 0,-18"/>
<polygon fill="none" stroke="#666666" points="0,0 0,-100 118.25,-100 118.25,0 0,0"/>
</a>
</g>
</g>
</g>
</svg>
