<?xml version="1.0" encoding="UTF-8" standalone="no"?>
<!DOCTYPE svg PUBLIC "-//W3C//DTD SVG 1.1//EN"
 "http://www.w3.org/Graphics/SVG/1.1/DTD/svg11.dtd">
<!-- Generated by graphviz version 12.2.1 (20241206.2353)
 -->
<!-- Title: detail::is_constructible_tuple&lt; T1, std::tuple&lt; Args... &gt; &gt; Pages: 1 -->
<svg width="114pt" height="284pt"
 viewBox="0.00 0.00 113.50 284.00" xmlns="http://www.w3.org/2000/svg" xmlns:xlink="http://www.w3.org/1999/xlink">
<g id="graph0" class="graph" transform="scale(1 1) rotate(0) translate(4 280)">
<title>detail::is_constructible_tuple&lt; T1, std::tuple&lt; Args... &gt; &gt;</title>
<!-- Node1 -->
<g id="Node000001" class="node">
<title>Node1</title>
<g id="a_Node000001"><a xlink:title=" ">
<polygon fill="#999999" stroke="none" points="105.5,-76 0,-76 0,0 105.5,0 105.5,-76"/>
<text text-anchor="start" x="4" y="-62.5" font-family="Helvetica,sans-Serif" font-size="10.00">detail::is_constructible</text>
<text text-anchor="start" x="4" y="-50.5" font-family="Helvetica,sans-Serif" font-size="10.00">_tuple&lt; T1, std::tuple</text>
<text text-anchor="start" x="25" y="-38.5" font-family="Helvetica,sans-Serif" font-size="10.00">&lt; Args... &gt; &gt;</text>
<text text-anchor="start" x="51.25" y="-22.5" font-family="Helvetica,sans-Serif" font-size="10.00"> </text>
<text text-anchor="start" x="51.25" y="-6.5" font-family="Helvetica,sans-Serif" font-size="10.00"> </text>
<polygon fill="#666666" stroke="#666666" points="0,-34 0,-34 105.5,-34 105.5,-34 0,-34"/>
<polygon fill="#666666" stroke="#666666" points="0,-18 0,-18 105.5,-18 105.5,-18 0,-18"/>
<polygon fill="none" stroke="#666666" points="0,0 0,-76 105.5,-76 105.5,0 0,0"/>
</a>
</g>
</g>
<!-- Node2 -->
<g id="Node000002" class="node">
<title>Node2</title>
<g id="a_Node000002"><a xlink:href="structdetail_1_1conjunction.html" target="_top" xlink:title=" ">
<polygon fill="white" stroke="none" points="98.38,-188 7.12,-188 7.12,-112 98.38,-112 98.38,-188"/>
<text text-anchor="start" x="11.12" y="-174.5" font-family="Helvetica,sans-Serif" font-size="10.00">detail::conjunction</text>
<text text-anchor="start" x="11.12" y="-162.5" font-family="Helvetica,sans-Serif" font-size="10.00">&lt; is_constructible&lt;</text>
<text text-anchor="start" x="19.75" y="-150.5" font-family="Helvetica,sans-Serif" font-size="10.00"> T1, Args &gt;... &gt;</text>
<text text-anchor="start" x="51.25" y="-134.5" font-family="Helvetica,sans-Serif" font-size="10.00"> </text>
<text text-anchor="start" x="51.25" y="-118.5" font-family="Helvetica,sans-Serif" font-size="10.00"> </text>
<polygon fill="#bfbfbf" stroke="#bfbfbf" points="7.12,-146 7.12,-146 98.38,-146 98.38,-146 7.12,-146"/>
<polygon fill="#bfbfbf" stroke="#bfbfbf" points="7.12,-130 7.12,-130 98.38,-130 98.38,-130 7.12,-130"/>
<polygon fill="none" stroke="#bfbfbf" points="7.12,-112 7.12,-188 98.38,-188 98.38,-112 7.12,-112"/>
</a>
</g>
</g>
<!-- Node2&#45;&gt;Node1 -->
<g id="edge1_Node000001_Node000002" class="edge">
<title>Node2&#45;&gt;Node1</title>
<g id="a_edge1_Node000001_Node000002"><a xlink:title=" ">
<path fill="none" stroke="#63b8ff" d="M52.75,-100.78C52.75,-92.35 52.75,-83.7 52.75,-75.65"/>
<polygon fill="none" stroke="#63b8ff" points="49.25,-100.55 52.75,-110.55 56.25,-100.55 49.25,-100.55"/>
</a>
</g>
</g>
<!-- Node3 -->
<g id="Node000003" class="node">
<title>Node3</title>
<g id="a_Node000003"><a xlink:title=" ">
<polygon fill="white" stroke="none" points="86.75,-276 18.75,-276 18.75,-224 86.75,-224 86.75,-276"/>
<text text-anchor="start" x="22.75" y="-262.5" font-family="Helvetica,sans-Serif" font-size="10.00">std::true_type</text>
<text text-anchor="start" x="51.25" y="-246.5" font-family="Helvetica,sans-Serif" font-size="10.00"> </text>
<text text-anchor="start" x="51.25" y="-230.5" font-family="Helvetica,sans-Serif" font-size="10.00"> </text>
<polygon fill="#bfbfbf" stroke="#bfbfbf" points="18.75,-258 18.75,-258 86.75,-258 86.75,-258 18.75,-258"/>
<polygon fill="#bfbfbf" stroke="#bfbfbf" points="18.75,-242 18.75,-242 86.75,-242 86.75,-242 18.75,-242"/>
<polygon fill="none" stroke="#bfbfbf" points="18.75,-224 18.75,-276 86.75,-276 86.75,-224 18.75,-224"/>
</a>
</g>
</g>
<!-- Node3&#45;&gt;Node2 -->
<g id="edge2_Node000002_Node000003" class="edge">
<title>Node3&#45;&gt;Node2</title>
<g id="a_edge2_Node000002_Node000003"><a xlink:title=" ">
<path fill="none" stroke="#63b8ff" d="M52.75,-212.61C52.75,-204.5 52.75,-195.9 52.75,-187.78"/>
<polygon fill="none" stroke="#63b8ff" points="49.25,-212.5 52.75,-222.5 56.25,-212.5 49.25,-212.5"/>
</a>
</g>
</g>
</g>
</svg>
