<?xml version="1.0" encoding="UTF-8" standalone="no"?>
<!DOCTYPE svg PUBLIC "-//W3C//DTD SVG 1.1//EN"
 "http://www.w3.org/Graphics/SVG/1.1/DTD/svg11.dtd">
<!-- Generated by graphviz version 12.2.1 (20241206.2353)
 -->
<!-- Title: detail::is_constructible&lt; T, Args &gt; Pages: 1 -->
<svg width="114pt" height="172pt"
 viewBox="0.00 0.00 113.50 172.00" xmlns="http://www.w3.org/2000/svg" xmlns:xlink="http://www.w3.org/1999/xlink">
<g id="graph0" class="graph" transform="scale(1 1) rotate(0) translate(4 168)">
<title>detail::is_constructible&lt; T, Args &gt;</title>
<!-- Node1 -->
<g id="Node000001" class="node">
<title>Node1</title>
<g id="a_Node000001"><a xlink:title=" ">
<polygon fill="#999999" stroke="none" points="105.5,-64 0,-64 0,0 105.5,0 105.5,-64"/>
<text text-anchor="start" x="4" y="-50.5" font-family="Helvetica,sans-Serif" font-size="10.00">detail::is_constructible</text>
<text text-anchor="start" x="28.75" y="-38.5" font-family="Helvetica,sans-Serif" font-size="10.00">&lt; T, Args &gt;</text>
<text text-anchor="start" x="51.25" y="-22.5" font-family="Helvetica,sans-Serif" font-size="10.00"> </text>
<text text-anchor="start" x="51.25" y="-6.5" font-family="Helvetica,sans-Serif" font-size="10.00"> </text>
<polygon fill="#666666" stroke="#666666" points="0,-34 0,-34 105.5,-34 105.5,-34 0,-34"/>
<polygon fill="#666666" stroke="#666666" points="0,-18 0,-18 105.5,-18 105.5,-18 0,-18"/>
<polygon fill="none" stroke="#666666" points="0,0 0,-64 105.5,-64 105.5,0 0,0"/>
</a>
</g>
</g>
<!-- Node2 -->
<g id="Node000002" class="node">
<title>Node2</title>
<g id="a_Node000002"><a xlink:title=" ">
<polygon fill="white" stroke="none" points="100.62,-164 4.88,-164 4.88,-100 100.62,-100 100.62,-164"/>
<text text-anchor="start" x="8.88" y="-150.5" font-family="Helvetica,sans-Serif" font-size="10.00">std::is_constructible</text>
<text text-anchor="start" x="24.25" y="-138.5" font-family="Helvetica,sans-Serif" font-size="10.00">&lt; T, Args... &gt;</text>
<text text-anchor="start" x="51.25" y="-122.5" font-family="Helvetica,sans-Serif" font-size="10.00"> </text>
<text text-anchor="start" x="51.25" y="-106.5" font-family="Helvetica,sans-Serif" font-size="10.00"> </text>
<polygon fill="#bfbfbf" stroke="#bfbfbf" points="4.88,-134 4.88,-134 100.62,-134 100.62,-134 4.88,-134"/>
<polygon fill="#bfbfbf" stroke="#bfbfbf" points="4.88,-118 4.88,-118 100.62,-118 100.62,-118 4.88,-118"/>
<polygon fill="none" stroke="#bfbfbf" points="4.88,-100 4.88,-164 100.62,-164 100.62,-100 4.88,-100"/>
</a>
</g>
</g>
<!-- Node2&#45;&gt;Node1 -->
<g id="edge1_Node000001_Node000002" class="edge">
<title>Node2&#45;&gt;Node1</title>
<g id="a_edge1_Node000001_Node000002"><a xlink:title=" ">
<path fill="none" stroke="#63b8ff" d="M52.75,-88.77C52.75,-80.44 52.75,-71.84 52.75,-63.97"/>
<polygon fill="none" stroke="#63b8ff" points="49.25,-88.75 52.75,-98.75 56.25,-88.75 49.25,-88.75"/>
</a>
</g>
</g>
</g>
</svg>
