<?xml version="1.0" encoding="UTF-8" standalone="no"?>
<!DOCTYPE svg PUBLIC "-//W3C//DTD SVG 1.1//EN"
 "http://www.w3.org/Graphics/SVG/1.1/DTD/svg11.dtd">
<!-- Generated by graphviz version 12.2.1 (20241206.2353)
 -->
<!-- Title: detail::static_const&lt; T &gt; Pages: 1 -->
<svg width="122pt" height="60pt"
 viewBox="0.00 0.00 121.75 60.00" xmlns="http://www.w3.org/2000/svg" xmlns:xlink="http://www.w3.org/1999/xlink">
<g id="graph0" class="graph" transform="scale(1 1) rotate(0) translate(4 56)">
<title>detail::static_const&lt; T &gt;</title>
<!-- Node1 -->
<g id="Node000001" class="node">
<title>Node1</title>
<g id="a_Node000001"><a xlink:title=" ">
<polygon fill="#999999" stroke="none" points="113.75,-52 0,-52 0,0 113.75,0 113.75,-52"/>
<text text-anchor="start" x="4" y="-38.5" font-family="Helvetica,sans-Serif" font-size="10.00">detail::static_const&lt; T &gt;</text>
<text text-anchor="start" x="22.12" y="-22.5" font-family="Helvetica,sans-Serif" font-size="10.00">+</text>
<text text-anchor="start" x="50.25" y="-22.5" font-family="Helvetica,sans-Serif" font-size="10.00">value</text>
<text text-anchor="start" x="55.38" y="-6.5" font-family="Helvetica,sans-Serif" font-size="10.00"> </text>
<polygon fill="#666666" stroke="#666666" points="0,-34 0,-34 113.75,-34 113.75,-34 0,-34"/>
<polygon fill="#666666" stroke="#666666" points="0,-18 0,-18 48.25,-18 48.25,-18 0,-18"/>
<polygon fill="#666666" stroke="#666666" points="48.25,-18 48.25,-18 113.75,-18 113.75,-18 48.25,-18"/>
<polygon fill="none" stroke="#666666" points="0,0 0,-52 113.75,-52 113.75,0 0,0"/>
</a>
</g>
</g>
</g>
</svg>
