<?xml version="1.0" encoding="UTF-8" standalone="no"?>
<!DOCTYPE svg PUBLIC "-//W3C//DTD SVG 1.1//EN"
 "http://www.w3.org/Graphics/SVG/1.1/DTD/svg11.dtd">
<!-- Generated by graphviz version 12.2.1 (20241206.2353)
 -->
<!-- Title: detail::is_compatible_array_type_impl&lt; BasicJsonType, CompatibleArrayType, typename &gt; Pages: 1 -->
<svg width="145pt" height="184pt"
 viewBox="0.00 0.00 145.00 184.00" xmlns="http://www.w3.org/2000/svg" xmlns:xlink="http://www.w3.org/1999/xlink">
<g id="graph0" class="graph" transform="scale(1 1) rotate(0) translate(4 180)">
<title>detail::is_compatible_array_type_impl&lt; BasicJsonType, CompatibleArrayType, typename &gt;</title>
<!-- Node1 -->
<g id="Node000001" class="node">
<title>Node1</title>
<g id="a_Node000001"><a xlink:title=" ">
<polygon fill="#999999" stroke="none" points="137,-88 0,-88 0,0 137,0 137,-88"/>
<text text-anchor="start" x="4" y="-74.5" font-family="Helvetica,sans-Serif" font-size="10.00">detail::is_compatible</text>
<text text-anchor="start" x="4" y="-62.5" font-family="Helvetica,sans-Serif" font-size="10.00">_array_type_impl&lt; BasicJson</text>
<text text-anchor="start" x="4" y="-50.5" font-family="Helvetica,sans-Serif" font-size="10.00">Type, CompatibleArrayType,</text>
<text text-anchor="start" x="41.12" y="-38.5" font-family="Helvetica,sans-Serif" font-size="10.00"> typename &gt;</text>
<text text-anchor="start" x="67" y="-22.5" font-family="Helvetica,sans-Serif" font-size="10.00"> </text>
<text text-anchor="start" x="67" y="-6.5" font-family="Helvetica,sans-Serif" font-size="10.00"> </text>
<polygon fill="#666666" stroke="#666666" points="0,-34 0,-34 137,-34 137,-34 0,-34"/>
<polygon fill="#666666" stroke="#666666" points="0,-18 0,-18 137,-18 137,-18 0,-18"/>
<polygon fill="none" stroke="#666666" points="0,0 0,-88 137,-88 137,0 0,0"/>
</a>
</g>
</g>
<!-- Node2 -->
<g id="Node000002" class="node">
<title>Node2</title>
<g id="a_Node000002"><a xlink:title=" ">
<polygon fill="white" stroke="none" points="104.75,-176 32.25,-176 32.25,-124 104.75,-124 104.75,-176"/>
<text text-anchor="start" x="36.25" y="-162.5" font-family="Helvetica,sans-Serif" font-size="10.00">std::false_type</text>
<text text-anchor="start" x="67" y="-146.5" font-family="Helvetica,sans-Serif" font-size="10.00"> </text>
<text text-anchor="start" x="67" y="-130.5" font-family="Helvetica,sans-Serif" font-size="10.00"> </text>
<polygon fill="#bfbfbf" stroke="#bfbfbf" points="32.25,-158 32.25,-158 104.75,-158 104.75,-158 32.25,-158"/>
<polygon fill="#bfbfbf" stroke="#bfbfbf" points="32.25,-142 32.25,-142 104.75,-142 104.75,-142 32.25,-142"/>
<polygon fill="none" stroke="#bfbfbf" points="32.25,-124 32.25,-176 104.75,-176 104.75,-124 32.25,-124"/>
</a>
</g>
</g>
<!-- Node2&#45;&gt;Node1 -->
<g id="edge1_Node000001_Node000002" class="edge">
<title>Node2&#45;&gt;Node1</title>
<g id="a_edge1_Node000001_Node000002"><a xlink:title=" ">
<path fill="none" stroke="#63b8ff" d="M68.5,-112.84C68.5,-104.83 68.5,-96.25 68.5,-87.99"/>
<polygon fill="none" stroke="#63b8ff" points="65,-112.58 68.5,-122.58 72,-112.58 65,-112.58"/>
</a>
</g>
</g>
</g>
</svg>
