<?xml version="1.0" encoding="UTF-8" standalone="no"?>
<!DOCTYPE svg PUBLIC "-//W3C//DTD SVG 1.1//EN"
 "http://www.w3.org/Graphics/SVG/1.1/DTD/svg11.dtd">
<!-- Generated by graphviz version 12.2.1 (20241206.2353)
 -->
<!-- Title: detail::is_c_string&lt; T &gt; Pages: 1 -->
<svg width="116pt" height="160pt"
 viewBox="0.00 0.00 115.75 160.00" xmlns="http://www.w3.org/2000/svg" xmlns:xlink="http://www.w3.org/1999/xlink">
<g id="graph0" class="graph" transform="scale(1 1) rotate(0) translate(4 156)">
<title>detail::is_c_string&lt; T &gt;</title>
<!-- Node1 -->
<g id="Node000001" class="node">
<title>Node1</title>
<g id="a_Node000001"><a xlink:title=" ">
<polygon fill="#999999" stroke="none" points="107.75,-52 0,-52 0,0 107.75,0 107.75,-52"/>
<text text-anchor="start" x="4" y="-38.5" font-family="Helvetica,sans-Serif" font-size="10.00">detail::is_c_string&lt; T &gt;</text>
<text text-anchor="start" x="52.38" y="-22.5" font-family="Helvetica,sans-Serif" font-size="10.00"> </text>
<text text-anchor="start" x="52.38" y="-6.5" font-family="Helvetica,sans-Serif" font-size="10.00"> </text>
<polygon fill="#666666" stroke="#666666" points="0,-34 0,-34 107.75,-34 107.75,-34 0,-34"/>
<polygon fill="#666666" stroke="#666666" points="0,-18 0,-18 107.75,-18 107.75,-18 0,-18"/>
<polygon fill="none" stroke="#666666" points="0,0 0,-52 107.75,-52 107.75,0 0,0"/>
</a>
</g>
</g>
<!-- Node2 -->
<g id="Node000002" class="node">
<title>Node2</title>
<g id="a_Node000002"><a xlink:title=" ">
<polygon fill="white" stroke="none" points="102.12,-152 5.62,-152 5.62,-88 102.12,-88 102.12,-152"/>
<text text-anchor="start" x="9.62" y="-138.5" font-family="Helvetica,sans-Serif" font-size="10.00">bool_constant&lt; impl</text>
<text text-anchor="start" x="9.62" y="-126.5" font-family="Helvetica,sans-Serif" font-size="10.00">::is_c_string&lt; T &gt;()&gt;</text>
<text text-anchor="start" x="52.38" y="-110.5" font-family="Helvetica,sans-Serif" font-size="10.00"> </text>
<text text-anchor="start" x="52.38" y="-94.5" font-family="Helvetica,sans-Serif" font-size="10.00"> </text>
<polygon fill="#bfbfbf" stroke="#bfbfbf" points="5.62,-122 5.62,-122 102.12,-122 102.12,-122 5.62,-122"/>
<polygon fill="#bfbfbf" stroke="#bfbfbf" points="5.62,-106 5.62,-106 102.12,-106 102.12,-106 5.62,-106"/>
<polygon fill="none" stroke="#bfbfbf" points="5.62,-88 5.62,-152 102.12,-152 102.12,-88 5.62,-88"/>
</a>
</g>
</g>
<!-- Node2&#45;&gt;Node1 -->
<g id="edge1_Node000001_Node000002" class="edge">
<title>Node2&#45;&gt;Node1</title>
<g id="a_edge1_Node000001_Node000002"><a xlink:title=" ">
<path fill="none" stroke="#63b8ff" d="M53.88,-76.72C53.88,-68.21 53.88,-59.53 53.88,-51.86"/>
<polygon fill="none" stroke="#63b8ff" points="50.38,-76.6 53.88,-86.6 57.38,-76.6 50.38,-76.6"/>
</a>
</g>
</g>
</g>
</svg>
