<?xml version="1.0" encoding="UTF-8" standalone="no"?>
<!DOCTYPE svg PUBLIC "-//W3C//DTD SVG 1.1//EN"
 "http://www.w3.org/Graphics/SVG/1.1/DTD/svg11.dtd">
<!-- Generated by graphviz version 12.2.1 (20241206.2353)
 -->
<!-- Title: detail::is_constructible_object_type_impl&lt; BasicJsonType, ConstructibleObjectType, typename &gt; Pages: 1 -->
<svg width="184pt" height="284pt"
 viewBox="0.00 0.00 184.00 284.00" xmlns="http://www.w3.org/2000/svg" xmlns:xlink="http://www.w3.org/1999/xlink">
<g id="graph0" class="graph" transform="scale(1 1) rotate(0) translate(4 280)">
<title>detail::is_constructible_object_type_impl&lt; BasicJsonType, ConstructibleObjectType, typename &gt;</title>
<!-- Node1 -->
<g id="Node000001" class="node">
<title>Node1</title>
<g id="a_Node000001"><a xlink:title=" ">
<polygon fill="#999999" stroke="none" points="176,-188 0,-188 0,-112 176,-112 176,-188"/>
<text text-anchor="start" x="4" y="-174.5" font-family="Helvetica,sans-Serif" font-size="10.00">detail::is_constructible</text>
<text text-anchor="start" x="4" y="-162.5" font-family="Helvetica,sans-Serif" font-size="10.00">_object_type_impl&lt; BasicJsonType,</text>
<text text-anchor="start" x="4" y="-150.5" font-family="Helvetica,sans-Serif" font-size="10.00"> ConstructibleObjectType, typename &gt;</text>
<text text-anchor="start" x="86.5" y="-134.5" font-family="Helvetica,sans-Serif" font-size="10.00"> </text>
<text text-anchor="start" x="86.5" y="-118.5" font-family="Helvetica,sans-Serif" font-size="10.00"> </text>
<polygon fill="#666666" stroke="#666666" points="0,-146 0,-146 176,-146 176,-146 0,-146"/>
<polygon fill="#666666" stroke="#666666" points="0,-130 0,-130 176,-130 176,-130 0,-130"/>
<polygon fill="none" stroke="#666666" points="0,-112 0,-188 176,-188 176,-112 0,-112"/>
</a>
</g>
</g>
<!-- Node3 -->
<g id="Node000003" class="node">
<title>Node3</title>
<g id="a_Node000003"><a xlink:href="structdetail_1_1is__constructible__object__type.html" target="_top" xlink:title=" ">
<polygon fill="white" stroke="none" points="159.12,-76 16.88,-76 16.88,0 159.12,0 159.12,-76"/>
<text text-anchor="start" x="20.88" y="-62.5" font-family="Helvetica,sans-Serif" font-size="10.00">detail::is_constructible</text>
<text text-anchor="start" x="20.88" y="-50.5" font-family="Helvetica,sans-Serif" font-size="10.00">_object_type&lt; BasicJsonType,</text>
<text text-anchor="start" x="28.38" y="-38.5" font-family="Helvetica,sans-Serif" font-size="10.00"> ConstructibleObjectType &gt;</text>
<text text-anchor="start" x="86.5" y="-22.5" font-family="Helvetica,sans-Serif" font-size="10.00"> </text>
<text text-anchor="start" x="86.5" y="-6.5" font-family="Helvetica,sans-Serif" font-size="10.00"> </text>
<polygon fill="#bfbfbf" stroke="#bfbfbf" points="16.88,-34 16.88,-34 159.12,-34 159.12,-34 16.88,-34"/>
<polygon fill="#bfbfbf" stroke="#bfbfbf" points="16.88,-18 16.88,-18 159.12,-18 159.12,-18 16.88,-18"/>
<polygon fill="none" stroke="#bfbfbf" points="16.88,0 16.88,-76 159.12,-76 159.12,0 16.88,0"/>
</a>
</g>
</g>
<!-- Node1&#45;&gt;Node3 -->
<g id="edge2_Node000001_Node000003" class="edge">
<title>Node1&#45;&gt;Node3</title>
<g id="a_edge2_Node000001_Node000003"><a xlink:title=" ">
<path fill="none" stroke="#63b8ff" d="M88,-100.78C88,-92.35 88,-83.7 88,-75.65"/>
<polygon fill="none" stroke="#63b8ff" points="84.5,-100.55 88,-110.55 91.5,-100.55 84.5,-100.55"/>
</a>
</g>
</g>
<!-- Node2 -->
<g id="Node000002" class="node">
<title>Node2</title>
<g id="a_Node000002"><a xlink:title=" ">
<polygon fill="white" stroke="none" points="124.25,-276 51.75,-276 51.75,-224 124.25,-224 124.25,-276"/>
<text text-anchor="start" x="55.75" y="-262.5" font-family="Helvetica,sans-Serif" font-size="10.00">std::false_type</text>
<text text-anchor="start" x="86.5" y="-246.5" font-family="Helvetica,sans-Serif" font-size="10.00"> </text>
<text text-anchor="start" x="86.5" y="-230.5" font-family="Helvetica,sans-Serif" font-size="10.00"> </text>
<polygon fill="#bfbfbf" stroke="#bfbfbf" points="51.75,-258 51.75,-258 124.25,-258 124.25,-258 51.75,-258"/>
<polygon fill="#bfbfbf" stroke="#bfbfbf" points="51.75,-242 51.75,-242 124.25,-242 124.25,-242 51.75,-242"/>
<polygon fill="none" stroke="#bfbfbf" points="51.75,-224 51.75,-276 124.25,-276 124.25,-224 51.75,-224"/>
</a>
</g>
</g>
<!-- Node2&#45;&gt;Node1 -->
<g id="edge1_Node000001_Node000002" class="edge">
<title>Node2&#45;&gt;Node1</title>
<g id="a_edge1_Node000001_Node000002"><a xlink:title=" ">
<path fill="none" stroke="#63b8ff" d="M88,-212.61C88,-204.5 88,-195.9 88,-187.78"/>
<polygon fill="none" stroke="#63b8ff" points="84.5,-212.5 88,-222.5 91.5,-212.5 84.5,-212.5"/>
</a>
</g>
</g>
</g>
</svg>
