<?xml version="1.0" encoding="UTF-8" standalone="no"?>
<!DOCTYPE svg PUBLIC "-//W3C//DTD SVG 1.1//EN"
 "http://www.w3.org/Graphics/SVG/1.1/DTD/svg11.dtd">
<!-- Generated by graphviz version 12.2.1 (20241206.2353)
 -->
<!-- Title: detail::external_constructor&lt; value_t::string &gt; Pages: 1 -->
<svg width="134pt" height="104pt"
 viewBox="0.00 0.00 133.75 104.00" xmlns="http://www.w3.org/2000/svg" xmlns:xlink="http://www.w3.org/1999/xlink">
<g id="graph0" class="graph" transform="scale(1 1) rotate(0) translate(4 100)">
<title>detail::external_constructor&lt; value_t::string &gt;</title>
<!-- Node1 -->
<g id="Node000001" class="node">
<title>Node1</title>
<g id="a_Node000001"><a xlink:title=" ">
<polygon fill="#999999" stroke="none" points="125.75,-96 0,-96 0,0 125.75,0 125.75,-96"/>
<text text-anchor="start" x="4" y="-82.5" font-family="Helvetica,sans-Serif" font-size="10.00">detail::external_constructor</text>
<text text-anchor="start" x="23.12" y="-70.5" font-family="Helvetica,sans-Serif" font-size="10.00">&lt; value_t::string &gt;</text>
<text text-anchor="start" x="61.38" y="-54.5" font-family="Helvetica,sans-Serif" font-size="10.00"> </text>
<text text-anchor="start" x="19.31" y="-38.5" font-family="Helvetica,sans-Serif" font-size="10.00">+</text>
<text text-anchor="start" x="44.62" y="-38.5" font-family="Helvetica,sans-Serif" font-size="10.00">construct()</text>
<text text-anchor="start" x="19.31" y="-22.5" font-family="Helvetica,sans-Serif" font-size="10.00">+</text>
<text text-anchor="start" x="44.62" y="-22.5" font-family="Helvetica,sans-Serif" font-size="10.00">construct()</text>
<text text-anchor="start" x="19.31" y="-6.5" font-family="Helvetica,sans-Serif" font-size="10.00">+</text>
<text text-anchor="start" x="44.62" y="-6.5" font-family="Helvetica,sans-Serif" font-size="10.00">construct()</text>
<polygon fill="#666666" stroke="#666666" points="0,-66 0,-66 125.75,-66 125.75,-66 0,-66"/>
<polygon fill="#666666" stroke="#666666" points="0,-50 0,-50 125.75,-50 125.75,-50 0,-50"/>
<polygon fill="none" stroke="#666666" points="0,0 0,-96 125.75,-96 125.75,0 0,0"/>
</a>
</g>
</g>
</g>
</svg>
