<?xml version="1.0" encoding="UTF-8" standalone="no"?>
<!DOCTYPE svg PUBLIC "-//W3C//DTD SVG 1.1//EN"
 "http://www.w3.org/Graphics/SVG/1.1/DTD/svg11.dtd">
<!-- Generated by graphviz version 12.2.1 (20241206.2353)
 -->
<!-- Title: detail::is_constructible_tuple&lt; T1, T2 &gt; Pages: 1 -->
<svg width="114pt" height="160pt"
 viewBox="0.00 0.00 113.50 160.00" xmlns="http://www.w3.org/2000/svg" xmlns:xlink="http://www.w3.org/1999/xlink">
<g id="graph0" class="graph" transform="scale(1 1) rotate(0) translate(4 156)">
<title>detail::is_constructible_tuple&lt; T1, T2 &gt;</title>
<!-- Node1 -->
<g id="Node000001" class="node">
<title>Node1</title>
<g id="a_Node000001"><a xlink:title=" ">
<polygon fill="#999999" stroke="none" points="105.5,-64 0,-64 0,0 105.5,0 105.5,-64"/>
<text text-anchor="start" x="4" y="-50.5" font-family="Helvetica,sans-Serif" font-size="10.00">detail::is_constructible</text>
<text text-anchor="start" x="17.12" y="-38.5" font-family="Helvetica,sans-Serif" font-size="10.00">_tuple&lt; T1, T2 &gt;</text>
<text text-anchor="start" x="51.25" y="-22.5" font-family="Helvetica,sans-Serif" font-size="10.00"> </text>
<text text-anchor="start" x="51.25" y="-6.5" font-family="Helvetica,sans-Serif" font-size="10.00"> </text>
<polygon fill="#666666" stroke="#666666" points="0,-34 0,-34 105.5,-34 105.5,-34 0,-34"/>
<polygon fill="#666666" stroke="#666666" points="0,-18 0,-18 105.5,-18 105.5,-18 0,-18"/>
<polygon fill="none" stroke="#666666" points="0,0 0,-64 105.5,-64 105.5,0 0,0"/>
</a>
</g>
</g>
<!-- Node2 -->
<g id="Node000002" class="node">
<title>Node2</title>
<g id="a_Node000002"><a xlink:title=" ">
<polygon fill="white" stroke="none" points="89,-152 16.5,-152 16.5,-100 89,-100 89,-152"/>
<text text-anchor="start" x="20.5" y="-138.5" font-family="Helvetica,sans-Serif" font-size="10.00">std::false_type</text>
<text text-anchor="start" x="51.25" y="-122.5" font-family="Helvetica,sans-Serif" font-size="10.00"> </text>
<text text-anchor="start" x="51.25" y="-106.5" font-family="Helvetica,sans-Serif" font-size="10.00"> </text>
<polygon fill="#bfbfbf" stroke="#bfbfbf" points="16.5,-134 16.5,-134 89,-134 89,-134 16.5,-134"/>
<polygon fill="#bfbfbf" stroke="#bfbfbf" points="16.5,-118 16.5,-118 89,-118 89,-118 16.5,-118"/>
<polygon fill="none" stroke="#bfbfbf" points="16.5,-100 16.5,-152 89,-152 89,-100 16.5,-100"/>
</a>
</g>
</g>
<!-- Node2&#45;&gt;Node1 -->
<g id="edge1_Node000001_Node000002" class="edge">
<title>Node2&#45;&gt;Node1</title>
<g id="a_edge1_Node000001_Node000002"><a xlink:title=" ">
<path fill="none" stroke="#63b8ff" d="M52.75,-89.06C52.75,-80.78 52.75,-72.04 52.75,-63.98"/>
<polygon fill="none" stroke="#63b8ff" points="49.25,-88.83 52.75,-98.83 56.25,-88.83 49.25,-88.83"/>
</a>
</g>
</g>
</g>
</svg>
