<?xml version="1.0" encoding="UTF-8" standalone="no"?>
<!DOCTYPE svg PUBLIC "-//W3C//DTD SVG 1.1//EN"
 "http://www.w3.org/Graphics/SVG/1.1/DTD/svg11.dtd">
<!-- Generated by graphviz version 12.2.1 (20241206.2353)
 -->
<!-- Title: detail::char_traits&lt; T &gt; Pages: 1 -->
<svg width="114pt" height="148pt"
 viewBox="0.00 0.00 114.25 148.00" xmlns="http://www.w3.org/2000/svg" xmlns:xlink="http://www.w3.org/1999/xlink">
<g id="graph0" class="graph" transform="scale(1 1) rotate(0) translate(4 144)">
<title>detail::char_traits&lt; T &gt;</title>
<!-- Node1 -->
<g id="Node000001" class="node">
<title>Node1</title>
<g id="a_Node000001"><a xlink:title=" ">
<polygon fill="#999999" stroke="none" points="106.25,-52 0,-52 0,0 106.25,0 106.25,-52"/>
<text text-anchor="start" x="4" y="-38.5" font-family="Helvetica,sans-Serif" font-size="10.00">detail::char_traits&lt; T &gt;</text>
<text text-anchor="start" x="51.62" y="-22.5" font-family="Helvetica,sans-Serif" font-size="10.00"> </text>
<text text-anchor="start" x="51.62" y="-6.5" font-family="Helvetica,sans-Serif" font-size="10.00"> </text>
<polygon fill="#666666" stroke="#666666" points="0,-34 0,-34 106.25,-34 106.25,-34 0,-34"/>
<polygon fill="#666666" stroke="#666666" points="0,-18 0,-18 106.25,-18 106.25,-18 0,-18"/>
<polygon fill="none" stroke="#666666" points="0,0 0,-52 106.25,-52 106.25,0 0,0"/>
</a>
</g>
</g>
<!-- Node2 -->
<g id="Node000002" class="node">
<title>Node2</title>
<g id="a_Node000002"><a xlink:title=" ">
<polygon fill="white" stroke="none" points="101.38,-140 4.88,-140 4.88,-88 101.38,-88 101.38,-140"/>
<text text-anchor="start" x="8.88" y="-126.5" font-family="Helvetica,sans-Serif" font-size="10.00">std::char_traits&lt; T &gt;</text>
<text text-anchor="start" x="51.62" y="-110.5" font-family="Helvetica,sans-Serif" font-size="10.00"> </text>
<text text-anchor="start" x="51.62" y="-94.5" font-family="Helvetica,sans-Serif" font-size="10.00"> </text>
<polygon fill="#bfbfbf" stroke="#bfbfbf" points="4.88,-122 4.88,-122 101.38,-122 101.38,-122 4.88,-122"/>
<polygon fill="#bfbfbf" stroke="#bfbfbf" points="4.88,-106 4.88,-106 101.38,-106 101.38,-106 4.88,-106"/>
<polygon fill="none" stroke="#bfbfbf" points="4.88,-88 4.88,-140 101.38,-140 101.38,-88 4.88,-88"/>
</a>
</g>
</g>
<!-- Node2&#45;&gt;Node1 -->
<g id="edge1_Node000001_Node000002" class="edge">
<title>Node2&#45;&gt;Node1</title>
<g id="a_edge1_Node000001_Node000002"><a xlink:title=" ">
<path fill="none" stroke="#63b8ff" d="M53.12,-76.66C53.12,-68.29 53.12,-59.57 53.12,-51.82"/>
<polygon fill="none" stroke="#63b8ff" points="49.63,-76.61 53.13,-86.61 56.63,-76.61 49.63,-76.61"/>
</a>
</g>
</g>
</g>
</svg>
