<?xml version="1.0" encoding="UTF-8" standalone="no"?>
<!DOCTYPE svg PUBLIC "-//W3C//DTD SVG 1.1//EN"
 "http://www.w3.org/Graphics/SVG/1.1/DTD/svg11.dtd">
<!-- Generated by graphviz version 12.2.1 (20241206.2353)
 -->
<!-- Title: detail::has_key_compare&lt; T &gt; Pages: 1 -->
<svg width="148pt" height="172pt"
 viewBox="0.00 0.00 148.00 172.00" xmlns="http://www.w3.org/2000/svg" xmlns:xlink="http://www.w3.org/1999/xlink">
<g id="graph0" class="graph" transform="scale(1 1) rotate(0) translate(4 168)">
<title>detail::has_key_compare&lt; T &gt;</title>
<!-- Node1 -->
<g id="Node000001" class="node">
<title>Node1</title>
<g id="a_Node000001"><a xlink:title=" ">
<polygon fill="#999999" stroke="none" points="140,-52 0,-52 0,0 140,0 140,-52"/>
<text text-anchor="start" x="4" y="-38.5" font-family="Helvetica,sans-Serif" font-size="10.00">detail::has_key_compare&lt; T &gt;</text>
<text text-anchor="start" x="68.5" y="-22.5" font-family="Helvetica,sans-Serif" font-size="10.00"> </text>
<text text-anchor="start" x="68.5" y="-6.5" font-family="Helvetica,sans-Serif" font-size="10.00"> </text>
<polygon fill="#666666" stroke="#666666" points="0,-34 0,-34 140,-34 140,-34 0,-34"/>
<polygon fill="#666666" stroke="#666666" points="0,-18 0,-18 140,-18 140,-18 0,-18"/>
<polygon fill="none" stroke="#666666" points="0,0 0,-52 140,-52 140,0 0,0"/>
</a>
</g>
</g>
<!-- Node2 -->
<g id="Node000002" class="node">
<title>Node2</title>
<g id="a_Node000002"><a xlink:title=" ">
<polygon fill="white" stroke="none" points="135.12,-164 4.88,-164 4.88,-88 135.12,-88 135.12,-164"/>
<text text-anchor="start" x="8.88" y="-150.5" font-family="Helvetica,sans-Serif" font-size="10.00">std::integral_constant</text>
<text text-anchor="start" x="8.88" y="-138.5" font-family="Helvetica,sans-Serif" font-size="10.00">&lt; bool, is_detected&lt; detect</text>
<text text-anchor="start" x="8.88" y="-126.5" font-family="Helvetica,sans-Serif" font-size="10.00">_key_compare, T &gt;::value &gt;</text>
<text text-anchor="start" x="68.5" y="-110.5" font-family="Helvetica,sans-Serif" font-size="10.00"> </text>
<text text-anchor="start" x="68.5" y="-94.5" font-family="Helvetica,sans-Serif" font-size="10.00"> </text>
<polygon fill="#bfbfbf" stroke="#bfbfbf" points="4.88,-122 4.88,-122 135.12,-122 135.12,-122 4.88,-122"/>
<polygon fill="#bfbfbf" stroke="#bfbfbf" points="4.88,-106 4.88,-106 135.12,-106 135.12,-106 4.88,-106"/>
<polygon fill="none" stroke="#bfbfbf" points="4.88,-88 4.88,-164 135.12,-164 135.12,-88 4.88,-88"/>
</a>
</g>
</g>
<!-- Node2&#45;&gt;Node1 -->
<g id="edge1_Node000001_Node000002" class="edge">
<title>Node2&#45;&gt;Node1</title>
<g id="a_edge1_Node000001_Node000002"><a xlink:title=" ">
<path fill="none" stroke="#63b8ff" d="M70,-76.9C70,-68.2 70,-59.46 70,-51.78"/>
<polygon fill="none" stroke="#63b8ff" points="66.5,-76.72 70,-86.72 73.5,-76.72 66.5,-76.72"/>
</a>
</g>
</g>
</g>
</svg>
