<?xml version="1.0" encoding="UTF-8" standalone="no"?>
<!DOCTYPE svg PUBLIC "-//W3C//DTD SVG 1.1//EN"
 "http://www.w3.org/Graphics/SVG/1.1/DTD/svg11.dtd">
<!-- Generated by graphviz version 12.2.1 (20241206.2353)
 -->
<!-- Title: detail::is_basic_json_context&lt; BasicJsonContext &gt; Pages: 1 -->
<svg width="172pt" height="232pt"
 viewBox="0.00 0.00 172.00 232.00" xmlns="http://www.w3.org/2000/svg" xmlns:xlink="http://www.w3.org/1999/xlink">
<g id="graph0" class="graph" transform="scale(1 1) rotate(0) translate(4 228)">
<title>detail::is_basic_json_context&lt; BasicJsonContext &gt;</title>
<!-- Node1 -->
<g id="Node000001" class="node">
<title>Node1</title>
<g id="a_Node000001"><a xlink:title=" ">
<polygon fill="#999999" stroke="none" points="153.88,-64 10.12,-64 10.12,0 153.88,0 153.88,-64"/>
<text text-anchor="start" x="14.12" y="-50.5" font-family="Helvetica,sans-Serif" font-size="10.00">detail::is_basic_json</text>
<text text-anchor="start" x="14.12" y="-38.5" font-family="Helvetica,sans-Serif" font-size="10.00">_context&lt; BasicJsonContext &gt;</text>
<text text-anchor="start" x="80.5" y="-22.5" font-family="Helvetica,sans-Serif" font-size="10.00"> </text>
<text text-anchor="start" x="80.5" y="-6.5" font-family="Helvetica,sans-Serif" font-size="10.00"> </text>
<polygon fill="#666666" stroke="#666666" points="10.12,-34 10.12,-34 153.88,-34 153.88,-34 10.12,-34"/>
<polygon fill="#666666" stroke="#666666" points="10.12,-18 10.12,-18 153.88,-18 153.88,-18 10.12,-18"/>
<polygon fill="none" stroke="#666666" points="10.12,0 10.12,-64 153.88,-64 153.88,0 10.12,0"/>
</a>
</g>
</g>
<!-- Node2 -->
<g id="Node000002" class="node">
<title>Node2</title>
<g id="a_Node000002"><a xlink:title=" ">
<polygon fill="white" stroke="none" points="164,-224 0,-224 0,-100 164,-100 164,-224"/>
<text text-anchor="start" x="4" y="-210.5" font-family="Helvetica,sans-Serif" font-size="10.00">std::integral_constant</text>
<text text-anchor="start" x="4" y="-198.5" font-family="Helvetica,sans-Serif" font-size="10.00">&lt; bool, is_basic_json</text>
<text text-anchor="start" x="4" y="-186.5" font-family="Helvetica,sans-Serif" font-size="10.00">&lt; std::remove_cv&lt; std::</text>
<text text-anchor="start" x="4" y="-174.5" font-family="Helvetica,sans-Serif" font-size="10.00">remove_pointer&lt; BasicJsonContext</text>
<text text-anchor="start" x="4" y="-162.5" font-family="Helvetica,sans-Serif" font-size="10.00"> &gt;::type &gt;::type &gt;::value||std</text>
<text text-anchor="start" x="4" y="-150.5" font-family="Helvetica,sans-Serif" font-size="10.00">::is_same&lt; BasicJsonContext, std</text>
<text text-anchor="start" x="38.12" y="-138.5" font-family="Helvetica,sans-Serif" font-size="10.00">::nullptr_t &gt;::value &gt;</text>
<text text-anchor="start" x="80.5" y="-122.5" font-family="Helvetica,sans-Serif" font-size="10.00"> </text>
<text text-anchor="start" x="80.5" y="-106.5" font-family="Helvetica,sans-Serif" font-size="10.00"> </text>
<polygon fill="#bfbfbf" stroke="#bfbfbf" points="0,-134 0,-134 164,-134 164,-134 0,-134"/>
<polygon fill="#bfbfbf" stroke="#bfbfbf" points="0,-118 0,-118 164,-118 164,-118 0,-118"/>
<polygon fill="none" stroke="#bfbfbf" points="0,-100 0,-224 164,-224 164,-100 0,-100"/>
</a>
</g>
</g>
<!-- Node2&#45;&gt;Node1 -->
<g id="edge1_Node000001_Node000002" class="edge">
<title>Node2&#45;&gt;Node1</title>
<g id="a_edge1_Node000001_Node000002"><a xlink:title=" ">
<path fill="none" stroke="#63b8ff" d="M82,-89.1C82,-80.24 82,-71.59 82,-63.84"/>
<polygon fill="none" stroke="#63b8ff" points="78.5,-88.86 82,-98.86 85.5,-88.86 78.5,-88.86"/>
</a>
</g>
</g>
</g>
</svg>
