<?xml version="1.0" encoding="UTF-8" standalone="no"?>
<!DOCTYPE svg PUBLIC "-//W3C//DTD SVG 1.1//EN"
 "http://www.w3.org/Graphics/SVG/1.1/DTD/svg11.dtd">
<!-- Generated by graphviz version 12.2.1 (20241206.2353)
 -->
<!-- Title: detail::is_constructible_array_type&lt; BasicJsonType, ConstructibleArrayType &gt; Pages: 1 -->
<svg width="179pt" height="284pt"
 viewBox="0.00 0.00 178.75 284.00" xmlns="http://www.w3.org/2000/svg" xmlns:xlink="http://www.w3.org/1999/xlink">
<g id="graph0" class="graph" transform="scale(1 1) rotate(0) translate(4 280)">
<title>detail::is_constructible_array_type&lt; BasicJsonType, ConstructibleArrayType &gt;</title>
<!-- Node1 -->
<g id="Node000001" class="node">
<title>Node1</title>
<g id="a_Node000001"><a xlink:title=" ">
<polygon fill="#999999" stroke="none" points="154.25,-76 16.5,-76 16.5,0 154.25,0 154.25,-76"/>
<text text-anchor="start" x="20.5" y="-62.5" font-family="Helvetica,sans-Serif" font-size="10.00">detail::is_constructible</text>
<text text-anchor="start" x="20.5" y="-50.5" font-family="Helvetica,sans-Serif" font-size="10.00">_array_type&lt; BasicJsonType,</text>
<text text-anchor="start" x="28.38" y="-38.5" font-family="Helvetica,sans-Serif" font-size="10.00"> ConstructibleArrayType &gt;</text>
<text text-anchor="start" x="83.88" y="-22.5" font-family="Helvetica,sans-Serif" font-size="10.00"> </text>
<text text-anchor="start" x="83.88" y="-6.5" font-family="Helvetica,sans-Serif" font-size="10.00"> </text>
<polygon fill="#666666" stroke="#666666" points="16.5,-34 16.5,-34 154.25,-34 154.25,-34 16.5,-34"/>
<polygon fill="#666666" stroke="#666666" points="16.5,-18 16.5,-18 154.25,-18 154.25,-18 16.5,-18"/>
<polygon fill="none" stroke="#666666" points="16.5,0 16.5,-76 154.25,-76 154.25,0 16.5,0"/>
</a>
</g>
</g>
<!-- Node2 -->
<g id="Node000002" class="node">
<title>Node2</title>
<g id="a_Node000002"><a xlink:href="structdetail_1_1is__constructible__array__type__impl.html" target="_top" xlink:title=" ">
<polygon fill="white" stroke="none" points="170.75,-188 0,-188 0,-112 170.75,-112 170.75,-188"/>
<text text-anchor="start" x="4" y="-174.5" font-family="Helvetica,sans-Serif" font-size="10.00">detail::is_constructible</text>
<text text-anchor="start" x="4" y="-162.5" font-family="Helvetica,sans-Serif" font-size="10.00">_array_type_impl&lt; BasicJsonType,</text>
<text text-anchor="start" x="4" y="-150.5" font-family="Helvetica,sans-Serif" font-size="10.00"> ConstructibleArrayType, typename &gt;</text>
<text text-anchor="start" x="83.88" y="-134.5" font-family="Helvetica,sans-Serif" font-size="10.00"> </text>
<text text-anchor="start" x="83.88" y="-118.5" font-family="Helvetica,sans-Serif" font-size="10.00"> </text>
<polygon fill="#bfbfbf" stroke="#bfbfbf" points="0,-146 0,-146 170.75,-146 170.75,-146 0,-146"/>
<polygon fill="#bfbfbf" stroke="#bfbfbf" points="0,-130 0,-130 170.75,-130 170.75,-130 0,-130"/>
<polygon fill="none" stroke="#bfbfbf" points="0,-112 0,-188 170.75,-188 170.75,-112 0,-112"/>
</a>
</g>
</g>
<!-- Node2&#45;&gt;Node1 -->
<g id="edge1_Node000001_Node000002" class="edge">
<title>Node2&#45;&gt;Node1</title>
<g id="a_edge1_Node000001_Node000002"><a xlink:title=" ">
<path fill="none" stroke="#63b8ff" d="M85.38,-100.78C85.38,-92.35 85.38,-83.7 85.38,-75.65"/>
<polygon fill="none" stroke="#63b8ff" points="81.88,-100.55 85.38,-110.55 88.88,-100.55 81.88,-100.55"/>
</a>
</g>
</g>
<!-- Node3 -->
<g id="Node000003" class="node">
<title>Node3</title>
<g id="a_Node000003"><a xlink:title=" ">
<polygon fill="white" stroke="none" points="121.62,-276 49.12,-276 49.12,-224 121.62,-224 121.62,-276"/>
<text text-anchor="start" x="53.12" y="-262.5" font-family="Helvetica,sans-Serif" font-size="10.00">std::false_type</text>
<text text-anchor="start" x="83.88" y="-246.5" font-family="Helvetica,sans-Serif" font-size="10.00"> </text>
<text text-anchor="start" x="83.88" y="-230.5" font-family="Helvetica,sans-Serif" font-size="10.00"> </text>
<polygon fill="#bfbfbf" stroke="#bfbfbf" points="49.12,-258 49.12,-258 121.62,-258 121.62,-258 49.12,-258"/>
<polygon fill="#bfbfbf" stroke="#bfbfbf" points="49.12,-242 49.12,-242 121.62,-242 121.62,-242 49.12,-242"/>
<polygon fill="none" stroke="#bfbfbf" points="49.12,-224 49.12,-276 121.62,-276 121.62,-224 49.12,-224"/>
</a>
</g>
</g>
<!-- Node3&#45;&gt;Node2 -->
<g id="edge2_Node000002_Node000003" class="edge">
<title>Node3&#45;&gt;Node2</title>
<g id="a_edge2_Node000002_Node000003"><a xlink:title=" ">
<path fill="none" stroke="#63b8ff" d="M85.38,-212.61C85.38,-204.5 85.38,-195.9 85.38,-187.78"/>
<polygon fill="none" stroke="#63b8ff" points="81.88,-212.5 85.38,-222.5 88.88,-212.5 81.88,-212.5"/>
</a>
</g>
</g>
</g>
</svg>
