<?xml version="1.0" encoding="UTF-8" standalone="no"?>
<!DOCTYPE svg PUBLIC "-//W3C//DTD SVG 1.1//EN"
 "http://www.w3.org/Graphics/SVG/1.1/DTD/svg11.dtd">
<!-- Generated by graphviz version 12.2.1 (20241206.2353)
 -->
<!-- Title: detail::is_default_constructible&lt; const std::pair&lt; T1, T2 &gt; &gt; Pages: 1 -->
<svg width="153pt" height="396pt"
 viewBox="0.00 0.00 153.25 396.00" xmlns="http://www.w3.org/2000/svg" xmlns:xlink="http://www.w3.org/1999/xlink">
<g id="graph0" class="graph" transform="scale(1 1) rotate(0) translate(4 392)">
<title>detail::is_default_constructible&lt; const std::pair&lt; T1, T2 &gt; &gt;</title>
<!-- Node1 -->
<g id="Node000001" class="node">
<title>Node1</title>
<g id="a_Node000001"><a xlink:title=" ">
<polygon fill="#999999" stroke="none" points="123.5,-176 21.75,-176 21.75,-100 123.5,-100 123.5,-176"/>
<text text-anchor="start" x="25.75" y="-162.5" font-family="Helvetica,sans-Serif" font-size="10.00">detail::is_default</text>
<text text-anchor="start" x="25.75" y="-150.5" font-family="Helvetica,sans-Serif" font-size="10.00">_constructible&lt; const</text>
<text text-anchor="start" x="26.5" y="-138.5" font-family="Helvetica,sans-Serif" font-size="10.00"> std::pair&lt; T1, T2 &gt; &gt;</text>
<text text-anchor="start" x="71.12" y="-122.5" font-family="Helvetica,sans-Serif" font-size="10.00"> </text>
<text text-anchor="start" x="71.12" y="-106.5" font-family="Helvetica,sans-Serif" font-size="10.00"> </text>
<polygon fill="#666666" stroke="#666666" points="21.75,-134 21.75,-134 123.5,-134 123.5,-134 21.75,-134"/>
<polygon fill="#666666" stroke="#666666" points="21.75,-118 21.75,-118 123.5,-118 123.5,-118 21.75,-118"/>
<polygon fill="none" stroke="#666666" points="21.75,-100 21.75,-176 123.5,-176 123.5,-100 21.75,-100"/>
</a>
</g>
</g>
<!-- Node4 -->
<g id="Node000004" class="node">
<title>Node4</title>
<g id="a_Node000004"><a xlink:href="structdetail_1_1is__constructible_3_01const_01std_1_1pair_3_01_t1_00_01_t2_01_4_01_4.html" target="_top" xlink:title=" ">
<polygon fill="white" stroke="none" points="139.25,-64 6,-64 6,0 139.25,0 139.25,-64"/>
<text text-anchor="start" x="10" y="-50.5" font-family="Helvetica,sans-Serif" font-size="10.00">detail::is_constructible</text>
<text text-anchor="start" x="10" y="-38.5" font-family="Helvetica,sans-Serif" font-size="10.00">&lt; const std::pair&lt; T1, T2 &gt; &gt;</text>
<text text-anchor="start" x="71.12" y="-22.5" font-family="Helvetica,sans-Serif" font-size="10.00"> </text>
<text text-anchor="start" x="71.12" y="-6.5" font-family="Helvetica,sans-Serif" font-size="10.00"> </text>
<polygon fill="#bfbfbf" stroke="#bfbfbf" points="6,-34 6,-34 139.25,-34 139.25,-34 6,-34"/>
<polygon fill="#bfbfbf" stroke="#bfbfbf" points="6,-18 6,-18 139.25,-18 139.25,-18 6,-18"/>
<polygon fill="none" stroke="#bfbfbf" points="6,0 6,-64 139.25,-64 139.25,0 6,0"/>
</a>
</g>
</g>
<!-- Node1&#45;&gt;Node4 -->
<g id="edge3_Node000001_Node000004" class="edge">
<title>Node1&#45;&gt;Node4</title>
<g id="a_edge3_Node000001_Node000004"><a xlink:title=" ">
<path fill="none" stroke="#63b8ff" d="M72.62,-88.74C72.62,-80.33 72.62,-71.78 72.62,-64"/>
<polygon fill="none" stroke="#63b8ff" points="69.13,-88.53 72.63,-98.53 76.13,-88.53 69.13,-88.53"/>
</a>
</g>
</g>
<!-- Node2 -->
<g id="Node000002" class="node">
<title>Node2</title>
<g id="a_Node000002"><a xlink:href="structdetail_1_1conjunction.html" target="_top" xlink:title=" ">
<polygon fill="white" stroke="none" points="145.25,-300 0,-300 0,-212 145.25,-212 145.25,-300"/>
<text text-anchor="start" x="4" y="-286.5" font-family="Helvetica,sans-Serif" font-size="10.00">detail::conjunction</text>
<text text-anchor="start" x="4" y="-274.5" font-family="Helvetica,sans-Serif" font-size="10.00">&lt; is_default_constructible</text>
<text text-anchor="start" x="4" y="-262.5" font-family="Helvetica,sans-Serif" font-size="10.00">&lt; T1 &gt;, is_default_constructible</text>
<text text-anchor="start" x="53.88" y="-250.5" font-family="Helvetica,sans-Serif" font-size="10.00">&lt; T2 &gt; &gt;</text>
<text text-anchor="start" x="71.12" y="-234.5" font-family="Helvetica,sans-Serif" font-size="10.00"> </text>
<text text-anchor="start" x="71.12" y="-218.5" font-family="Helvetica,sans-Serif" font-size="10.00"> </text>
<polygon fill="#bfbfbf" stroke="#bfbfbf" points="0,-246 0,-246 145.25,-246 145.25,-246 0,-246"/>
<polygon fill="#bfbfbf" stroke="#bfbfbf" points="0,-230 0,-230 145.25,-230 145.25,-230 0,-230"/>
<polygon fill="none" stroke="#bfbfbf" points="0,-212 0,-300 145.25,-300 145.25,-212 0,-212"/>
</a>
</g>
</g>
<!-- Node2&#45;&gt;Node1 -->
<g id="edge1_Node000001_Node000002" class="edge">
<title>Node2&#45;&gt;Node1</title>
<g id="a_edge1_Node000001_Node000002"><a xlink:title=" ">
<path fill="none" stroke="#63b8ff" d="M72.62,-200.8C72.62,-192.39 72.62,-183.88 72.62,-175.97"/>
<polygon fill="none" stroke="#63b8ff" points="69.13,-200.62 72.63,-210.62 76.13,-200.62 69.13,-200.62"/>
</a>
</g>
</g>
<!-- Node3 -->
<g id="Node000003" class="node">
<title>Node3</title>
<g id="a_Node000003"><a xlink:title=" ">
<polygon fill="white" stroke="none" points="106.62,-388 38.62,-388 38.62,-336 106.62,-336 106.62,-388"/>
<text text-anchor="start" x="42.62" y="-374.5" font-family="Helvetica,sans-Serif" font-size="10.00">std::true_type</text>
<text text-anchor="start" x="71.12" y="-358.5" font-family="Helvetica,sans-Serif" font-size="10.00"> </text>
<text text-anchor="start" x="71.12" y="-342.5" font-family="Helvetica,sans-Serif" font-size="10.00"> </text>
<polygon fill="#bfbfbf" stroke="#bfbfbf" points="38.62,-370 38.62,-370 106.62,-370 106.62,-370 38.62,-370"/>
<polygon fill="#bfbfbf" stroke="#bfbfbf" points="38.62,-354 38.62,-354 106.62,-354 106.62,-354 38.62,-354"/>
<polygon fill="none" stroke="#bfbfbf" points="38.62,-336 38.62,-388 106.62,-388 106.62,-336 38.62,-336"/>
</a>
</g>
</g>
<!-- Node3&#45;&gt;Node2 -->
<g id="edge2_Node000002_Node000003" class="edge">
<title>Node3&#45;&gt;Node2</title>
<g id="a_edge2_Node000002_Node000003"><a xlink:title=" ">
<path fill="none" stroke="#63b8ff" d="M72.62,-324.84C72.62,-316.83 72.62,-308.25 72.62,-299.99"/>
<polygon fill="none" stroke="#63b8ff" points="69.13,-324.58 72.63,-334.58 76.13,-324.58 69.13,-324.58"/>
</a>
</g>
</g>
</g>
</svg>
