<?xml version="1.0" encoding="UTF-8" standalone="no"?>
<!DOCTYPE svg PUBLIC "-//W3C//DTD SVG 1.1//EN"
 "http://www.w3.org/Graphics/SVG/1.1/DTD/svg11.dtd">
<!-- Generated by graphviz version 12.2.1 (20241206.2353)
 -->
<!-- Title: detail::has_from_json&lt; BasicJsonType, T, typename &gt; Pages: 1 -->
<svg width="160pt" height="160pt"
 viewBox="0.00 0.00 160.00 160.00" xmlns="http://www.w3.org/2000/svg" xmlns:xlink="http://www.w3.org/1999/xlink">
<g id="graph0" class="graph" transform="scale(1 1) rotate(0) translate(4 156)">
<title>detail::has_from_json&lt; BasicJsonType, T, typename &gt;</title>
<!-- Node1 -->
<g id="Node000001" class="node">
<title>Node1</title>
<g id="a_Node000001"><a xlink:title=" ">
<polygon fill="#999999" stroke="none" points="152,-64 0,-64 0,0 152,0 152,-64"/>
<text text-anchor="start" x="4" y="-50.5" font-family="Helvetica,sans-Serif" font-size="10.00">detail::has_from_json</text>
<text text-anchor="start" x="4" y="-38.5" font-family="Helvetica,sans-Serif" font-size="10.00">&lt; BasicJsonType, T, typename &gt;</text>
<text text-anchor="start" x="74.5" y="-22.5" font-family="Helvetica,sans-Serif" font-size="10.00"> </text>
<text text-anchor="start" x="74.5" y="-6.5" font-family="Helvetica,sans-Serif" font-size="10.00"> </text>
<polygon fill="#666666" stroke="#666666" points="0,-34 0,-34 152,-34 152,-34 0,-34"/>
<polygon fill="#666666" stroke="#666666" points="0,-18 0,-18 152,-18 152,-18 0,-18"/>
<polygon fill="none" stroke="#666666" points="0,0 0,-64 152,-64 152,0 0,0"/>
</a>
</g>
</g>
<!-- Node2 -->
<g id="Node000002" class="node">
<title>Node2</title>
<g id="a_Node000002"><a xlink:title=" ">
<polygon fill="white" stroke="none" points="112.25,-152 39.75,-152 39.75,-100 112.25,-100 112.25,-152"/>
<text text-anchor="start" x="43.75" y="-138.5" font-family="Helvetica,sans-Serif" font-size="10.00">std::false_type</text>
<text text-anchor="start" x="74.5" y="-122.5" font-family="Helvetica,sans-Serif" font-size="10.00"> </text>
<text text-anchor="start" x="74.5" y="-106.5" font-family="Helvetica,sans-Serif" font-size="10.00"> </text>
<polygon fill="#bfbfbf" stroke="#bfbfbf" points="39.75,-134 39.75,-134 112.25,-134 112.25,-134 39.75,-134"/>
<polygon fill="#bfbfbf" stroke="#bfbfbf" points="39.75,-118 39.75,-118 112.25,-118 112.25,-118 39.75,-118"/>
<polygon fill="none" stroke="#bfbfbf" points="39.75,-100 39.75,-152 112.25,-152 112.25,-100 39.75,-100"/>
</a>
</g>
</g>
<!-- Node2&#45;&gt;Node1 -->
<g id="edge1_Node000001_Node000002" class="edge">
<title>Node2&#45;&gt;Node1</title>
<g id="a_edge1_Node000001_Node000002"><a xlink:title=" ">
<path fill="none" stroke="#63b8ff" d="M76,-89.06C76,-80.78 76,-72.04 76,-63.98"/>
<polygon fill="none" stroke="#63b8ff" points="72.5,-88.83 76,-98.83 79.5,-88.83 72.5,-88.83"/>
</a>
</g>
</g>
</g>
</svg>
