<?xml version="1.0" encoding="UTF-8" standalone="no"?>
<!DOCTYPE svg PUBLIC "-//W3C//DTD SVG 1.1//EN"
 "http://www.w3.org/Graphics/SVG/1.1/DTD/svg11.dtd">
<!-- Generated by graphviz version 12.2.1 (20241206.2353)
 -->
<!-- Title: detail::is_complete_type&lt; T, typename &gt; Pages: 1 -->
<svg width="111pt" height="160pt"
 viewBox="0.00 0.00 111.25 160.00" xmlns="http://www.w3.org/2000/svg" xmlns:xlink="http://www.w3.org/1999/xlink">
<g id="graph0" class="graph" transform="scale(1 1) rotate(0) translate(4 156)">
<title>detail::is_complete_type&lt; T, typename &gt;</title>
<!-- Node1 -->
<g id="Node000001" class="node">
<title>Node1</title>
<g id="a_Node000001"><a xlink:title=" ">
<polygon fill="#999999" stroke="none" points="103.25,-64 0,-64 0,0 103.25,0 103.25,-64"/>
<text text-anchor="start" x="4" y="-50.5" font-family="Helvetica,sans-Serif" font-size="10.00">detail::is_complete</text>
<text text-anchor="start" x="4" y="-38.5" font-family="Helvetica,sans-Serif" font-size="10.00">_type&lt; T, typename &gt;</text>
<text text-anchor="start" x="50.12" y="-22.5" font-family="Helvetica,sans-Serif" font-size="10.00"> </text>
<text text-anchor="start" x="50.12" y="-6.5" font-family="Helvetica,sans-Serif" font-size="10.00"> </text>
<polygon fill="#666666" stroke="#666666" points="0,-34 0,-34 103.25,-34 103.25,-34 0,-34"/>
<polygon fill="#666666" stroke="#666666" points="0,-18 0,-18 103.25,-18 103.25,-18 0,-18"/>
<polygon fill="none" stroke="#666666" points="0,0 0,-64 103.25,-64 103.25,0 0,0"/>
</a>
</g>
</g>
<!-- Node2 -->
<g id="Node000002" class="node">
<title>Node2</title>
<g id="a_Node000002"><a xlink:title=" ">
<polygon fill="white" stroke="none" points="87.88,-152 15.38,-152 15.38,-100 87.88,-100 87.88,-152"/>
<text text-anchor="start" x="19.38" y="-138.5" font-family="Helvetica,sans-Serif" font-size="10.00">std::false_type</text>
<text text-anchor="start" x="50.12" y="-122.5" font-family="Helvetica,sans-Serif" font-size="10.00"> </text>
<text text-anchor="start" x="50.12" y="-106.5" font-family="Helvetica,sans-Serif" font-size="10.00"> </text>
<polygon fill="#bfbfbf" stroke="#bfbfbf" points="15.38,-134 15.38,-134 87.88,-134 87.88,-134 15.38,-134"/>
<polygon fill="#bfbfbf" stroke="#bfbfbf" points="15.38,-118 15.38,-118 87.88,-118 87.88,-118 15.38,-118"/>
<polygon fill="none" stroke="#bfbfbf" points="15.38,-100 15.38,-152 87.88,-152 87.88,-100 15.38,-100"/>
</a>
</g>
</g>
<!-- Node2&#45;&gt;Node1 -->
<g id="edge1_Node000001_Node000002" class="edge">
<title>Node2&#45;&gt;Node1</title>
<g id="a_edge1_Node000001_Node000002"><a xlink:title=" ">
<path fill="none" stroke="#63b8ff" d="M51.62,-89.06C51.62,-80.78 51.62,-72.04 51.62,-63.98"/>
<polygon fill="none" stroke="#63b8ff" points="48.13,-88.83 51.63,-98.83 55.13,-88.83 48.13,-88.83"/>
</a>
</g>
</g>
</g>
</svg>
