<?xml version="1.0" encoding="UTF-8" standalone="no"?>
<!DOCTYPE svg PUBLIC "-//W3C//DTD SVG 1.1//EN"
 "http://www.w3.org/Graphics/SVG/1.1/DTD/svg11.dtd">
<!-- Generated by graphviz version 12.2.1 (20241206.2353)
 -->
<!-- Title: detail::is_compatible_type_impl&lt; BasicJsonType, CompatibleType, enable_if_t&lt; is_complete_type&lt; CompatibleType &gt;::value &gt; &gt; Pages: 1 -->
<svg width="146pt" height="108pt"
 viewBox="0.00 0.00 145.75 108.00" xmlns="http://www.w3.org/2000/svg" xmlns:xlink="http://www.w3.org/1999/xlink">
<g id="graph0" class="graph" transform="scale(1 1) rotate(0) translate(4 104)">
<title>detail::is_compatible_type_impl&lt; BasicJsonType, CompatibleType, enable_if_t&lt; is_complete_type&lt; CompatibleType &gt;::value &gt; &gt;</title>
<!-- Node1 -->
<g id="Node000001" class="node">
<title>Node1</title>
<g id="a_Node000001"><a xlink:title=" ">
<polygon fill="#999999" stroke="none" points="137.75,-100 0,-100 0,0 137.75,0 137.75,-100"/>
<text text-anchor="start" x="4" y="-86.5" font-family="Helvetica,sans-Serif" font-size="10.00">detail::is_compatible</text>
<text text-anchor="start" x="4" y="-74.5" font-family="Helvetica,sans-Serif" font-size="10.00">_type_impl&lt; BasicJsonType,</text>
<text text-anchor="start" x="4" y="-62.5" font-family="Helvetica,sans-Serif" font-size="10.00"> CompatibleType, enable</text>
<text text-anchor="start" x="4" y="-50.5" font-family="Helvetica,sans-Serif" font-size="10.00">_if_t&lt; is_complete_type&lt;</text>
<text text-anchor="start" x="4" y="-38.5" font-family="Helvetica,sans-Serif" font-size="10.00"> CompatibleType &gt;::value &gt; &gt;</text>
<text text-anchor="start" x="28.12" y="-22.5" font-family="Helvetica,sans-Serif" font-size="10.00">+</text>
<text text-anchor="start" x="62.25" y="-22.5" font-family="Helvetica,sans-Serif" font-size="10.00">value</text>
<text text-anchor="start" x="67.38" y="-6.5" font-family="Helvetica,sans-Serif" font-size="10.00"> </text>
<polygon fill="#666666" stroke="#666666" points="0,-34 0,-34 137.75,-34 137.75,-34 0,-34"/>
<polygon fill="#666666" stroke="#666666" points="0,-18 0,-18 60.25,-18 60.25,-18 0,-18"/>
<polygon fill="#666666" stroke="#666666" points="60.25,-18 60.25,-18 137.75,-18 137.75,-18 60.25,-18"/>
<polygon fill="none" stroke="#666666" points="0,0 0,-100 137.75,-100 137.75,0 0,0"/>
</a>
</g>
</g>
</g>
</svg>
