<?xml version="1.0" encoding="UTF-8" standalone="no"?>
<!DOCTYPE svg PUBLIC "-//W3C//DTD SVG 1.1//EN"
 "http://www.w3.org/Graphics/SVG/1.1/DTD/svg11.dtd">
<!-- Generated by graphviz version 12.2.1 (20241206.2353)
 -->
<!-- Title: detail::is_specialization_of&lt; Primary, T &gt; Pages: 1 -->
<svg width="117pt" height="160pt"
 viewBox="0.00 0.00 117.25 160.00" xmlns="http://www.w3.org/2000/svg" xmlns:xlink="http://www.w3.org/1999/xlink">
<g id="graph0" class="graph" transform="scale(1 1) rotate(0) translate(4 156)">
<title>detail::is_specialization_of&lt; Primary, T &gt;</title>
<!-- Node1 -->
<g id="Node000001" class="node">
<title>Node1</title>
<g id="a_Node000001"><a xlink:title=" ">
<polygon fill="#999999" stroke="none" points="109.25,-64 0,-64 0,0 109.25,0 109.25,-64"/>
<text text-anchor="start" x="4" y="-50.5" font-family="Helvetica,sans-Serif" font-size="10.00">detail::is_specialization</text>
<text text-anchor="start" x="16.75" y="-38.5" font-family="Helvetica,sans-Serif" font-size="10.00">_of&lt; Primary, T &gt;</text>
<text text-anchor="start" x="53.12" y="-22.5" font-family="Helvetica,sans-Serif" font-size="10.00"> </text>
<text text-anchor="start" x="53.12" y="-6.5" font-family="Helvetica,sans-Serif" font-size="10.00"> </text>
<polygon fill="#666666" stroke="#666666" points="0,-34 0,-34 109.25,-34 109.25,-34 0,-34"/>
<polygon fill="#666666" stroke="#666666" points="0,-18 0,-18 109.25,-18 109.25,-18 0,-18"/>
<polygon fill="none" stroke="#666666" points="0,0 0,-64 109.25,-64 109.25,0 0,0"/>
</a>
</g>
</g>
<!-- Node2 -->
<g id="Node000002" class="node">
<title>Node2</title>
<g id="a_Node000002"><a xlink:title=" ">
<polygon fill="white" stroke="none" points="90.88,-152 18.38,-152 18.38,-100 90.88,-100 90.88,-152"/>
<text text-anchor="start" x="22.38" y="-138.5" font-family="Helvetica,sans-Serif" font-size="10.00">std::false_type</text>
<text text-anchor="start" x="53.12" y="-122.5" font-family="Helvetica,sans-Serif" font-size="10.00"> </text>
<text text-anchor="start" x="53.12" y="-106.5" font-family="Helvetica,sans-Serif" font-size="10.00"> </text>
<polygon fill="#bfbfbf" stroke="#bfbfbf" points="18.38,-134 18.38,-134 90.88,-134 90.88,-134 18.38,-134"/>
<polygon fill="#bfbfbf" stroke="#bfbfbf" points="18.38,-118 18.38,-118 90.88,-118 90.88,-118 18.38,-118"/>
<polygon fill="none" stroke="#bfbfbf" points="18.38,-100 18.38,-152 90.88,-152 90.88,-100 18.38,-100"/>
</a>
</g>
</g>
<!-- Node2&#45;&gt;Node1 -->
<g id="edge1_Node000001_Node000002" class="edge">
<title>Node2&#45;&gt;Node1</title>
<g id="a_edge1_Node000001_Node000002"><a xlink:title=" ">
<path fill="none" stroke="#63b8ff" d="M54.62,-89.06C54.62,-80.78 54.62,-72.04 54.62,-63.98"/>
<polygon fill="none" stroke="#63b8ff" points="51.13,-88.83 54.63,-98.83 58.13,-88.83 51.13,-88.83"/>
</a>
</g>
</g>
</g>
</svg>
