<?xml version="1.0" encoding="UTF-8" standalone="no"?>
<!DOCTYPE svg PUBLIC "-//W3C//DTD SVG 1.1//EN"
 "http://www.w3.org/Graphics/SVG/1.1/DTD/svg11.dtd">
<!-- Generated by graphviz version 12.2.1 (20241206.2353)
 -->
<!-- Title: detail::is_default_constructible&lt; std::tuple&lt; Ts... &gt; &gt; Pages: 1 -->
<svg width="128pt" height="384pt"
 viewBox="0.00 0.00 127.75 384.00" xmlns="http://www.w3.org/2000/svg" xmlns:xlink="http://www.w3.org/1999/xlink">
<g id="graph0" class="graph" transform="scale(1 1) rotate(0) translate(4 380)">
<title>detail::is_default_constructible&lt; std::tuple&lt; Ts... &gt; &gt;</title>
<!-- Node1 -->
<g id="Node000001" class="node">
<title>Node1</title>
<g id="a_Node000001"><a xlink:title=" ">
<polygon fill="#999999" stroke="none" points="105.5,-176 14.25,-176 14.25,-100 105.5,-100 105.5,-176"/>
<text text-anchor="start" x="18.25" y="-162.5" font-family="Helvetica,sans-Serif" font-size="10.00">detail::is_default</text>
<text text-anchor="start" x="18.25" y="-150.5" font-family="Helvetica,sans-Serif" font-size="10.00">_constructible&lt; std</text>
<text text-anchor="start" x="23.5" y="-138.5" font-family="Helvetica,sans-Serif" font-size="10.00">::tuple&lt; Ts... &gt; &gt;</text>
<text text-anchor="start" x="58.38" y="-122.5" font-family="Helvetica,sans-Serif" font-size="10.00"> </text>
<text text-anchor="start" x="58.38" y="-106.5" font-family="Helvetica,sans-Serif" font-size="10.00"> </text>
<polygon fill="#666666" stroke="#666666" points="14.25,-134 14.25,-134 105.5,-134 105.5,-134 14.25,-134"/>
<polygon fill="#666666" stroke="#666666" points="14.25,-118 14.25,-118 105.5,-118 105.5,-118 14.25,-118"/>
<polygon fill="none" stroke="#666666" points="14.25,-100 14.25,-176 105.5,-176 105.5,-100 14.25,-100"/>
</a>
</g>
</g>
<!-- Node4 -->
<g id="Node000004" class="node">
<title>Node4</title>
<g id="a_Node000004"><a xlink:href="structdetail_1_1is__constructible_3_01std_1_1tuple_3_01_ts_8_8_8_01_4_01_4.html" target="_top" xlink:title=" ">
<polygon fill="white" stroke="none" points="112.62,-64 7.12,-64 7.12,0 112.62,0 112.62,-64"/>
<text text-anchor="start" x="11.12" y="-50.5" font-family="Helvetica,sans-Serif" font-size="10.00">detail::is_constructible</text>
<text text-anchor="start" x="12.25" y="-38.5" font-family="Helvetica,sans-Serif" font-size="10.00">&lt; std::tuple&lt; Ts... &gt; &gt;</text>
<text text-anchor="start" x="58.38" y="-22.5" font-family="Helvetica,sans-Serif" font-size="10.00"> </text>
<text text-anchor="start" x="58.38" y="-6.5" font-family="Helvetica,sans-Serif" font-size="10.00"> </text>
<polygon fill="#bfbfbf" stroke="#bfbfbf" points="7.12,-34 7.12,-34 112.62,-34 112.62,-34 7.12,-34"/>
<polygon fill="#bfbfbf" stroke="#bfbfbf" points="7.12,-18 7.12,-18 112.62,-18 112.62,-18 7.12,-18"/>
<polygon fill="none" stroke="#bfbfbf" points="7.12,0 7.12,-64 112.62,-64 112.62,0 7.12,0"/>
</a>
</g>
</g>
<!-- Node1&#45;&gt;Node4 -->
<g id="edge3_Node000001_Node000004" class="edge">
<title>Node1&#45;&gt;Node4</title>
<g id="a_edge3_Node000001_Node000004"><a xlink:title=" ">
<path fill="none" stroke="#63b8ff" d="M59.88,-88.74C59.88,-80.33 59.88,-71.78 59.88,-64"/>
<polygon fill="none" stroke="#63b8ff" points="56.38,-88.53 59.88,-98.53 63.38,-88.53 56.38,-88.53"/>
</a>
</g>
</g>
<!-- Node2 -->
<g id="Node000002" class="node">
<title>Node2</title>
<g id="a_Node000002"><a xlink:href="structdetail_1_1conjunction.html" target="_top" xlink:title=" ">
<polygon fill="white" stroke="none" points="119.75,-288 0,-288 0,-212 119.75,-212 119.75,-288"/>
<text text-anchor="start" x="4" y="-274.5" font-family="Helvetica,sans-Serif" font-size="10.00">detail::conjunction</text>
<text text-anchor="start" x="4" y="-262.5" font-family="Helvetica,sans-Serif" font-size="10.00">&lt; is_default_constructible</text>
<text text-anchor="start" x="37" y="-250.5" font-family="Helvetica,sans-Serif" font-size="10.00">&lt; Ts &gt;... &gt;</text>
<text text-anchor="start" x="58.38" y="-234.5" font-family="Helvetica,sans-Serif" font-size="10.00"> </text>
<text text-anchor="start" x="58.38" y="-218.5" font-family="Helvetica,sans-Serif" font-size="10.00"> </text>
<polygon fill="#bfbfbf" stroke="#bfbfbf" points="0,-246 0,-246 119.75,-246 119.75,-246 0,-246"/>
<polygon fill="#bfbfbf" stroke="#bfbfbf" points="0,-230 0,-230 119.75,-230 119.75,-230 0,-230"/>
<polygon fill="none" stroke="#bfbfbf" points="0,-212 0,-288 119.75,-288 119.75,-212 0,-212"/>
</a>
</g>
</g>
<!-- Node2&#45;&gt;Node1 -->
<g id="edge1_Node000001_Node000002" class="edge">
<title>Node2&#45;&gt;Node1</title>
<g id="a_edge1_Node000001_Node000002"><a xlink:title=" ">
<path fill="none" stroke="#63b8ff" d="M59.88,-200.78C59.88,-192.35 59.88,-183.7 59.88,-175.65"/>
<polygon fill="none" stroke="#63b8ff" points="56.38,-200.55 59.88,-210.55 63.38,-200.55 56.38,-200.55"/>
</a>
</g>
</g>
<!-- Node3 -->
<g id="Node000003" class="node">
<title>Node3</title>
<g id="a_Node000003"><a xlink:title=" ">
<polygon fill="white" stroke="none" points="93.88,-376 25.88,-376 25.88,-324 93.88,-324 93.88,-376"/>
<text text-anchor="start" x="29.88" y="-362.5" font-family="Helvetica,sans-Serif" font-size="10.00">std::true_type</text>
<text text-anchor="start" x="58.38" y="-346.5" font-family="Helvetica,sans-Serif" font-size="10.00"> </text>
<text text-anchor="start" x="58.38" y="-330.5" font-family="Helvetica,sans-Serif" font-size="10.00"> </text>
<polygon fill="#bfbfbf" stroke="#bfbfbf" points="25.88,-358 25.88,-358 93.88,-358 93.88,-358 25.88,-358"/>
<polygon fill="#bfbfbf" stroke="#bfbfbf" points="25.88,-342 25.88,-342 93.88,-342 93.88,-342 25.88,-342"/>
<polygon fill="none" stroke="#bfbfbf" points="25.88,-324 25.88,-376 93.88,-376 93.88,-324 25.88,-324"/>
</a>
</g>
</g>
<!-- Node3&#45;&gt;Node2 -->
<g id="edge2_Node000002_Node000003" class="edge">
<title>Node3&#45;&gt;Node2</title>
<g id="a_edge2_Node000002_Node000003"><a xlink:title=" ">
<path fill="none" stroke="#63b8ff" d="M59.88,-312.61C59.88,-304.5 59.88,-295.9 59.88,-287.78"/>
<polygon fill="none" stroke="#63b8ff" points="56.38,-312.5 59.88,-322.5 63.38,-312.5 56.38,-312.5"/>
</a>
</g>
</g>
</g>
</svg>
