<?xml version="1.0" encoding="UTF-8" standalone="no"?>
<!DOCTYPE svg PUBLIC "-//W3C//DTD SVG 1.1//EN"
 "http://www.w3.org/Graphics/SVG/1.1/DTD/svg11.dtd">
<!-- Generated by graphviz version 12.2.1 (20241206.2353)
 -->
<!-- Title: detail::conjunction&lt;... &gt; Pages: 1 -->
<svg width="95pt" height="160pt"
 viewBox="0.00 0.00 94.75 160.00" xmlns="http://www.w3.org/2000/svg" xmlns:xlink="http://www.w3.org/1999/xlink">
<g id="graph0" class="graph" transform="scale(1 1) rotate(0) translate(4 156)">
<title>detail::conjunction&lt;... &gt;</title>
<!-- Node1 -->
<g id="Node000001" class="node">
<title>Node1</title>
<g id="a_Node000001"><a xlink:title=" ">
<polygon fill="#999999" stroke="none" points="86.75,-64 0,-64 0,0 86.75,0 86.75,-64"/>
<text text-anchor="start" x="4" y="-50.5" font-family="Helvetica,sans-Serif" font-size="10.00">detail::conjunction</text>
<text text-anchor="start" x="31.38" y="-38.5" font-family="Helvetica,sans-Serif" font-size="10.00">&lt;... &gt;</text>
<text text-anchor="start" x="41.88" y="-22.5" font-family="Helvetica,sans-Serif" font-size="10.00"> </text>
<text text-anchor="start" x="41.88" y="-6.5" font-family="Helvetica,sans-Serif" font-size="10.00"> </text>
<polygon fill="#666666" stroke="#666666" points="0,-34 0,-34 86.75,-34 86.75,-34 0,-34"/>
<polygon fill="#666666" stroke="#666666" points="0,-18 0,-18 86.75,-18 86.75,-18 0,-18"/>
<polygon fill="none" stroke="#666666" points="0,0 0,-64 86.75,-64 86.75,0 0,0"/>
</a>
</g>
</g>
<!-- Node2 -->
<g id="Node000002" class="node">
<title>Node2</title>
<g id="a_Node000002"><a xlink:title=" ">
<polygon fill="white" stroke="none" points="77.38,-152 9.38,-152 9.38,-100 77.38,-100 77.38,-152"/>
<text text-anchor="start" x="13.38" y="-138.5" font-family="Helvetica,sans-Serif" font-size="10.00">std::true_type</text>
<text text-anchor="start" x="41.88" y="-122.5" font-family="Helvetica,sans-Serif" font-size="10.00"> </text>
<text text-anchor="start" x="41.88" y="-106.5" font-family="Helvetica,sans-Serif" font-size="10.00"> </text>
<polygon fill="#bfbfbf" stroke="#bfbfbf" points="9.38,-134 9.38,-134 77.38,-134 77.38,-134 9.38,-134"/>
<polygon fill="#bfbfbf" stroke="#bfbfbf" points="9.38,-118 9.38,-118 77.38,-118 77.38,-118 9.38,-118"/>
<polygon fill="none" stroke="#bfbfbf" points="9.38,-100 9.38,-152 77.38,-152 77.38,-100 9.38,-100"/>
</a>
</g>
</g>
<!-- Node2&#45;&gt;Node1 -->
<g id="edge1_Node000001_Node000002" class="edge">
<title>Node2&#45;&gt;Node1</title>
<g id="a_edge1_Node000001_Node000002"><a xlink:title=" ">
<path fill="none" stroke="#63b8ff" d="M43.38,-89.06C43.38,-80.78 43.38,-72.04 43.38,-63.98"/>
<polygon fill="none" stroke="#63b8ff" points="39.88,-88.83 43.38,-98.83 46.88,-88.83 39.88,-88.83"/>
</a>
</g>
</g>
</g>
</svg>
