<?xml version="1.0" encoding="UTF-8" standalone="no"?>
<!DOCTYPE svg PUBLIC "-//W3C//DTD SVG 1.1//EN"
 "http://www.w3.org/Graphics/SVG/1.1/DTD/svg11.dtd">
<!-- Generated by graphviz version 12.2.1 (20241206.2353)
 -->
<!-- Title: detail::internal_iterator&lt; BasicJsonType &gt; Pages: 1 -->
<svg width="148pt" height="364pt"
 viewBox="0.00 0.00 147.75 364.00" xmlns="http://www.w3.org/2000/svg" xmlns:xlink="http://www.w3.org/1999/xlink">
<g id="graph0" class="graph" transform="scale(1 1) rotate(0) translate(4 360)">
<title>detail::internal_iterator&lt; BasicJsonType &gt;</title>
<!-- Node1 -->
<g id="Node000001" class="node">
<title>Node1</title>
<g id="a_Node000001"><a xlink:title="an iterator value">
<polygon fill="#999999" stroke="none" points="110.75,-80 6.75,-80 6.75,0 110.75,0 110.75,-80"/>
<text text-anchor="start" x="10.75" y="-66.5" font-family="Helvetica,sans-Serif" font-size="10.00">detail::internal_iterator</text>
<text text-anchor="start" x="16.38" y="-54.5" font-family="Helvetica,sans-Serif" font-size="10.00">&lt; BasicJsonType &gt;</text>
<text text-anchor="start" x="16.88" y="-38.5" font-family="Helvetica,sans-Serif" font-size="10.00">+</text>
<text text-anchor="start" x="33" y="-38.5" font-family="Helvetica,sans-Serif" font-size="10.00">object_iterator</text>
<text text-anchor="start" x="16.88" y="-22.5" font-family="Helvetica,sans-Serif" font-size="10.00">+</text>
<text text-anchor="start" x="33" y="-22.5" font-family="Helvetica,sans-Serif" font-size="10.00">array_iterator</text>
<text text-anchor="start" x="57.25" y="-6.5" font-family="Helvetica,sans-Serif" font-size="10.00"> </text>
<polygon fill="#666666" stroke="#666666" points="6.75,-50 6.75,-50 110.75,-50 110.75,-50 6.75,-50"/>
<polygon fill="#666666" stroke="#666666" points="6.75,-18 6.75,-18 31,-18 31,-18 6.75,-18"/>
<polygon fill="#666666" stroke="#666666" points="31,-18 31,-18 110.75,-18 110.75,-18 31,-18"/>
<polygon fill="none" stroke="#666666" points="6.75,0 6.75,-80 110.75,-80 110.75,0 6.75,0"/>
</a>
</g>
</g>
<!-- Node2 -->
<g id="Node000002" class="node">
<title>Node2</title>
<g id="a_Node000002"><a xlink:href="classdetail_1_1primitive__iterator__t.html" target="_top" xlink:title=" ">
<polygon fill="white" stroke="none" points="117.5,-356 0,-356 0,-128 117.5,-128 117.5,-356"/>
<text text-anchor="start" x="4" y="-342.5" font-family="Helvetica,sans-Serif" font-size="10.00">detail::primitive_iterator_t</text>
<text text-anchor="start" x="57.25" y="-326.5" font-family="Helvetica,sans-Serif" font-size="10.00"> </text>
<text text-anchor="start" x="15.56" y="-310.5" font-family="Helvetica,sans-Serif" font-size="10.00">+</text>
<text text-anchor="start" x="37.12" y="-310.5" font-family="Helvetica,sans-Serif" font-size="10.00">get_value()</text>
<text text-anchor="start" x="15.56" y="-294.5" font-family="Helvetica,sans-Serif" font-size="10.00">+</text>
<text text-anchor="start" x="37.12" y="-294.5" font-family="Helvetica,sans-Serif" font-size="10.00">set_begin()</text>
<text text-anchor="start" x="15.56" y="-278.5" font-family="Helvetica,sans-Serif" font-size="10.00">+</text>
<text text-anchor="start" x="37.12" y="-278.5" font-family="Helvetica,sans-Serif" font-size="10.00">set_end()</text>
<text text-anchor="start" x="15.56" y="-262.5" font-family="Helvetica,sans-Serif" font-size="10.00">+</text>
<text text-anchor="start" x="37.12" y="-262.5" font-family="Helvetica,sans-Serif" font-size="10.00">is_begin()</text>
<text text-anchor="start" x="15.56" y="-246.5" font-family="Helvetica,sans-Serif" font-size="10.00">+</text>
<text text-anchor="start" x="37.12" y="-246.5" font-family="Helvetica,sans-Serif" font-size="10.00">is_end()</text>
<text text-anchor="start" x="15.56" y="-230.5" font-family="Helvetica,sans-Serif" font-size="10.00">+</text>
<text text-anchor="start" x="37.12" y="-230.5" font-family="Helvetica,sans-Serif" font-size="10.00">operator+()</text>
<text text-anchor="start" x="15.56" y="-214.5" font-family="Helvetica,sans-Serif" font-size="10.00">+</text>
<text text-anchor="start" x="37.12" y="-214.5" font-family="Helvetica,sans-Serif" font-size="10.00">operator++()</text>
<text text-anchor="start" x="15.56" y="-198.5" font-family="Helvetica,sans-Serif" font-size="10.00">+</text>
<text text-anchor="start" x="37.12" y="-198.5" font-family="Helvetica,sans-Serif" font-size="10.00">operator++()</text>
<text text-anchor="start" x="15.56" y="-182.5" font-family="Helvetica,sans-Serif" font-size="10.00">+</text>
<text text-anchor="start" x="37.12" y="-182.5" font-family="Helvetica,sans-Serif" font-size="10.00">operator&#45;&#45;()</text>
<text text-anchor="start" x="15.56" y="-166.5" font-family="Helvetica,sans-Serif" font-size="10.00">+</text>
<text text-anchor="start" x="37.12" y="-166.5" font-family="Helvetica,sans-Serif" font-size="10.00">operator&#45;&#45;()</text>
<text text-anchor="start" x="15.56" y="-150.5" font-family="Helvetica,sans-Serif" font-size="10.00">+</text>
<text text-anchor="start" x="37.12" y="-150.5" font-family="Helvetica,sans-Serif" font-size="10.00">operator+=()</text>
<text text-anchor="start" x="15.56" y="-134.5" font-family="Helvetica,sans-Serif" font-size="10.00">+</text>
<text text-anchor="start" x="37.12" y="-134.5" font-family="Helvetica,sans-Serif" font-size="10.00">operator&#45;=()</text>
<polygon fill="#bfbfbf" stroke="#bfbfbf" points="0,-338 0,-338 117.5,-338 117.5,-338 0,-338"/>
<polygon fill="#bfbfbf" stroke="#bfbfbf" points="0,-322 0,-322 117.5,-322 117.5,-322 0,-322"/>
<polygon fill="none" stroke="#bfbfbf" points="0,-128 0,-356 117.5,-356 117.5,-128 0,-128"/>
</a>
</g>
</g>
<!-- Node2&#45;&gt;Node1 -->
<g id="edge1_Node000001_Node000002" class="edge">
<title>Node2&#45;&gt;Node1</title>
<g id="a_edge1_Node000001_Node000002"><a xlink:title=" ">
<path fill="none" stroke="#63b8ff" d="M58.75,-128.14C58.75,-115.79 58.75,-103.71 58.75,-92.67"/>
<polygon fill="none" stroke="#63b8ff" points="58.75,-92.66 54.75,-86.66 58.75,-80.66 62.75,-86.66 58.75,-92.66"/>
</a>
</g>
<text text-anchor="middle" x="99.25" y="-100.5" font-family="Helvetica,sans-Serif" font-size="10.00" fill="grey"> +primitive_iterator</text>
</g>
</g>
</svg>
