<?xml version="1.0" encoding="UTF-8" standalone="no"?>
<!DOCTYPE svg PUBLIC "-//W3C//DTD SVG 1.1//EN"
 "http://www.w3.org/Graphics/SVG/1.1/DTD/svg11.dtd">
<!-- Generated by graphviz version 12.2.1 (20241206.2353)
 -->
<!-- Title: detail::conjunction&lt; B &gt; Pages: 1 -->
<svg width="120pt" height="148pt"
 viewBox="0.00 0.00 119.50 148.00" xmlns="http://www.w3.org/2000/svg" xmlns:xlink="http://www.w3.org/1999/xlink">
<g id="graph0" class="graph" transform="scale(1 1) rotate(0) translate(4 144)">
<title>detail::conjunction&lt; B &gt;</title>
<!-- Node1 -->
<g id="Node000001" class="node">
<title>Node1</title>
<g id="a_Node000001"><a xlink:title=" ">
<polygon fill="#999999" stroke="none" points="111.5,-52 0,-52 0,0 111.5,0 111.5,-52"/>
<text text-anchor="start" x="4" y="-38.5" font-family="Helvetica,sans-Serif" font-size="10.00">detail::conjunction&lt; B &gt;</text>
<text text-anchor="start" x="54.25" y="-22.5" font-family="Helvetica,sans-Serif" font-size="10.00"> </text>
<text text-anchor="start" x="54.25" y="-6.5" font-family="Helvetica,sans-Serif" font-size="10.00"> </text>
<polygon fill="#666666" stroke="#666666" points="0,-34 0,-34 111.5,-34 111.5,-34 0,-34"/>
<polygon fill="#666666" stroke="#666666" points="0,-18 0,-18 111.5,-18 111.5,-18 0,-18"/>
<polygon fill="none" stroke="#666666" points="0,0 0,-52 111.5,-52 111.5,0 0,0"/>
</a>
</g>
</g>
<!-- Node2 -->
<g id="Node000002" class="node">
<title>Node2</title>
<g id="a_Node000002"><a xlink:title=" ">
<polygon fill="white" stroke="none" points="63.12,-140 48.38,-140 48.38,-88 63.12,-88 63.12,-140"/>
<text text-anchor="start" x="52.38" y="-126.5" font-family="Helvetica,sans-Serif" font-size="10.00">B</text>
<text text-anchor="start" x="54.25" y="-110.5" font-family="Helvetica,sans-Serif" font-size="10.00"> </text>
<text text-anchor="start" x="54.25" y="-94.5" font-family="Helvetica,sans-Serif" font-size="10.00"> </text>
<polygon fill="#bfbfbf" stroke="#bfbfbf" points="48.38,-122 48.38,-122 63.12,-122 63.12,-122 48.38,-122"/>
<polygon fill="#bfbfbf" stroke="#bfbfbf" points="48.38,-106 48.38,-106 63.12,-106 63.12,-106 48.38,-106"/>
<polygon fill="none" stroke="#bfbfbf" points="48.38,-88 48.38,-140 63.12,-140 63.12,-88 48.38,-88"/>
</a>
</g>
</g>
<!-- Node2&#45;&gt;Node1 -->
<g id="edge1_Node000001_Node000002" class="edge">
<title>Node2&#45;&gt;Node1</title>
<g id="a_edge1_Node000001_Node000002"><a xlink:title=" ">
<path fill="none" stroke="#63b8ff" d="M55.75,-76.66C55.75,-68.29 55.75,-59.57 55.75,-51.82"/>
<polygon fill="none" stroke="#63b8ff" points="52.25,-76.61 55.75,-86.61 59.25,-76.61 52.25,-76.61"/>
</a>
</g>
</g>
</g>
</svg>
