<?xml version="1.0" encoding="UTF-8" standalone="no"?>
<!DOCTYPE svg PUBLIC "-//W3C//DTD SVG 1.1//EN"
 "http://www.w3.org/Graphics/SVG/1.1/DTD/svg11.dtd">
<!-- Generated by graphviz version 12.2.1 (20241206.2353)
 -->
<!-- Title: detail::is_constructible_object_type_impl&lt; BasicJsonType, ConstructibleObjectType, enable_if_t&lt; is_detected&lt; mapped_type_t, ConstructibleObjectType &gt;::value &amp;&amp;is_detected&lt; key_type_t, ConstructibleObjectType &gt;::value &gt; &gt; Pages: 1 -->
<svg width="232pt" height="132pt"
 viewBox="0.00 0.00 232.00 132.00" xmlns="http://www.w3.org/2000/svg" xmlns:xlink="http://www.w3.org/1999/xlink">
<g id="graph0" class="graph" transform="scale(1 1) rotate(0) translate(4 128)">
<title>detail::is_constructible_object_type_impl&lt; BasicJsonType, ConstructibleObjectType, enable_if_t&lt; is_detected&lt; mapped_type_t, ConstructibleObjectType &gt;::value &amp;&amp;is_detected&lt; key_type_t, ConstructibleObjectType &gt;::value &gt; &gt;</title>
<!-- Node1 -->
<g id="Node000001" class="node">
<title>Node1</title>
<g id="a_Node000001"><a xlink:title=" ">
<polygon fill="#999999" stroke="none" points="224,-124 0,-124 0,0 224,0 224,-124"/>
<text text-anchor="start" x="4" y="-110.5" font-family="Helvetica,sans-Serif" font-size="10.00">detail::is_constructible</text>
<text text-anchor="start" x="4" y="-98.5" font-family="Helvetica,sans-Serif" font-size="10.00">_object_type_impl&lt; BasicJsonType,</text>
<text text-anchor="start" x="4" y="-86.5" font-family="Helvetica,sans-Serif" font-size="10.00"> ConstructibleObjectType, enable</text>
<text text-anchor="start" x="4" y="-74.5" font-family="Helvetica,sans-Serif" font-size="10.00">_if_t&lt; is_detected&lt; mapped_type</text>
<text text-anchor="start" x="4" y="-62.5" font-family="Helvetica,sans-Serif" font-size="10.00">_t, ConstructibleObjectType &gt;::value</text>
<text text-anchor="start" x="4" y="-50.5" font-family="Helvetica,sans-Serif" font-size="10.00"> &amp;&amp;is_detected&lt; key_type_t, ConstructibleObject</text>
<text text-anchor="start" x="73.38" y="-38.5" font-family="Helvetica,sans-Serif" font-size="10.00">Type &gt;::value &gt; &gt;</text>
<text text-anchor="start" x="49.69" y="-22.5" font-family="Helvetica,sans-Serif" font-size="10.00">+</text>
<text text-anchor="start" x="105.38" y="-22.5" font-family="Helvetica,sans-Serif" font-size="10.00">value</text>
<text text-anchor="start" x="110.5" y="-6.5" font-family="Helvetica,sans-Serif" font-size="10.00"> </text>
<polygon fill="#666666" stroke="#666666" points="0,-34 0,-34 224,-34 224,-34 0,-34"/>
<polygon fill="#666666" stroke="#666666" points="0,-18 0,-18 103.38,-18 103.38,-18 0,-18"/>
<polygon fill="#666666" stroke="#666666" points="103.38,-18 103.38,-18 224,-18 224,-18 103.38,-18"/>
<polygon fill="none" stroke="#666666" points="0,0 0,-124 224,-124 224,0 0,0"/>
</a>
</g>
</g>
</g>
</svg>
