<?xml version="1.0" encoding="UTF-8" standalone="no"?>
<!DOCTYPE svg PUBLIC "-//W3C//DTD SVG 1.1//EN"
 "http://www.w3.org/Graphics/SVG/1.1/DTD/svg11.dtd">
<!-- Generated by graphviz version 12.2.1 (20241206.2353)
 -->
<!-- Title: detail::iterator_traits&lt; T, enable_if_t&lt; !std::is_pointer&lt; T &gt;::value &gt; &gt; Pages: 1 -->
<svg width="135pt" height="172pt"
 viewBox="0.00 0.00 134.50 172.00" xmlns="http://www.w3.org/2000/svg" xmlns:xlink="http://www.w3.org/1999/xlink">
<g id="graph0" class="graph" transform="scale(1 1) rotate(0) translate(4 168)">
<title>detail::iterator_traits&lt; T, enable_if_t&lt; !std::is_pointer&lt; T &gt;::value &gt; &gt;</title>
<!-- Node1 -->
<g id="Node000001" class="node">
<title>Node1</title>
<g id="a_Node000001"><a xlink:title=" ">
<polygon fill="#999999" stroke="none" points="126.5,-76 0,-76 0,0 126.5,0 126.5,-76"/>
<text text-anchor="start" x="4" y="-62.5" font-family="Helvetica,sans-Serif" font-size="10.00">detail::iterator_traits</text>
<text text-anchor="start" x="4" y="-50.5" font-family="Helvetica,sans-Serif" font-size="10.00">&lt; T, enable_if_t&lt; !std</text>
<text text-anchor="start" x="4" y="-38.5" font-family="Helvetica,sans-Serif" font-size="10.00">::is_pointer&lt; T &gt;::value &gt; &gt;</text>
<text text-anchor="start" x="61.75" y="-22.5" font-family="Helvetica,sans-Serif" font-size="10.00"> </text>
<text text-anchor="start" x="61.75" y="-6.5" font-family="Helvetica,sans-Serif" font-size="10.00"> </text>
<polygon fill="#666666" stroke="#666666" points="0,-34 0,-34 126.5,-34 126.5,-34 0,-34"/>
<polygon fill="#666666" stroke="#666666" points="0,-18 0,-18 126.5,-18 126.5,-18 0,-18"/>
<polygon fill="none" stroke="#666666" points="0,0 0,-76 126.5,-76 126.5,0 0,0"/>
</a>
</g>
</g>
<!-- Node2 -->
<g id="Node000002" class="node">
<title>Node2</title>
<g id="a_Node000002"><a xlink:href="structdetail_1_1iterator__types.html" target="_top" xlink:title=" ">
<polygon fill="white" stroke="none" points="123.12,-164 3.38,-164 3.38,-112 123.12,-112 123.12,-164"/>
<text text-anchor="start" x="7.38" y="-150.5" font-family="Helvetica,sans-Serif" font-size="10.00">detail::iterator_types&lt; T &gt;</text>
<text text-anchor="start" x="61.75" y="-134.5" font-family="Helvetica,sans-Serif" font-size="10.00"> </text>
<text text-anchor="start" x="61.75" y="-118.5" font-family="Helvetica,sans-Serif" font-size="10.00"> </text>
<polygon fill="#bfbfbf" stroke="#bfbfbf" points="3.38,-146 3.38,-146 123.12,-146 123.12,-146 3.38,-146"/>
<polygon fill="#bfbfbf" stroke="#bfbfbf" points="3.38,-130 3.38,-130 123.12,-130 123.12,-130 3.38,-130"/>
<polygon fill="none" stroke="#bfbfbf" points="3.38,-112 3.38,-164 123.12,-164 123.12,-112 3.38,-112"/>
</a>
</g>
</g>
<!-- Node2&#45;&gt;Node1 -->
<g id="edge1_Node000001_Node000002" class="edge">
<title>Node2&#45;&gt;Node1</title>
<g id="a_edge1_Node000001_Node000002"><a xlink:title=" ">
<path fill="none" stroke="#63b8ff" d="M63.25,-100.61C63.25,-92.5 63.25,-83.9 63.25,-75.78"/>
<polygon fill="none" stroke="#63b8ff" points="59.75,-100.5 63.25,-110.5 66.75,-100.5 59.75,-100.5"/>
</a>
</g>
</g>
</g>
</svg>
