<?xml version="1.0" encoding="UTF-8" standalone="no"?>
<!DOCTYPE svg PUBLIC "-//W3C//DTD SVG 1.1//EN"
 "http://www.w3.org/Graphics/SVG/1.1/DTD/svg11.dtd">
<!-- Generated by graphviz version 12.2.1 (20241206.2353)
 -->
<!-- Title: detail::is_compatible_integer_type_impl&lt; RealIntegerType, CompatibleNumberIntegerType, enable_if_t&lt; std::is_integral&lt; RealIntegerType &gt;::value &amp;&amp;std::is_integral&lt; CompatibleNumberIntegerType &gt;::value &amp;&amp;!std::is_same&lt; bool, CompatibleNumberIntegerType &gt;::value &gt; &gt; Pages: 1 -->
<svg width="277pt" height="144pt"
 viewBox="0.00 0.00 277.00 144.00" xmlns="http://www.w3.org/2000/svg" xmlns:xlink="http://www.w3.org/1999/xlink">
<g id="graph0" class="graph" transform="scale(1 1) rotate(0) translate(4 140)">
<title>detail::is_compatible_integer_type_impl&lt; RealIntegerType, CompatibleNumberIntegerType, enable_if_t&lt; std::is_integral&lt; RealIntegerType &gt;::value &amp;&amp;std::is_integral&lt; CompatibleNumberIntegerType &gt;::value &amp;&amp;!std::is_same&lt; bool, CompatibleNumberIntegerType &gt;::value &gt; &gt;</title>
<!-- Node1 -->
<g id="Node000001" class="node">
<title>Node1</title>
<g id="a_Node000001"><a xlink:title=" ">
<polygon fill="#999999" stroke="none" points="269,-136 0,-136 0,0 269,0 269,-136"/>
<text text-anchor="start" x="4" y="-122.5" font-family="Helvetica,sans-Serif" font-size="10.00">detail::is_compatible</text>
<text text-anchor="start" x="4" y="-110.5" font-family="Helvetica,sans-Serif" font-size="10.00">_integer_type_impl&lt; RealInteger</text>
<text text-anchor="start" x="4" y="-98.5" font-family="Helvetica,sans-Serif" font-size="10.00">Type, CompatibleNumberIntegerType,</text>
<text text-anchor="start" x="4" y="-86.5" font-family="Helvetica,sans-Serif" font-size="10.00"> enable_if_t&lt; std::is_integral</text>
<text text-anchor="start" x="4" y="-74.5" font-family="Helvetica,sans-Serif" font-size="10.00">&lt; RealIntegerType &gt;::value &amp;&amp;std</text>
<text text-anchor="start" x="4" y="-62.5" font-family="Helvetica,sans-Serif" font-size="10.00">::is_integral&lt; CompatibleNumberIntegerType</text>
<text text-anchor="start" x="4" y="-50.5" font-family="Helvetica,sans-Serif" font-size="10.00"> &gt;::value &amp;&amp;!std::is_same&lt; bool, CompatibleNumberInteger</text>
<text text-anchor="start" x="95.88" y="-38.5" font-family="Helvetica,sans-Serif" font-size="10.00">Type &gt;::value &gt; &gt;</text>
<text text-anchor="start" x="60.94" y="-22.5" font-family="Helvetica,sans-Serif" font-size="10.00">+</text>
<text text-anchor="start" x="127.88" y="-22.5" font-family="Helvetica,sans-Serif" font-size="10.00">value</text>
<text text-anchor="start" x="133" y="-6.5" font-family="Helvetica,sans-Serif" font-size="10.00"> </text>
<polygon fill="#666666" stroke="#666666" points="0,-34 0,-34 269,-34 269,-34 0,-34"/>
<polygon fill="#666666" stroke="#666666" points="0,-18 0,-18 125.88,-18 125.88,-18 0,-18"/>
<polygon fill="#666666" stroke="#666666" points="125.88,-18 125.88,-18 269,-18 269,-18 125.88,-18"/>
<polygon fill="none" stroke="#666666" points="0,0 0,-136 269,-136 269,0 0,0"/>
</a>
</g>
</g>
</g>
</svg>
