<?xml version="1.0" encoding="UTF-8" standalone="no"?>
<!DOCTYPE svg PUBLIC "-//W3C//DTD SVG 1.1//EN"
 "http://www.w3.org/Graphics/SVG/1.1/DTD/svg11.dtd">
<!-- Generated by graphviz version 12.2.1 (20241206.2353)
 -->
<!-- Title: detail::dtoa_impl::cached_power Pages: 1 -->
<svg width="93pt" height="104pt"
 viewBox="0.00 0.00 93.25 104.00" xmlns="http://www.w3.org/2000/svg" xmlns:xlink="http://www.w3.org/1999/xlink">
<g id="graph0" class="graph" transform="scale(1 1) rotate(0) translate(4 100)">
<title>detail::dtoa_impl::cached_power</title>
<!-- Node1 -->
<g id="Node000001" class="node">
<title>Node1</title>
<g id="a_Node000001"><a xlink:title=" ">
<polygon fill="#999999" stroke="none" points="85.25,-96 0,-96 0,0 85.25,0 85.25,-96"/>
<text text-anchor="start" x="4" y="-82.5" font-family="Helvetica,sans-Serif" font-size="10.00">detail::dtoa_impl::</text>
<text text-anchor="start" x="11.12" y="-70.5" font-family="Helvetica,sans-Serif" font-size="10.00">cached_power</text>
<text text-anchor="start" x="19.5" y="-54.5" font-family="Helvetica,sans-Serif" font-size="10.00">+</text>
<text text-anchor="start" x="45" y="-54.5" font-family="Helvetica,sans-Serif" font-size="10.00">f</text>
<text text-anchor="start" x="19.5" y="-38.5" font-family="Helvetica,sans-Serif" font-size="10.00">+</text>
<text text-anchor="start" x="45" y="-38.5" font-family="Helvetica,sans-Serif" font-size="10.00">e</text>
<text text-anchor="start" x="19.5" y="-22.5" font-family="Helvetica,sans-Serif" font-size="10.00">+</text>
<text text-anchor="start" x="45" y="-22.5" font-family="Helvetica,sans-Serif" font-size="10.00">k</text>
<text text-anchor="start" x="41.12" y="-6.5" font-family="Helvetica,sans-Serif" font-size="10.00"> </text>
<polygon fill="#666666" stroke="#666666" points="0,-66 0,-66 85.25,-66 85.25,-66 0,-66"/>
<polygon fill="#666666" stroke="#666666" points="0,-18 0,-18 43,-18 43,-18 0,-18"/>
<polygon fill="#666666" stroke="#666666" points="43,-18 43,-18 85.25,-18 85.25,-18 43,-18"/>
<polygon fill="none" stroke="#666666" points="0,0 0,-96 85.25,-96 85.25,0 0,0"/>
</a>
</g>
</g>
</g>
</svg>
