<?xml version="1.0" encoding="UTF-8" standalone="no"?>
<!DOCTYPE svg PUBLIC "-//W3C//DTD SVG 1.1//EN"
 "http://www.w3.org/Graphics/SVG/1.1/DTD/svg11.dtd">
<!-- Generated by graphviz version 12.2.1 (20241206.2353)
 -->
<!-- Title: detail::has_from_json&lt; BasicJsonType, T, enable_if_t&lt; !is_basic_json&lt; T &gt;::value &gt; &gt; Pages: 1 -->
<svg width="137pt" height="96pt"
 viewBox="0.00 0.00 136.75 96.00" xmlns="http://www.w3.org/2000/svg" xmlns:xlink="http://www.w3.org/1999/xlink">
<g id="graph0" class="graph" transform="scale(1 1) rotate(0) translate(4 92)">
<title>detail::has_from_json&lt; BasicJsonType, T, enable_if_t&lt; !is_basic_json&lt; T &gt;::value &gt; &gt;</title>
<!-- Node1 -->
<g id="Node000001" class="node">
<title>Node1</title>
<g id="a_Node000001"><a xlink:title=" ">
<polygon fill="#999999" stroke="none" points="128.75,-88 0,-88 0,0 128.75,0 128.75,-88"/>
<text text-anchor="start" x="4" y="-74.5" font-family="Helvetica,sans-Serif" font-size="10.00">detail::has_from_json</text>
<text text-anchor="start" x="4" y="-62.5" font-family="Helvetica,sans-Serif" font-size="10.00">&lt; BasicJsonType, T, enable</text>
<text text-anchor="start" x="4" y="-50.5" font-family="Helvetica,sans-Serif" font-size="10.00">_if_t&lt; !is_basic_json&lt; T</text>
<text text-anchor="start" x="36.25" y="-38.5" font-family="Helvetica,sans-Serif" font-size="10.00"> &gt;::value &gt; &gt;</text>
<text text-anchor="start" x="25.88" y="-22.5" font-family="Helvetica,sans-Serif" font-size="10.00">+</text>
<text text-anchor="start" x="57.75" y="-22.5" font-family="Helvetica,sans-Serif" font-size="10.00">value</text>
<text text-anchor="start" x="62.88" y="-6.5" font-family="Helvetica,sans-Serif" font-size="10.00"> </text>
<polygon fill="#666666" stroke="#666666" points="0,-34 0,-34 128.75,-34 128.75,-34 0,-34"/>
<polygon fill="#666666" stroke="#666666" points="0,-18 0,-18 55.75,-18 55.75,-18 0,-18"/>
<polygon fill="#666666" stroke="#666666" points="55.75,-18 55.75,-18 128.75,-18 128.75,-18 55.75,-18"/>
<polygon fill="none" stroke="#666666" points="0,0 0,-88 128.75,-88 128.75,0 0,0"/>
</a>
</g>
</g>
</g>
</svg>
