<?xml version="1.0" encoding="UTF-8" standalone="no"?>
<!DOCTYPE svg PUBLIC "-//W3C//DTD SVG 1.1//EN"
 "http://www.w3.org/Graphics/SVG/1.1/DTD/svg11.dtd">
<!-- Generated by graphviz version 12.2.1 (20241206.2353)
 -->
<!-- Title: detail::is_compatible_integer_type_impl&lt; RealIntegerType, CompatibleNumberIntegerType, typename &gt; Pages: 1 -->
<svg width="181pt" height="296pt"
 viewBox="0.00 0.00 181.00 296.00" xmlns="http://www.w3.org/2000/svg" xmlns:xlink="http://www.w3.org/1999/xlink">
<g id="graph0" class="graph" transform="scale(1 1) rotate(0) translate(4 292)">
<title>detail::is_compatible_integer_type_impl&lt; RealIntegerType, CompatibleNumberIntegerType, typename &gt;</title>
<!-- Node1 -->
<g id="Node000001" class="node">
<title>Node1</title>
<g id="a_Node000001"><a xlink:title=" ">
<polygon fill="#999999" stroke="none" points="173,-200 0,-200 0,-112 173,-112 173,-200"/>
<text text-anchor="start" x="4" y="-186.5" font-family="Helvetica,sans-Serif" font-size="10.00">detail::is_compatible</text>
<text text-anchor="start" x="4" y="-174.5" font-family="Helvetica,sans-Serif" font-size="10.00">_integer_type_impl&lt; RealInteger</text>
<text text-anchor="start" x="4" y="-162.5" font-family="Helvetica,sans-Serif" font-size="10.00">Type, CompatibleNumberIntegerType,</text>
<text text-anchor="start" x="59.12" y="-150.5" font-family="Helvetica,sans-Serif" font-size="10.00"> typename &gt;</text>
<text text-anchor="start" x="85" y="-134.5" font-family="Helvetica,sans-Serif" font-size="10.00"> </text>
<text text-anchor="start" x="85" y="-118.5" font-family="Helvetica,sans-Serif" font-size="10.00"> </text>
<polygon fill="#666666" stroke="#666666" points="0,-146 0,-146 173,-146 173,-146 0,-146"/>
<polygon fill="#666666" stroke="#666666" points="0,-130 0,-130 173,-130 173,-130 0,-130"/>
<polygon fill="none" stroke="#666666" points="0,-112 0,-200 173,-200 173,-112 0,-112"/>
</a>
</g>
</g>
<!-- Node3 -->
<g id="Node000003" class="node">
<title>Node3</title>
<g id="a_Node000003"><a xlink:href="structdetail_1_1is__compatible__integer__type.html" target="_top" xlink:title=" ">
<polygon fill="white" stroke="none" points="164,-76 9,-76 9,0 164,0 164,-76"/>
<text text-anchor="start" x="13" y="-62.5" font-family="Helvetica,sans-Serif" font-size="10.00">detail::is_compatible</text>
<text text-anchor="start" x="13" y="-50.5" font-family="Helvetica,sans-Serif" font-size="10.00">_integer_type&lt; RealIntegerType,</text>
<text text-anchor="start" x="13" y="-38.5" font-family="Helvetica,sans-Serif" font-size="10.00"> CompatibleNumberIntegerType &gt;</text>
<text text-anchor="start" x="85" y="-22.5" font-family="Helvetica,sans-Serif" font-size="10.00"> </text>
<text text-anchor="start" x="85" y="-6.5" font-family="Helvetica,sans-Serif" font-size="10.00"> </text>
<polygon fill="#bfbfbf" stroke="#bfbfbf" points="9,-34 9,-34 164,-34 164,-34 9,-34"/>
<polygon fill="#bfbfbf" stroke="#bfbfbf" points="9,-18 9,-18 164,-18 164,-18 9,-18"/>
<polygon fill="none" stroke="#bfbfbf" points="9,0 9,-76 164,-76 164,0 9,0"/>
</a>
</g>
</g>
<!-- Node1&#45;&gt;Node3 -->
<g id="edge2_Node000001_Node000003" class="edge">
<title>Node1&#45;&gt;Node3</title>
<g id="a_edge2_Node000001_Node000003"><a xlink:title=" ">
<path fill="none" stroke="#63b8ff" d="M86.5,-100.8C86.5,-92.39 86.5,-83.88 86.5,-75.97"/>
<polygon fill="none" stroke="#63b8ff" points="83,-100.62 86.5,-110.62 90,-100.62 83,-100.62"/>
</a>
</g>
</g>
<!-- Node2 -->
<g id="Node000002" class="node">
<title>Node2</title>
<g id="a_Node000002"><a xlink:title=" ">
<polygon fill="white" stroke="none" points="122.75,-288 50.25,-288 50.25,-236 122.75,-236 122.75,-288"/>
<text text-anchor="start" x="54.25" y="-274.5" font-family="Helvetica,sans-Serif" font-size="10.00">std::false_type</text>
<text text-anchor="start" x="85" y="-258.5" font-family="Helvetica,sans-Serif" font-size="10.00"> </text>
<text text-anchor="start" x="85" y="-242.5" font-family="Helvetica,sans-Serif" font-size="10.00"> </text>
<polygon fill="#bfbfbf" stroke="#bfbfbf" points="50.25,-270 50.25,-270 122.75,-270 122.75,-270 50.25,-270"/>
<polygon fill="#bfbfbf" stroke="#bfbfbf" points="50.25,-254 50.25,-254 122.75,-254 122.75,-254 50.25,-254"/>
<polygon fill="none" stroke="#bfbfbf" points="50.25,-236 50.25,-288 122.75,-288 122.75,-236 50.25,-236"/>
</a>
</g>
</g>
<!-- Node2&#45;&gt;Node1 -->
<g id="edge1_Node000001_Node000002" class="edge">
<title>Node2&#45;&gt;Node1</title>
<g id="a_edge1_Node000001_Node000002"><a xlink:title=" ">
<path fill="none" stroke="#63b8ff" d="M86.5,-224.84C86.5,-216.83 86.5,-208.25 86.5,-199.99"/>
<polygon fill="none" stroke="#63b8ff" points="83,-224.58 86.5,-234.58 90,-224.58 83,-224.58"/>
</a>
</g>
</g>
</g>
</svg>
