<?xml version="1.0" encoding="UTF-8" standalone="no"?>
<!DOCTYPE svg PUBLIC "-//W3C//DTD SVG 1.1//EN"
 "http://www.w3.org/Graphics/SVG/1.1/DTD/svg11.dtd">
<!-- Generated by graphviz version 12.2.1 (20241206.2353)
 -->
<!-- Title: detail::is_sax&lt; SAX, BasicJsonType &gt; Pages: 1 -->
<svg width="106pt" height="72pt"
 viewBox="0.00 0.00 106.00 72.00" xmlns="http://www.w3.org/2000/svg" xmlns:xlink="http://www.w3.org/1999/xlink">
<g id="graph0" class="graph" transform="scale(1 1) rotate(0) translate(4 68)">
<title>detail::is_sax&lt; SAX, BasicJsonType &gt;</title>
<!-- Node1 -->
<g id="Node000001" class="node">
<title>Node1</title>
<g id="a_Node000001"><a xlink:title=" ">
<polygon fill="#999999" stroke="none" points="98,-64 0,-64 0,0 98,0 98,-64"/>
<text text-anchor="start" x="4" y="-50.5" font-family="Helvetica,sans-Serif" font-size="10.00">detail::is_sax&lt; SAX,</text>
<text text-anchor="start" x="9.62" y="-38.5" font-family="Helvetica,sans-Serif" font-size="10.00"> BasicJsonType &gt;</text>
<text text-anchor="start" x="18.19" y="-22.5" font-family="Helvetica,sans-Serif" font-size="10.00">+</text>
<text text-anchor="start" x="42.38" y="-22.5" font-family="Helvetica,sans-Serif" font-size="10.00">value</text>
<text text-anchor="start" x="47.5" y="-6.5" font-family="Helvetica,sans-Serif" font-size="10.00"> </text>
<polygon fill="#666666" stroke="#666666" points="0,-34 0,-34 98,-34 98,-34 0,-34"/>
<polygon fill="#666666" stroke="#666666" points="0,-18 0,-18 40.38,-18 40.38,-18 0,-18"/>
<polygon fill="#666666" stroke="#666666" points="40.38,-18 40.38,-18 98,-18 98,-18 40.38,-18"/>
<polygon fill="none" stroke="#666666" points="0,0 0,-64 98,-64 98,0 0,0"/>
</a>
</g>
</g>
</g>
</svg>
