<?xml version="1.0" encoding="UTF-8" standalone="no"?>
<!DOCTYPE svg PUBLIC "-//W3C//DTD SVG 1.1//EN"
 "http://www.w3.org/Graphics/SVG/1.1/DTD/svg11.dtd">
<!-- Generated by graphviz version 12.2.1 (20241206.2353)
 -->
<!-- Title: detail::iterator_types&lt; It, void_t&lt; typename It::difference_type, typename It::value_type, typename It::pointer, typename It::reference, typename It::iterator_category &gt; &gt; Pages: 1 -->
<svg width="168pt" height="120pt"
 viewBox="0.00 0.00 167.50 120.00" xmlns="http://www.w3.org/2000/svg" xmlns:xlink="http://www.w3.org/1999/xlink">
<g id="graph0" class="graph" transform="scale(1 1) rotate(0) translate(4 116)">
<title>detail::iterator_types&lt; It, void_t&lt; typename It::difference_type, typename It::value_type, typename It::pointer, typename It::reference, typename It::iterator_category &gt; &gt;</title>
<!-- Node1 -->
<g id="Node000001" class="node">
<title>Node1</title>
<g id="a_Node000001"><a xlink:title=" ">
<polygon fill="#999999" stroke="none" points="159.5,-112 0,-112 0,0 159.5,0 159.5,-112"/>
<text text-anchor="start" x="4" y="-98.5" font-family="Helvetica,sans-Serif" font-size="10.00">detail::iterator_types</text>
<text text-anchor="start" x="4" y="-86.5" font-family="Helvetica,sans-Serif" font-size="10.00">&lt; It, void_t&lt; typename</text>
<text text-anchor="start" x="4" y="-74.5" font-family="Helvetica,sans-Serif" font-size="10.00"> It::difference_type, typename</text>
<text text-anchor="start" x="4" y="-62.5" font-family="Helvetica,sans-Serif" font-size="10.00"> It::value_type, typename It</text>
<text text-anchor="start" x="4" y="-50.5" font-family="Helvetica,sans-Serif" font-size="10.00">::pointer, typename It::reference,</text>
<text text-anchor="start" x="4" y="-38.5" font-family="Helvetica,sans-Serif" font-size="10.00"> typename It::iterator_category &gt; &gt;</text>
<text text-anchor="start" x="78.25" y="-22.5" font-family="Helvetica,sans-Serif" font-size="10.00"> </text>
<text text-anchor="start" x="78.25" y="-6.5" font-family="Helvetica,sans-Serif" font-size="10.00"> </text>
<polygon fill="#666666" stroke="#666666" points="0,-34 0,-34 159.5,-34 159.5,-34 0,-34"/>
<polygon fill="#666666" stroke="#666666" points="0,-18 0,-18 159.5,-18 159.5,-18 0,-18"/>
<polygon fill="none" stroke="#666666" points="0,0 0,-112 159.5,-112 159.5,0 0,0"/>
</a>
</g>
</g>
</g>
</svg>
