<?xml version="1.0" encoding="UTF-8" standalone="no"?>
<!DOCTYPE svg PUBLIC "-//W3C//DTD SVG 1.1//EN"
 "http://www.w3.org/Graphics/SVG/1.1/DTD/svg11.dtd">
<!-- Generated by graphviz version 12.2.1 (20241206.2353)
 -->
<!-- Title: detail::is_compatible_object_type_impl&lt; BasicJsonType, CompatibleObjectType, typename &gt; Pages: 1 -->
<svg width="150pt" height="184pt"
 viewBox="0.00 0.00 149.50 184.00" xmlns="http://www.w3.org/2000/svg" xmlns:xlink="http://www.w3.org/1999/xlink">
<g id="graph0" class="graph" transform="scale(1 1) rotate(0) translate(4 180)">
<title>detail::is_compatible_object_type_impl&lt; BasicJsonType, CompatibleObjectType, typename &gt;</title>
<!-- Node1 -->
<g id="Node000001" class="node">
<title>Node1</title>
<g id="a_Node000001"><a xlink:title=" ">
<polygon fill="#999999" stroke="none" points="141.5,-88 0,-88 0,0 141.5,0 141.5,-88"/>
<text text-anchor="start" x="4" y="-74.5" font-family="Helvetica,sans-Serif" font-size="10.00">detail::is_compatible</text>
<text text-anchor="start" x="4" y="-62.5" font-family="Helvetica,sans-Serif" font-size="10.00">_object_type_impl&lt; BasicJson</text>
<text text-anchor="start" x="4" y="-50.5" font-family="Helvetica,sans-Serif" font-size="10.00">Type, CompatibleObjectType,</text>
<text text-anchor="start" x="43.38" y="-38.5" font-family="Helvetica,sans-Serif" font-size="10.00"> typename &gt;</text>
<text text-anchor="start" x="69.25" y="-22.5" font-family="Helvetica,sans-Serif" font-size="10.00"> </text>
<text text-anchor="start" x="69.25" y="-6.5" font-family="Helvetica,sans-Serif" font-size="10.00"> </text>
<polygon fill="#666666" stroke="#666666" points="0,-34 0,-34 141.5,-34 141.5,-34 0,-34"/>
<polygon fill="#666666" stroke="#666666" points="0,-18 0,-18 141.5,-18 141.5,-18 0,-18"/>
<polygon fill="none" stroke="#666666" points="0,0 0,-88 141.5,-88 141.5,0 0,0"/>
</a>
</g>
</g>
<!-- Node2 -->
<g id="Node000002" class="node">
<title>Node2</title>
<g id="a_Node000002"><a xlink:title=" ">
<polygon fill="white" stroke="none" points="107,-176 34.5,-176 34.5,-124 107,-124 107,-176"/>
<text text-anchor="start" x="38.5" y="-162.5" font-family="Helvetica,sans-Serif" font-size="10.00">std::false_type</text>
<text text-anchor="start" x="69.25" y="-146.5" font-family="Helvetica,sans-Serif" font-size="10.00"> </text>
<text text-anchor="start" x="69.25" y="-130.5" font-family="Helvetica,sans-Serif" font-size="10.00"> </text>
<polygon fill="#bfbfbf" stroke="#bfbfbf" points="34.5,-158 34.5,-158 107,-158 107,-158 34.5,-158"/>
<polygon fill="#bfbfbf" stroke="#bfbfbf" points="34.5,-142 34.5,-142 107,-142 107,-142 34.5,-142"/>
<polygon fill="none" stroke="#bfbfbf" points="34.5,-124 34.5,-176 107,-176 107,-124 34.5,-124"/>
</a>
</g>
</g>
<!-- Node2&#45;&gt;Node1 -->
<g id="edge1_Node000001_Node000002" class="edge">
<title>Node2&#45;&gt;Node1</title>
<g id="a_edge1_Node000001_Node000002"><a xlink:title=" ">
<path fill="none" stroke="#63b8ff" d="M70.75,-112.84C70.75,-104.83 70.75,-96.25 70.75,-87.99"/>
<polygon fill="none" stroke="#63b8ff" points="67.25,-112.58 70.75,-122.58 74.25,-112.58 67.25,-112.58"/>
</a>
</g>
</g>
</g>
</svg>
