<?xml version="1.0" encoding="UTF-8" standalone="no"?>
<!DOCTYPE svg PUBLIC "-//W3C//DTD SVG 1.1//EN"
 "http://www.w3.org/Graphics/SVG/1.1/DTD/svg11.dtd">
<!-- Generated by graphviz version 12.2.1 (20241206.2353)
 -->
<!-- Title: detail::is_constructible&lt; const std::tuple&lt; Ts... &gt; &gt; Pages: 1 -->
<svg width="138pt" height="296pt"
 viewBox="0.00 0.00 138.25 296.00" xmlns="http://www.w3.org/2000/svg" xmlns:xlink="http://www.w3.org/1999/xlink">
<g id="graph0" class="graph" transform="scale(1 1) rotate(0) translate(4 292)">
<title>detail::is_constructible&lt; const std::tuple&lt; Ts... &gt; &gt;</title>
<!-- Node1 -->
<g id="Node000001" class="node">
<title>Node1</title>
<g id="a_Node000001"><a xlink:title=" ">
<polygon fill="#999999" stroke="none" points="130.25,-64 0,-64 0,0 130.25,0 130.25,-64"/>
<text text-anchor="start" x="4" y="-50.5" font-family="Helvetica,sans-Serif" font-size="10.00">detail::is_constructible</text>
<text text-anchor="start" x="4" y="-38.5" font-family="Helvetica,sans-Serif" font-size="10.00">&lt; const std::tuple&lt; Ts... &gt; &gt;</text>
<text text-anchor="start" x="63.62" y="-22.5" font-family="Helvetica,sans-Serif" font-size="10.00"> </text>
<text text-anchor="start" x="63.62" y="-6.5" font-family="Helvetica,sans-Serif" font-size="10.00"> </text>
<polygon fill="#666666" stroke="#666666" points="0,-34 0,-34 130.25,-34 130.25,-34 0,-34"/>
<polygon fill="#666666" stroke="#666666" points="0,-18 0,-18 130.25,-18 130.25,-18 0,-18"/>
<polygon fill="none" stroke="#666666" points="0,0 0,-64 130.25,-64 130.25,0 0,0"/>
</a>
</g>
</g>
<!-- Node2 -->
<g id="Node000002" class="node">
<title>Node2</title>
<g id="a_Node000002"><a xlink:href="structdetail_1_1is__default__constructible_3_01const_01std_1_1tuple_3_01_ts_8_8_8_01_4_01_4.html" target="_top" xlink:title=" ">
<polygon fill="white" stroke="none" points="116,-176 14.25,-176 14.25,-100 116,-100 116,-176"/>
<text text-anchor="start" x="18.25" y="-162.5" font-family="Helvetica,sans-Serif" font-size="10.00">detail::is_default</text>
<text text-anchor="start" x="18.25" y="-150.5" font-family="Helvetica,sans-Serif" font-size="10.00">_constructible&lt; const</text>
<text text-anchor="start" x="20.5" y="-138.5" font-family="Helvetica,sans-Serif" font-size="10.00"> std::tuple&lt; Ts... &gt; &gt;</text>
<text text-anchor="start" x="63.62" y="-122.5" font-family="Helvetica,sans-Serif" font-size="10.00"> </text>
<text text-anchor="start" x="63.62" y="-106.5" font-family="Helvetica,sans-Serif" font-size="10.00"> </text>
<polygon fill="#bfbfbf" stroke="#bfbfbf" points="14.25,-134 14.25,-134 116,-134 116,-134 14.25,-134"/>
<polygon fill="#bfbfbf" stroke="#bfbfbf" points="14.25,-118 14.25,-118 116,-118 116,-118 14.25,-118"/>
<polygon fill="none" stroke="#bfbfbf" points="14.25,-100 14.25,-176 116,-176 116,-100 14.25,-100"/>
</a>
</g>
</g>
<!-- Node2&#45;&gt;Node1 -->
<g id="edge1_Node000001_Node000002" class="edge">
<title>Node2&#45;&gt;Node1</title>
<g id="a_edge1_Node000001_Node000002"><a xlink:title=" ">
<path fill="none" stroke="#63b8ff" d="M65.12,-88.74C65.12,-80.33 65.12,-71.78 65.12,-64"/>
<polygon fill="none" stroke="#63b8ff" points="61.63,-88.53 65.13,-98.53 68.63,-88.53 61.63,-88.53"/>
</a>
</g>
</g>
<!-- Node3 -->
<g id="Node000003" class="node">
<title>Node3</title>
<g id="a_Node000003"><a xlink:href="structdetail_1_1conjunction.html" target="_top" xlink:title=" ">
<polygon fill="white" stroke="none" points="125,-288 5.25,-288 5.25,-212 125,-212 125,-288"/>
<text text-anchor="start" x="9.25" y="-274.5" font-family="Helvetica,sans-Serif" font-size="10.00">detail::conjunction</text>
<text text-anchor="start" x="9.25" y="-262.5" font-family="Helvetica,sans-Serif" font-size="10.00">&lt; is_default_constructible</text>
<text text-anchor="start" x="42.25" y="-250.5" font-family="Helvetica,sans-Serif" font-size="10.00">&lt; Ts &gt;... &gt;</text>
<text text-anchor="start" x="63.62" y="-234.5" font-family="Helvetica,sans-Serif" font-size="10.00"> </text>
<text text-anchor="start" x="63.62" y="-218.5" font-family="Helvetica,sans-Serif" font-size="10.00"> </text>
<polygon fill="orangered" stroke="orangered" points="5.25,-246 5.25,-246 125,-246 125,-246 5.25,-246"/>
<polygon fill="orangered" stroke="orangered" points="5.25,-230 5.25,-230 125,-230 125,-230 5.25,-230"/>
<polygon fill="none" stroke="orangered" points="5.25,-212 5.25,-288 125,-288 125,-212 5.25,-212"/>
</a>
</g>
</g>
<!-- Node3&#45;&gt;Node2 -->
<g id="edge2_Node000002_Node000003" class="edge">
<title>Node3&#45;&gt;Node2</title>
<g id="a_edge2_Node000002_Node000003"><a xlink:title=" ">
<path fill="none" stroke="#63b8ff" d="M65.12,-200.78C65.12,-192.35 65.12,-183.7 65.12,-175.65"/>
<polygon fill="none" stroke="#63b8ff" points="61.63,-200.55 65.13,-210.55 68.63,-200.55 61.63,-200.55"/>
</a>
</g>
</g>
</g>
</svg>
