<?xml version="1.0" encoding="UTF-8" standalone="no"?>
<!DOCTYPE svg PUBLIC "-//W3C//DTD SVG 1.1//EN"
 "http://www.w3.org/Graphics/SVG/1.1/DTD/svg11.dtd">
<!-- Generated by graphviz version 12.2.1 (20241206.2353)
 -->
<!-- Title: detail::is_compatible_string_type&lt; BasicJsonType, CompatibleStringType &gt; Pages: 1 -->
<svg width="148pt" height="84pt"
 viewBox="0.00 0.00 148.00 84.00" xmlns="http://www.w3.org/2000/svg" xmlns:xlink="http://www.w3.org/1999/xlink">
<g id="graph0" class="graph" transform="scale(1 1) rotate(0) translate(4 80)">
<title>detail::is_compatible_string_type&lt; BasicJsonType, CompatibleStringType &gt;</title>
<!-- Node1 -->
<g id="Node000001" class="node">
<title>Node1</title>
<g id="a_Node000001"><a xlink:title=" ">
<polygon fill="#999999" stroke="none" points="140,-76 0,-76 0,0 140,0 140,-76"/>
<text text-anchor="start" x="4" y="-62.5" font-family="Helvetica,sans-Serif" font-size="10.00">detail::is_compatible</text>
<text text-anchor="start" x="4" y="-50.5" font-family="Helvetica,sans-Serif" font-size="10.00">_string_type&lt; BasicJsonType,</text>
<text text-anchor="start" x="16" y="-38.5" font-family="Helvetica,sans-Serif" font-size="10.00"> CompatibleStringType &gt;</text>
<text text-anchor="start" x="28.69" y="-22.5" font-family="Helvetica,sans-Serif" font-size="10.00">+</text>
<text text-anchor="start" x="63.38" y="-22.5" font-family="Helvetica,sans-Serif" font-size="10.00">value</text>
<text text-anchor="start" x="68.5" y="-6.5" font-family="Helvetica,sans-Serif" font-size="10.00"> </text>
<polygon fill="#666666" stroke="#666666" points="0,-34 0,-34 140,-34 140,-34 0,-34"/>
<polygon fill="#666666" stroke="#666666" points="0,-18 0,-18 61.38,-18 61.38,-18 0,-18"/>
<polygon fill="#666666" stroke="#666666" points="61.38,-18 61.38,-18 140,-18 140,-18 61.38,-18"/>
<polygon fill="none" stroke="#666666" points="0,0 0,-76 140,-76 140,0 0,0"/>
</a>
</g>
</g>
</g>
</svg>
