<?xml version="1.0" encoding="UTF-8" standalone="no"?>
<!DOCTYPE svg PUBLIC "-//W3C//DTD SVG 1.1//EN"
 "http://www.w3.org/Graphics/SVG/1.1/DTD/svg11.dtd">
<!-- Generated by graphviz version 12.2.1 (20241206.2353)
 -->
<!-- Title: detail::is_default_constructible&lt; T &gt; Pages: 1 -->
<svg width="162pt" height="160pt"
 viewBox="0.00 0.00 161.50 160.00" xmlns="http://www.w3.org/2000/svg" xmlns:xlink="http://www.w3.org/1999/xlink">
<g id="graph0" class="graph" transform="scale(1 1) rotate(0) translate(4 156)">
<title>detail::is_default_constructible&lt; T &gt;</title>
<!-- Node1 -->
<g id="Node000001" class="node">
<title>Node1</title>
<g id="a_Node000001"><a xlink:title=" ">
<polygon fill="#999999" stroke="none" points="122.75,-64 30.75,-64 30.75,0 122.75,0 122.75,-64"/>
<text text-anchor="start" x="34.75" y="-50.5" font-family="Helvetica,sans-Serif" font-size="10.00">detail::is_default</text>
<text text-anchor="start" x="34.75" y="-38.5" font-family="Helvetica,sans-Serif" font-size="10.00">_constructible&lt; T &gt;</text>
<text text-anchor="start" x="75.25" y="-22.5" font-family="Helvetica,sans-Serif" font-size="10.00"> </text>
<text text-anchor="start" x="75.25" y="-6.5" font-family="Helvetica,sans-Serif" font-size="10.00"> </text>
<polygon fill="#666666" stroke="#666666" points="30.75,-34 30.75,-34 122.75,-34 122.75,-34 30.75,-34"/>
<polygon fill="#666666" stroke="#666666" points="30.75,-18 30.75,-18 122.75,-18 122.75,-18 30.75,-18"/>
<polygon fill="none" stroke="#666666" points="30.75,0 30.75,-64 122.75,-64 122.75,0 30.75,0"/>
</a>
</g>
</g>
<!-- Node2 -->
<g id="Node000002" class="node">
<title>Node2</title>
<g id="a_Node000002"><a xlink:title=" ">
<polygon fill="white" stroke="none" points="153.5,-152 0,-152 0,-100 153.5,-100 153.5,-152"/>
<text text-anchor="start" x="4" y="-138.5" font-family="Helvetica,sans-Serif" font-size="10.00">std::is_default_constructible&lt; T &gt;</text>
<text text-anchor="start" x="75.25" y="-122.5" font-family="Helvetica,sans-Serif" font-size="10.00"> </text>
<text text-anchor="start" x="75.25" y="-106.5" font-family="Helvetica,sans-Serif" font-size="10.00"> </text>
<polygon fill="#bfbfbf" stroke="#bfbfbf" points="0,-134 0,-134 153.5,-134 153.5,-134 0,-134"/>
<polygon fill="#bfbfbf" stroke="#bfbfbf" points="0,-118 0,-118 153.5,-118 153.5,-118 0,-118"/>
<polygon fill="none" stroke="#bfbfbf" points="0,-100 0,-152 153.5,-152 153.5,-100 0,-100"/>
</a>
</g>
</g>
<!-- Node2&#45;&gt;Node1 -->
<g id="edge1_Node000001_Node000002" class="edge">
<title>Node2&#45;&gt;Node1</title>
<g id="a_edge1_Node000001_Node000002"><a xlink:title=" ">
<path fill="none" stroke="#63b8ff" d="M76.75,-89.06C76.75,-80.78 76.75,-72.04 76.75,-63.98"/>
<polygon fill="none" stroke="#63b8ff" points="73.25,-88.83 76.75,-98.83 80.25,-88.83 73.25,-88.83"/>
</a>
</g>
</g>
</g>
</svg>
