<?xml version="1.0" encoding="UTF-8" standalone="no"?>
<!DOCTYPE svg PUBLIC "-//W3C//DTD SVG 1.1//EN"
 "http://www.w3.org/Graphics/SVG/1.1/DTD/svg11.dtd">
<!-- Generated by graphviz version 12.2.1 (20241206.2353)
 -->
<!-- Title: detail::container_input_adapter_factory_impl::container_input_adapter_factory&lt; ContainerType, void_t&lt; decltype(begin(std::declval&lt; ContainerType &gt;()), end(std::declval&lt; ContainerType &gt;()))&gt; &gt; Pages: 1 -->
<svg width="202pt" height="132pt"
 viewBox="0.00 0.00 202.00 132.00" xmlns="http://www.w3.org/2000/svg" xmlns:xlink="http://www.w3.org/1999/xlink">
<g id="graph0" class="graph" transform="scale(1 1) rotate(0) translate(4 128)">
<title>detail::container_input_adapter_factory_impl::container_input_adapter_factory&lt; ContainerType, void_t&lt; decltype(begin(std::declval&lt; ContainerType &gt;()), end(std::declval&lt; ContainerType &gt;()))&gt; &gt;</title>
<!-- Node1 -->
<g id="Node000001" class="node">
<title>Node1</title>
<g id="a_Node000001"><a xlink:title=" ">
<polygon fill="#999999" stroke="none" points="194,-124 0,-124 0,0 194,0 194,-124"/>
<text text-anchor="start" x="4" y="-110.5" font-family="Helvetica,sans-Serif" font-size="10.00">detail::container_input</text>
<text text-anchor="start" x="4" y="-98.5" font-family="Helvetica,sans-Serif" font-size="10.00">_adapter_factory_impl</text>
<text text-anchor="start" x="4" y="-86.5" font-family="Helvetica,sans-Serif" font-size="10.00">::container_input_adapter</text>
<text text-anchor="start" x="4" y="-74.5" font-family="Helvetica,sans-Serif" font-size="10.00">_factory&lt; ContainerType,</text>
<text text-anchor="start" x="4" y="-62.5" font-family="Helvetica,sans-Serif" font-size="10.00"> void_t&lt; decltype(begin(std</text>
<text text-anchor="start" x="4" y="-50.5" font-family="Helvetica,sans-Serif" font-size="10.00">::declval&lt; ContainerType &gt;()</text>
<text text-anchor="start" x="4" y="-38.5" font-family="Helvetica,sans-Serif" font-size="10.00">), end(std::declval&lt; ContainerType &gt;()))&gt; &gt;</text>
<text text-anchor="start" x="95.5" y="-22.5" font-family="Helvetica,sans-Serif" font-size="10.00"> </text>
<text text-anchor="start" x="39.75" y="-6.5" font-family="Helvetica,sans-Serif" font-size="10.00">+</text>
<text text-anchor="start" x="85.5" y="-6.5" font-family="Helvetica,sans-Serif" font-size="10.00">create()</text>
<polygon fill="#666666" stroke="#666666" points="0,-34 0,-34 194,-34 194,-34 0,-34"/>
<polygon fill="#666666" stroke="#666666" points="0,-18 0,-18 194,-18 194,-18 0,-18"/>
<polygon fill="none" stroke="#666666" points="0,0 0,-124 194,-124 194,0 0,0"/>
</a>
</g>
</g>
</g>
</svg>
