<?xml version="1.0" encoding="UTF-8" standalone="no"?>
<!DOCTYPE svg PUBLIC "-//W3C//DTD SVG 1.1//EN"
 "http://www.w3.org/Graphics/SVG/1.1/DTD/svg11.dtd">
<!-- Generated by graphviz version 12.2.1 (20241206.2353)
 -->
<!-- Title: detail::is_transparent&lt; T &gt; Pages: 1 -->
<svg width="130pt" height="160pt"
 viewBox="0.00 0.00 130.00 160.00" xmlns="http://www.w3.org/2000/svg" xmlns:xlink="http://www.w3.org/1999/xlink">
<g id="graph0" class="graph" transform="scale(1 1) rotate(0) translate(4 156)">
<title>detail::is_transparent&lt; T &gt;</title>
<!-- Node1 -->
<g id="Node000001" class="node">
<title>Node1</title>
<g id="a_Node000001"><a xlink:title=" ">
<polygon fill="#999999" stroke="none" points="122,-52 0,-52 0,0 122,0 122,-52"/>
<text text-anchor="start" x="4" y="-38.5" font-family="Helvetica,sans-Serif" font-size="10.00">detail::is_transparent&lt; T &gt;</text>
<text text-anchor="start" x="59.5" y="-22.5" font-family="Helvetica,sans-Serif" font-size="10.00"> </text>
<text text-anchor="start" x="59.5" y="-6.5" font-family="Helvetica,sans-Serif" font-size="10.00"> </text>
<polygon fill="#666666" stroke="#666666" points="0,-34 0,-34 122,-34 122,-34 0,-34"/>
<polygon fill="#666666" stroke="#666666" points="0,-18 0,-18 122,-18 122,-18 0,-18"/>
<polygon fill="none" stroke="#666666" points="0,0 0,-52 122,-52 122,0 0,0"/>
</a>
</g>
</g>
<!-- Node2 -->
<g id="Node000002" class="node">
<title>Node2</title>
<g id="a_Node000002"><a xlink:title=" ">
<polygon fill="white" stroke="none" points="116.38,-152 5.62,-152 5.62,-88 116.38,-88 116.38,-152"/>
<text text-anchor="start" x="9.62" y="-138.5" font-family="Helvetica,sans-Serif" font-size="10.00">bool_constant&lt; impl</text>
<text text-anchor="start" x="9.62" y="-126.5" font-family="Helvetica,sans-Serif" font-size="10.00">::is_transparent&lt; T &gt;()&gt;</text>
<text text-anchor="start" x="59.5" y="-110.5" font-family="Helvetica,sans-Serif" font-size="10.00"> </text>
<text text-anchor="start" x="59.5" y="-94.5" font-family="Helvetica,sans-Serif" font-size="10.00"> </text>
<polygon fill="#bfbfbf" stroke="#bfbfbf" points="5.62,-122 5.62,-122 116.38,-122 116.38,-122 5.62,-122"/>
<polygon fill="#bfbfbf" stroke="#bfbfbf" points="5.62,-106 5.62,-106 116.38,-106 116.38,-106 5.62,-106"/>
<polygon fill="none" stroke="#bfbfbf" points="5.62,-88 5.62,-152 116.38,-152 116.38,-88 5.62,-88"/>
</a>
</g>
</g>
<!-- Node2&#45;&gt;Node1 -->
<g id="edge1_Node000001_Node000002" class="edge">
<title>Node2&#45;&gt;Node1</title>
<g id="a_edge1_Node000001_Node000002"><a xlink:title=" ">
<path fill="none" stroke="#63b8ff" d="M61,-76.72C61,-68.21 61,-59.53 61,-51.86"/>
<polygon fill="none" stroke="#63b8ff" points="57.5,-76.6 61,-86.6 64.5,-76.6 57.5,-76.6"/>
</a>
</g>
</g>
</g>
</svg>
